<?xml version="1.0" standalone="no"?>
<!DOCTYPE svg PUBLIC "-//W3C//DTD SVG 20010904//EN" "http://www.w3.org/TR/2001/REC-SVG-20010904/DTD/svg10.dtd">

<svg xmlns="http://www.w3.org/2000/svg" 
    xmlns:xlink="http://www.w3.org/1999/xlink"
    width="509.184pt"
    height="64.584pt"
    viewBox="0 0 509.184 64.584">
<defs/>

<path id="shape0"
  transform="matrix(1.63722378615046 0 0 0.999999951225581 255.862354204326 3.88050001174154)"
  fill="#000000"
  stroke="#000000"
  stroke-width="0.2424"
  stroke-linecap="square"
  stroke-linejoin="bevel"
  d="M5.29125 0.00750018L0 0L13.2112 45.3712L15.5925 45.3862L28.3275 0.00749995L23.28 0.00374977L14.4113 32.6325L5.29125 0.00750018"/>

<path id="shape1"
  transform="matrix(1.63722378615046 0 0 0.999999951225581 304.592274844015 15.8880003718615)"
  fill="#000000"
  stroke="#000000"
  stroke-width="0.2424"
  stroke-linecap="square"
  stroke-linejoin="bevel"
  d="M0.011251 2.71713e-07L0 5.04375L3.5925 5.04375L3.60375 32.64L8.17125 32.6288L8.16 0L0.011251 2.71713e-07"/>

<ellipse id="shape2"
  transform="matrix(1.63722378615046 0 0 0.999999951225581 309.814565330179 3.68836597533675)"
  rx="2.78953654104208"
  ry="3.51608822924961"
  cx="2.78953654104208"
  cy="3.51608822924961"
  fill="#000000"
  stroke="#000000"
  stroke-width="0.2424"
  stroke-linecap="square"
  stroke-linejoin="bevel"/>

<path id="shape5"
  transform="matrix(1.63722378615046 0 0 0.999999951225581 369.426343891807 15.8804991824958)"
  fill="#000000"
  stroke="#000000"
  stroke-width="0.2424"
  stroke-linecap="square"
  stroke-linejoin="bevel"
  d="M0 0.0225019L9.1125 33.39L10.3275 33.3675L17.9963 11.5242L25.4287 33.3675L26.6475 33.3638L36.0075 0L31.44 0.0075L25.44 21.135L18.4763 0.00375197L17.2688 1.97416e-06L10.3171 21.1391L4.8 0.0225015L0 0.0225019"/>

<path id="shape6"
  transform="matrix(1.63722378615046 0 0 0.999999951225581 478.993448327786 15.3874467143443)"
  fill="#1a1a1a"
  stroke="#000000"
  stroke-width="0.2424"
  stroke-linecap="square"
  stroke-linejoin="bevel"
  d="M0 33.1218L4.61251 33.1518C4.64616 28.2483 4.38636 19.9405 4.57364 13.5813C4.92367 9.32628 6.34491 5.92527 10.5525 4.74555C12.1523 4.93974 12.7592 5.67553 13.8075 6.17055L15.6043 0.498511L12.1519 0C7.96673 0.00654917 6.23653 2.76159 4.6 5.6215L4.55757 0.46669L0.0179465 0.53033C0.0179465 0.53033 0.0119643 11.3942 0 33.1218Z"/>

<path id="shape11"
  transform="matrix(1.63722382052042 0 0 0.999999972218413 432.280890604912 15.3120524047127)"
  fill="#000000"
  fill-rule="evenodd"
  stroke="#000000"
  stroke-width="0.2424"
  stroke-linecap="square"
  stroke-linejoin="bevel"
  d="M4.42583 17.3708L23.5942 17.5208L23.5762 17.2727L23.5603 17.024L23.5462 16.7745L23.5337 16.5244L23.5228 16.2738L23.5132 16.0227L23.5048 15.7711L23.4974 15.5193L23.4909 15.2671L23.4851 15.0147L23.4798 14.7621L23.4749 14.5094L23.4703 14.2567L23.4656 14.004L23.4609 13.7514L23.4559 13.499L23.4504 13.2468L23.4444 12.9948L23.4376 12.7433L23.4299 12.4921L23.4211 12.2414L23.4111 11.9912L23.3997 11.7416L23.3867 11.4927L23.372 11.2446L23.3554 10.9972L23.3367 10.7506L23.3158 10.505L23.2926 10.2604L23.2668 10.0169L23.2383 9.7744L23.207 9.5331L23.1726 9.2931L23.1351 9.0543L23.0942 8.817L23.0498 8.581L23.0018 8.3466L22.9499 8.1137L22.894 7.8824L22.834 7.6528L22.7697 7.425L22.7008 7.199L22.6274 6.9749L22.5491 6.7527L22.4659 6.5325L22.3776 6.3144L22.2839 6.0984L22.1849 5.8846L22.0802 5.6731L21.9697 5.4639L21.8533 5.2571L21.7309 5.0527L21.6021 4.8509L21.467 4.6516L21.3252 4.455L21.1767 4.2611L21.0214 4.0699L20.8907 3.9044L20.755 3.7412L20.6142 3.5802L20.468 3.4216L20.3165 3.2653L20.1595 3.1116L19.9969 2.9604L19.8286 2.8118L19.6545 2.6658L19.4745 2.5226L19.2885 2.3821L19.0964 2.2445L18.8982 2.1097L18.6936 1.9779L18.4826 1.8492L18.2651 1.7235L18.0409 1.6009L17.8101 1.4816L17.5724 1.3655L17.3278 1.2527L17.0762 1.1433L16.8175 1.0373L16.5515 0.9348L16.2782 0.8359L15.9974 0.7406L15.7091 0.649L15.4132 0.5611L15.1095 0.4771L14.7979 0.3969L14.4784 0.3206L14.1509 0.2483L13.8151 0.18L13.4712 0.1158L13.1188 0.0558L12.758 0L12.3729 0.00594955L11.9294 0.0059L11.4822 0.0727L11.0467 0.1489L10.6229 0.2342L10.2105 0.3286L9.80933 0.4319L9.41923 0.544L9.04003 0.6648L8.67163 0.794L8.31373 0.9316L7.96613 1.0775L7.62883 1.2315L7.30153 1.3934L6.98403 1.5631L6.67613 1.7405L6.37783 1.9255L6.08883 2.1179L5.80893 2.3175L5.53793 2.5244L5.27583 2.7382L5.02223 2.9588L4.77713 3.1862L4.54023 3.4202L4.31143 3.6607L4.09053 3.9075L3.87743 4.1604L3.67173 4.4194L3.47353 4.6843L3.28243 4.955L3.09833 5.2313L2.92113 5.5131L2.75063 5.8003L2.58653 6.0927L2.42873 6.3902L2.27713 6.6927L2.13143 6.9999L1.99153 7.3119L1.85723 7.6284L1.72843 7.9493L1.60483 8.2744L1.48623 8.6037L1.37263 8.937L1.26363 9.2742L1.15923 9.615L1.05923 9.9595L0.96343 10.3074L0.87163 10.6586L0.78363 11.013L0.69933 11.3704L0.61843 11.7307L0.54093 12.0938L0.46653 12.4595L0.39513 12.8277L0.32643 13.1983L0.26033 13.5711L0.19673 13.946L0.13533 14.3228C-0.0558176 16.3916 0.00289617 17.5678 0.0309305 18.8536L0.0692305 19.225L0.10833 19.5954L0.14873 19.9649L0.19063 20.3331L0.23423 20.7L0.27993 21.0654L0.32803 21.4291L0.37873 21.7909L0.43243 22.1508L0.48923 22.5085L0.54963 22.8639L0.61383 23.2167L0.68203 23.5669L0.75473 23.9143L0.83203 24.2587L0.91433 24.6L1.00183 24.938L1.09483 25.2724L1.19373 25.6033L1.29873 25.9303L1.41013 26.2534L1.52823 26.5724L1.65323 26.887L1.78563 27.1973L1.92543 27.5029L2.07323 27.8037L2.22903 28.0996L2.39333 28.3903L2.56633 28.6758L2.74843 28.9559L2.93973 29.2304L3.14063 29.4991L3.35133 29.7619L3.57223 30.0187L3.80363 30.2691L4.04573 30.5132L4.29883 30.7507L4.56333 30.9814L4.83933 31.2053L5.12733 31.422L5.42743 31.6316L5.74003 31.8338L6.06543 32.0284L6.40383 32.2153L6.75553 32.3943L7.12093 32.5653L7.50023 32.728L7.89373 32.8824L8.30173 33.0283L8.72453 33.1655L9.16233 33.2938L9.61553 33.4131L10.0844 33.5232L10.5692 33.6239L11.0703 33.7151L11.5878 33.7967L12.1222 33.8684L12.4232 33.8544L12.7156 33.8409L12.9995 33.8277L13.2751 33.8149L13.5426 33.8024L13.8021 33.7901L14.0538 33.7779L14.2978 33.7657L14.5344 33.7536L14.9568 33.63L15.3523 33.5139L15.7226 33.4046L16.0692 33.3011L16.3936 33.2027L16.6975 33.1084L16.9824 33.0175L17.2499 32.9289L17.5015 32.842L17.7389 32.7558L17.9635 32.6694L18.177 32.582L18.3809 32.4928L18.5768 32.4008L18.7662 32.3053L18.9508 32.2053L19.1321 32.1L19.3116 31.9885L19.491 31.8701L19.6717 31.7437L19.8555 31.6086L20.0437 31.4639L20.2381 31.3087L20.4401 31.1422L20.6514 30.9636L20.8735 30.7718L21.108 30.5662L21.3564 30.3458L19.2542 26.1983L19.0489 26.3985L18.842 26.5911L18.6335 26.7762L18.4234 26.9536L18.2116 27.1235L17.9982 27.2858L17.7832 27.4405L17.5666 27.5877L17.3483 27.7272L17.1284 27.8592L16.9068 27.9836L16.6837 28.1004L16.4589 28.2096L16.2324 28.3112L16.0044 28.4053L15.7747 28.4918L15.5434 28.5707L15.3104 28.642L15.0759 28.7057L14.8397 28.7618L14.6018 28.8104L14.3624 28.8514L14.1213 28.8848L13.8786 28.9106L13.6342 28.9288L13.3883 28.9394L13.1407 28.9425L12.8914 28.938L12.6406 28.9259L12.3881 28.9062L12.134 28.8789L11.8783 28.8441L11.6209 28.8017L11.3619 28.7516L11.1012 28.694L10.839 28.6289L10.5751 28.5561L10.3096 28.4758L10.0424 28.3878L9.77373 28.2923L9.50333 28.1892L9.23123 28.0786L8.95763 27.9603L8.79063 27.8613L8.62663 27.7562L8.46573 27.6448L8.30773 27.5272L8.15283 27.4035L8.00093 27.2735L7.85203 27.1374L7.70613 26.995L7.56323 26.8465L7.42333 26.6917L7.28653 26.5308L7.15263 26.3636L7.02183 26.1903L6.89403 26.0107L6.76923 25.825L6.64743 25.6331L6.52863 25.4349L6.41283 25.2306L6.30013 25.0201L6.19033 24.8033L6.08363 24.5804L5.97993 24.3513L5.87923 24.116L5.78153 23.8745L5.68683 23.6267L5.59513 23.3728L5.50653 23.1127L5.42083 22.8464L5.33823 22.5739L5.25863 22.2952L5.18203 22.0103L5.10843 21.7192L5.03783 21.4219L4.97023 21.1184L4.90573 20.8087L4.84413 20.4928L4.78563 20.1707L4.73013 19.8424L4.67763 19.5079L4.62813 19.1672L4.58163 18.8203L4.53813 18.4672L4.49773 18.108L4.46023 17.7425L4.42583 17.3708M4.74983 13.2908L19.0218 13.3128L19.0249 12.8767L19.0156 12.4539L18.9941 12.0443L18.9605 11.6476L18.915 11.2637L18.8578 10.8924L18.7891 10.5335L18.7091 10.1868L18.6179 9.852L18.5157 9.5291L18.4027 9.2179L18.279 8.918L18.1449 8.6294L18.0005 8.3519L17.8459 8.0853L17.6815 7.8293L17.5073 7.5838L17.3235 7.3486L17.1303 7.1235L16.9279 6.9083L16.7164 6.7028L16.4961 6.5069L16.2671 6.3204L16.0295 6.143L15.7836 5.9745L15.5296 5.8148L15.2676 5.6638L14.9977 5.5211L14.7202 5.3866L14.4353 5.2601L14.1431 5.1415L13.8438 5.0305L13.5375 4.9269L13.2246 4.8306L12.905 4.7414L12.579 4.659L12.2299 4.64995L11.8708 4.6511L11.5044 4.7288L11.1475 4.8164L10.8002 4.914L10.4625 5.0216L10.1344 5.1391L9.81593 5.2665L9.50703 5.4039L9.20763 5.5513L8.91793 5.7086L8.63773 5.8758L8.36713 6.0531L8.10613 6.2402L7.85473 6.4373L7.61293 6.6444L7.38073 6.8614L7.15813 7.0883L6.94503 7.3252L6.74163 7.5721L6.54773 7.8289L6.36343 8.0956L6.18873 8.3723L6.02363 8.659L5.86813 8.9556L5.72223 9.2621L5.58583 9.5786L5.45913 9.905L5.34193 10.2414L5.23433 10.5878L5.13643 10.9441L5.04803 11.3103L4.96923 11.6865L4.89993 12.0727L4.84033 12.4688L4.79033 12.8748L4.74983 13.2908"/>

<path id="shape111"
  transform="matrix(1.63722382052042 0 0 0.999999972218413 327.723426543099 15.3445760846979)"
  fill="#000000"
  fill-rule="evenodd"
  stroke="#000000"
  stroke-width="0.2424"
  stroke-linecap="square"
  stroke-linejoin="bevel"
  d="M4.42583 17.3708L23.5942 17.5208L23.5762 17.2727L23.5603 17.024L23.5462 16.7745L23.5337 16.5244L23.5228 16.2738L23.5132 16.0227L23.5048 15.7711L23.4974 15.5193L23.4909 15.2671L23.4851 15.0147L23.4798 14.7621L23.4749 14.5094L23.4703 14.2567L23.4656 14.004L23.4609 13.7514L23.4559 13.499L23.4504 13.2468L23.4444 12.9948L23.4376 12.7433L23.4299 12.4921L23.4211 12.2414L23.4111 11.9912L23.3997 11.7416L23.3867 11.4927L23.372 11.2446L23.3554 10.9972L23.3367 10.7506L23.3158 10.505L23.2926 10.2604L23.2668 10.0169L23.2383 9.7744L23.207 9.5331L23.1726 9.2931L23.1351 9.0543L23.0942 8.817L23.0498 8.581L23.0018 8.3466L22.9499 8.1137L22.894 7.8824L22.834 7.6528L22.7697 7.425L22.7008 7.199L22.6274 6.9749L22.5491 6.7527L22.4659 6.5325L22.3776 6.3144L22.2839 6.0984L22.1849 5.8846L22.0802 5.6731L21.9697 5.4639L21.8533 5.2571L21.7309 5.0527L21.6021 4.8509L21.467 4.6516L21.3252 4.455L21.1767 4.2611L21.0214 4.0699L20.8907 3.9044L20.755 3.7412L20.6142 3.5802L20.468 3.4216L20.3165 3.2653L20.1595 3.1116L19.9969 2.9604L19.8286 2.8118L19.6545 2.6658L19.4745 2.5226L19.2885 2.3821L19.0964 2.2445L18.8982 2.1097L18.6936 1.9779L18.4826 1.8492L18.2651 1.7235L18.0409 1.6009L17.8101 1.4816L17.5724 1.3655L17.3278 1.2527L17.0762 1.1433L16.8175 1.0373L16.5515 0.9348L16.2782 0.8359L15.9974 0.7406L15.7091 0.649L15.4132 0.5611L15.1095 0.4771L14.7979 0.3969L14.4784 0.3206L14.1509 0.2483L13.8151 0.18L13.4712 0.1158L13.1188 0.0558L12.758 0L12.3866 0.000424792L11.9294 0.0059L11.4822 0.0727L11.0467 0.1489L10.6229 0.2342L10.2105 0.3286L9.80933 0.4319L9.41923 0.544L9.04003 0.6648L8.67163 0.794L8.31373 0.9316L7.96613 1.0775L7.62883 1.2315L7.30153 1.3934L6.98403 1.5631L6.67613 1.7405L6.37783 1.9255L6.08883 2.1179L5.80893 2.3175L5.53793 2.5244L5.27583 2.7382L5.02223 2.9588L4.77713 3.1862L4.54023 3.4202L4.31143 3.6607L4.09053 3.9075L3.87743 4.1604L3.67173 4.4194L3.47353 4.6843L3.28243 4.955L3.09833 5.2313L2.92113 5.5131L2.75063 5.8003L2.58653 6.0927L2.42873 6.3902L2.27713 6.6927L2.13143 6.9999L1.99153 7.3119L1.85723 7.6284L1.72843 7.9493L1.60483 8.2744L1.48623 8.6037L1.37263 8.937L1.26363 9.2742L1.15923 9.615L1.05923 9.9595L0.96343 10.3074L0.87163 10.6586L0.78363 11.013L0.69933 11.3704L0.61843 11.7307L0.54093 12.0938L0.46653 12.4595L0.39513 12.8277L0.32643 13.1983L0.26033 13.5711L0.19673 13.946L0.13533 14.3228C-0.0558176 16.3916 0.00289617 17.5678 0.0309305 18.8536L0.0692305 19.225L0.10833 19.5954L0.14873 19.9649L0.19063 20.3331L0.23423 20.7L0.27993 21.0654L0.32803 21.4291L0.37873 21.7909L0.43243 22.1508L0.48923 22.5085L0.54963 22.8639L0.61383 23.2167L0.68203 23.5669L0.75473 23.9143L0.83203 24.2587L0.91433 24.6L1.00183 24.938L1.09483 25.2724L1.19373 25.6033L1.29873 25.9303L1.41013 26.2534L1.52823 26.5724L1.65323 26.887L1.78563 27.1973L1.92543 27.5029L2.07323 27.8037L2.22903 28.0996L2.39333 28.3903L2.56633 28.6758L2.74843 28.9559L2.93973 29.2304L3.14063 29.4991L3.35133 29.7619L3.57223 30.0187L3.80363 30.2691L4.04573 30.5132L4.29883 30.7507L4.56333 30.9814L4.83933 31.2053L5.12733 31.422L5.42743 31.6316L5.74003 31.8338L6.06543 32.0284L6.40383 32.2153L6.75553 32.3943L7.12093 32.5653L7.50023 32.728L7.89373 32.8824L8.30173 33.0283L8.72453 33.1655L9.16233 33.2938L9.61553 33.4131L10.0844 33.5232L10.5692 33.6239L11.0703 33.7151L11.5878 33.7967L12.1222 33.8684L12.4232 33.8544L12.7156 33.8409L12.9995 33.8277L13.2751 33.8149L13.5426 33.8024L13.8021 33.7901L14.0538 33.7779L14.2978 33.7657L14.5344 33.7536L14.9568 33.63L15.3523 33.5139L15.7226 33.4046L16.0692 33.3011L16.3936 33.2027L16.6975 33.1084L16.9824 33.0175L17.2499 32.9289L17.5015 32.842L17.7389 32.7558L17.9635 32.6694L18.177 32.582L18.3809 32.4928L18.5768 32.4008L18.7662 32.3053L18.9508 32.2053L19.1321 32.1L19.3116 31.9885L19.491 31.8701L19.6717 31.7437L19.8555 31.6086L20.0437 31.4639L20.2381 31.3087L20.4401 31.1422L20.6514 30.9636L20.8735 30.7718L21.108 30.5662L21.3564 30.3458L19.2542 26.1983L19.0489 26.3985L18.842 26.5911L18.6335 26.7762L18.4234 26.9536L18.2116 27.1235L17.9982 27.2858L17.7832 27.4405L17.5666 27.5877L17.3483 27.7272L17.1284 27.8592L16.9068 27.9836L16.6837 28.1004L16.4589 28.2096L16.2324 28.3112L16.0044 28.4053L15.7747 28.4918L15.5434 28.5707L15.3104 28.642L15.0759 28.7057L14.8397 28.7618L14.6018 28.8104L14.3624 28.8514L14.1213 28.8848L13.8786 28.9106L13.6342 28.9288L13.3883 28.9394L13.1407 28.9425L12.8914 28.938L12.6406 28.9259L12.3881 28.9062L12.134 28.8789L11.8783 28.8441L11.6209 28.8017L11.3619 28.7516L11.1012 28.694L10.839 28.6289L10.5751 28.5561L10.3096 28.4758L10.0424 28.3878L9.77373 28.2923L9.50333 28.1892L9.23123 28.0786L8.95763 27.9603L8.79063 27.8613L8.62663 27.7562L8.46573 27.6448L8.30773 27.5272L8.15283 27.4035L8.00093 27.2735L7.85203 27.1374L7.70613 26.995L7.56323 26.8465L7.42333 26.6917L7.28653 26.5308L7.15263 26.3636L7.02183 26.1903L6.89403 26.0107L6.76923 25.825L6.64743 25.6331L6.52863 25.4349L6.41283 25.2306L6.30013 25.0201L6.19033 24.8033L6.08363 24.5804L5.97993 24.3513L5.87923 24.116L5.78153 23.8745L5.68683 23.6267L5.59513 23.3728L5.50653 23.1127L5.42083 22.8464L5.33823 22.5739L5.25863 22.2952L5.18203 22.0103L5.10843 21.7192L5.03783 21.4219L4.97023 21.1184L4.90573 20.8087L4.84413 20.4928L4.78563 20.1707L4.73013 19.8424L4.67763 19.5079L4.62813 19.1672L4.58163 18.8203L4.53813 18.4672L4.49773 18.108L4.46023 17.7425L4.42583 17.3708M4.74983 13.2908L19.0218 13.3128L19.0249 12.8767L19.0156 12.4539L18.9941 12.0443L18.9605 11.6476L18.915 11.2637L18.8578 10.8924L18.7891 10.5335L18.7091 10.1868L18.6179 9.852L18.5157 9.5291L18.4027 9.2179L18.279 8.918L18.1449 8.6294L18.0005 8.3519L17.8459 8.0853L17.6815 7.8293L17.5073 7.5838L17.3235 7.3486L17.1303 7.1235L16.9279 6.9083L16.7164 6.7028L16.4961 6.5069L16.2671 6.3204L16.0295 6.143L15.7836 5.9745L15.5296 5.8148L15.2676 5.6638L14.9977 5.5211L14.7202 5.3866L14.4353 5.2601L14.1431 5.1415L13.8438 5.0305L13.5375 4.9269L13.2246 4.8306L12.905 4.7414L12.579 4.659L12.2327 4.63092L11.8708 4.6511L11.5044 4.7288L11.1475 4.8164L10.8002 4.914L10.4625 5.0216L10.1344 5.1391L9.81593 5.2665L9.50703 5.4039L9.20763 5.5513L8.91793 5.7086L8.63773 5.8758L8.36713 6.0531L8.10613 6.2402L7.85473 6.4373L7.61293 6.6444L7.38073 6.8614L7.15813 7.0883L6.94503 7.3252L6.74163 7.5721L6.54773 7.8289L6.36343 8.0956L6.18873 8.3723L6.02363 8.659L5.86813 8.9556L5.72223 9.2621L5.58583 9.5786L5.45913 9.905L5.34193 10.2414L5.23433 10.5878L5.13643 10.9441L5.04803 11.3103L4.96923 11.6865L4.89993 12.0727L4.84033 12.4688L4.79033 12.8748L4.74983 13.2908"/>

<path id="shape111"
  transform="matrix(1.63722378615046 0 0 0.999999951225581 3.83629485385815 15.1917609827555)"
  fill="#000000"
  stroke="#000000"
  stroke-width="0.2424"
  stroke-linecap="square"
  stroke-linejoin="bevel"
  d="M0.011251 2.71713e-07L0 5.04375L3.5925 5.04375L3.60375 32.64L8.17125 32.6288L8.16 0L0.011251 2.71713e-07"/>

<ellipse id="shape21"
  transform="matrix(1.63722378615046 0 0 0.999999951225581 8.62658535427662 2.99212658623079)"
  rx="2.78953654104208"
  ry="3.51608822924961"
  cx="2.78953654104208"
  cy="3.51608822924961"
  fill="#000000"
  stroke="#000000"
  stroke-width="0.2424"
  stroke-linecap="square"
  stroke-linejoin="bevel"/>

<path id="shape112"
  transform="matrix(1.63722382052042 0 0 0.999999972218413 174.416397133776 14.8421485227036)"
  fill="#000000"
  fill-rule="evenodd"
  stroke="#000000"
  stroke-width="0.2424"
  stroke-linecap="square"
  stroke-linejoin="bevel"
  d="M4.42583 17.4223L23.5942 17.5723L23.5762 17.3242L23.5603 17.0755L23.5462 16.826L23.5337 16.5759L23.5228 16.3253L23.5132 16.0742L23.5048 15.8226L23.4974 15.5708L23.4909 15.3186L23.4851 15.0662L23.4798 14.8136L23.4749 14.5609L23.4703 14.3082L23.4656 14.0555L23.4609 13.8029L23.4559 13.5505L23.4504 13.2983L23.4444 13.0463L23.4376 12.7948L23.4299 12.5436L23.4211 12.2929L23.4111 12.0427L23.3997 11.7931L23.3867 11.5442L23.372 11.2961L23.3554 11.0487L23.3367 10.8021L23.3158 10.5565L23.2926 10.3119L23.2668 10.0684L23.2383 9.8259L23.207 9.5846L23.1726 9.3446L23.1351 9.1058L23.0942 8.8685L23.0498 8.6325L23.0018 8.3981L22.9499 8.1652L22.894 7.9339L22.834 7.7043L22.7697 7.4765L22.7008 7.2505L22.6274 7.0264L22.5491 6.8042L22.4659 6.584L22.3776 6.3659L22.2839 6.1499L22.1849 5.9361L22.0802 5.7246L21.9697 5.5154L21.8533 5.3086L21.7309 5.1042L21.6021 4.9024L21.467 4.7031L21.3252 4.5065L21.1767 4.3126L21.0214 4.1214L20.8907 3.9559L20.755 3.7927L20.6142 3.6317L20.468 3.4731L20.3165 3.3168L20.1595 3.1631L19.9969 3.0119L19.8286 2.8633L19.6545 2.7173L19.4745 2.5741L19.2885 2.4336L19.0964 2.296L18.8982 2.1612L18.6936 2.0294L18.4826 1.9007L18.2651 1.775L18.0409 1.6524L17.8101 1.5331L17.5724 1.417L17.3278 1.3042L17.0762 1.1948L16.8175 1.0888L16.5515 0.9863L16.2782 0.8874L15.9974 0.7921L15.7091 0.7005L15.4132 0.6126L15.1095 0.5286L14.7979 0.4484L14.4784 0.3721L14.1509 0.2998L13.8151 0.2315L13.4712 0.1673L13.1188 0.1073L12.758 0.0515L12.3886 0L11.9294 0.0574L11.4822 0.1242L11.0467 0.2004L10.6229 0.2857L10.2105 0.3801L9.80933 0.4834L9.41923 0.5955L9.04003 0.7163L8.67163 0.8455L8.31373 0.9831L7.96613 1.129L7.62883 1.283L7.30153 1.4449L6.98403 1.6146L6.67613 1.792L6.37783 1.977L6.08883 2.1694L5.80893 2.369L5.53793 2.5759L5.27583 2.7897L5.02223 3.0103L4.77713 3.2377L4.54023 3.4717L4.31143 3.7122L4.09053 3.959L3.87743 4.2119L3.67173 4.4709L3.47353 4.7358L3.28243 5.0065L3.09833 5.2828L2.92113 5.5646L2.75063 5.8518L2.58653 6.1442L2.42873 6.4417L2.27713 6.7442L2.13143 7.0514L1.99153 7.3634L1.85723 7.6799L1.72843 8.0008L1.60483 8.3259L1.48623 8.6552L1.37263 8.9885L1.26363 9.3257L1.15923 9.6665L1.05923 10.011L0.96343 10.3589L0.87163 10.7101L0.78363 11.0645L0.69933 11.4219L0.61843 11.7822L0.54093 12.1453L0.46653 12.511L0.39513 12.8792L0.32643 13.2498L0.26033 13.6226L0.19673 13.9975L0.13533 14.3743C-0.0558176 16.4431 0.00289617 17.6193 0.0309305 18.9051L0.0692305 19.2765L0.10833 19.6469L0.14873 20.0164L0.19063 20.3846L0.23423 20.7515L0.27993 21.1169L0.32803 21.4806L0.37873 21.8424L0.43243 22.2023L0.48923 22.56L0.54963 22.9154L0.61383 23.2682L0.68203 23.6184L0.75473 23.9658L0.83203 24.3102L0.91433 24.6515L1.00183 24.9895L1.09483 25.3239L1.19373 25.6548L1.29873 25.9818L1.41013 26.3049L1.52823 26.6239L1.65323 26.9385L1.78563 27.2488L1.92543 27.5544L2.07323 27.8552L2.22903 28.1511L2.39333 28.4418L2.56633 28.7273L2.74843 29.0074L2.93973 29.2819L3.14063 29.5506L3.35133 29.8134L3.57223 30.0702L3.80363 30.3206L4.04573 30.5647L4.29883 30.8022L4.56333 31.0329L4.83933 31.2568L5.12733 31.4735L5.42743 31.6831L5.74003 31.8853L6.06543 32.0799L6.40383 32.2668L6.75553 32.4458L7.12093 32.6168L7.50023 32.7795L7.89373 32.9339L8.30173 33.0798L8.72453 33.217L9.16233 33.3453L9.61553 33.4646L10.0844 33.5747L10.5692 33.6754L11.0703 33.7666L11.5878 33.8482L12.1222 33.9199L12.4232 33.9059L12.7156 33.8924L12.9995 33.8792L13.2751 33.8664L13.5426 33.8539L13.8021 33.8416L14.0538 33.8294L14.2978 33.8172L14.5344 33.8051L14.9568 33.6815L15.3523 33.5654L15.7226 33.4561L16.0692 33.3526L16.3936 33.2542L16.6975 33.1599L16.9824 33.069L17.2499 32.9804L17.5015 32.8935L17.7389 32.8073L17.9635 32.7209L18.177 32.6335L18.3809 32.5443L18.5768 32.4523L18.7662 32.3568L18.9508 32.2568L19.1321 32.1515L19.3116 32.04L19.491 31.9216L19.6717 31.7952L19.8555 31.6601L20.0437 31.5154L20.2381 31.3602L20.4401 31.1937L20.6514 31.0151L20.8735 30.8233L21.108 30.6177L21.3564 30.3973L19.2542 26.2498L19.0489 26.45L18.842 26.6426L18.6335 26.8277L18.4234 27.0051L18.2116 27.175L17.9982 27.3373L17.7832 27.492L17.5666 27.6392L17.3483 27.7787L17.1284 27.9107L16.9068 28.0351L16.6837 28.1519L16.4589 28.2611L16.2324 28.3627L16.0044 28.4568L15.7747 28.5433L15.5434 28.6222L15.3104 28.6935L15.0759 28.7572L14.8397 28.8133L14.6018 28.8619L14.3624 28.9029L14.1213 28.9363L13.8786 28.9621L13.6342 28.9803L13.3883 28.9909L13.1407 28.994L12.8914 28.9895L12.6406 28.9774L12.3881 28.9577L12.134 28.9304L11.8783 28.8956L11.6209 28.8532L11.3619 28.8031L11.1012 28.7455L10.839 28.6804L10.5751 28.6076L10.3096 28.5273L10.0424 28.4393L9.77373 28.3438L9.50333 28.2407L9.23123 28.1301L8.95763 28.0118L8.79063 27.9128L8.62663 27.8077L8.46573 27.6963L8.30773 27.5787L8.15283 27.455L8.00093 27.325L7.85203 27.1889L7.70613 27.0465L7.56323 26.898L7.42333 26.7432L7.28653 26.5823L7.15263 26.4151L7.02183 26.2418L6.89403 26.0622L6.76923 25.8765L6.64743 25.6846L6.52863 25.4864L6.41283 25.2821L6.30013 25.0716L6.19033 24.8548L6.08363 24.6319L5.97993 24.4028L5.87923 24.1675L5.78153 23.926L5.68683 23.6782L5.59513 23.4243L5.50653 23.1642L5.42083 22.8979L5.33823 22.6254L5.25863 22.3467L5.18203 22.0618L5.10843 21.7707L5.03783 21.4734L4.97023 21.1699L4.90573 20.8602L4.84413 20.5443L4.78563 20.2222L4.73013 19.8939L4.67763 19.5594L4.62813 19.2187L4.58163 18.8718L4.53813 18.5187L4.49773 18.1595L4.46023 17.794L4.42583 17.4223M4.74983 13.3423L19.0218 13.3643L19.0249 12.9282L19.0156 12.5054L18.9941 12.0958L18.9605 11.6991L18.915 11.3152L18.8578 10.9439L18.7891 10.585L18.7091 10.2383L18.6179 9.9035L18.5157 9.5806L18.4027 9.2694L18.279 8.9695L18.1449 8.6809L18.0005 8.4034L17.8459 8.1368L17.6815 7.8808L17.5073 7.6353L17.3235 7.4001L17.1303 7.175L16.9279 6.9598L16.7164 6.7543L16.4961 6.5584L16.2671 6.3719L16.0295 6.1945L15.7836 6.026L15.5296 5.8663L15.2676 5.7153L14.9977 5.5726L14.7202 5.4381L14.4353 5.3116L14.1431 5.193L13.8438 5.082L13.5375 4.9784L13.2246 4.8821L12.905 4.7929L12.579 4.7105L12.2469 4.6348L11.8708 4.7026L11.5044 4.7803L11.1475 4.8679L10.8002 4.9655L10.4625 5.0731L10.1344 5.1906L9.81593 5.318L9.50703 5.4554L9.20763 5.6028L8.91793 5.7601L8.63773 5.9273L8.36713 6.1046L8.10613 6.2917L7.85473 6.4888L7.61293 6.6959L7.38073 6.9129L7.15813 7.1398L6.94503 7.3767L6.74163 7.6236L6.54773 7.8804L6.36343 8.1471L6.18873 8.4238L6.02363 8.7105L5.86813 9.0071L5.72223 9.3136L5.58583 9.6301L5.45913 9.9565L5.34193 10.2929L5.23433 10.6393L5.13643 10.9956L5.04803 11.3618L4.96923 11.738L4.89993 12.1242L4.84033 12.5203L4.79033 12.9263L4.74983 13.3423"/>

<path id="shape01"
  transform="matrix(1.0000000056703 0 0 1.0000000056703 28.9395046308409 14.9324746206374)"
  fill="#000000"
  fill-rule="evenodd"
  stroke="#000000"
  stroke-width="0.07272"
  stroke-linecap="square"
  stroke-linejoin="bevel"
  d="M0 33.2333L0.00450045 0.617276L4.75252 0.624588L7.26525 4.4299C10.2894 1.15477 14.3031 -0.0228948 18.3962 0.0305354C21.1491 -0.0236823 24.0858 0.476839 26.8435 1.60057C28.2753 2.27544 29.5421 3.17922 30.5297 4.33637C31.0444 3.50181 32.1202 2.81404 33.4627 1.99388C36.1785 0.564863 40.1559 -0.0524719 42.6187 0.0034771C48.9929 0.00136003 55.6553 3.07583 55.7278 11.1522L55.7314 33.2344L48.3874 33.2333L48.3838 12.775C48.351 10.0997 47.55 8.17852 46.3413 6.888C45.1657 5.67792 42.1688 4.69291 39.6056 4.87721C37.8171 5.0018 36.0108 5.38503 34.8705 6.07533C33.9418 6.66676 32.3918 7.52203 31.572 9.0707C31.5334 10.0386 31.5427 10.9017 31.5384 12.3565L31.5394 33.2344L24.1942 33.2366L24.1954 11.5635C24.1874 10.8348 24.2255 10.1867 24.2024 9.73591C23.9925 8.5079 23.3558 7.44786 22.4844 6.70835C20.6591 5.25979 17.7826 4.8187 16.0026 4.87525C14.5876 4.79671 11.953 5.35591 9.95626 6.75184C8.86489 7.35279 7.84779 8.115 7.36936 9.15226C7.30508 10.0266 7.39385 10.9846 7.34288 11.8515L7.34624 33.2389C7.34624 33.2389 4.8975 33.237 0 33.2333Z"/>

<path id="shape11"
  transform="matrix(1.0000000056703 0 0 1.0000000056703 92.2950038404688 14.9294000846542)"
  fill="#000000"
  fill-rule="evenodd"
  stroke="#000000"
  stroke-width="0.07272"
  stroke-linecap="square"
  stroke-linejoin="bevel"
  d="M5.305 8.0878L2.231 3.318L2.41 3.2127L2.592 3.1084L2.777 3.0053L2.965 2.9033L3.156 2.8026L3.351 2.703L3.549 2.6047L3.75 2.5077L3.954 2.412L4.161 2.3176L4.371 2.2246L4.583 2.1331L4.799 2.043L5.018 1.9543L5.239 1.8672L5.463 1.7817L5.69 1.6977L5.92 1.6153L6.152 1.5346L6.387 1.4556L6.624 1.3782L6.864 1.3026L7.107 1.2288L7.352 1.1568L7.6 1.0866L7.849 1.0183L8.102 0.952L8.356 0.8875L8.613 0.825L8.872 0.7646L9.133 0.7061L9.397 0.6498L9.662 0.5955L9.93 0.5434L10.2 0.4935L10.471 0.4457L10.745 0.4002L11.021 0.357L11.298 0.316L11.578 0.2774L11.859 0.2412L12.142 0.2073L12.427 0.1759L12.713 0.1469L13.001 0.1205L13.291 0.0965L13.582 0.0752L13.875 0.0564L14.169 0.0402L14.465 0.0267L14.763 0.0159L15.061 0.0079L15.362 0.0025L15.663 0L15.966 0.0003L16.27 0.0035L16.575 0.0095L16.881 0.0185L17.189 0.0304L17.497 0.0453L17.807 0.0632L18.117 0.0842L18.429 0.1083L18.601 0.1195L18.776 0.1317L18.953 0.145L19.132 0.1595L19.313 0.1752L19.496 0.1921L19.68 0.2103L19.867 0.23L20.055 0.251L20.244 0.2735L20.435 0.2976L20.627 0.3233L20.821 0.3506L21.015 0.3796L21.211 0.4104L21.408 0.4431L21.605 0.4776L21.804 0.514L22.003 0.5524L22.203 0.5929L22.403 0.6354L22.604 0.6802L22.805 0.7271L23.006 0.7763L23.208 0.8278L23.41 0.8818L23.611 0.9381L23.813 0.997L24.014 1.0584L24.216 1.1224L24.416 1.189L24.617 1.2584L24.816 1.3306L25.016 1.4056L25.214 1.4835L25.412 1.5643L25.608 1.6481L25.804 1.735L25.999 1.825L26.192 1.9181L26.384 2.0145L26.575 2.1142L26.765 2.2172L26.953 2.3236L27.139 2.4334L27.324 2.5468L27.506 2.6637L27.687 2.7842L27.866 2.9084L28.043 3.0363L28.218 3.168L28.39 3.3035L28.56 3.443L28.728 3.5864L28.893 3.7338L29.055 3.8853L29.215 4.0409L29.372 4.2006L29.526 4.3646L29.678 4.5329L29.826 4.7056L29.971 4.8826L30.113 5.0641L30.175 5.1477L30.237 5.2321L30.297 5.3175L30.357 5.4039L30.417 5.4912L30.475 5.5794L30.533 5.6686L30.59 5.7588L30.646 5.85L30.701 5.9421L30.756 6.0352L30.809 6.1293L30.862 6.2244L30.914 6.3205L30.966 6.4175L31.016 6.5156L31.066 6.6147L31.115 6.7147L31.163 6.8158L31.21 6.9179L31.256 7.0211L31.301 7.1252L31.346 7.2304L31.39 7.3366L31.433 7.4439L31.475 7.5522L31.516 7.6616L31.557 7.772L31.596 7.8834L31.635 7.996L31.673 8.1096L31.71 8.2242L31.746 8.3399L31.781 8.4567L31.815 8.5746L31.849 8.6936L31.881 8.8137L31.913 8.9349L31.943 9.0571L31.973 9.1805L32.002 9.305L32.03 9.4306L32.058 9.5573L32.084 9.6851L32.109 9.814L32.134 9.9441L32.157 10.0753L32.18 10.2077L32.201 10.3412L32.222 10.4758L32.242 10.6116L32.261 10.7486L32.279 10.8867L32.296 11.026L32.312 11.1664L32.327 11.308L32.341 11.4508L32.354 11.5948L32.367 11.74L32.378 11.8863L32.388 12.0339L32.398 12.1826L32.406 12.3326L32.407 12.5269L32.407 12.7208L32.408 12.9144L32.408 13.1075L32.409 13.3003L32.409 13.4928L32.41 13.6848L32.41 13.8765L32.411 14.0679L32.411 14.2589L32.412 14.4495L32.412 14.6398L32.413 14.8297L32.414 15.0193L32.414 15.2086L32.415 15.3975L32.415 15.5861L32.416 15.7744L32.416 15.9624L32.417 16.15L32.418 16.3373L32.418 16.5243L32.419 16.711L32.419 16.8974L32.42 17.0835L32.42 17.2693L32.421 17.4548L32.421 17.64L32.421 17.8249L32.422 18.0095L32.422 18.1939L32.423 18.378L32.423 18.5618L32.423 18.7453L32.424 18.9286L32.424 19.1116L32.424 19.2943L32.425 19.4768L32.425 19.659L32.425 19.841L32.425 20.0228L32.425 20.2043L32.426 20.3855L32.426 20.5666L32.426 20.7473L32.426 20.9279L32.426 21.1083L32.426 21.2884L32.426 21.4683L32.425 21.648L32.425 21.8275L32.425 22.0067L32.425 22.1858L32.425 22.3647L32.424 22.5433L32.424 22.7218L32.423 22.9001L32.423 23.0782L32.422 23.2562L32.422 23.4339L32.421 23.6115L32.421 23.7889L32.42 23.9661L32.418 24.0692L32.417 24.172L32.417 24.2744L32.417 24.3765L32.417 24.4782L32.418 24.5795L32.42 24.6805L32.422 24.7811L32.424 24.8812L32.427 24.981L32.431 25.0804L32.435 25.1793L32.44 25.2778L32.445 25.3759L32.451 25.4736L32.458 25.5708L32.465 25.6676L32.473 25.7639L32.481 25.8597L32.491 25.9551L32.501 26.05L32.511 26.1444L32.523 26.2383L32.535 26.3317L32.548 26.4245L32.561 26.5169L32.576 26.6087L32.591 26.7L32.607 26.7908L32.623 26.881L32.641 26.9707L32.659 27.0598L32.679 27.1483L32.699 27.2362L32.72 27.3236L32.742 27.4104L32.764 27.4965L32.788 27.5821L32.813 27.667L32.838 27.7514L32.865 27.8351L32.892 27.9181L32.921 28.0005L32.95 28.0823L32.98 28.1634L33.012 28.2438L33.044 28.3236L33.078 28.4027L33.112 28.4811L33.148 28.5588L33.184 28.6357L33.222 28.712L33.261 28.7876L33.301 28.8624L33.342 28.9365L33.384 29.0099L33.428 29.0825L33.472 29.1544L33.518 29.2255L33.565 29.2958L33.613 29.3654L33.663 29.4341L33.713 29.5021L33.769 29.5617L33.826 29.6206L33.885 29.679L33.944 29.7368L34.004 29.7939L34.066 29.8504L34.129 29.9064L34.192 29.9617L34.257 30.0163L34.323 30.0703L34.39 30.1237L34.459 30.1765L34.528 30.2286L34.599 30.28L34.671 30.3308L34.744 30.3809L34.819 30.4304L34.894 30.4792L34.971 30.5273L35.049 30.5747L35.128 30.6215L35.209 30.6675L35.291 30.7128L35.374 30.7575L35.458 30.8014L35.544 30.8447L35.631 30.8872L35.719 30.929L35.721 33.8112L35.596 33.8131L35.472 33.8144L35.348 33.8153L35.225 33.8157L35.102 33.8155L34.979 33.8149L34.857 33.8137L34.736 33.8121L34.614 33.8099L34.494 33.8073L34.374 33.8041L34.254 33.8004L34.135 33.7961L34.017 33.7914L33.899 33.7861L33.782 33.7803L33.665 33.7739L33.549 33.767L33.433 33.7596L33.318 33.7516L33.204 33.7431L33.09 33.7341L32.976 33.7245L32.864 33.7143L32.752 33.7036L32.641 33.6923L32.53 33.6805L32.42 33.6681L32.31 33.6551L32.202 33.6416L32.094 33.6275L31.986 33.6128L31.88 33.5976L31.774 33.5818L31.669 33.5654L31.564 33.5484L31.46 33.5308L31.357 33.5126L31.255 33.4939L31.154 33.4745L31.053 33.4545L30.953 33.434L30.854 33.4128L30.755 33.3911L30.658 33.3687L30.561 33.3457L30.465 33.3221L30.37 33.2979L30.276 33.273L30.182 33.2476L30.09 33.2215L29.998 33.1948L29.907 33.1674L29.817 33.1394L29.728 33.1108L29.64 33.0816L29.552 33.0517L29.466 33.0211L29.38 32.9899L29.296 32.9581L29.212 32.9256L29.129 32.8925L29.048 32.8587L28.949 32.8134L28.851 32.7672L28.755 32.7198L28.66 32.6714L28.567 32.622L28.476 32.5714L28.386 32.5198L28.297 32.4671L28.21 32.4133L28.124 32.3584L28.04 32.3024L27.957 32.2453L27.875 32.1871L27.795 32.1277L27.716 32.0672L27.638 32.0056L27.561 31.9429L27.485 31.879L27.411 31.8139L27.338 31.7477L27.266 31.6803L27.195 31.6118L27.125 31.542L27.056 31.4711L26.988 31.399L26.921 31.3257L26.855 31.2512L26.79 31.1755L26.726 31.0986L26.663 31.0204L26.601 30.941L26.54 30.8604L26.479 30.7786L26.419 30.6955L26.36 30.6111L26.302 30.5255L26.245 30.4387L26.188 30.3505L26.132 30.2611L26.076 30.1704L26.021 30.0784L25.967 29.9851L25.913 29.8906L25.86 29.7947L25.808 29.6975L25.756 29.599L25.704 29.4991L25.642 29.5643L25.579 29.6294L25.514 29.6942L25.448 29.7588L25.381 29.8232L25.312 29.8874L25.241 29.9513L25.169 30.015L25.096 30.0785L25.021 30.1417L24.945 30.2047L24.868 30.2674L24.789 30.3298L24.709 30.3919L24.627 30.4538L24.545 30.5154L24.461 30.5766L24.376 30.6376L24.289 30.6982L24.202 30.7585L24.113 30.8185L24.023 30.8781L23.932 30.9374L23.839 30.9964L23.746 31.055L23.651 31.1132L23.555 31.171L23.458 31.2285L23.36 31.2856L23.261 31.3422L23.161 31.3985L23.06 31.4544L22.958 31.5098L22.855 31.5649L22.751 31.6195L22.646 31.6736L22.54 31.7273L22.433 31.7806L22.325 31.8334L22.216 31.8857L22.106 31.9376L21.996 31.989L21.884 32.0398L21.772 32.0902L21.659 32.1401L21.545 32.1895L21.43 32.2384L21.315 32.2867L21.199 32.3345L21.082 32.3818L20.964 32.4285L20.846 32.4746L20.726 32.5202L20.607 32.5653L20.486 32.6097L20.365 32.6536L20.243 32.6969L20.121 32.7396L19.998 32.7817L19.874 32.8231L19.75 32.864L19.625 32.9042L19.5 32.9438L19.367 32.9789L19.234 33.0132L19.101 33.0468L18.967 33.0796L18.832 33.1117L18.697 33.1431L18.562 33.1737L18.426 33.2036L18.289 33.2328L18.153 33.2612L18.015 33.289L17.878 33.316L17.74 33.3423L17.602 33.3678L17.464 33.3927L17.325 33.4169L17.186 33.4403L17.047 33.4631L16.908 33.4852L16.768 33.5065L16.629 33.5272L16.489 33.5472L16.349 33.5665L16.209 33.5851L16.069 33.6031L15.929 33.6204L15.789 33.637L15.649 33.6529L15.509 33.6681L15.369 33.6827L15.229 33.6967L15.09 33.71L14.95 33.7226L14.811 33.7346L14.671 33.7459L14.532 33.7566L14.393 33.7666L14.255 33.776L14.116 33.7847L13.978 33.7929L13.84 33.8004L13.703 33.8072L13.566 33.8135L13.429 33.8191L13.292 33.8241L13.156 33.8285L13.021 33.8323L12.886 33.8354L12.751 33.838L12.617 33.84L12.483 33.8413L12.35 33.8421L12.218 33.8422L12.086 33.8418L11.954 33.8408L11.824 33.8392L11.694 33.837L11.564 33.8343L11.436 33.8309L11.308 33.827L11.181 33.8225L11.054 33.8175L10.929 33.8119L10.704 33.7851L10.478 33.755L10.251 33.7214L10.022 33.6844L9.793 33.644L9.562 33.6001L9.33 33.5526L9.098 33.5016L8.865 33.447L8.632 33.3888L8.399 33.327L8.166 33.2615L7.933 33.1922L7.7 33.1193L7.468 33.0425L7.236 32.962L7.006 32.8777L6.776 32.7895L6.547 32.6974L6.319 32.6014L6.093 32.5015L5.869 32.3975L5.646 32.2896L5.425 32.1777L5.207 32.0616L4.99 31.9415L4.776 31.8173L4.564 31.6889L4.355 31.5563L4.149 31.4195L3.946 31.2784L3.747 31.1331L3.55 30.9834L3.357 30.8295L3.168 30.6711L2.982 30.5084L2.801 30.3412L2.623 30.1696L2.45 29.9935L2.282 29.8128L2.118 29.6277L1.958 29.4379L1.804 29.2435L1.655 29.0445L1.511 28.8409L1.372 28.6325L1.239 28.4194L1.112 28.2015L0.991 27.9789L0.875 27.7514L0.766 27.5191L0.664 27.2819L0.567 27.0398L0.478 26.7928L0.395 26.5408L0.32 26.2837L0.251 26.0217L0.19 25.7546L0.137 25.4824L0.091 25.2051L0.052 24.9226L0.022 24.635L0 24.3421L0 24.2677L0 24.1935L0.001 24.1192L0.002 24.0451L0.004 23.9711L0.007 23.8971L0.01 23.8233L0.014 23.7495L0.019 23.6758L0.024 23.6022L0.03 23.5287L0.036 23.4554L0.043 23.3821L0.05 23.3089L0.058 23.2359L0.067 23.163L0.076 23.0902L0.086 23.0175L0.096 22.9449L0.107 22.8724L0.119 22.8001L0.131 22.7279L0.144 22.6559L0.157 22.584L0.17 22.5122L0.185 22.4406L0.199 22.3691L0.215 22.2978L0.231 22.2266L0.247 22.1555L0.264 22.0846L0.281 22.0139L0.299 21.9434L0.318 21.873L0.337 21.8028L0.357 21.7327L0.41 21.5721L0.466 21.4129L0.525 21.2552L0.588 21.0989L0.654 20.9441L0.723 20.7908L0.794 20.6389L0.869 20.4885L0.946 20.3395L1.026 20.1921L1.108 20.0462L1.194 19.9018L1.281 19.7589L1.371 19.6176L1.464 19.4778L1.559 19.3396L1.656 19.2029L1.755 19.0678L1.856 18.9343L1.96 18.8023L2.065 18.672L2.172 18.5433L2.281 18.4162L2.392 18.2907L2.504 18.1668L2.618 18.0446L2.734 17.924L2.851 17.8051L2.97 17.6879L3.089 17.5723L3.21 17.4584L3.333 17.3463L3.456 17.2358L3.581 17.127L3.706 17.02L3.833 16.9147L3.96 16.8111L4.088 16.7093L4.217 16.6092L4.346 16.511L4.476 16.4144L4.607 16.3197L4.738 16.2268L4.869 16.1356L5.001 16.0463L5.133 15.9588L5.265 15.8731L5.397 15.7893L5.53 15.7073L5.662 15.6272L5.794 15.5489L5.926 15.4725L6.058 15.398L6.189 15.3254L6.32 15.2547L6.451 15.1859L6.581 15.119L6.71 15.0541L6.839 14.9911L6.967 14.93L7.095 14.8709L7.221 14.8137L7.347 14.7585L7.533 14.6689L7.719 14.5813L7.906 14.4956L8.094 14.4119L8.283 14.3302L8.473 14.2504L8.664 14.1726L8.855 14.0966L9.047 14.0225L9.24 13.9503L9.434 13.8799L9.629 13.8114L9.824 13.7446L10.021 13.6797L10.218 13.6165L10.416 13.5551L10.615 13.4954L10.816 13.4375L11.016 13.3813L11.218 13.3267L11.421 13.2738L11.625 13.2226L11.83 13.173L12.035 13.125L12.242 13.0786L12.45 13.0339L12.658 12.9906L12.868 12.9489L13.078 12.9088L13.29 12.8701L13.503 12.833L13.716 12.7973L13.931 12.763L14.147 12.7303L14.363 12.6989L14.581 12.6689L14.8 12.6403L15.02 12.6131L15.241 12.5873L15.463 12.5628L15.686 12.5395L15.91 12.5176L16.136 12.497L16.362 12.4776L16.59 12.4595L16.819 12.4426L17.049 12.4269L17.28 12.4124L17.512 12.3991L17.745 12.3869L17.98 12.3759L18.216 12.366L18.453 12.3572L18.691 12.3494L18.93 12.3428L19.171 12.3372L19.413 12.3326L19.656 12.329L19.9 12.3265L20.145 12.3249L20.392 12.3243L20.64 12.3246L20.89 12.3258L20.958 12.3355L21.026 12.3454L21.095 12.3554L21.163 12.3655L21.232 12.3758L21.301 12.3863L21.37 12.3969L21.439 12.4077L21.508 12.4186L21.577 12.4297L21.646 12.441L21.715 12.4523L21.784 12.4639L21.854 12.4756L21.923 12.4874L21.993 12.4994L22.062 12.5115L22.132 12.5238L22.202 12.5363L22.272 12.5489L22.342 12.5616L22.412 12.5745L22.482 12.5875L22.552 12.6007L22.623 12.614L22.693 12.6275L22.763 12.6411L22.834 12.6549L22.905 12.6688L22.975 12.6828L23.046 12.697L23.117 12.7114L23.188 12.7259L23.259 12.7405L23.33 12.7553L23.401 12.7702L23.473 12.7853L23.544 12.8005L23.616 12.8158L23.687 12.8313L23.759 12.8469L23.831 12.8627L23.902 12.8786L23.974 12.8946L24.046 12.9108L24.119 12.9271L24.191 12.9436L24.263 12.9602L24.335 12.9769L24.408 12.9938L24.48 13.0108L24.553 13.0279L24.626 13.0452L24.698 13.0626L24.771 13.0802L24.844 13.0979L24.917 13.1157L24.991 13.1336L25.064 13.1517L25.058 12.9417L25.049 12.7345L25.038 12.5302L25.023 12.3288L25.006 12.1302L24.986 11.9344L24.964 11.7415L24.938 11.5515L24.91 11.3643L24.88 11.18L24.846 10.9986L24.809 10.82L24.77 10.6442L24.728 10.4714L24.684 10.3013L24.636 10.1342L24.586 9.9699L24.533 9.8084L24.477 9.6498L24.419 9.4941L24.358 9.3412L24.294 9.1912L24.227 9.044L24.157 8.8997L24.085 8.7582L24.01 8.6196L23.932 8.4839L23.852 8.351L23.768 8.221L23.682 8.0938L23.594 7.9695L23.502 7.8481L23.408 7.7295L23.31 7.6137L23.21 7.5009L23.108 7.3908L23.002 7.2837L22.894 7.1794L22.783 7.0779L22.67 6.9793L22.553 6.8836L22.434 6.7907L22.312 6.7007L22.187 6.6135L22.06 6.5292L21.929 6.4478L21.796 6.3692L21.661 6.2934L21.522 6.2206L21.381 6.1505L21.237 6.0834L21.09 6.0191L20.94 5.9576L20.788 5.899L20.633 5.8433L20.475 5.7904L20.314 5.7404L20.151 5.6932L19.985 5.6489L19.816 5.6075L19.644 5.5689L19.469 5.5332L19.292 5.5003L19.15 5.4744L19.008 5.4494L18.866 5.4254L18.725 5.4023L18.583 5.3801L18.442 5.3589L18.301 5.3387L18.161 5.3193L18.02 5.3009L17.88 5.2835L17.74 5.2669L17.6 5.2514L17.461 5.2367L17.322 5.223L17.182 5.2103L17.044 5.1984L16.905 5.1875L16.767 5.1776L16.628 5.1686L16.491 5.1605L16.353 5.1534L16.215 5.1472L16.078 5.1419L15.941 5.1376L15.804 5.1342L15.668 5.1318L15.531 5.1303L15.395 5.1297L15.259 5.1301L15.124 5.1314L14.988 5.1337L14.853 5.1369L14.718 5.141L14.584 5.1461L14.449 5.1521L14.315 5.1591L14.181 5.1669L14.047 5.1758L13.913 5.1855L13.78 5.1962L13.647 5.2079L13.514 5.2205L13.381 5.234L13.249 5.2484L13.116 5.2638L12.984 5.2802L12.853 5.2975L12.721 5.3157L12.59 5.3348L12.459 5.3549L12.328 5.376L12.197 5.3979L12.067 5.4208L11.936 5.4447L11.807 5.4695L11.677 5.4952L11.547 5.5219L11.418 5.5495L11.289 5.578L11.16 5.6075L11.032 5.6379L10.903 5.6693L10.775 5.7016L10.677 5.7188L10.58 5.7367L10.483 5.7553L10.386 5.7746L10.29 5.7945L10.194 5.8151L10.098 5.8363L10.003 5.8582L9.908 5.8808L9.814 5.904L9.72 5.9279L9.626 5.9525L9.532 5.9778L9.439 6.0037L9.346 6.0302L9.254 6.0575L9.162 6.0854L9.07 6.1139L8.979 6.1432L8.888 6.1731L8.797 6.2036L8.707 6.2348L8.617 6.2667L8.527 6.2993L8.438 6.3325L8.349 6.3664L8.26 6.4009L8.172 6.4362L8.084 6.472L7.997 6.5086L7.909 6.5458L7.823 6.5837L7.736 6.6222L7.65 6.6614L7.564 6.7013L7.479 6.7418L7.394 6.783L7.309 6.8249L7.225 6.8674L7.141 6.9106L7.057 6.9545L6.974 6.999L6.891 7.0442L6.808 7.0901L6.726 7.1366L6.644 7.1838L6.562 7.2317L6.481 7.2802L6.4 7.3294L6.32 7.3792L6.24 7.4297L6.16 7.4809L6.08 7.5328L6.001 7.5853L5.922 7.6384L5.844 7.6923L5.766 7.7468L5.688 7.802L5.611 7.8578L5.534 7.9143L5.457 7.9715L5.381 8.0293L5.305 8.0878M25.04 25.1566L24.922 25.2759L24.801 25.3939L24.679 25.5106L24.554 25.626L24.428 25.7401L24.299 25.8529L24.169 25.9643L24.037 26.0743L23.903 26.1829L23.767 26.29L23.629 26.3957L23.49 26.4998L23.349 26.6025L23.207 26.7036L23.063 26.8032L22.917 26.9012L22.77 26.9975L22.622 27.0923L22.472 27.1854L22.321 27.2768L22.169 27.3665L22.015 27.4544L21.86 27.5407L21.704 27.6251L21.547 27.7077L21.389 27.7886L21.229 27.8675L21.069 27.9446L20.908 28.0198L20.746 28.0931L20.583 28.1644L20.419 28.2338L20.254 28.3012L20.089 28.3666L19.922 28.4299L19.756 28.4912L19.588 28.5504L19.42 28.6074L19.252 28.6624L19.083 28.7152L18.913 28.7658L18.743 28.8142L18.573 28.8603L18.402 28.9042L18.232 28.9459L18.06 28.9852L17.889 29.0222L17.718 29.0569L17.546 29.0892L17.374 29.1191L17.203 29.1466L17.031 29.1716L16.86 29.1942L16.688 29.2142L16.517 29.2318L16.346 29.2468L16.175 29.2593L16.004 29.2691L15.834 29.2764L15.664 29.281L15.494 29.283L15.325 29.2823L15.156 29.2789L15.082 29.2782L15.007 29.2775L14.929 29.2768L14.848 29.2759L14.766 29.2748L14.682 29.2736L14.596 29.2721L14.508 29.2703L14.419 29.2681L14.327 29.2656L14.234 29.2626L14.139 29.2592L14.043 29.2552L13.946 29.2507L13.846 29.2456L13.746 29.2399L13.644 29.2334L13.541 29.2262L13.437 29.2182L13.331 29.2094L13.225 29.1998L13.118 29.1892L13.009 29.1777L12.9 29.1651L12.79 29.1515L12.679 29.1369L12.568 29.121L12.455 29.1041L12.343 29.0859L12.229 29.0664L12.116 29.0456L12.001 29.0235L11.887 28.9999L11.772 28.975L11.657 28.9485L11.542 28.9205L11.427 28.891L11.312 28.8598L11.196 28.8269L11.081 28.7924L10.966 28.7561L10.851 28.718L10.737 28.6781L10.623 28.6363L10.509 28.5926L10.395 28.5468L10.283 28.4991L10.17 28.4494L10.059 28.3975L9.948 28.3435L9.837 28.2872L9.728 28.2288L9.62 28.1681L9.512 28.105L9.405 28.0396L9.3 27.9718L9.195 27.9015L9.092 27.8287L8.99 27.7534L8.889 27.6755L8.79 27.595L8.692 27.5118L8.595 27.4259L8.553 27.3746L8.51 27.3226L8.468 27.2696L8.427 27.2158L8.387 27.161L8.347 27.1054L8.307 27.0489L8.268 26.9915L8.23 26.9332L8.193 26.8739L8.156 26.8138L8.119 26.7526L8.084 26.6906L8.049 26.6276L8.014 26.5637L7.981 26.4988L7.948 26.4329L7.915 26.3661L7.884 26.2982L7.853 26.2294L7.823 26.1596L7.793 26.0888L7.764 26.017L7.736 25.9442L7.709 25.8704L7.682 25.7955L7.657 25.7196L7.632 25.6427L7.607 25.5647L7.584 25.4857L7.561 25.4056L7.539 25.3244L7.518 25.2422L7.498 25.1589L7.478 25.0745L7.46 24.989L7.442 24.9024L7.425 24.8148L7.409 24.7259L7.394 24.636L7.379 24.545L7.366 24.4528L7.353 24.3595L7.342 24.265L7.339 24.1219L7.342 23.9795L7.349 23.8379L7.361 23.6972L7.379 23.5572L7.4 23.418L7.427 23.2797L7.458 23.1424L7.493 23.0059L7.533 22.8703L7.576 22.7357L7.624 22.6021L7.677 22.4695L7.733 22.3379L7.792 22.2073L7.856 22.0778L7.923 21.9494L7.994 21.8221L8.069 21.696L8.146 21.571L8.227 21.4472L8.312 21.3246L8.399 21.2032L8.49 21.0831L8.583 20.9643L8.679 20.8467L8.778 20.7305L8.88 20.6156L8.984 20.5021L9.091 20.39L9.2 20.2793L9.312 20.17L9.425 20.0622L9.541 19.9559L9.659 19.8511L9.779 19.7478L9.9 19.646L10.024 19.5458L10.149 19.4473L10.275 19.3503L10.404 19.255L10.533 19.1613L10.664 19.0694L10.796 18.9791L10.929 18.8906L11.063 18.8038L11.198 18.7189L11.334 18.6357L11.471 18.5543L11.608 18.4748L11.746 18.3972L11.884 18.3215L12.023 18.2477L12.162 18.1758L12.301 18.1059L12.44 18.0379L12.58 17.972L12.719 17.9081L12.858 17.8463L12.997 17.7866L13.136 17.7289L13.274 17.6734L13.411 17.62L13.576 17.5556L13.742 17.4935L13.908 17.4335L14.076 17.3758L14.245 17.3202L14.415 17.2668L14.586 17.2156L14.758 17.1664L14.931 17.1194L15.104 17.0745L15.279 17.0316L15.455 16.9908L15.631 16.952L15.808 16.9153L15.986 16.8805L16.165 16.8478L16.345 16.817L16.525 16.7881L16.706 16.7612L16.888 16.7362L17.07 16.7131L17.253 16.6918L17.437 16.6724L17.621 16.6549L17.806 16.6392L17.992 16.6252L18.178 16.6131L18.364 16.6027L18.551 16.5941L18.739 16.5872L18.927 16.582L19.115 16.5785L19.304 16.5767L19.493 16.5766L19.682 16.5781L19.872 16.5812L20.062 16.5859L20.253 16.5922L20.444 16.6001L20.635 16.6096L20.826 16.6205L21.017 16.633L21.209 16.647L21.401 16.6625L21.593 16.6794L21.785 16.6978L21.977 16.7176L22.169 16.7388L22.362 16.7614L22.554 16.7853L22.746 16.8107L22.938 16.8373L23.131 16.8653L23.323 16.8946L23.515 16.9252L23.707 16.957L23.899 16.9901L24.091 17.0244L24.282 17.0599L24.473 17.0966L24.665 17.1345L24.855 17.1736L25.046 17.2137L25.046 17.3758L25.046 17.4559L25.046 17.606L25.046 17.7921L25.046 18.0142L25.045 18.4645L25.045 18.7827L25.045 19.0148L25.045 19.1369L25.045 19.3931L25.044 19.5272L25.044 19.8073L25.044 19.9534L25.044 20.2576L25.044 20.5778L25.043 20.914L25.043 21.6344L25.043 22.0187L25.042 22.2168L25.042 22.4189L25.042 22.8352L25.042 23.0493L25.042 23.2674L25.041 23.9459L25.041 24.18L25.041 24.4181L25.041 24.6603L25.04 24.9064L25.04 25.1566"/>

<path id="shape21"
  transform="matrix(1.0000000056703 0 0 1.0000000056703 135.216004083844 13.4629000763387)"
  fill="#000000"
  fill-rule="evenodd"
  stroke="#000000"
  stroke-width="0.07272"
  stroke-linecap="square"
  stroke-linejoin="bevel"
  d="M4.541 39.0656L0.637 43.6015L0.728 43.6599L0.821 43.7181L0.915 43.7762L1.012 43.8342L1.111 43.892L1.212 43.9496L1.315 44.0071L1.42 44.0644L1.526 44.1215L1.635 44.1784L1.745 44.2351L1.857 44.2916L1.971 44.3479L2.086 44.4039L2.204 44.4597L2.323 44.5153L2.444 44.5706L2.566 44.6257L2.69 44.6805L2.816 44.735L2.943 44.7893L3.072 44.8432L3.202 44.8969L3.334 44.9502L3.468 45.0032L3.602 45.0559L3.739 45.1083L3.877 45.1603L4.016 45.212L4.156 45.2633L4.298 45.3143L4.441 45.3649L4.586 45.4151L4.732 45.4649L4.879 45.5143L5.027 45.5633L5.177 45.6119L5.328 45.6601L5.48 45.7078L5.633 45.7552L5.787 45.802L5.942 45.8484L6.099 45.8944L6.256 45.9399L6.415 45.9849L6.574 46.0294L6.735 46.0734L6.896 46.1169L7.058 46.1599L7.222 46.2024L7.386 46.2444L7.551 46.2858L7.717 46.3267L7.883 46.367L8.051 46.4068L8.219 46.446L8.388 46.4846L8.558 46.5226L8.728 46.5601L8.899 46.5969L9.071 46.6332L9.243 46.6688L9.416 46.7038L9.572 46.7378L9.729 46.7712L9.887 46.8039L10.047 46.836L10.207 46.8675L10.368 46.8983L10.53 46.9284L10.693 46.9578L10.857 46.9866L11.022 47.0147L11.188 47.042L11.355 47.0687L11.522 47.0947L11.69 47.1199L11.859 47.1445L12.028 47.1682L12.199 47.1913L12.369 47.2136L12.541 47.2352L12.713 47.2559L12.886 47.276L13.059 47.2952L13.232 47.3137L13.406 47.3314L13.581 47.3482L13.756 47.3643L13.931 47.3796L14.107 47.394L14.283 47.4076L14.459 47.4204L14.636 47.4323L14.813 47.4434L14.99 47.4537L15.167 47.463L15.344 47.4715L15.521 47.4791L15.699 47.4859L15.877 47.4917L16.054 47.4967L16.232 47.5007L16.409 47.5038L16.587 47.506L16.764 47.5073L16.942 47.5077L17.119 47.5071L17.296 47.5055L17.472 47.503L17.649 47.4995L17.825 47.4951L18.001 47.4896L18.177 47.4832L18.352 47.4758L18.527 47.4674L18.702 47.458L18.876 47.4476L19.049 47.4361L19.222 47.4236L19.395 47.4101L19.567 47.3955L19.738 47.3799L19.909 47.3632L20.079 47.3455L20.249 47.3267L20.401 47.3103L20.555 47.2929L20.709 47.2746L20.865 47.2552L21.022 47.2349L21.179 47.2135L21.338 47.1911L21.497 47.1677L21.658 47.1432L21.819 47.1177L21.98 47.0911L22.143 47.0635L22.306 47.0349L22.47 47.0051L22.635 46.9743L22.8 46.9424L22.965 46.9094L23.132 46.8754L23.298 46.8402L23.465 46.8039L23.633 46.7665L23.8 46.7279L23.968 46.6883L24.137 46.6475L24.305 46.6055L24.474 46.5624L24.643 46.5181L24.812 46.4727L24.981 46.4261L25.15 46.3783L25.319 46.3294L25.489 46.2792L25.658 46.2279L25.826 46.1753L25.995 46.1215L26.164 46.0665L26.332 46.0103L26.5 45.9528L26.668 45.8941L26.835 45.8342L27.002 45.773L27.169 45.7105L27.335 45.6468L27.501 45.5818L27.666 45.5155L27.83 45.4479L27.994 45.379L28.157 45.3088L28.32 45.2373L28.481 45.1645L28.642 45.0904L28.803 45.0149L28.962 44.9381L29.12 44.86L29.278 44.7805L29.434 44.6996L29.59 44.6174L29.745 44.5338L29.898 44.4489L30.05 44.3625L30.201 44.2748L30.351 44.1856L30.5 44.0951L30.61 44.0244L30.719 43.9528L30.827 43.8802L30.933 43.8066L31.039 43.732L31.144 43.6565L31.248 43.58L31.35 43.5024L31.452 43.4238L31.552 43.3443L31.651 43.2636L31.749 43.182L31.846 43.0992L31.942 43.0155L32.036 42.9306L32.129 42.8447L32.22 42.7577L32.311 42.6696L32.4 42.5804L32.487 42.4901L32.573 42.3987L32.658 42.3062L32.741 42.2125L32.823 42.1177L32.903 42.0217L32.982 41.9246L33.059 41.8263L33.134 41.7269L33.208 41.6262L33.281 41.5244L33.351 41.4214L33.42 41.3171L33.488 41.2117L33.553 41.105L33.617 40.9971L33.679 40.8879L33.739 40.7775L33.797 40.6658L33.854 40.5529L33.909 40.4387L33.961 40.3232L34.012 40.2064L34.061 40.0884L34.108 39.969L34.153 39.8483L34.196 39.7263L34.236 39.6029L34.275 39.4782L34.312 39.3521L34.346 39.2247L34.379 39.096L34.409 38.9658L34.437 38.8343L34.463 38.7014L34.486 38.567L34.508 38.4313L34.527 38.2942L34.544 38.1556L34.558 38.0156L34.57 37.8742L34.58 37.7313L34.587 37.5869L34.592 37.4411L34.59 37.3578L34.588 37.275L34.585 37.1927L34.581 37.1109L34.577 37.0297L34.572 36.949L34.566 36.8688L34.56 36.7892L34.553 36.71L34.545 36.6314L34.537 36.5533L34.528 36.4757L34.519 36.3986L34.509 36.322L34.498 36.2459L34.486 36.1704L34.474 36.0953L34.462 36.0208L34.449 35.9467L34.435 35.8732L34.42 35.8001L34.405 35.7275L34.39 35.6555L34.374 35.5839L34.357 35.5128L34.34 35.4422L34.322 35.3721L34.303 35.3025L34.284 35.2334L34.264 35.1648L34.244 35.0966L34.224 35.0289L34.202 34.9617L34.18 34.895L34.158 34.8287L34.135 34.7629L34.112 34.6976L34.088 34.6328L34.063 34.5684L34.038 34.5045L34.013 34.4411L33.987 34.3781L33.96 34.3156L33.933 34.2535L33.905 34.1919L33.877 34.1308L33.849 34.0701L33.82 34.0098L33.79 33.95L33.76 33.8907L33.73 33.8318L33.699 33.7734L33.581 33.5858L33.459 33.4028L33.334 33.2244L33.206 33.0503L33.074 32.8807L32.939 32.7154L32.8 32.5544L32.659 32.3977L32.514 32.2451L32.366 32.0967L32.215 31.9524L32.061 31.8121L31.904 31.6757L31.744 31.5434L31.581 31.4148L31.415 31.2901L31.246 31.1692L31.074 31.052L30.899 30.9385L30.722 30.8285L30.542 30.7222L30.36 30.6193L30.174 30.5199L29.987 30.4239L29.796 30.3313L29.604 30.2419L29.408 30.1558L29.21 30.0729L29.01 29.9931L28.808 29.9164L28.603 29.8428L28.396 29.7721L28.187 29.7044L27.976 29.6395L27.762 29.5775L27.546 29.5182L27.329 29.4617L27.109 29.4078L26.887 29.3565L26.664 29.3078L26.438 29.2616L26.211 29.2179L25.982 29.1766L25.751 29.1376L25.518 29.1009L25.284 29.0665L25.048 29.0343L24.81 29.0042L24.571 28.9762L24.331 28.9502L24.088 28.9262L23.845 28.9042L23.6 28.884L23.354 28.8657L23.106 28.8491L22.857 28.8343L22.607 28.8211L22.355 28.8095L22.103 28.7995L21.849 28.7911L21.594 28.7841L21.339 28.7784L21.082 28.7742L20.932 28.7808L20.782 28.788L20.631 28.7958L20.481 28.804L20.33 28.8128L20.179 28.8221L20.028 28.8318L19.877 28.842L19.726 28.8527L19.574 28.8638L19.423 28.8754L19.271 28.8873L19.119 28.8997L18.967 28.9124L18.816 28.9255L18.664 28.939L18.512 28.9528L18.36 28.9669L18.208 28.9814L18.056 28.9961L17.904 29.0112L17.752 29.0265L17.6 29.0421L17.448 29.0579L17.296 29.074L17.144 29.0902L16.993 29.1067L16.841 29.1234L16.69 29.1402L16.538 29.1572L16.387 29.1744L16.236 29.1917L16.085 29.2091L15.934 29.2266L15.783 29.2443L15.632 29.262L15.482 29.2797L15.332 29.2975L15.182 29.3154L15.032 29.3333L14.882 29.3512L14.733 29.369L14.584 29.3869L14.435 29.4047L14.287 29.4225L14.138 29.4403L13.99 29.4579L13.843 29.4755L13.695 29.493L13.548 29.5103L13.402 29.5276L13.255 29.5446L13.109 29.5616L12.964 29.5783L12.819 29.5949L12.674 29.6113L12.529 29.6275L12.385 29.6434L12.242 29.6591L12.099 29.6745L11.956 29.6897L11.814 29.7046L11.672 29.7192L11.457 29.7289L11.249 29.7361L11.048 29.741L10.854 29.7435L10.666 29.7438L10.485 29.7419L10.311 29.7379L10.142 29.7319L9.98 29.724L9.824 29.7142L9.674 29.7026L9.53 29.6893L9.391 29.6744L9.259 29.6579L9.131 29.6399L9.009 29.6205L8.892 29.5998L8.781 29.5778L8.674 29.5546L8.573 29.5303L8.476 29.5049L8.384 29.4786L8.296 29.4514L8.213 29.4234L8.134 29.3947L8.059 29.3653L7.989 29.3353L7.922 29.3048L7.86 29.2738L7.801 29.2425L7.745 29.2109L7.693 29.1791L7.645 29.1471L7.6 29.1151L7.558 29.0831L7.519 29.0512L7.483 29.0195L7.45 28.988L7.419 28.9568L7.391 28.9259L7.366 28.8956L7.343 28.8658L7.322 28.8366L7.303 28.8081L7.286 28.7803L7.271 28.7534L7.258 28.7274L7.247 28.7024L7.237 28.6784L7.228 28.6556L7.221 28.634L7.215 28.6137L7.21 28.5947L7.206 28.5772L7.202 28.5612L7.2 28.5468L7.198 28.534L7.196 28.523L7.195 28.5138L7.194 28.5065L7.193 28.5012L7.192 28.4978L7.192 28.4966L7.195 28.4234L7.204 28.3517L7.218 28.2817L7.237 28.2133L7.261 28.1464L7.289 28.0812L7.323 28.0174L7.36 27.9552L7.403 27.8944L7.449 27.8352L7.5 27.7773L7.555 27.7209L7.614 27.6659L7.677 27.6123L7.744 27.56L7.815 27.5091L7.89 27.4594L7.968 27.4111L8.049 27.364L8.134 27.3182L8.222 27.2736L8.314 27.2302L8.408 27.1879L8.506 27.1468L8.606 27.1069L8.709 27.068L8.815 27.0303L8.924 26.9936L9.035 26.9579L9.148 26.9233L9.264 26.8897L9.382 26.857L9.502 26.8253L9.624 26.7945L9.748 26.7646L9.874 26.7356L10.001 26.7075L10.13 26.6802L10.261 26.6538L10.393 26.6281L10.526 26.6032L10.661 26.579L10.797 26.5556L10.933 26.5329L11.071 26.5108L11.21 26.4894L11.349 26.4687L11.489 26.4486L11.629 26.429L11.77 26.4101L11.911 26.3916L12.053 26.3737L12.194 26.3564L12.336 26.3394L12.478 26.323L12.619 26.307L12.76 26.2914L12.901 26.2762L13.042 26.2613L13.182 26.2468L13.321 26.2326L13.459 26.2188L13.597 26.2052L13.772 26.1865L13.948 26.1683L14.125 26.1506L14.303 26.1335L14.481 26.1167L14.661 26.1004L14.841 26.0843L15.021 26.0686L15.202 26.053L15.384 26.0377L15.567 26.0225L15.749 26.0074L15.933 25.9924L16.117 25.9773L16.301 25.9623L16.485 25.9471L16.67 25.9318L16.855 25.9163L17.04 25.9006L17.226 25.8846L17.411 25.8683L17.597 25.8516L17.783 25.8345L17.969 25.8169L18.155 25.7988L18.34 25.7801L18.526 25.7609L18.711 25.741L18.897 25.7204L19.082 25.6991L19.267 25.6769L19.452 25.654L19.636 25.6301L19.82 25.6053L20.003 25.5795L20.186 25.5527L20.369 25.5249L20.551 25.4959L20.732 25.4658L20.913 25.4344L21.093 25.4018L21.273 25.3678L21.452 25.3326L21.63 25.2959L21.807 25.2578L21.984 25.2181L22.159 25.177L22.334 25.1342L22.507 25.0899L22.68 25.0438L22.851 24.996L23.022 24.9465L23.191 24.8951L23.359 24.8418L23.526 24.7867L23.692 24.7296L23.857 24.6704L24.02 24.6092L24.182 24.546L24.342 24.4805L24.501 24.4129L24.658 24.3431L24.814 24.2709L24.902 24.2265L24.989 24.1818L25.077 24.1368L25.164 24.0913L25.252 24.0455L25.339 23.9994L25.427 23.9528L25.514 23.9058L25.601 23.8584L25.689 23.8107L25.776 23.7625L25.863 23.7138L25.95 23.6648L26.036 23.6153L26.123 23.5654L26.21 23.515L26.296 23.4641L26.382 23.4128L26.468 23.361L26.554 23.3087L26.64 23.2559L26.725 23.2026L26.811 23.1489L26.896 23.0946L26.98 23.0398L27.065 22.9844L27.149 22.9286L27.233 22.8721L27.317 22.8152L27.401 22.7576L27.484 22.6996L27.567 22.6409L27.65 22.5817L27.732 22.5218L27.814 22.4614L27.896 22.4004L27.977 22.3388L28.058 22.2765L28.138 22.2137L28.219 22.1502L28.298 22.086L28.378 22.0212L28.457 21.9558L28.535 21.8897L28.613 21.823L28.691 21.7555L28.768 21.6874L28.845 21.6186L28.921 21.5491L28.997 21.4789L29.073 21.408L29.147 21.3363L29.222 21.264L29.295 21.1909L29.369 21.117L29.441 21.0425L29.514 20.9671L29.585 20.891L29.656 20.8141L29.727 20.7365L29.796 20.6581L29.866 20.5788L29.934 20.4988L29.996 20.4291L30.057 20.3585L30.118 20.2872L30.177 20.215L30.237 20.1419L30.295 20.0679L30.353 19.993L30.41 19.9172L30.467 19.8404L30.523 19.7627L30.578 19.684L30.633 19.6042L30.687 19.5234L30.74 19.4415L30.793 19.3585L30.845 19.2744L30.896 19.1892L30.946 19.1028L30.996 19.0153L31.045 18.9265L31.094 18.8365L31.141 18.7453L31.188 18.6528L31.234 18.559L31.279 18.4639L31.324 18.3675L31.368 18.2697L31.411 18.1706L31.453 18.07L31.495 17.968L31.535 17.8646L31.575 17.7597L31.614 17.6533L31.653 17.5454L31.69 17.436L31.727 17.325L31.763 17.2124L31.798 17.0983L31.832 16.9825L31.865 16.865L31.898 16.7459L31.929 16.6251L31.96 16.5026L31.99 16.3784L32.019 16.2524L32.047 16.1246L32.074 15.9951L32.1 15.8637L32.126 15.7305L32.15 15.5954L32.174 15.4584L32.197 15.3195L32.218 15.1786L32.239 15.0358L32.259 14.8911L32.278 14.7443L32.296 14.5955L32.313 14.4447L32.329 14.2918L32.344 14.1368L32.358 13.9797L32.371 13.8205L32.383 13.6591L32.374 13.5897L32.365 13.5207L32.357 13.452L32.349 13.3835L32.341 13.3153L32.335 13.2473L32.328 13.1795L32.322 13.1118L32.316 13.0443L32.311 12.9769L32.305 12.9096L32.3 12.8424L32.296 12.7752L32.291 12.7081L32.286 12.6409L32.281 12.5737L32.277 12.5064L32.272 12.4391L32.267 12.3716L32.262 12.304L32.257 12.2363L32.252 12.1684L32.246 12.1002L32.24 12.0318L32.234 11.9632L32.227 11.8943L32.22 11.8251L32.213 11.7555L32.204 11.6856L32.196 11.6153L32.187 11.5446L32.177 11.4735L32.166 11.4019L32.155 11.3298L32.143 11.2572L32.13 11.1841L32.116 11.1104L32.102 11.0362L32.086 10.9613L32.07 10.8858L32.052 10.8096L32.034 10.7328L32.014 10.6552L31.993 10.5769L31.971 10.4979L31.948 10.4181L31.923 10.3374L31.898 10.2559L31.87 10.1736L31.852 10.1156L31.833 10.0569L31.814 9.9975L31.794 9.9374L31.773 9.8766L31.752 9.8151L31.731 9.7529L31.709 9.6901L31.686 9.6267L31.662 9.5626L31.638 9.4979L31.613 9.4327L31.588 9.3668L31.561 9.3004L31.534 9.2335L31.506 9.166L31.478 9.0979L31.448 9.0294L31.418 8.9604L31.387 8.8909L31.355 8.8209L31.322 8.7505L31.288 8.6796L31.253 8.6083L31.217 8.5366L31.181 8.4644L31.143 8.3919L31.104 8.3191L31.064 8.2458L31.023 8.1723L30.981 8.0983L30.938 8.0241L30.894 7.9496L30.848 7.8748L30.801 7.7997L30.754 7.7244L30.704 7.6488L30.654 7.5729L30.603 7.4969L30.55 7.4206L30.495 7.3442L30.44 7.2676L30.383 7.1908L30.325 7.1139L30.265 7.0368L30.204 6.9596L30.142 6.8823L30.078 6.8049L30.012 6.7275L29.945 6.6499L29.877 6.5723L29.807 6.4947L29.735 6.4171L29.662 6.3394L29.587 6.2617L29.511 6.1841L33.907 3.5642L29.148 0L25.481 3.4549L25.401 3.4208L25.322 3.387L25.243 3.3536L25.164 3.3205L25.086 3.2877L25.008 3.2552L24.931 3.2231L24.854 3.1913L24.778 3.1599L24.702 3.1287L24.626 3.0979L24.551 3.0674L24.477 3.0372L24.402 3.0073L24.328 2.9778L24.255 2.9485L24.182 2.9196L24.109 2.891L24.036 2.8627L23.964 2.8348L23.892 2.8071L23.821 2.7798L23.75 2.7527L23.679 2.726L23.608 2.6996L23.538 2.6735L23.468 2.6477L23.398 2.6222L23.328 2.597L23.259 2.5722L23.19 2.5476L23.121 2.5233L23.052 2.4994L22.984 2.4757L22.915 2.4523L22.847 2.4293L22.779 2.4065L22.712 2.384L22.644 2.3619L22.577 2.34L22.509 2.3184L22.442 2.2971L22.375 2.2762L22.308 2.2555L22.241 2.2351L22.174 2.2149L22.108 2.1951L22.041 2.1756L21.975 2.1564L21.908 2.1374L21.842 2.1187L21.775 2.1003L21.709 2.0822L21.642 2.0644L21.576 2.0469L21.51 2.0296L21.415 2.0073L21.32 1.9856L21.225 1.9645L21.13 1.944L21.034 1.9241L20.938 1.9048L20.842 1.8861L20.745 1.868L20.648 1.8505L20.551 1.8335L20.453 1.8171L20.355 1.8012L20.256 1.7859L20.157 1.7711L20.058 1.7568L19.958 1.743L19.858 1.7297L19.757 1.717L19.656 1.7047L19.554 1.6928L19.452 1.6815L19.35 1.6706L19.247 1.6601L19.144 1.6501L19.04 1.6406L18.935 1.6314L18.831 1.6227L18.725 1.6143L18.619 1.6064L18.513 1.5988L18.406 1.5917L18.298 1.5849L18.19 1.5784L18.082 1.5723L17.972 1.5666L17.863 1.5612L17.752 1.5561L17.641 1.5513L17.53 1.5468L17.418 1.5427L17.305 1.5388L17.191 1.5352L17.077 1.5319L16.963 1.5288L16.847 1.526L16.731 1.5234L16.615 1.5211L16.497 1.519L16.379 1.5172L16.26 1.5155L16.141 1.514L16.021 1.5128L15.9 1.5117L15.778 1.5108L15.656 1.51L15.533 1.5094L15.409 1.509L15.284 1.5087L15.159 1.5085L15.033 1.5085L14.906 1.5086L14.778 1.5087L14.649 1.509L14.588 1.5135L14.526 1.5182L14.463 1.523L14.401 1.528L14.338 1.5332L14.274 1.5386L14.211 1.5441L14.147 1.5499L14.083 1.5558L14.019 1.5619L13.955 1.5682L13.89 1.5747L13.825 1.5814L13.76 1.5882L13.694 1.5953L13.628 1.6025L13.562 1.6099L13.495 1.6176L13.429 1.6254L13.362 1.6334L13.294 1.6416L13.227 1.65L13.159 1.6586L13.091 1.6674L13.022 1.6764L12.953 1.6856L12.884 1.695L12.815 1.7046L12.745 1.7143L12.675 1.7243L12.605 1.7345L12.534 1.745L12.464 1.7556L12.392 1.7664L12.321 1.7774L12.249 1.7886L12.177 1.8001L12.104 1.8117L12.032 1.8236L11.958 1.8357L11.885 1.848L11.811 1.8605L11.737 1.8732L11.663 1.8861L11.588 1.8992L11.513 1.9126L11.438 1.9262L11.362 1.94L11.286 1.954L11.21 1.9682L11.133 1.9827L11.056 1.9974L10.979 2.0123L10.901 2.0274L10.823 2.0428L10.744 2.0584L10.666 2.0742L10.587 2.0902L10.507 2.1065L10.427 2.123L10.347 2.1397L10.267 2.1566L10.186 2.1738L9.993 2.2333L9.797 2.2958L9.598 2.3613L9.396 2.4298L9.192 2.5014L8.985 2.5761L8.777 2.654L8.566 2.7351L8.354 2.8195L8.141 2.9071L7.926 2.9981L7.71 3.0924L7.493 3.1902L7.276 3.2913L7.058 3.396L6.84 3.5042L6.622 3.616L6.404 3.7314L6.186 3.8505L5.969 3.9732L5.753 4.0997L5.538 4.2299L5.323 4.364L5.11 4.5019L4.899 4.6437L4.689 4.7895L4.482 4.9392L4.276 5.093L4.073 5.2508L3.873 5.4127L3.675 5.5787L3.48 5.749L3.288 5.9234L3.1 6.1021L2.915 6.2851L2.734 6.4725L2.557 6.6642L2.384 6.8604L2.215 7.061L2.051 7.2662L1.892 7.4759L1.738 7.6901L1.589 7.909L1.445 8.1326L1.307 8.3608L1.174 8.5939L1.048 8.8317L0.928 9.0743L0.814 9.3218L0.706 9.5742L0.606 9.8316L0.512 10.094L0.426 10.3614L0.347 10.6338L0.275 10.9114L0.212 11.1942L0.156 11.4821L0.108 11.7753L0.069 12.0737L0.038 12.3775L0.017 12.6866L0.004 13.0011L0 13.3211L0.012 13.475L0.025 13.627L0.039 13.7773L0.054 13.9259L0.069 14.0726L0.085 14.2177L0.102 14.361L0.119 14.5025L0.138 14.6424L0.157 14.7806L0.176 14.9172L0.196 15.052L0.217 15.1852L0.239 15.3168L0.261 15.4468L0.284 15.5751L0.308 15.7019L0.332 15.8271L0.357 15.9507L0.383 16.0727L0.409 16.1932L0.436 16.3122L0.464 16.4297L0.492 16.5456L0.521 16.6601L0.55 16.7731L0.58 16.8846L0.611 16.9947L0.642 17.1034L0.674 17.2106L0.706 17.3164L0.739 17.4209L0.773 17.5239L0.807 17.6256L0.842 17.7259L0.877 17.8249L0.913 17.9225L0.949 18.0189L0.986 18.1139L1.023 18.2076L1.061 18.3001L1.1 18.3913L1.139 18.4812L1.179 18.5699L1.219 18.6574L1.259 18.7437L1.3 18.8288L1.342 18.9127L1.384 18.9954L1.426 19.077L1.469 19.1574L1.513 19.2367L1.557 19.3149L1.601 19.392L1.646 19.468L1.691 19.5429L1.737 19.6167L1.783 19.6895L1.83 19.7613L1.877 19.832L1.925 19.9017L1.973 19.9705L2.021 20.0382L2.071 20.1069L2.123 20.1754L2.176 20.2438L2.23 20.3119L2.285 20.3799L2.342 20.4477L2.399 20.5153L2.458 20.5827L2.518 20.6499L2.579 20.7168L2.641 20.7835L2.703 20.8499L2.767 20.9161L2.832 20.982L2.898 21.0476L2.964 21.113L3.032 21.178L3.1 21.2427L3.169 21.3071L3.238 21.3712L3.309 21.4349L3.38 21.4983L3.451 21.5613L3.524 21.6239L3.597 21.6862L3.67 21.7481L3.744 21.8095L3.818 21.8706L3.893 21.9313L3.969 21.9915L4.044 22.0513L4.121 22.1106L4.197 22.1695L4.274 22.2279L4.351 22.2859L4.428 22.3433L4.506 22.4003L4.584 22.4567L4.661 22.5127L4.739 22.5681L4.818 22.623L4.896 22.6773L4.974 22.7311L5.052 22.7843L5.13 22.837L5.208 22.889L5.286 22.9405L5.364 22.9914L5.442 23.0416L5.52 23.0912L5.597 23.1402L5.674 23.1886L5.751 23.2363L5.828 23.2834L5.904 23.3297L5.98 23.3754L6.081 23.4285L6.182 23.4805L6.282 23.5315L6.381 23.5815L6.48 23.6304L6.577 23.6783L6.673 23.7251L6.768 23.7708L6.862 23.8154L6.954 23.8589L7.045 23.9012L7.134 23.9424L7.222 23.9824L7.308 24.0213L7.393 24.059L7.476 24.0954L7.556 24.1307L7.635 24.1647L7.712 24.1975L7.787 24.229L7.859 24.2593L7.929 24.2883L7.997 24.316L8.062 24.3424L8.125 24.3674L8.185 24.3912L8.243 24.4135L8.298 24.4345L8.35 24.4542L8.399 24.4724L8.445 24.4892L8.488 24.5047L8.527 24.5186L8.564 24.5312L8.597 24.5423L8.627 24.5519L8.653 24.56L8.676 24.5666L8.694 24.6051L8.674 24.6433L8.631 24.6539L8.582 24.6654L8.529 24.6778L8.472 24.691L8.411 24.7049L8.346 24.7196L8.278 24.735L8.207 24.751L8.133 24.7677L8.057 24.7851L7.979 24.8029L7.898 24.8214L7.817 24.8403L7.734 24.8597L7.65 24.8795L7.565 24.8998L7.48 24.9204L7.395 24.9413L7.31 24.9626L7.226 24.9841L7.143 25.0059L7.06 25.0279L6.979 25.0501L6.9 25.0724L6.823 25.0948L6.748 25.1172L6.675 25.1398L6.606 25.1623L6.54 25.1848L6.477 25.2072L6.418 25.2296L6.362 25.2518L6.283 25.2765L6.203 25.3014L6.124 25.3265L6.046 25.3519L5.967 25.3776L5.889 25.4036L5.811 25.4299L5.734 25.4565L5.657 25.4835L5.58 25.5109L5.504 25.5388L5.428 25.567L5.352 25.5957L5.276 25.6248L5.202 25.6545L5.127 25.6847L5.053 25.7153L4.979 25.7466L4.905 25.7784L4.832 25.8108L4.76 25.8439L4.688 25.8775L4.616 25.9119L4.544 25.9469L4.473 25.9826L4.403 26.019L4.333 26.0562L4.263 26.0941L4.194 26.1328L4.125 26.1724L4.057 26.2127L3.989 26.2539L3.921 26.296L3.854 26.3389L3.788 26.3828L3.722 26.4275L3.656 26.4733L3.591 26.52L3.526 26.5677L3.462 26.6164L3.399 26.6661L3.336 26.7169L3.276 26.7606L3.216 26.8052L3.158 26.851L3.1 26.8978L3.042 26.9458L2.985 26.9949L2.929 27.0452L2.873 27.0967L2.818 27.1495L2.764 27.2034L2.711 27.2587L2.658 27.3152L2.606 27.3731L2.554 27.4323L2.504 27.4929L2.454 27.5549L2.405 27.6183L2.356 27.6831L2.309 27.7494L2.262 27.8173L2.216 27.8866L2.171 27.9574L2.127 28.0299L2.084 28.1039L2.042 28.1795L2 28.2568L1.959 28.3357L1.92 28.4164L1.881 28.4987L1.843 28.5828L1.806 28.6686L1.771 28.7562L1.736 28.8456L1.702 28.9369L1.669 29.03L1.637 29.125L1.606 29.2219L1.577 29.3208L1.548 29.4215L1.52 29.5243L1.494 29.6291L1.503 29.7372L1.514 29.8442L1.527 29.95L1.542 30.0547L1.558 30.1582L1.575 30.2606L1.595 30.3617L1.616 30.4617L1.638 30.5606L1.663 30.6582L1.689 30.7547L1.717 30.85L1.746 30.9441L1.777 31.0369L1.81 31.1286L1.844 31.2191L1.88 31.3084L1.918 31.3964L1.957 31.4832L1.998 31.5688L2.041 31.6532L2.085 31.7364L2.131 31.8183L2.178 31.8989L2.228 31.9784L2.279 32.0565L2.331 32.1335L2.386 32.2091L2.442 32.2835L2.499 32.3567L2.559 32.4285L2.619 32.4991L2.682 32.5684L2.746 32.6365L2.812 32.7032L2.88 32.7687L2.949 32.8328L3.02 32.8957L3.093 32.9572L3.167 33.0175L3.243 33.0764L3.321 33.134L3.4 33.1903L3.481 33.2452L3.564 33.2989L3.648 33.3512L3.734 33.4021L3.821 33.4518L3.911 33.5L4.002 33.5469L4.094 33.5925L4.188 33.6367L4.284 33.6795L4.382 33.721L4.481 33.7611L4.582 33.7998L4.685 33.8372L4.789 33.8731L4.895 33.9077L5.003 33.9409L5.112 33.9726L5.223 34.003L5.336 34.032L5.422 34.0549L5.508 34.0775L5.596 34.0997L5.683 34.1215L5.771 34.1428L5.859 34.1638L5.948 34.1844L6.037 34.2045L6.127 34.2243L6.217 34.2436L6.308 34.2626L6.399 34.2811L6.49 34.2992L6.582 34.3169L6.675 34.3341L6.767 34.351L6.861 34.3674L6.955 34.3834L7.049 34.399L7.143 34.4141L7.239 34.4288L7.334 34.4431L7.43 34.4569L7.527 34.4703L7.624 34.4833L7.722 34.4958L7.82 34.5079L7.918 34.5195L8.017 34.5307L8.117 34.5415L8.217 34.5518L8.317 34.5616L8.418 34.571L8.52 34.58L8.622 34.5885L8.724 34.5965L8.827 34.6041L8.93 34.6112L9.034 34.6178L9.139 34.624L9.244 34.6297L9.349 34.6349L9.455 34.6397L9.562 34.644L9.669 34.6478L9.776 34.6511L9.885 34.654L9.993 34.6564L10.102 34.6582L10.212 34.6597L10.322 34.6606L10.433 34.661L10.544 34.661L10.656 34.6604L10.768 34.6594L10.881 34.6578L10.994 34.6558L11.108 34.6533L11.223 34.6502L11.338 34.6467L11.453 34.6427L11.569 34.6381L11.686 34.6331L11.781 34.6253L11.877 34.6173L11.973 34.609L12.069 34.6005L12.166 34.5917L12.262 34.5827L12.36 34.5734L12.457 34.5639L12.554 34.5541L12.652 34.5441L12.75 34.5339L12.849 34.5235L12.948 34.5128L13.046 34.5019L13.146 34.4908L13.245 34.4795L13.345 34.468L13.445 34.4563L13.545 34.4445L13.645 34.4324L13.746 34.4201L13.846 34.4076L13.948 34.395L14.049 34.3822L14.15 34.3692L14.252 34.3561L14.354 34.3428L14.456 34.3293L14.558 34.3157L14.661 34.3019L14.764 34.288L14.866 34.2739L14.97 34.2597L15.073 34.2454L15.176 34.2309L15.28 34.2163L15.384 34.2016L15.488 34.1868L15.592 34.1719L15.696 34.1568L15.801 34.1417L15.905 34.1264L16.01 34.1111L16.115 34.0956L16.22 34.0801L16.325 34.0645L16.431 34.0488L16.536 34.033L16.642 34.0171L16.747 34.0012L16.853 33.9852L16.959 33.9692L17.065 33.9531L17.172 33.9369L17.278 33.9207L17.384 33.9045L17.491 33.8882L17.597 33.8719L17.704 33.8556L17.811 33.8392L17.918 33.8228L18.025 33.8064L18.132 33.7899L18.232 33.7824L18.333 33.7752L18.433 33.7682L18.533 33.7614L18.633 33.7549L18.732 33.7487L18.832 33.7428L18.931 33.7371L19.03 33.7317L19.129 33.7266L19.228 33.7218L19.327 33.7174L19.426 33.7132L19.524 33.7093L19.622 33.7058L19.72 33.7026L19.817 33.6998L19.915 33.6972L20.012 33.6951L20.109 33.6933L20.206 33.6919L20.302 33.6908L20.399 33.6901L20.495 33.6898L20.591 33.6899L20.686 33.6904L20.781 33.6914L20.876 33.6927L20.971 33.6944L21.065 33.6966L21.16 33.6992L21.253 33.7022L21.347 33.7057L21.44 33.7096L21.533 33.714L21.626 33.7189L21.718 33.7242L21.81 33.7301L21.901 33.7364L21.993 33.7432L22.084 33.7505L22.174 33.7583L22.264 33.7666L22.354 33.7754L22.444 33.7848L22.533 33.7947L22.621 33.8051L22.71 33.8161L22.798 33.8276L22.885 33.8397L22.972 33.8524L23.059 33.8656L23.145 33.8794L23.231 33.8938L23.317 33.9088L23.402 33.9244L23.486 33.9406L23.571 33.9574L23.654 33.9749L23.737 33.9929L23.82 34.0116L23.903 34.0309L23.984 34.0509L24.069 34.0748L24.153 34.0994L24.236 34.1248L24.319 34.1511L24.401 34.1781L24.483 34.206L24.564 34.2347L24.644 34.2642L24.723 34.2945L24.802 34.3257L24.881 34.3578L24.959 34.3908L25.036 34.4246L25.112 34.4593L25.188 34.4949L25.263 34.5314L25.337 34.5688L25.411 34.6071L25.484 34.6463L25.556 34.6865L25.627 34.7276L25.698 34.7697L25.768 34.8127L25.837 34.8567L25.906 34.9017L25.974 34.9476L26.041 34.9946L26.107 35.0425L26.173 35.0915L26.237 35.1415L26.301 35.1925L26.364 35.2445L26.427 35.2976L26.488 35.3517L26.549 35.4069L26.609 35.4631L26.668 35.5204L26.726 35.5788L26.783 35.6383L26.823 35.6981L26.861 35.759L26.897 35.8209L26.933 35.8839L26.968 35.9481L27.001 36.0133L27.034 36.0796L27.065 36.1471L27.095 36.2157L27.124 36.2854L27.152 36.3563L27.178 36.4283L27.203 36.5015L27.227 36.5759L27.25 36.6514L27.272 36.7281L27.292 36.806L27.312 36.8851L27.33 36.9654L27.346 37.047L27.362 37.1297L27.376 37.2137L27.389 37.2989L27.4 37.3854L27.41 37.4731L27.419 37.5621L27.409 37.6562L27.396 37.7492L27.382 37.8411L27.365 37.9318L27.347 38.0214L27.327 38.11L27.306 38.1974L27.282 38.2837L27.256 38.3689L27.229 38.453L27.2 38.5359L27.169 38.6178L27.136 38.6985L27.101 38.7781L27.065 38.8566L27.026 38.934L26.986 39.0103L26.944 39.0855L26.9 39.1595L26.854 39.2325L26.807 39.3043L26.757 39.375L26.706 39.4446L26.653 39.5131L26.598 39.5805L26.541 39.6468L26.482 39.7119L26.422 39.776L26.359 39.8389L26.295 39.9007L26.229 39.9614L26.161 40.021L26.092 40.0795L26.02 40.1368L25.947 40.1931L25.871 40.2482L25.794 40.3022L25.715 40.3551L25.635 40.4069L25.552 40.4576L25.467 40.5072L25.381 40.5556L25.306 40.5914L25.231 40.627L25.156 40.6623L25.081 40.6973L25.007 40.732L24.932 40.7664L24.858 40.8005L24.784 40.8344L24.71 40.8679L24.637 40.9012L24.563 40.9342L24.49 40.967L24.416 40.9994L24.343 41.0316L24.271 41.0634L24.198 41.095L24.126 41.1264L24.053 41.1574L23.981 41.1881L23.909 41.2186L23.837 41.2488L23.766 41.2787L23.694 41.3083L23.623 41.3376L23.552 41.3667L23.481 41.3954L23.41 41.4239L23.34 41.4521L23.269 41.4801L23.199 41.5077L23.129 41.5351L23.059 41.5621L22.989 41.5889L22.92 41.6154L22.85 41.6417L22.781 41.6676L22.712 41.6933L22.643 41.7186L22.574 41.7437L22.506 41.7685L22.437 41.7931L22.369 41.8173L22.301 41.8413L22.233 41.865L22.166 41.8884L22.098 41.9115L21.933 41.9366L21.77 41.961L21.607 41.9848L21.446 42.0079L21.286 42.0304L21.127 42.0522L20.969 42.0733L20.812 42.0938L20.657 42.1137L20.502 42.1328L20.349 42.1514L20.197 42.1692L20.046 42.1864L19.896 42.203L19.748 42.2188L19.601 42.2341L19.454 42.2486L19.309 42.2626L19.165 42.2758L19.023 42.2884L18.881 42.3004L18.741 42.3116L18.601 42.3223L18.463 42.3322L18.326 42.3415L18.191 42.3502L18.056 42.3582L17.923 42.3655L17.79 42.3722L17.659 42.3782L17.529 42.3836L17.401 42.3883L17.273 42.3923L17.146 42.3957L17.021 42.3984L16.897 42.4005L16.774 42.4019L16.652 42.4027L16.532 42.4028L16.412 42.4022L16.294 42.401L16.177 42.3991L16.061 42.3966L15.946 42.3934L15.832 42.3896L15.72 42.385L15.608 42.3799L15.498 42.3741L15.389 42.3676L15.281 42.3604L15.175 42.3527L15.069 42.3442L14.965 42.3351L14.862 42.3253L14.76 42.3149L14.659 42.3038L14.559 42.2921L14.46 42.2797L14.363 42.2666L14.267 42.2529L14.172 42.2385L14.078 42.2235L13.985 42.2078L13.841 42.1875L13.696 42.1663L13.551 42.1441L13.406 42.121L13.261 42.0969L13.115 42.0719L12.97 42.0459L12.824 42.0189L12.678 41.991L12.532 41.9621L12.386 41.9323L12.24 41.9016L12.093 41.8698L11.946 41.8371L11.799 41.8035L11.652 41.7689L11.505 41.7334L11.357 41.6969L11.21 41.6594L11.062 41.621L10.914 41.5816L10.766 41.5413L10.617 41.5L10.469 41.4578L10.32 41.4146L10.171 41.3704L10.022 41.3253L9.873 41.2793L9.724 41.2323L9.574 41.1843L9.424 41.1354L9.274 41.0855L9.124 41.0347L8.974 40.9829L8.824 40.9301L8.673 40.8764L8.522 40.8218L8.371 40.7662L8.22 40.7096L8.069 40.6521L7.917 40.5936L7.766 40.5342L7.614 40.4738L7.462 40.4125L7.31 40.3502L7.157 40.2869L7.005 40.2227L6.852 40.1576L6.699 40.0915L6.546 40.0244L6.393 39.9564L6.239 39.8874L6.086 39.8175L5.932 39.7466L5.778 39.6747L5.624 39.6019L5.47 39.5282L5.315 39.4535L5.161 39.3778L5.006 39.3012L4.851 39.2236L4.696 39.1451L4.541 39.0656M24.664 13.77L24.667 13.6678L24.669 13.566L24.67 13.4645L24.669 13.3635L24.666 13.2628L24.662 13.1626L24.657 13.0628L24.651 12.9634L24.643 12.8644L24.633 12.7658L24.622 12.6677L24.61 12.57L24.597 12.4728L24.582 12.376L24.566 12.2798L24.549 12.1839L24.53 12.0886L24.51 11.9938L24.488 11.8994L24.466 11.8056L24.442 11.7122L24.416 11.6194L24.39 11.5271L24.362 11.4353L24.333 11.3441L24.303 11.2534L24.271 11.1633L24.238 11.0737L24.204 10.9847L24.169 10.8963L24.133 10.8084L24.095 10.7211L24.057 10.6345L24.017 10.5484L23.976 10.4629L23.933 10.3781L23.89 10.2938L23.845 10.2102L23.8 10.1273L23.753 10.045L23.705 9.9633L23.656 9.8823L23.606 9.8019L23.555 9.7223L23.502 9.6433L23.449 9.565L23.394 9.4874L23.339 9.4104L23.282 9.3342L23.225 9.2587L23.166 9.184L23.107 9.1099L23.046 9.0366L22.984 8.964L22.922 8.8922L22.858 8.8212L22.793 8.7509L22.728 8.6813L22.661 8.6126L22.593 8.5446L22.525 8.4774L22.456 8.4111L22.385 8.3455L22.311 8.2777L22.235 8.2109L22.158 8.1449L22.081 8.0798L22.002 8.0157L21.923 7.9525L21.842 7.8903L21.761 7.829L21.678 7.7686L21.595 7.7092L21.511 7.6508L21.426 7.5934L21.34 7.5369L21.253 7.4815L21.165 7.427L21.076 7.3736L20.987 7.3211L20.896 7.2698L20.805 7.2194L20.713 7.1701L20.62 7.1218L20.527 7.0746L20.432 7.0285L20.337 6.9835L20.241 6.9395L20.144 6.8966L20.047 6.8549L19.948 6.8142L19.849 6.7746L19.75 6.7362L19.649 6.6989L19.548 6.6628L19.446 6.6278L19.344 6.594L19.24 6.5613L19.136 6.5298L19.032 6.4995L18.927 6.4703L18.821 6.4424L18.714 6.4157L18.607 6.3902L18.499 6.3659L18.391 6.3428L18.282 6.321L18.172 6.3005L18.062 6.2811L17.952 6.2631L17.84 6.2463L17.729 6.2308L17.616 6.2166L17.504 6.2037L17.39 6.1921L17.276 6.1818L17.162 6.1728L17.047 6.1651L16.932 6.1588L16.816 6.1538L16.7 6.1502L16.583 6.1479L16.466 6.147L16.348 6.1475L16.23 6.1493L16.112 6.1526L15.983 6.1513L15.856 6.1516L15.728 6.1534L15.602 6.1566L15.476 6.1614L15.351 6.1676L15.227 6.1753L15.103 6.1845L14.98 6.1951L14.858 6.2071L14.736 6.2206L14.615 6.2355L14.495 6.2518L14.376 6.2694L14.257 6.2885L14.14 6.3089L14.023 6.3307L13.907 6.3539L13.791 6.3783L13.677 6.4041L13.563 6.4312L13.45 6.4597L13.338 6.4894L13.226 6.5204L13.116 6.5527L13.006 6.5862L12.897 6.621L12.79 6.657L12.683 6.6943L12.576 6.7328L12.471 6.7724L12.367 6.8133L12.263 6.8554L12.161 6.8987L12.059 6.9431L11.958 6.9886L11.859 7.0354L11.76 7.0832L11.662 7.1322L11.565 7.1822L11.469 7.2334L11.374 7.2857L11.28 7.339L11.187 7.3934L11.095 7.4489L11.004 7.5054L10.914 7.563L10.825 7.6216L10.737 7.6812L10.65 7.7418L10.564 7.8034L10.479 7.8659L10.395 7.9295L10.312 7.994L10.23 8.0594L10.15 8.1258L10.07 8.1931L9.992 8.2614L9.915 8.3305L9.838 8.4005L9.763 8.4715L9.689 8.5432L9.616 8.6159L9.551 8.6808L9.486 8.7464L9.423 8.8127L9.36 8.8797L9.298 8.9473L9.237 9.0156L9.177 9.0845L9.118 9.154L9.061 9.2242L9.004 9.295L8.948 9.3664L8.893 9.4385L8.839 9.5111L8.786 9.5844L8.734 9.6582L8.683 9.7326L8.633 9.8076L8.584 9.8832L8.536 9.9594L8.489 10.0361L8.444 10.1133L8.399 10.1911L8.355 10.2695L8.313 10.3484L8.271 10.4278L8.231 10.5077L8.192 10.5881L8.154 10.6691L8.116 10.7505L8.08 10.8325L8.046 10.9149L8.012 10.9978L7.979 11.0812L7.948 11.165L7.918 11.2493L7.888 11.3341L7.86 11.4193L7.834 11.5049L7.808 11.591L7.783 11.6775L7.76 11.7645L7.738 11.8518L7.717 11.9396L7.697 12.0277L7.679 12.1163L7.662 12.2052L7.645 12.2945L7.631 12.3842L7.617 12.4743L7.605 12.5647L7.594 12.6554L7.584 12.7466L7.575 12.838L7.568 12.9298L7.562 13.022L7.557 13.1144L7.553 13.2072L7.551 13.3002L7.55 13.3936L7.551 13.4873L7.553 13.5812L7.556 13.6755L7.56 13.77L7.558 13.8734L7.558 13.9765L7.56 14.0792L7.563 14.1816L7.567 14.2836L7.573 14.3852L7.581 14.4865L7.59 14.5873L7.6 14.6878L7.612 14.7879L7.626 14.8875L7.641 14.9867L7.657 15.0855L7.675 15.1839L7.694 15.2818L7.715 15.3792L7.737 15.4762L7.761 15.5727L7.786 15.6688L7.812 15.7643L7.84 15.8593L7.869 15.9539L7.899 16.0479L7.931 16.1414L7.964 16.2343L7.999 16.3267L8.035 16.4186L8.072 16.5099L8.11 16.6006L8.15 16.6908L8.191 16.7804L8.233 16.8694L8.276 16.9577L8.321 17.0455L8.367 17.1327L8.414 17.2192L8.462 17.3051L8.512 17.3903L8.563 17.4749L8.615 17.5589L8.668 17.6422L8.722 17.7247L8.778 17.8067L8.834 17.8879L8.892 17.9684L8.951 18.0482L9.011 18.1273L9.072 18.2056L9.134 18.2832L9.197 18.3601L9.262 18.4362L9.327 18.5116L9.394 18.5862L9.461 18.66L9.53 18.733L9.599 18.8052L9.67 18.8766L9.741 18.9472L9.814 19.017L9.888 19.086L9.962 19.1541L10.038 19.2214L10.114 19.2878L10.188 19.3504L10.262 19.4123L10.338 19.4733L10.414 19.5336L10.491 19.593L10.569 19.6516L10.648 19.7094L10.727 19.7663L10.807 19.8224L10.888 19.8776L10.97 19.932L11.053 19.9855L11.136 20.0381L11.221 20.0898L11.306 20.1406L11.391 20.1906L11.478 20.2396L11.565 20.2877L11.653 20.3349L11.741 20.3812L11.831 20.4265L11.921 20.4709L12.011 20.5144L12.103 20.5568L12.195 20.5984L12.288 20.6389L12.381 20.6785L12.475 20.717L12.57 20.7546L12.665 20.7912L12.761 20.8268L12.857 20.8613L12.955 20.8948L13.052 20.9273L13.151 20.9588L13.25 20.9892L13.349 21.0185L13.449 21.0468L13.55 21.074L13.651 21.1002L13.753 21.1252L13.855 21.1492L13.958 21.1721L14.061 21.1938L14.165 21.2145L14.269 21.234L14.374 21.2524L14.479 21.2697L14.585 21.2858L14.691 21.3008L14.798 21.3146L14.905 21.3272L15.013 21.3387L15.121 21.349L15.229 21.3581L15.338 21.366L15.448 21.3727L15.557 21.3782L15.668 21.3825L15.778 21.3856L15.889 21.3874L16 21.388L16.112 21.3874L16.228 21.3898L16.344 21.391L16.46 21.3909L16.575 21.3896L16.69 21.3869L16.804 21.383L16.917 21.3779L17.031 21.3715L17.143 21.3639L17.255 21.3551L17.367 21.3452L17.478 21.334L17.589 21.3217L17.699 21.3082L17.808 21.2936L17.917 21.2779L18.025 21.261L18.133 21.2431L18.24 21.224L18.346 21.2039L18.452 21.1827L18.557 21.1605L18.661 21.1372L18.765 21.1129L18.868 21.0876L18.97 21.0613L19.071 21.034L19.172 21.0058L19.272 20.9765L19.371 20.9463L19.47 20.9152L19.567 20.8832L19.664 20.8502L19.76 20.8163L19.855 20.7816L19.95 20.746L20.043 20.7095L20.136 20.6721L20.227 20.634L20.318 20.595L20.408 20.5552L20.497 20.5146L20.585 20.4732L20.673 20.431L20.759 20.3881L20.844 20.3444L20.928 20.3L21.012 20.2549L21.094 20.209L21.175 20.1625L21.255 20.1153L21.334 20.0674L21.413 20.0188L21.49 19.9696L21.566 19.9198L21.64 19.8693L21.714 19.8182L21.787 19.7666L21.858 19.7143L21.929 19.6615L21.998 19.6081L22.066 19.5542L22.133 19.4997L22.211 19.433L22.288 19.3653L22.364 19.2968L22.439 19.2273L22.513 19.157L22.585 19.0857L22.656 19.0136L22.726 18.9406L22.795 18.8668L22.863 18.792L22.929 18.7165L22.994 18.64L23.058 18.5628L23.121 18.4847L23.183 18.4057L23.244 18.326L23.303 18.2454L23.361 18.164L23.418 18.0818L23.473 17.9989L23.528 17.9151L23.581 17.8306L23.633 17.7452L23.683 17.6591L23.733 17.5723L23.781 17.4847L23.828 17.3963L23.874 17.3072L23.918 17.2173L23.962 17.1268L24.004 17.0354L24.044 16.9434L24.084 16.8507L24.122 16.7573L24.159 16.6631L24.195 16.5683L24.229 16.4728L24.262 16.3766L24.294 16.2797L24.324 16.1822L24.354 16.084L24.381 15.9851L24.408 15.8856L24.433 15.7855L24.458 15.6847L24.48 15.5833L24.502 15.4813L24.522 15.3787L24.541 15.2755L24.558 15.1716L24.574 15.0672L24.589 14.9622L24.603 14.8566L24.615 14.7504L24.626 14.6436L24.635 14.5363L24.643 14.4285L24.65 14.3201L24.656 14.2111L24.66 14.1016L24.662 13.9916L24.664 13.881L24.664 13.77" />

<path id="shape3"
  transform="matrix(1.0000000056703 0 0 1.0000000056703 224.061754611464 28.72575016684)"
  fill="#000000"
  fill-rule="evenodd"
  stroke="#000000"
  stroke-width="0.07272"
  stroke-linecap="square"
  stroke-linejoin="bevel"
  d="M0.00112591 3.89025L24.4811 3.88688L24.4811 0.00562278L0 0L0.00112591 3.89025"/>

</svg>
