<?xml version="1.0" standalone="no"?>
<!DOCTYPE svg PUBLIC "-//W3C//DTD SVG 20010904//EN" "http://www.w3.org/TR/2001/REC-SVG-20010904/DTD/svg10.dtd">

<svg xmlns="http://www.w3.org/2000/svg" 
    xmlns:xlink="http://www.w3.org/1999/xlink"
    width="263.52pt"
    height="74.4pt"
    viewBox="0 0 263.52 74.4">
<defs/>

<path id="shape0"
  transform="matrix(1.00000028470958 0 0 1.00000028470958 45.8325207515478 9.60377313053108)"
  fill="white"
  fill-rule="evenodd"
  stroke="#000000"
  stroke-width="0.48"
  stroke-linecap="square"
  stroke-linejoin="bevel"
  d="M5.74999 10.7739L5.7765 2.87198L16.5675 0L16.5712 10.7887L24.72 10.7962L24.7275 18.7087L16.5675 18.7162L16.5492 33.6078C16.7694 36.2685 17.1095 38.6299 21.0606 39.1147C22.5636 39.1142 23.7346 38.6477 24.7305 38.2026L24.7252 46.3113C22.6685 47.1739 20.2261 47.4098 17.7225 47.5462C15.1038 47.4604 13.0989 47.0759 11.5551 46.4777C7.77156 44.9271 5.83273 41.4219 5.73865 35.962L5.76376 18.7087L0 18.7237L0.00750683 10.7887C0.00750683 10.7887 1.92167 10.7838 5.74999 10.7739Z"/>

<path id="shape1"
  transform="matrix(1.00000028470958 0 0 1.00000028470958 77.0400303567447 20.3962526745205)"
  fill="white"
  fill-rule="evenodd"
  stroke="#000000"
  stroke-width="0.48"
  stroke-linecap="square"
  stroke-linejoin="bevel"
  d="M0 0L0.00749606 35.7712L10.8075 35.7562L10.7888 0.00376721C10.7888 0.00376721 7.19251 0.00251147 0 0Z"/>

<ellipse id="shape2"
  transform="matrix(1.00000028470958 0 0 1.00000028470958 76.1580080689728 3.20558417280441)"
  rx="6.32101418554054"
  ry="5.7172123089384"
  cx="6.32101418554054"
  cy="5.7172123089384"
  fill="white"
  fill-rule="evenodd"
  stroke="#000000"
  stroke-width="0.48"
  stroke-linecap="square"
  stroke-linejoin="bevel"/>

<path id="shape3"
  transform="matrix(1.00000028470958 0 0 1.00000028470958 96.9562933504605 3.127497060517)"
  fill="white"
  fill-rule="evenodd"
  stroke="#000000"
  stroke-width="0.48"
  stroke-linecap="square"
  stroke-linejoin="bevel"
  d="M0 1.30787e-05L10.8037 0L10.8 53.0325L1.78148e-06 53.0288L0 1.30787e-05" />

<path id="shape4"
  transform="matrix(1.00000028470958 0 0 1.00000028470958 114.680862329624 19.5121184907317)"
  fill="white"
  fill-rule="evenodd"
  stroke="#000000"
  stroke-width="0.48"
  stroke-linecap="square"
  stroke-linejoin="bevel"
  d="M0.0354454 27.0592C2.71892 28.6918 5.88879 29.9811 10.5992 30.1829C12.3704 30.4072 13.777 29.8618 15.1983 29.3474C15.9576 28.9742 16.5648 28.2528 16.8542 26.804C16.6309 23.4518 10.9768 23.1089 6.30733 21.0066C4.89074 20.281 3.55994 19.4193 2.48923 18.3332C0.87915 16.6687 -0.142766 14.475 0.0162434 11.4403C-0.0112577 9.23155 0.473292 7.41859 1.38427 5.95096C2.58563 3.82099 4.49318 2.4026 6.92473 1.53126C9.28298 0.497482 11.9123 0.0375944 14.7252 0C17.9779 0.0112093 21.4616 0.629038 25.2317 1.36416L25.2354 9.76038C22.7834 8.71353 19.7203 7.19798 16.0911 7.38907C13.9827 7.38205 11.0672 7.61715 10.5917 10.4954C10.7921 14.5843 19.3455 14.4902 24.0356 18.3964C25.9711 20.1574 27.3382 22.518 27.3866 25.86C27.513 29.7941 25.3722 32.6084 23.0896 34.3514C19.8927 36.9663 15.478 37.2032 11.0792 37.6229C6.73351 37.6151 3.31714 36.8248 0.0316854 35.9241Z"/>

<path id="shape5"
  transform="matrix(1.00000028470958 0 0 1.00000028470958 149.025057185994 19.4020134019588)"
  fill="white"
  fill-rule="evenodd"
  stroke="#000000"
  stroke-width="0.48"
  stroke-linecap="square"
  stroke-linejoin="bevel"
  d="M0 0.997L0.022 53.314L10.814 53.33L10.808 32.671L10.972 32.822L11.132 32.975L11.289 33.13L11.443 33.286L11.595 33.443L11.745 33.6L11.894 33.758L12.043 33.916L12.191 34.075L12.34 34.233L12.491 34.39L12.643 34.547L12.797 34.703L12.955 34.857L13.115 35.01L13.28 35.161L13.45 35.311L13.625 35.458L13.805 35.602L13.993 35.744L14.187 35.883L14.388 36.019L14.598 36.151L14.816 36.28L15.044 36.405L15.282 36.525L15.53 36.641L15.789 36.753L16.059 36.859L16.342 36.96L16.638 37.056L16.946 37.147L17.269 37.231L17.606 37.309L17.959 37.381L18.327 37.446L18.711 37.505L19.112 37.556L19.53 37.6L19.967 37.636L20.421 37.665L20.895 37.685L21.208 37.677L21.515 37.664L21.819 37.648L22.117 37.628L22.411 37.604L22.701 37.577L22.986 37.546L23.268 37.511L23.544 37.472L23.817 37.43L24.085 37.385L24.349 37.335L24.609 37.283L24.864 37.227L25.116 37.167L25.364 37.104L25.608 37.038L25.847 36.969L26.083 36.896L26.315 36.82L26.543 36.741L26.768 36.658L26.988 36.573L27.205 36.484L27.418 36.393L27.628 36.298L27.834 36.2L28.037 36.1L28.236 35.997L28.431 35.89L28.623 35.781L28.812 35.669L28.998 35.554L29.18 35.437L29.359 35.317L29.534 35.194L29.805 35.035L30.07 34.87L30.329 34.701L30.581 34.526L30.827 34.347L31.068 34.162L31.302 33.973L31.531 33.779L31.754 33.58L31.971 33.377L32.182 33.17L32.388 32.957L32.589 32.741L32.784 32.52L32.974 32.295L33.158 32.066L33.338 31.832L33.512 31.595L33.681 31.354L33.845 31.109L34.005 30.86L34.159 30.607L34.309 30.351L34.454 30.091L34.595 29.828L34.731 29.561L34.862 29.29L34.989 29.017L35.112 28.74L35.231 28.46L35.345 28.178L35.456 27.892L35.562 27.603L35.664 27.311L35.763 27.017L35.858 26.719L35.949 26.419L36.036 26.117L36.12 25.812L36.2 25.505L36.277 25.195L36.35 24.883L36.42 24.569L36.487 24.253L36.551 23.934L36.612 23.614L36.67 23.292L36.724 22.968L36.776 22.642L36.826 22.314L36.872 21.985L36.916 21.654L36.957 21.322L36.996 20.988L37.032 20.653L37.066 20.317L37.098 19.979L37.128 19.64L37.155 19.301L37.18 18.96L37.204 18.619L37.225 18.276L37.245 17.933L37.236 17.684L37.226 17.433L37.215 17.183L37.203 16.932L37.19 16.681L37.175 16.429L37.159 16.177L37.141 15.925L37.122 15.672L37.102 15.42L37.079 15.168L37.055 14.915L37.029 14.663L37.002 14.411L36.972 14.159L36.941 13.907L36.907 13.655L36.872 13.404L36.834 13.154L36.794 12.904L36.752 12.654L36.707 12.405L36.66 12.157L36.61 11.909L36.558 11.662L36.503 11.416L36.446 11.171L36.386 10.927L36.323 10.683L36.257 10.441L36.188 10.2L36.116 9.96L36.041 9.722L35.963 9.485L35.881 9.249L35.797 9.014L35.709 8.781L35.617 8.549L35.523 8.319L35.424 8.091L35.322 7.864L35.216 7.639L35.107 7.416L34.994 7.195L34.876 6.976L34.755 6.758L34.63 6.543L34.501 6.33L34.368 6.119L34.23 5.91L34.088 5.703L33.942 5.499L33.792 5.297L33.637 5.098L33.477 4.901L33.313 4.706L33.144 4.515L32.971 4.326L32.793 4.139L32.661 3.989L32.525 3.84L32.385 3.694L32.241 3.55L32.093 3.408L31.941 3.268L31.784 3.13L31.623 2.995L31.457 2.862L31.287 2.731L31.112 2.602L30.932 2.476L30.748 2.353L30.558 2.232L30.363 2.113L30.164 1.998L29.959 1.884L29.749 1.774L29.533 1.666L29.312 1.561L29.086 1.459L28.854 1.359L28.616 1.263L28.373 1.169L28.124 1.078L27.869 0.991L27.608 0.906L27.341 0.824L27.067 0.746L26.788 0.671L26.502 0.599L26.21 0.53L25.911 0.464L25.606 0.402L25.294 0.344L24.975 0.288L24.65 0.236L24.317 0.188L23.978 0.143L23.632 0.102L23.278 0.064L22.918 0.03L22.55 0L22.204 0.003L21.864 0.014L21.532 0.031L21.206 0.056L20.886 0.088L20.573 0.126L20.267 0.17L19.966 0.221L19.671 0.279L19.382 0.343L19.099 0.412L18.821 0.488L18.549 0.569L18.282 0.656L18.019 0.749L17.762 0.847L17.509 0.951L17.261 1.059L17.017 1.173L16.778 1.292L16.542 1.415L16.311 1.543L16.083 1.676L15.859 1.813L15.639 1.954L15.422 2.1L15.208 2.249L14.997 2.403L14.789 2.56L14.583 2.721L14.38 2.886L14.18 3.054L13.982 3.225L13.786 3.399L13.592 3.577L13.4 3.757L13.209 3.94L13.021 4.126L12.833 4.315L12.646 4.505L12.461 4.698L12.277 4.894L12.093 5.091L11.91 5.29L11.727 5.491L11.545 5.694L11.362 5.898L11.18 6.103L10.998 6.31L10.815 6.518L10.815 0.994L9.159 0.995L7.089 0.995L3.818 0.996L1.799 0.996L0 0.997M10.565 19.293L10.575 18.908L10.591 18.526L10.613 18.148L10.64 17.775L10.672 17.407L10.711 17.043L10.756 16.684L10.806 16.33L10.863 15.982L10.926 15.639L10.996 15.301L11.072 14.97L11.155 14.644L11.245 14.325L11.342 14.012L11.446 13.705L11.557 13.406L11.676 13.113L11.802 12.827L11.935 12.549L12.077 12.278L12.226 12.014L12.383 11.759L12.548 11.511L12.721 11.272L12.903 11.041L13.093 10.818L13.292 10.605L13.499 10.4L13.716 10.204L13.941 10.017L14.175 9.84L14.419 9.673L14.672 9.515L14.934 9.367L15.206 9.23L15.488 9.103L15.779 8.986L16.081 8.88L16.392 8.785L16.714 8.701L17.046 8.628L17.388 8.567L17.742 8.517L18.105 8.479L18.48 8.453L18.927 8.504L19.353 8.562L19.759 8.627L20.146 8.7L20.513 8.78L20.863 8.866L21.194 8.959L21.508 9.058L21.805 9.164L22.085 9.275L22.35 9.392L22.599 9.516L22.832 9.644L23.052 9.778L23.257 9.918L23.449 10.062L23.627 10.211L23.793 10.365L23.947 10.523L24.09 10.685L24.221 10.852L24.342 11.022L24.452 11.197L24.553 11.375L24.645 11.556L24.728 11.741L24.807 11.863L24.883 11.999L24.957 12.148L25.029 12.309L25.098 12.483L25.165 12.667L25.229 12.863L25.291 13.069L25.35 13.285L25.407 13.51L25.461 13.744L25.513 13.986L25.562 14.235L25.609 14.492L25.653 14.755L25.694 15.023L25.732 15.297L25.768 15.575L25.801 15.858L25.831 16.144L25.859 16.433L25.883 16.725L25.905 17.019L25.924 17.314L25.94 17.609L25.953 17.905L25.963 18.201L25.97 18.495L25.974 18.788L25.975 19.079L25.973 19.368L25.967 19.653L25.959 19.934L25.947 20.212L25.933 20.484L25.915 20.751L25.894 21.012L25.869 21.266L25.842 21.513L25.811 21.753L25.777 21.984L25.739 22.206L25.698 22.419L25.653 22.623L25.605 22.815L25.554 22.997L25.499 23.167L25.441 23.325L25.379 23.47L25.313 23.601L25.244 23.719L25.089 24.17L24.924 24.595L24.75 24.994L24.567 25.368L24.377 25.718L24.178 26.045L23.972 26.35L23.759 26.634L23.539 26.897L23.313 27.141L23.081 27.367L22.843 27.575L22.6 27.766L22.353 27.941L22.101 28.102L21.845 28.248L21.585 28.382L21.322 28.503L21.056 28.613L20.788 28.712L20.518 28.802L20.246 28.883L19.972 28.956L19.698 29.022L19.423 29.083L19.148 29.138L18.873 29.189L18.598 29.237L18.325 29.283L18.053 29.327L17.712 29.323L17.379 29.307L17.054 29.279L16.737 29.24L16.428 29.19L16.126 29.128L15.833 29.055L15.548 28.97L15.27 28.874L15.001 28.767L14.739 28.648L14.485 28.518L14.24 28.376L14.002 28.223L13.772 28.058L13.55 27.882L13.336 27.695L13.13 27.496L12.932 27.286L12.742 27.064L12.559 26.831L12.385 26.586L12.219 26.33L12.06 26.062L11.91 25.784L11.767 25.493L11.632 25.191L11.506 24.878L11.387 24.554L11.276 24.218L11.173 23.87L11.078 23.511L10.991 23.141L10.912 22.759L10.841 22.366L10.778 21.961L10.722 21.545L10.675 21.118L10.635 20.679L10.604 20.228L10.58 19.766L10.565 19.293"/>

<path id="shape6"
  transform="matrix(1.00000028470958 0 0 1.00000028470958 191.840069375834 19.4650134198955)"
  fill="white"
  fill-rule="evenodd"
  stroke="#000000"
  stroke-width="0.48"
  stroke-linecap="square"
  stroke-linejoin="bevel"
  d="M38.856 18.742L38.871 18.224L38.872 17.709L38.86 17.199L38.833 16.694L38.794 16.194L38.741 15.698L38.676 15.208L38.597 14.722L38.506 14.242L38.402 13.768L38.286 13.299L38.158 12.835L38.017 12.378L37.865 11.926L37.701 11.481L37.526 11.042L37.339 10.609L37.141 10.183L36.933 9.764L36.713 9.351L36.483 8.946L36.242 8.547L35.99 8.156L35.729 7.772L35.458 7.395L35.177 7.026L34.886 6.665L34.585 6.312L34.276 5.967L33.957 5.63L33.629 5.302L33.293 4.982L32.947 4.67L32.594 4.368L32.232 4.074L31.861 3.789L31.483 3.513L31.097 3.247L30.704 2.99L30.303 2.743L29.894 2.505L29.479 2.277L29.056 2.059L28.627 1.852L28.191 1.654L27.749 1.467L27.3 1.291L26.845 1.125L26.385 0.97L25.918 0.826L25.446 0.693L24.969 0.571L24.486 0.461L23.998 0.362L23.505 0.274L23.007 0.199L22.505 0.135L21.998 0.084L21.487 0.044L20.972 0.017L20.453 0.002L19.93 0L19.404 0.011L18.874 0.002L18.348 0.006L17.826 0.022L17.308 0.051L16.795 0.092L16.286 0.145L15.782 0.21L15.283 0.287L14.788 0.375L14.299 0.475L13.815 0.587L13.337 0.71L12.864 0.844L12.397 0.989L11.936 1.145L11.481 1.312L11.032 1.49L10.59 1.678L10.155 1.876L9.726 2.084L9.304 2.303L8.89 2.531L8.483 2.77L8.083 3.018L7.691 3.275L7.306 3.542L6.93 3.818L6.561 4.103L6.201 4.397L5.85 4.7L5.507 5.012L5.172 5.332L4.847 5.66L4.531 5.997L4.224 6.342L3.926 6.695L3.638 7.056L3.36 7.424L3.092 7.801L2.834 8.184L2.586 8.575L2.348 8.973L2.121 9.378L1.905 9.79L1.7 10.209L1.506 10.634L1.323 11.066L1.151 11.504L0.991 11.948L0.843 12.399L0.707 12.855L0.582 13.317L0.47 13.785L0.37 14.258L0.283 14.737L0.209 15.22L0.147 15.709L0.099 16.203L0.063 16.702L0.041 17.205L0.033 17.713L0.038 18.226L0.057 18.742L0.024 19.258L0.006 19.77L0 20.278L0.009 20.782L0.031 21.282L0.066 21.778L0.115 22.269L0.176 22.755L0.251 23.236L0.338 23.713L0.438 24.184L0.55 24.65L0.674 25.111L0.811 25.565L0.96 26.015L1.12 26.458L1.293 26.895L1.477 27.326L1.672 27.75L1.879 28.168L2.097 28.579L2.326 28.984L2.566 29.381L2.817 29.771L3.078 30.154L3.35 30.529L3.632 30.897L3.924 31.257L4.226 31.609L4.539 31.953L4.861 32.289L5.192 32.616L5.533 32.935L5.883 33.245L6.243 33.546L6.612 33.838L6.989 34.121L7.375 34.395L7.77 34.659L8.173 34.913L8.585 35.158L9.005 35.393L9.432 35.617L9.868 35.832L10.312 36.036L10.763 36.229L11.221 36.412L11.687 36.584L12.16 36.744L12.64 36.894L13.127 37.032L13.621 37.159L14.121 37.274L14.628 37.377L15.141 37.468L15.66 37.548L16.186 37.614L16.717 37.669L17.254 37.711L17.797 37.74L18.345 37.756L18.898 37.759L19.457 37.749L19.987 37.762L20.513 37.762L21.034 37.748L21.551 37.721L22.064 37.682L22.571 37.629L23.073 37.564L23.571 37.487L24.063 37.397L24.55 37.295L25.031 37.181L25.506 37.056L25.976 36.919L26.44 36.77L26.897 36.61L27.348 36.439L27.793 36.256L28.231 36.063L28.663 35.86L29.088 35.645L29.506 35.421L29.916 35.186L30.32 34.941L30.716 34.686L31.104 34.422L31.485 34.148L31.858 33.864L32.223 33.572L32.58 33.27L32.928 32.959L33.268 32.64L33.6 32.312L33.923 31.975L34.237 31.63L34.542 31.278L34.838 30.917L35.125 30.548L35.402 30.172L35.67 29.788L35.928 29.396L36.176 28.998L36.414 28.593L36.642 28.181L36.86 27.762L37.067 27.336L37.264 26.904L37.45 26.466L37.625 26.022L37.79 25.572L37.943 25.116L38.085 24.655L38.215 24.188L38.334 23.716L38.441 23.239L38.537 22.757L38.62 22.27L38.691 21.779L38.75 21.283L38.797 20.783L38.831 20.279L38.852 19.77L38.861 19.258L38.856 18.742M27.762 18.679L27.76 18.366L27.753 18.058L27.741 17.753L27.724 17.452L27.703 17.155L27.676 16.863L27.645 16.574L27.61 16.289L27.569 16.008L27.524 15.731L27.474 15.459L27.419 15.19L27.36 14.926L27.296 14.666L27.228 14.411L27.155 14.159L27.077 13.913L26.995 13.67L26.909 13.432L26.818 13.199L26.722 12.97L26.622 12.746L26.517 12.526L26.408 12.311L26.295 12.101L26.177 11.895L26.055 11.695L25.929 11.499L25.798 11.308L25.663 11.121L25.524 10.94L25.381 10.764L25.233 10.593L25.081 10.427L24.925 10.265L24.737 10.083L24.544 9.908L24.345 9.741L24.141 9.582L23.93 9.431L23.715 9.288L23.493 9.154L23.267 9.028L23.034 8.911L22.797 8.803L22.554 8.705L22.306 8.615L22.053 8.535L21.794 8.465L21.53 8.404L21.262 8.354L20.988 8.313L20.71 8.283L20.426 8.264L20.138 8.255L19.845 8.257L19.547 8.27L19.245 8.295L18.939 8.29L18.637 8.299L18.338 8.32L18.042 8.353L17.75 8.398L17.462 8.455L17.177 8.524L16.897 8.605L16.621 8.697L16.349 8.8L16.082 8.914L15.819 9.039L15.562 9.174L15.309 9.32L15.062 9.476L14.82 9.641L14.584 9.817L14.354 10.002L14.129 10.196L13.911 10.4L13.699 10.613L13.493 10.834L13.294 11.064L13.101 11.302L12.916 11.548L12.738 11.802L12.567 12.064L12.403 12.334L12.247 12.611L12.099 12.895L12.002 13.103L11.911 13.315L11.825 13.532L11.744 13.752L11.667 13.976L11.596 14.204L11.529 14.434L11.467 14.668L11.409 14.905L11.355 15.144L11.305 15.385L11.258 15.629L11.216 15.874L11.177 16.121L11.141 16.37L11.108 16.62L11.078 16.87L11.051 17.122L11.027 17.374L11.005 17.627L10.986 17.88L10.968 18.132L10.953 18.385L10.94 18.636L10.973 18.963L11.006 19.282L11.039 19.595L11.072 19.901L11.106 20.2L11.14 20.493L11.175 20.78L11.211 21.061L11.248 21.335L11.286 21.604L11.326 21.867L11.369 22.125L11.413 22.377L11.46 22.624L11.509 22.865L11.561 23.101L11.616 23.333L11.674 23.559L11.736 23.781L11.802 23.998L11.871 24.211L11.945 24.419L12.023 24.623L12.106 24.823L12.193 25.02L12.286 25.212L12.383 25.401L12.487 25.586L12.596 25.767L12.711 25.945L12.832 26.121L12.96 26.293L13.094 26.462L13.268 26.661L13.447 26.853L13.632 27.04L13.823 27.221L14.019 27.395L14.221 27.562L14.429 27.723L14.641 27.877L14.859 28.024L15.082 28.164L15.31 28.296L15.543 28.421L15.781 28.539L16.024 28.648L16.271 28.75L16.524 28.844L16.78 28.93L17.042 29.007L17.308 29.076L17.578 29.136L17.853 29.187L18.131 29.229L18.414 29.263L18.701 29.287L18.992 29.301L19.287 29.307L19.607 29.327L19.921 29.335L20.231 29.331L20.536 29.316L20.835 29.289L21.129 29.252L21.418 29.203L21.701 29.143L21.979 29.073L22.251 28.993L22.518 28.902L22.778 28.802L23.033 28.691L23.282 28.571L23.525 28.441L23.762 28.302L23.993 28.154L24.217 27.997L24.435 27.831L24.647 27.657L24.853 27.474L25.051 27.283L25.243 27.085L25.429 26.878L25.607 26.664L25.779 26.442L25.944 26.213L26.102 25.977L26.201 25.796L26.298 25.61L26.39 25.419L26.479 25.224L26.564 25.024L26.646 24.82L26.725 24.611L26.8 24.398L26.872 24.18L26.941 23.959L27.006 23.732L27.069 23.502L27.129 23.268L27.186 23.029L27.24 22.786L27.291 22.539L27.34 22.289L27.386 22.034L27.43 21.775L27.471 21.512L27.51 21.245L27.546 20.975L27.58 20.701L27.612 20.423L27.642 20.141L27.67 19.856L27.695 19.567L27.719 19.274L27.741 18.978L27.762 18.679"/>

<path id="shape7"
  transform="matrix(1.00000028470958 0 0 1.00000028470958 234.723832584556 9.59606092337529)"
  fill="white"
  fill-rule="evenodd"
  stroke="#000000"
  stroke-width="0.48"
  stroke-linecap="square"
  stroke-linejoin="bevel"
  d="M5.75622 10.8077L5.76 2.8877L16.7985 0L16.7925 10.7927L24.7238 10.804L24.7125 18.7315L16.7925 18.7277L16.7831 33.3642C16.89 36.4028 17.4416 38.8557 21.1162 39.1277C22.4622 39.0985 23.815 38.9413 24.6788 38.419L24.6951 46.2925C22.915 47.2037 20.0721 47.3472 17.3063 47.5465C10.1249 47.4532 5.97518 43.864 5.74126 35.7602L5.75252 18.7052L0.00372451 18.7202L0 10.8077C0 10.8077 1.91874 10.8077 5.75622 10.8077Z"/>

<path id="shape01"
  transform="matrix(1.00000019083556 0 0 1.00000019083556 4.26001467201653 20.3925120791833)"
  fill="white"
  fill-rule="evenodd"
  stroke="#000000"
  stroke-width="0.48"
  stroke-linecap="square"
  stroke-linejoin="bevel"
  d="M0.0637497 0.00749837L10.8413 0.011251L10.9823 19.6087C11.1573 22.1072 11.5028 24.2272 12.1532 25.6694C13.0707 27.3109 14.5555 28.3029 16.905 28.305C22.7873 28.4809 23.9111 23.8765 23.8621 18.0149L23.8275 0.00375025L34.605 0L34.5414 36.8439L23.9298 36.8515L23.9057 32.7309C23.4994 35.0498 20.0829 36.3424 16.2295 36.6606C15.2304 36.594 14.9336 36.5644 14.0613 36.4359C8.60725 35.6326 5.54013 33.662 3.71155 31.048C0.757508 27.4563 0.434382 22.5638 0 16.8675C0 16.8675 0.0212499 11.2475 0.0637497 0.00749837Z"/>
</svg>
