<?xml version="1.0" standalone="no"?>
<!DOCTYPE svg PUBLIC "-//W3C//DTD SVG 20010904//EN" "http://www.w3.org/TR/2001/REC-SVG-20010904/DTD/svg10.dtd">

<svg xmlns="http://www.w3.org/2000/svg" 
    xmlns:xlink="http://www.w3.org/1999/xlink"
    width="225pt"
    height="225pt"
    viewBox="0 0 225 225">
<defs/>

<path id="shape0" 
  transform="translate(0.953124937199334, 27.9531231581903)" 
  fill="#afafaf" 
  fill-rule="evenodd" 
  stroke="#000000" 
  stroke-width="1.01" 
  stroke-linecap="square" 
  stroke-linejoin="bevel" 
  d="M54.0469 42.0781L27.0312 42.0312L27.0156 69L75.2031 117.141L85.4062 107.047L104.953 126.094L142.523 126.483L104.422 88.0469L114.687 77.5L154.031 116.109L154.031 77.0313L134.359 58.0469L144.031 48.0625L97.0313 0.0625022L0 0L27.0312 27.0937L84.9687 27.0625L105.031 48.0469L75.0625 78.1406L54.0781 58.0156L54.0469 42.0781"/>

<path id="shape1" 
  transform="translate(57.1406213516298, 146.046875400143)" 
  fill="#afafaf" 
  fill-rule="evenodd" 
  stroke="#000000" 
  stroke-width="1.01" 
  stroke-linecap="square" 
  stroke-linejoin="bevel" 
  d="M19.8281 0L0 19.875L30.7969 49.9062L165.828 49.9219L139.703 22.9844L41.9062 23L19.8281 0"/>

<path id="shape2" 
  transform="translate(146.95312654227, 56.999995899965)" 
  fill="#afafaf" 
  fill-rule="evenodd" 
  stroke="#000000" 
  stroke-width="1.01" 
  stroke-linecap="square" 
  stroke-linejoin="bevel" 
  d="M0 19.0469L18.9375 0L50.0312 31.9531L50 97.0156L23 97.0312L22.9514 41.9287L0 19.0469" />
</svg>
