<?xml version="1.0" standalone="no"?>
<!DOCTYPE svg PUBLIC "-//W3C//DTD SVG 20010904//EN" "http://www.w3.org/TR/2001/REC-SVG-20010904/DTD/svg10.dtd">

<svg xmlns="http://www.w3.org/2000/svg" 
    xmlns:xlink="http://www.w3.org/1999/xlink"
    width="367.2pt"
    height="367.2pt"
    viewBox="0 0 367.2 367.2">
<defs/>
<path id="shape0"
  transform="matrix(0.869179446616075 -0.00124065918438153 0.00124065918438153 0.869179446616075 27.2462166961877 28.2025849329657)"
  fill="#6d41ff"
  fill-rule="evenodd"
  stroke="#6c44ff"
  stroke-width="5.99999999999952"
  stroke-linecap="square"
  stroke-linejoin="bevel"
  d="M0 1.00543L138.263 1.49293C138.636 17.9015 144.852 28.8469 152.301 35.853C162.58 45.9493 175.798 47.8298 183.163 48.0325C198.641 47.9774 211.038 40.7558 218.475 31.4929C224.644 23.9399 229.531 14.4471 226.776 0L367.2 1.00543L367.2 368.205L0 368.205Z"/>

<path id="shape1"
  transform="matrix(0.869179446616075 -0.00124065918438153 0.00124065918438153 0.869179446616075 101.766827346911 200.799081074835)"
  fill="#ffffff"
  fill-rule="evenodd"
  stroke="#773dff"
  stroke-width="0.605999999999952"
  stroke-linecap="square"
  stroke-linejoin="bevel"
  d="M24.0468 0.00319006L0 0.00938251L27.675 130.856L52.275 130.838L71.4938 42.6469L72.0375 42.6188L89.4469 130.838L114.038 130.838L145.275 1.94255e-05L121.219 0L102.047 88.8188L84.0562 0.00938089L60.6656 0.0187495L40.8375 87L24.0468 0.00319006"/>

<path id="shape2"
  transform="matrix(0.869179446616075 -0.00124065918438153 0.00124065918438153 0.869179446616075 224.345337925515 200.607939273123)"
  fill="#ffffff"
  fill-rule="evenodd"
  stroke="#6a3dff"
  stroke-width="0.605999999999952"
  stroke-linecap="square"
  stroke-linejoin="bevel"
  d="M0 130.247L31.2 0L69.638 0.028L108.019 130.275L82.828 130.256L74.391 101.456L31.238 101.447L24.63 130.324L0 130.247M36.032 79.81L68.356 79.863L55.819 32.437L46.81 32.447L36.032 79.81"/>
</svg>