<?xml version="1.0" standalone="no"?>
<!DOCTYPE svg PUBLIC "-//W3C//DTD SVG 20010904//EN" "http://www.w3.org/TR/2001/REC-SVG-20010904/DTD/svg10.dtd">

<svg xmlns="http://www.w3.org/2000/svg" 
    xmlns:xlink="http://www.w3.org/1999/xlink"
    width="340.488pt"
    height="337.176pt"
    viewBox="0 0 340.488 337.176">
<defs>
  <linearGradient id="gradient0" gradientUnits="objectBoundingBox" x1="0" y1="0" x2="1" y2="1" spreadMethod="pad">
   <stop stop-color="#6635dc" offset="0.0546999983489513" stop-opacity="1"/>
   <stop stop-color="#591ec4" offset="0.207000002264977" stop-opacity="1"/>
   <stop stop-color="#5940cc" offset="0.36719998717308" stop-opacity="1"/>
   <stop stop-color="#5113c9" offset="0.488299995660782" stop-opacity="1"/>
   <stop stop-color="#5e2dd9" offset="0.613300025463104" stop-opacity="1"/>
   <stop stop-color="#582ae1" offset="0.75" stop-opacity="1"/>
   <stop stop-color="#6c42e7" offset="0.925800025463104" stop-opacity="1"/>
  </linearGradient>
 </defs>

<path id="shape0"
  transform="translate(3.00600012232409, 4.74424349191355)"
  fill="none" stroke="#ffffff"
  stroke-width="6.48"
  stroke-linecap="square"
  stroke-linejoin="bevel"
  d="M8.07747 1.45436C11.6801 1.43638 15.2565 1.41509 18.8102 1.39089C23.8978 1.42652 28.9128 1.43603 33.8715 1.425C35.1731 1.45302 36.4667 1.47707 37.7527 1.49742C40.1839 1.48971 42.5837 1.47681 44.9561 1.45943C46.5439 1.4696 48.1147 1.47531 49.6701 1.47699C51.9988 1.5144 54.2455 1.53963 56.4206 1.55425C58.9495 1.57125 61.3815 1.57392 63.7329 1.56471C64.6316 1.60083 65.5109 1.63301 66.3719 1.66146C69.0282 1.65583 71.4993 1.63737 73.818 1.60863C78.1014 1.65553 81.8306 1.62789 85.2124 1.55365C86.084 1.54909 86.925 1.54054 87.7389 1.52849C88.6615 1.51483 89.5493 1.49667 90.4077 1.4747C91.638 1.47422 92.7997 1.46012 93.9085 1.43527C96.0544 1.44503 97.9166 1.40667 99.6055 1.33831C100.556 1.34559 101.434 1.3355 102.258 1.31206C105.518 1.23673 109.036 1.3149 112.092 1.17362C113.378 1.24364 114.282 1.21605 114.998 1.15213C116.201 1.15254 116.919 0.866656 118.211 0.812026C119.585 1.0197 119.85 2.10816 120.513 2.88758C121.307 3.76442 121.976 4.66052 122.538 5.41052C123.072 6.26072 123.335 7.13244 123.843 8.04801C124.775 10.09 125.198 12.1144 125.665 13.8861C125.944 16.2411 126.087 18.3727 126.03 20.2473C125.979 21.2086 125.892 22.0986 125.828 22.8874C125.796 23.2764 125.761 23.7064 125.755 23.9765C127.632 25.1879 129.763 26.25 131.807 27.6384C132.407 28.691 132.829 29.958 133.388 31.2939C133.808 32.2082 134.209 33.1993 134.687 34.3846C136.443 35.1634 137.772 36.0451 139.306 36.5795C140.643 37.2402 142.074 37.7914 143.611 38.5975C145.451 39.6211 146.944 39.9397 148.949 41.1144C149.931 41.5107 151.076 41.9944 152.487 42.6649C153.025 42.6795 153.567 42.6465 154.115 42.5629C154.729 42.6371 155.284 42.5722 155.752 42.4293C156.526 41.8619 157.113 41.3531 157.606 40.9112C158.308 40.3362 158.879 39.9467 159.343 39.4899C160.035 39.023 160.517 38.748 160.778 38.8614C160.985 38.8551 161.248 38.9382 161.566 39.1107C161.882 39.3797 162.232 39.681 162.616 40.0146C163.122 40.4909 163.665 40.9803 164.246 41.4829C164.574 41.8263 164.872 42.0797 165.141 42.2431C166.55 42.9606 167.927 43.6372 169.272 44.2729C169.909 44.6357 170.352 44.842 170.6 44.8916C171.272 44.8287 171.944 44.6946 172.614 44.4893C174.547 44.1096 176.033 43.8293 177.074 43.6484C177.759 43.3257 178.385 42.9105 178.95 42.4028C179.623 42.0032 180.275 41.5336 180.904 40.9941C181.435 39.5751 182.008 38.0666 182.624 36.4688C182.752 36.2676 182.989 36.0513 183.333 35.8199C184.418 35.4041 185.893 34.753 187.759 33.8664C188.443 32.6563 188.884 31.8661 189.084 31.4955C189.365 31.0276 189.607 30.5371 189.81 30.0242C189.848 28.6713 189.852 27.1377 189.824 25.4234C189.835 24.4019 189.849 23.5386 189.868 22.8335C189.956 22.524 190.083 22.2669 190.249 22.0623C190.467 21.8722 190.708 21.6842 190.971 21.4983C191.781 21.1024 192.759 20.5692 193.906 19.8989C194.712 19.1692 195.438 18.431 196.087 17.6842C196.307 17.453 196.522 17.2099 196.731 16.9548C197.371 15.9126 198.075 14.7703 198.842 13.5279C199.578 12.0094 200.226 10.5212 200.786 9.06333C201.436 7.56179 201.925 6.07746 202.252 4.61036C202.672 3.35472 203.052 2.13236 203.392 0.943282C203.587 0.714434 203.771 0.526025 203.942 0.378057C204.282 0.229524 204.544 0.132943 204.725 0.0883128C207.986 0.0844481 210.866 0.0254064 213.597 0.0394849C231.643 0.132523 242.185 -0.0354734 256.593 0.00702961C259.071 0.210596 261.327 0.0921606 263.816 0.118052C268.037 0.20655 272.525 0.243931 277.581 0.263176C281.515 0.352272 285.558 0.381453 289.917 0.387933C297.459 0.648308 305.012 0.556684 313.747 0.395337C316.392 0.434056 319.093 0.43686 321.852 0.397399C322.132 0.370969 323.239 0.363098 324.305 0.405089C325.254 0.396438 326.198 0.341383 326.432 0.651178C326.636 0.833807 326.824 1.0253 327.004 1.21478C327.081 1.37491 327.149 1.54391 327.21 1.72091C327.235 1.90073 327.257 2.08502 327.276 2.2733C327.199 2.69719 327.221 3.26883 327.212 3.81172C327.215 4.18569 327.216 4.56501 327.216 4.94764C327.198 5.56827 327.182 6.19395 327.169 6.8174C327.121 9.07483 327.108 11.3483 327.065 13.1554C327.098 13.6133 327.105 14.0754 327.08 14.5428C327.092 14.9241 327.087 15.3083 327.063 15.696C327.079 16.2726 327.064 16.8573 327.012 17.4519C327.01 17.7947 327 18.1407 326.98 18.4903C326.993 18.7823 327.002 19.0775 327.007 19.3759C327.02 20.7381 327.055 22.1306 326.949 23.6157C326.934 23.8897 326.916 24.1665 326.895 24.4461C326.899 24.7645 326.901 25.0855 326.899 25.409C326.907 25.8316 326.91 26.2557 326.908 26.6815C326.929 27.309 326.941 27.9403 326.943 28.576C326.919 29.2704 326.879 29.9699 326.822 30.6751C326.853 31.313 326.879 31.9505 326.898 32.5878C326.594 64.2611 326.762 96.56 328.485 128.039C329.42 145.112 330.811 161.943 332.833 178.302C332.611 185.37 332.242 192.428 331.672 199.476C331.09 206.607 330.269 213.728 329.224 220.835C329.107 221.632 328.987 222.429 328.864 223.226C328.658 224.343 328.478 225.46 328.302 226.577C328.217 226.983 328.147 227.387 328.084 227.791C328.011 228.043 327.959 228.302 327.919 228.563C327.898 228.701 327.88 228.841 327.863 228.98C327.813 229.193 327.792 229.406 327.78 229.597C327.767 229.711 327.755 229.809 327.762 229.947C327.777 230.235 327.791 230.524 327.805 230.812C327.961 238.174 328.103 245.393 328.247 252.531C328.383 256.643 328.497 260.73 328.599 264.802C328.903 276.866 329.125 290.6 329.54 301.922C329.589 304.198 329.631 306.369 329.665 308.398C329.701 308.659 329.718 309.432 329.688 309.559C328.619 314.12 327.437 318.655 326.449 323.217C326.476 323.748 325.689 324.763 324.14 324.813C320.862 325.275 317.477 325.682 313.985 326.032C312.226 326.167 310.442 326.292 308.632 326.406C306.58 326.553 304.359 326.632 301.971 326.644C300.398 326.547 298.732 326.524 296.973 326.577C283.394 326.46 268.399 326.363 251.988 326.289C247.089 326.135 241.967 326.08 236.622 326.124C227.388 323.326 217.248 321.441 206.202 320.468C201.892 320.741 197.572 321.057 193.241 321.418C188.447 321.682 183.653 321.988 178.859 322.334C173.391 322.553 167.932 322.807 162.482 323.095C158.23 323.237 153.992 323.384 149.767 323.534C143.087 323.644 136.451 323.772 129.861 323.919C124.685 323.894 119.575 323.869 114.533 323.843C112.787 323.812 111.051 323.78 109.327 323.747C107.336 323.701 105.361 323.652 103.403 323.603C101.264 323.53 99.1501 323.456 97.0597 323.378C93.4361 323.221 89.9022 323.056 86.4581 322.882C84.9013 322.839 83.3639 322.794 81.8458 322.749C78.3621 322.704 75.0416 322.658 71.8843 322.612C54.775 322.167 42.4785 321.919 34.9947 321.869C34.5619 321.838 34.1478 321.808 33.7524 321.777C33.1239 321.361 32.7187 320.927 32.5367 320.473C31.7864 319.094 31.4038 317.634 31.389 316.094C31.3592 312.989 32.7477 309.528 35.5546 305.712C35.4119 304.086 35.3572 302.736 35.3905 301.663C35.3747 301.114 35.447 300.688 35.6073 300.385C36.2471 299.298 36.2583 299.303 36.8751 298.127C37.3817 297.255 37.9944 296.236 37.9023 294.992C37.9692 292.787 37.3606 290.189 35.9088 287.387C35.9139 285.673 35.6695 284.077 34.9295 282.715C34.6283 281.785 33.9654 281.16 32.9285 280.904C32.1511 280.552 31.1634 280.199 29.9603 279.668C29.7104 279.448 29.4942 279.198 29.3261 278.905C29.269 278.713 29.2303 278.441 29.23 278.125C29.8726 273.969 28.9364 271 27.1391 269.621C25.9196 268.487 24.841 267.751 23.8716 267.311C23.237 267.117 22.7255 267.061 22.2838 267.086C21.2496 267.232 20.81 267.445 20.2415 267.585C19.9136 267.698 19.5934 267.803 19.2679 267.868C19.1261 267.868 18.967 267.867 18.7852 267.863C18.6656 267.838 18.5319 267.812 18.3807 267.784C17.2658 266.856 16.3086 266.245 15.6259 266.155C15.1668 266.086 14.6914 266.053 14.1984 266.061C12.9978 266.214 12.32 266.35 11.7463 266.571C10.5344 267.371 9.42148 268.68 7.34393 269.23C6.85446 269.343 6.32344 269.423 5.74286 269.457C3.6637 269.335 2.18161 268.889 1.6658 267.929C1.59687 267.53 1.54499 267.032 1.5165 266.592C1.57816 265.444 1.38169 263.977 1.36161 263.278C1.40505 260.882 1.33753 258.481 1.05988 255.909C1.0597 254.04 1.02029 252.072 0.852314 249.852C0.82839 249.336 0.799742 248.808 0.76548 248.264C0.745058 246.883 0.711578 245.477 0.653919 244.033C0.624796 243.303 0.589503 242.564 0.546609 241.813C0.508844 240.565 0.45942 239.287 0.393658 237.972C0.342302 236.163 0.273005 234.294 0.17652 232.348C0.144866 231.46 0.109215 230.556 0.0688513 229.634C0.0760025 221.008 0.145962 212.307 0 203.444C0.157023 201.818 0.414228 200.245 0.535659 198.546C0.824299 196.283 1.10303 193.994 1.2795 191.607C1.37192 190.771 1.45672 189.934 1.5291 189.093C1.6175 188.279 1.70035 187.463 1.77479 186.644C2.06093 184.059 2.309 181.448 2.46039 178.787C2.81188 175.283 3.11031 171.764 3.28889 168.217C3.72021 163.273 4.07048 158.275 4.25358 153.184C4.53801 148.892 4.76578 144.553 4.908 140.15C5.01409 138.24 5.11121 136.323 5.19789 134.398C5.51019 122.329 6.21401 109.778 5.9975 96.9645C6.20558 66.5232 5.48173 35.876 2.88 4.81376C2.50892 2.72466 2.76081 1.96662 4.18633 1.53731C4.58652 1.55269 5.16029 1.56943 6.00486 1.56071C6.53722 1.58047 7.2005 1.57066 8.07747 1.45436Z"/>

<path id="shape0"
  transform="matrix(3.29951186869057 0 0 3.42984630756054 4.59390022092293 6.32807349565707)"
  fill="url(#gradient0)"
  fill-rule="evenodd"
  stroke="#000000"
  stroke-width="1"
  stroke-linecap="round"
  stroke-linejoin="round"
  d="M0.844 0.496467L0.9109 1.22047L0.9759 1.96237L1.039 2.72187L1.1001 3.49837L1.1592 4.29157L1.2163 5.10087L1.2711 5.92577L1.3239 6.76587L1.3744 7.62067L1.4226 8.48967L1.4686 9.37247L1.5122 10.2687L1.5533 11.1776L1.5921 12.0989L1.6283 13.0321L1.662 13.9768L1.693 14.9323L1.7215 15.8984L1.7472 16.8745L1.7703 17.8601L1.7905 18.8548L1.8079 19.858L1.8224 20.8695L1.834 21.8885L1.8426 22.9148L1.8482 23.9478L1.8508 24.987L1.8502 26.032L1.8465 27.0824L1.8395 28.1375L1.8293 29.1971L1.8158 30.2605L1.7989 31.3274L1.7787 32.3972L1.755 33.4695L1.7278 34.5438L1.697 35.6197L1.6627 36.6967L1.6248 37.7743L1.5831 38.852L1.5377 39.9294L1.4886 41.006L1.4356 42.0813L1.3787 43.1548L1.318 44.2262L1.2532 45.2949L1.1845 46.3607L1.1117 47.4227L1.0347 48.4797L0.9537 49.5337L0.8684 50.5817L0.7789 51.6247L0.685 52.6607L0.5868 53.6917L0.4843 54.7147L0.3773 55.7307L0.2658 56.7387L0.1497 57.7387L0.0291 58.7297L0.015 59.9267L0.0053 61.1077L0.0002 62.2737L0 63.4237L0.0049 64.5567L0.0151 65.6717L0.484343 77.4392C1.41174 77.8272 2.0457 77.5126 2.81819 76.7978C3.05656 76.7195 3.33034 76.6567 3.65364 76.6242C4.21179 76.5709 4.76783 76.6799 5.27686 77.1308C5.59643 77.0505 5.90467 76.9684 6.19342 76.8904C6.7132 76.924 7.1853 77.0633 7.57183 77.3766C8.60756 78.0762 9.09705 79.0274 8.88049 80.6556C9.35453 80.8295 9.77373 80.9927 10.116 81.1438C10.6378 81.6815 10.8934 82.4063 10.9106 83.259C11.4481 84.2794 11.5902 85.1812 11.4791 86.0071C11.3033 86.4304 11.0533 86.8795 10.76 87.3478C10.7163 88.0037 10.7865 88.4492 10.8266 88.8202C9.47118 90.4538 9.16899 91.8069 9.92005 92.8795L25.7767 93.1688L26.4049 93.2038L27.3502 93.2508L28.3045 93.2928L29.2672 93.3308L30.238 93.3628L31.2164 93.3918L32.202 93.4148L33.1945 93.4348L34.1934 93.4488L35.1984 93.4598L36.2089 93.4658L37.2247 93.4678L38.2453 93.4658L39.2706 93.4598L40.2996 93.4498L41.3316 93.4358L42.3676 93.4178L43.4056 93.3968L44.4466 93.3718L45.4896 93.3428L46.5336 93.3108L47.5786 93.2748L48.6246 93.2358L49.6716 93.1938L50.7176 93.1488L51.7636 93.0998L52.8086 93.0478L53.8526 92.9928L54.8946 92.9358L55.9336 92.8748L56.9716 92.8118L58.0056 92.7458L59.0366 92.6768L60.0636 92.6058L61.0866 92.5328L62.1056 92.4568L63.3836 92.5918L64.6296 92.7468L65.8426 92.9208L67.0206 93.1168L68.1606 93.3338L69.2616 93.5728L70.3226 93.8358L71.3396 94.1238L92.0817 94.2681L93.3837 94.1911L94.6247 94.0971L95.8027 93.9841L96.9147 93.8521L97.9577 93.7011L98.2257 92.7451L98.4777 91.7781L98.7147 90.8011L98.9357 89.8131L98.3452 66.3973L98.5362 65.3893L98.7142 64.3713L98.8772 63.3433L99.0282 62.3073L99.1652 61.2613L99.2902 60.2073L99.4022 59.1443L99.5032 58.0743L99.5922 56.9953L99.6712 55.9093L99.7392 54.8163L99.7962 53.7163L99.8442 52.6093L99.8822 51.4953L99.7632 50.5483L99.6482 49.5963L99.5392 48.6403L99.4342 47.6803L99.3342 46.7163L99.2382 45.7493L99.1482 44.7785L99.0612 43.8044L98.9792 42.8272L98.9012 41.847L98.8272 40.864L98.7582 39.8783L98.6922 38.8901L98.6302 37.8996L98.5722 36.907L98.5182 35.9123L98.4672 34.9159L98.4192 33.9177L98.3752 32.9181L98.3352 31.9171L98.2972 30.9149L98.2622 29.9117L98.2312 28.9077L98.2022 27.903L98.1772 26.8978L98.1542 25.8922L98.1332 24.8864L98.1152 23.8806L98.1002 22.8749L98.0872 21.8695L98.0762 20.8646L98.0672 19.8603L98.0602 18.8568L98.0552 17.8542L98.0522 16.8528L98.0512 15.8526L98.0512 14.8539L98.0532 13.8568L98.0572 12.8614L98.0622 11.868L98.0682 10.8767L98.0752 9.88767L98.0842 8.90107L98.0932 7.91707L98.1032 6.93577L98.1142 5.95737L98.1262 4.98217L98.1392 4.01017L98.1512 3.04147L98.1652 2.07647L98.1782 1.11517L98.1922 0.157773L97.6112 0.158673L96.9772 0.160373L96.2882 0.162873L95.5452 0.166273L94.7482 0.170473L93.8982 0.175573L92.9932 0.181473L92.0342 0.188273L91.0212 0.195873L70.5731 0L69.4521 0.0093L68.2771 0.0195L67.0481 0.0304L65.7661 0.0423L64.4291 0.0549L63.0381 0.0685L61.5931 0.0828L60.9871 2.0436L60.2811 3.6455L59.4741 4.8883L58.5671 5.7723L57.5601 6.2973L57.5571 8.4264L56.7981 9.8115L55.2851 10.4525L54.7611 11.8451L53.3741 12.7464L51.1261 13.1562L49.2651 12.2754L48.2201 11.3792L46.9091 12.4176L45.6661 12.5036L44.3051 11.9085L42.9001 11.285L41.4521 10.6329L39.9601 9.9523L39.0761 7.933L37.0904 6.8134L37.2273 5.2288L37.1275 3.7927L36.7911 2.5053L36.2181 1.3663L35.3243 0.285572L34.434 0.3876L33.4494 0.3994L32.4546 0.4114L31.4497 0.4235L30.4346 0.4358L29.4094 0.4483L28.374 0.4609L27.3284 0.4737L26.2727 0.4866L25.2068 0.4997L24.1308 0.513L23.0446 0.5264L5.331 0.440567L4.2245 0.454367L3.1078 0.468267L1.981 0.482267L0.844 0.496467M2.1256 10.9167"/>
  
<path id="shape1"
  transform="matrix(0.869179384067099 -0.00124065909509966 0.00124065909509966 0.869179384067099 82.1828207817262 181.215079037597)" fill="#ffffff"
  fill-rule="evenodd"
  stroke="#773dff"
  stroke-width="0.605999999999952"
  stroke-linecap="square"
  stroke-linejoin="bevel"
  d="M24.0468 0.00319006L0 0.00938251C28.3491 37.508 21.7775 86.1762 27.675 130.856L52.275 130.838L59.0056 99.9526C65.324 80.8538 69.1454 61.7514 71.4938 42.6469L72.0375 42.6188C87.6145 68.6575 84.0889 101.278 89.4469 130.838L114.038 130.838C118.354 109.531 120.211 88.5283 129.369 66.6234C145.602 18.2925 145.483 9.71003 145.275 1.94255e-05L121.219 0C127.24 10.3834 120.309 28.1614 106.576 67.8373L102.047 88.8188C99.3947 65.7702 94.5037 46.2267 87.3741 30.1885C81.4136 15.232 83.9472 8.62216 84.0562 0.00938089L60.6656 0.0187495C53.5903 5.42157 50.9153 22.4214 53.0351 42.5542C52.2101 60.4628 46.4649 76.3139 40.8375 87C40.8671 53.2539 35.5166 24.0471 24.0468 0.00319006"/>
  
<path id="shape2"
  transform="matrix(0.869179384067099 -0.00124065909509966 0.00124065909509966 0.869179384067099 204.761142969554 180.898134585322)" fill="#ffffff"
  fill-rule="evenodd"
  stroke="#6a3dff"
  stroke-width="0.605999999999952"
  stroke-linecap="square"
  stroke-linejoin="bevel"
  d="M0 130.392L21.7661 39.5275C25.4372 25.4249 29.3193 11.211 27.5097 0L65.2832 0.0539175C71.3105 9.09951 73.8794 19.2925 78.1131 28.9331L97.1764 93.6252C97.6261 99.8284 99.465 107.441 102.59 114.226C107.999 125.201 109.584 124.891 110.492 129.841L85.8057 130.8C84.6161 127.21 83.7042 123.83 81.3292 119.349C78.6421 113.245 76.4184 107.374 74.391 101.601L31.238 101.592L24.63 130.469L0 130.392M36.032 79.9547L68.356 80.0077L55.819 32.5817L46.81 32.5917L36.032 79.9547"/>
</svg>
