<?xml version="1.0" standalone="no"?>
<!DOCTYPE svg PUBLIC "-//W3C//DTD SVG 20010904//EN" "http://www.w3.org/TR/2001/REC-SVG-20010904/DTD/svg10.dtd">

<svg xmlns="http://www.w3.org/2000/svg" 
    xmlns:xlink="http://www.w3.org/1999/xlink"
    width="509.184pt"
    height="64.584pt"
    viewBox="0 0 509.184 64.584">
<defs/>

<path id="shape1" 
  transform="matrix(1.00860762414495 0 0 1.01428813442507 3.46901206604486 9.14129489706218)" 
  fill="#000000" 
  stroke="#000000" 
  stroke-width="0.07272" 
  stroke-linecap="square" 
  stroke-linejoin="bevel" 
  d="M0 0.00225043L18.1462 45.7211L20.5222 45.7267L33.4057 14.6216L47.0846 45.7222L49.5349 45.7222L67.4629 0.0033744L59.3303 0L47.5948 31.3285L47.5168 31.3254L35.064 0.00562436L32.3314 0.00562424L19.728 31.3976L19.656 31.3931L8.13263 0.00337539L0 0.00225043"/>

<path id="shape0" 
  transform="matrix(1.0000000113406 0 0 1.0000000113406 65.1251073728144 8.24512009350468)" 
  fill="#000000" 
  fill-rule="evenodd" 
  stroke="#000000" 
  stroke-width="0.07272" 
  stroke-linecap="square" 
  stroke-linejoin="bevel" 
  d="M0 47.0126L23.5451 0L25.6309 0.00113L47.5199 47.016L38.7379 47.016L34.7051 37.224L13.1739 37.2222L8.856 47.0171L0 47.0126M15.2629 32.5451L24.1898 12.2389L24.2629 12.2367L32.4743 32.544L15.2629 32.5451"/>

<path id="shape01" 
  transform="matrix(1.0000000113406 0 0 1.0000000113406 118.223007974976 8.49150009629878)" 
  fill="#000000" 
  fill-rule="evenodd" 
  stroke="#000000" 
  stroke-width="0.07272" 
  stroke-linecap="square" 
  stroke-linejoin="bevel" 
  d="M0 0.36338L0 46.7359L14.831 46.7325L15.097 46.7325L15.363 46.7318L15.628 46.7304L15.892 46.7282L16.156 46.7253L16.42 46.7215L16.683 46.7169L16.945 46.7114L17.206 46.705L17.467 46.6976L17.727 46.6893L17.986 46.6799L18.244 46.6695L18.501 46.6581L18.758 46.6455L19.014 46.6318L19.268 46.617L19.522 46.601L19.775 46.5837L20.027 46.5652L20.277 46.5454L20.527 46.5243L20.775 46.5018L21.023 46.478L21.269 46.4527L21.514 46.426L21.758 46.3979L22 46.3682L22.241 46.337L22.481 46.3042L22.719 46.2699L22.957 46.2339L23.192 46.1962L23.426 46.1569L23.659 46.1158L23.89 46.073L24.12 46.0284L24.348 45.982L24.575 45.9338L24.8 45.8836L25.023 45.8316L25.245 45.7776L25.465 45.7217L25.683 45.6638L25.899 45.6038L26.114 45.5417L26.326 45.4776L26.537 45.4114L26.746 45.343L26.953 45.2724L27.158 45.1996L27.361 45.1245L27.563 45.0472L27.762 44.9675L27.959 44.8855L28.154 44.8012L28.346 44.7144L28.537 44.6252L28.725 44.5335L28.912 44.4393L29.096 44.3427L29.277 44.2434L29.457 44.1416L29.631 44.0483L29.804 43.9532L29.978 43.8561L30.152 43.757L30.326 43.6559L30.499 43.5528L30.671 43.4476L30.844 43.3402L31.015 43.2307L31.186 43.1191L31.356 43.0052L31.526 42.8891L31.694 42.7707L31.861 42.65L32.027 42.527L32.192 42.4016L32.355 42.2739L32.517 42.1437L32.677 42.011L32.836 41.8759L32.993 41.7382L33.148 41.598L33.302 41.4553L33.453 41.3099L33.602 41.1618L33.749 41.0111L33.894 40.8577L34.036 40.7015L34.176 40.5426L34.313 40.3808L34.448 40.2163L34.58 40.0489L34.709 39.8785L34.835 39.7053L34.958 39.5291L35.078 39.3499L35.195 39.1677L35.308 38.9825L35.418 38.7941L35.525 38.6027L35.628 38.4081L35.727 38.2103L35.822 38.0093L35.914 37.8051L36.001 37.5976L36.085 37.3869L36.164 37.1728L36.239 36.9553L36.31 36.7344L36.376 36.5101L36.438 36.2824L36.495 36.0511L36.548 35.8164L36.596 35.5781L36.638 35.3362L36.676 35.0907L36.709 34.8416L36.736 34.5888L36.759 34.3323L36.776 34.072L36.787 33.808L36.793 33.5402L36.793 33.2685L36.789 33.1089L36.783 32.9506L36.777 32.7937L36.769 32.6381L36.76 32.4839L36.75 32.331L36.738 32.1795L36.726 32.0292L36.712 31.8803L36.697 31.7327L36.681 31.5864L36.663 31.4413L36.645 31.2976L36.625 31.1551L36.604 31.0139L36.582 30.8739L36.559 30.7352L36.534 30.5977L36.508 30.4615L36.482 30.3265L36.453 30.1927L36.424 30.0601L36.394 29.9287L36.362 29.7985L36.329 29.6695L36.295 29.5416L36.26 29.4149L36.223 29.2894L36.185 29.1651L36.146 29.0418L36.106 28.9198L36.065 28.7988L36.022 28.679L35.979 28.5602L35.934 28.4426L35.888 28.3261L35.84 28.2106L35.792 28.0963L35.742 27.983L35.691 27.8708L35.639 27.7596L35.585 27.6495L35.531 27.5404L35.475 27.4323L35.418 27.3253L35.36 27.2193L35.3 27.1143L35.239 27.0103L35.178 26.9072L35.114 26.8052L35.05 26.7041L34.985 26.604L34.918 26.5049L34.85 26.4067L34.781 26.3095L34.71 26.2132L34.639 26.1178L34.566 26.0233L34.492 25.9298L34.416 25.8371L34.34 25.7454L34.262 25.6545L34.183 25.5645L34.072 25.4435L33.958 25.324L33.843 25.2061L33.725 25.0897L33.606 24.9748L33.485 24.8614L33.361 24.7496L33.236 24.6392L33.109 24.5303L32.98 24.4229L32.849 24.317L32.716 24.2125L32.582 24.1095L32.445 24.0079L32.306 23.9078L32.166 23.809L32.024 23.7117L31.88 23.6158L31.734 23.5213L31.586 23.4281L31.437 23.3364L31.285 23.246L31.132 23.157L30.977 23.0693L30.82 22.983L30.662 22.898L30.501 22.8143L30.339 22.7319L30.175 22.6509L30.01 22.5711L29.842 22.4926L29.673 22.4154L29.502 22.3395L29.33 22.2649L29.156 22.1914L28.98 22.1193L28.802 22.0483L28.623 21.9786L28.442 21.9101L28.259 21.8428L28.075 21.7767L27.889 21.7118L27.701 21.6481L27.512 21.5855L27.321 21.5241L27.129 21.4639L26.935 21.4048L26.739 21.3468L26.542 21.29L26.343 21.2342L26.143 21.1796L25.941 21.1261L25.738 21.0737L25.533 21.0223L25.326 20.972L25.118 20.9228L24.908 20.8746L24.697 20.8275L24.485 20.7814L24.271 20.7364L24.055 20.6923L23.838 20.6493L23.619 20.6072L23.744 20.5747L23.867 20.542L23.989 20.5091L24.11 20.476L24.23 20.4427L24.349 20.4091L24.467 20.3753L24.584 20.3413L24.7 20.307L24.815 20.2723L24.929 20.2374L25.042 20.2021L25.154 20.1664L25.265 20.1304L25.375 20.094L25.485 20.0572L25.593 20.02L25.701 19.9823L25.808 19.9442L25.914 19.9056L26.019 19.8665L26.123 19.8269L26.227 19.7867L26.33 19.7461L26.432 19.7048L26.533 19.663L26.634 19.6206L26.734 19.5776L26.833 19.5339L26.932 19.4896L27.03 19.4446L27.128 19.399L27.224 19.3526L27.321 19.3055L27.416 19.2577L27.511 19.2091L27.606 19.1598L27.7 19.1097L27.793 19.0588L27.886 19.007L27.979 18.9544L28.071 18.901L28.162 18.8466L28.253 18.7914L28.344 18.7353L28.434 18.6783L28.524 18.6203L28.614 18.5613L28.703 18.5014L28.792 18.4405L28.88 18.3785L28.969 18.3155L29.057 18.2515L29.144 18.1864L29.232 18.1203L29.319 18.053L29.406 17.9846L29.493 17.9151L29.579 17.8444L29.665 17.7726L29.752 17.6995L29.838 17.6253L29.924 17.5498L30.003 17.4828L30.082 17.4149L30.161 17.3461L30.24 17.2763L30.319 17.2055L30.399 17.1338L30.478 17.0612L30.557 16.9875L30.635 16.9128L30.714 16.8372L30.792 16.7605L30.87 16.6828L30.947 16.604L31.024 16.5242L31.101 16.4433L31.177 16.3613L31.253 16.2783L31.327 16.1942L31.401 16.1089L31.475 16.0225L31.548 15.935L31.619 15.8464L31.69 15.7566L31.76 15.6656L31.83 15.5735L31.898 15.4802L31.965 15.3856L32.031 15.2899L32.095 15.193L32.159 15.0948L32.221 14.9953L32.282 14.8947L32.342 14.7927L32.4 14.6895L32.457 14.585L32.513 14.4792L32.566 14.372L32.619 14.2636L32.669 14.1538L32.718 14.0427L32.765 13.9302L32.811 13.8164L32.855 13.7011L32.896 13.5845L32.936 13.4665L32.974 13.3471L33.01 13.2263L33.044 13.104L33.076 12.9803L33.105 12.8551L33.132 12.7284L33.158 12.6003L33.18 12.4707L33.201 12.3396L33.219 12.207L33.235 12.0728L33.248 11.9372L33.258 11.7999L33.266 11.6612L33.272 11.5208L33.275 11.3789L33.275 11.2354L33.272 11.0902L33.264 10.9684L33.255 10.8474L33.245 10.7275L33.234 10.6086L33.223 10.4907L33.211 10.3737L33.198 10.2578L33.185 10.1428L33.17 10.0289L33.155 9.9159L33.139 9.804L33.123 9.6931L33.105 9.5832L33.087 9.4743L33.068 9.3664L33.048 9.2595L33.028 9.1537L33.007 9.0488L32.985 8.945L32.963 8.8423L32.939 8.7405L32.915 8.6398L32.891 8.5401L32.865 8.4415L32.839 8.3439L32.812 8.2473L32.785 8.1518L32.757 8.0573L32.728 7.9638L32.698 7.8715L32.668 7.7801L32.637 7.6898L32.605 7.6006L32.573 7.5124L32.54 7.4253L32.507 7.3393L32.472 7.2543L32.437 7.1704L32.402 7.0876L32.366 7.0058L32.329 6.9251L32.291 6.8455L32.253 6.7669L32.214 6.6894L32.175 6.6131L32.135 6.5378L32.094 6.4635L32.053 6.3904L32.011 6.3184L31.968 6.2475L31.925 6.1776L31.881 6.1089L31.837 6.0412L31.792 5.9747L31.747 5.9093L31.701 5.8449L31.654 5.7817L31.607 5.7196L31.559 5.6586L31.51 5.5987L31.461 5.54L31.412 5.4823L31.361 5.4258L31.293 5.3327L31.224 5.2407L31.153 5.1498L31.082 5.06L31.009 4.9713L30.936 4.8837L30.862 4.7972L30.787 4.7117L30.711 4.6273L30.634 4.544L30.556 4.4617L30.477 4.3804L30.397 4.3002L30.317 4.221L30.235 4.1428L30.153 4.0656L30.07 3.9895L29.986 3.9143L29.901 3.8402L29.815 3.767L29.729 3.6948L29.642 3.6235L29.554 3.5533L29.465 3.4839L29.375 3.4156L29.285 3.3481L29.194 3.2816L29.102 3.2161L29.009 3.1514L28.916 3.0877L28.822 3.0248L28.728 2.9629L28.632 2.9018L28.536 2.8417L28.439 2.7824L28.342 2.7239L28.244 2.6664L28.145 2.6097L28.046 2.5538L27.946 2.4988L27.846 2.4446L27.744 2.3912L27.643 2.3387L27.54 2.2869L27.438 2.236L27.334 2.1859L27.23 2.1365L27.126 2.0879L27.02 2.0401L26.915 1.9931L26.809 1.9469L26.702 1.9013L26.595 1.8566L26.487 1.8125L26.379 1.7692L26.271 1.7267L26.162 1.6848L26.052 1.6437L25.942 1.6032L25.832 1.5635L25.721 1.5244L25.61 1.48601L25.499 1.4483L25.37 1.39984L25.24 1.35242L25.11 1.30602L24.979 1.26064L24.847 1.21627L24.715 1.17289L24.582 1.1305L24.449 1.08908L24.315 1.04863L24.18 1.00913L24.044 0.97057L23.908 0.93294L23.772 0.89623L23.634 0.86044L23.497 0.82554L23.358 0.79153L23.219 0.7584L23.08 0.72614L22.94 0.69474L22.799 0.66418L22.658 0.63446L22.516 0.60556L22.374 0.57748L22.231 0.5502L22.088 0.52372L21.944 0.49802L21.799 0.47309L21.655 0.44892L21.509 0.4255L21.364 0.40282L21.217 0.38087L21.071 0.35965L20.924 0.33912L20.776 0.3193L20.628 0.30016L20.479 0.2817L20.331 0.26391L20.181 0.24677L20.032 0.23027L19.881 0.21441L19.731 0.19917L19.58 0.18454L19.429 0.17052L19.277 0.15709L19.125 0.14423L18.973 0.13195L18.82 0.12022L18.667 0.10905L18.514 0.09841L18.36 0.0883L18.206 0.07871L18.052 0.06962L17.897 0.06103L17.742 0.05292L17.587 0.04528L17.432 0.03811L17.276 0.0314L17.12 0.02512L16.964 0.01928L16.807 0.01385L16.65 0.00884L16.493 0.00422L16.336 0L14.159 0.04843L11.294 0.11215L6.454 0.21982L1.021 0.34067L0 0.36338M7.943 23.6396L7.942 41.373L14.974 41.6936L15.173 41.69L15.371 41.6857L15.568 41.6806L15.763 41.6747L15.957 41.668L16.149 41.6606L16.339 41.6523L16.528 41.6432L16.716 41.6333L16.902 41.6226L17.086 41.611L17.269 41.5986L17.45 41.5854L17.63 41.5712L17.809 41.5563L17.986 41.5404L18.161 41.5237L18.335 41.5061L18.508 41.4876L18.679 41.4681L18.849 41.4478L19.017 41.4265L19.183 41.4044L19.349 41.3812L19.512 41.3572L19.675 41.3322L19.836 41.3062L19.995 41.2793L20.153 41.2513L20.31 41.2224L20.465 41.1925L20.619 41.1616L20.771 41.1298L20.922 41.0968L21.071 41.0629L21.219 41.0279L21.366 40.9919L21.511 40.9549L21.655 40.9168L21.798 40.8776L21.939 40.8374L22.079 40.7961L22.217 40.7537L22.354 40.7102L22.49 40.6656L22.624 40.6199L22.757 40.573L22.888 40.5251L23.019 40.476L23.148 40.4258L23.275 40.3744L23.401 40.3219L23.526 40.2682L23.65 40.2133L23.772 40.1573L23.893 40.1001L24.012 40.0416L24.13 39.982L24.247 39.9212L24.363 39.8591L24.477 39.7958L24.59 39.7313L24.702 39.6655L24.819 39.595L24.935 39.5228L25.049 39.449L25.161 39.3736L25.272 39.2965L25.381 39.2179L25.488 39.1376L25.594 39.0558L25.698 38.9724L25.8 38.8874L25.901 38.8008L26 38.7126L26.097 38.6229L26.192 38.5316L26.285 38.4387L26.377 38.3443L26.467 38.2484L26.555 38.1509L26.642 38.0519L26.726 37.9513L26.809 37.8493L26.89 37.7457L26.969 37.6406L27.046 37.534L27.121 37.4259L27.195 37.3163L27.266 37.2052L27.336 37.0926L27.404 36.9786L27.47 36.8631L27.534 36.7461L27.596 36.6276L27.656 36.5077L27.714 36.3864L27.77 36.2636L27.824 36.1393L27.877 36.0137L27.927 35.8866L27.975 35.758L28.022 35.6281L28.066 35.4968L28.108 35.364L28.148 35.2299L28.186 35.0943L28.223 34.9574L28.257 34.8191L28.289 34.6794L28.318 34.5383L28.346 34.3959L28.372 34.2521L28.396 34.107L28.417 33.9605L28.436 33.8127L28.454 33.6635L28.469 33.513L28.482 33.3612L28.492 33.208L28.501 33.0536L28.507 32.8978L28.512 32.7407L28.514 32.5823L28.513 32.4227L28.511 32.2617L28.501 32.0746L28.489 31.8908L28.474 31.7103L28.458 31.5331L28.44 31.3591L28.419 31.1883L28.397 31.0206L28.373 30.8561L28.347 30.6947L28.319 30.5362L28.289 30.3808L28.257 30.2283L28.224 30.0788L28.189 29.9321L28.152 29.7882L28.113 29.6471L28.072 29.5088L28.03 29.3732L27.986 29.2403L27.941 29.1099L27.894 28.9822L27.845 28.8571L27.795 28.7344L27.744 28.6142L27.69 28.4965L27.636 28.3811L27.58 28.2681L27.522 28.1574L27.463 28.049L27.403 27.9428L27.341 27.8388L27.278 27.7369L27.214 27.6372L27.149 27.5395L27.082 27.4438L27.014 27.3502L26.945 27.2585L26.874 27.1687L26.803 27.0807L26.73 26.9946L26.657 26.9103L26.582 26.8278L26.506 26.7469L26.429 26.6678L26.352 26.5902L26.273 26.5142L26.193 26.4398L26.113 26.3669L26.031 26.2955L25.949 26.2255L25.866 26.1569L25.782 26.0896L25.697 26.0237L25.612 25.959L25.525 25.8955L25.439 25.8332L25.351 25.7721L25.263 25.7121L25.174 25.6532L25.084 25.5952L24.994 25.5383L24.904 25.4823L24.813 25.4273L24.664 25.3532L24.515 25.281L24.365 25.2108L24.214 25.1425L24.062 25.076L23.91 25.0114L23.757 24.9487L23.603 24.8877L23.449 24.8285L23.294 24.771L23.138 24.7152L22.981 24.6611L22.824 24.6087L22.666 24.5579L22.508 24.5087L22.349 24.461L22.189 24.4149L22.029 24.3703L21.869 24.3272L21.707 24.2856L21.546 24.2454L21.383 24.2065L21.221 24.1691L21.057 24.133L20.894 24.0982L20.73 24.0647L20.565 24.0325L20.4 24.0015L20.234 23.9717L20.069 23.9431L19.902 23.9156L19.736 23.8893L19.569 23.864L19.402 23.8398L19.234 23.8167L19.066 23.7945L18.898 23.7734L18.73 23.7532L18.561 23.7339L18.392 23.7155L18.223 23.698L18.053 23.6814L17.884 23.6655L17.714 23.6505L17.544 23.6361L17.374 23.6226L17.204 23.6097L17.033 23.5975L16.863 23.586L16.692 23.575L16.522 23.5647L16.351 23.5549L16.18 23.5457L16.009 23.5369L15.838 23.5287L15.667 23.5209L15.496 23.5135L15.326 23.5065L15.155 23.4999L14.984 23.4936L14.813 23.4876L14.642 23.4819L14.472 23.4765L13.878 23.4913L13.444 23.5022L12.891 23.516L10.024 23.5876L8.939 23.6148L8.351 23.6294L7.943 23.6396M7.921 5.4034L7.925 18.786L14.185 19.008L14.359 19.0017L14.532 18.9949L14.702 18.9876L14.871 18.9797L15.038 18.9713L15.204 18.9623L15.368 18.9528L15.53 18.9428L15.69 18.9321L15.849 18.9209L16.006 18.9091L16.161 18.8968L16.315 18.8838L16.467 18.8702L16.618 18.8561L16.767 18.8413L16.915 18.8258L17.06 18.8098L17.205 18.7931L17.348 18.7758L17.489 18.7578L17.629 18.7391L17.767 18.7198L17.904 18.6998L18.039 18.6792L18.173 18.6578L18.306 18.6358L18.437 18.613L18.566 18.5895L18.694 18.5654L18.821 18.5404L18.947 18.5148L19.071 18.4884L19.193 18.4613L19.315 18.4334L19.435 18.4048L19.554 18.3754L19.671 18.3452L19.787 18.3143L19.902 18.2825L20.016 18.25L20.128 18.2166L20.239 18.1825L20.349 18.1475L20.458 18.1117L20.566 18.075L20.672 18.0376L20.777 17.9993L20.881 17.9601L20.984 17.92L21.086 17.8791L21.187 17.8374L21.286 17.7947L21.385 17.7512L21.482 17.7067L21.579 17.6614L21.674 17.6151L21.768 17.5679L21.862 17.5198L21.954 17.4708L22.045 17.4208L22.135 17.3699L22.225 17.318L22.321 17.2601L22.417 17.201L22.51 17.1407L22.603 17.0793L22.693 17.0167L22.783 16.953L22.871 16.8882L22.957 16.8223L23.042 16.7553L23.126 16.6871L23.208 16.6178L23.289 16.5474L23.368 16.4759L23.445 16.4034L23.522 16.3297L23.596 16.2549L23.669 16.1791L23.741 16.1022L23.811 16.0242L23.88 15.9451L23.947 15.865L24.013 15.7838L24.077 15.7016L24.139 15.6183L24.2 15.5339L24.26 15.4485L24.318 15.3621L24.374 15.2747L24.429 15.1862L24.483 15.0967L24.534 15.0062L24.585 14.9146L24.633 14.8221L24.68 14.7285L24.726 14.634L24.77 14.5384L24.812 14.4419L24.853 14.3443L24.892 14.2458L24.93 14.1463L24.966 14.0459L25 13.9445L25.033 13.8421L25.064 13.7387L25.094 13.6344L25.122 13.5291L25.148 13.4229L25.173 13.3158L25.196 13.2077L25.218 13.0987L25.238 12.9887L25.256 12.8779L25.272 12.7661L25.287 12.6534L25.301 12.5398L25.312 12.4253L25.322 12.3099L25.331 12.1936L25.337 12.0764L25.342 11.9583L25.346 11.8393L25.347 11.7195L25.347 11.5988L25.345 11.5125L25.341 11.4267L25.337 11.3413L25.331 11.2562L25.325 11.1715L25.318 11.0872L25.31 11.0033L25.301 10.9198L25.291 10.8367L25.281 10.754L25.269 10.6717L25.256 10.5898L25.242 10.5083L25.228 10.4272L25.212 10.3465L25.195 10.2663L25.178 10.1865L25.159 10.1071L25.139 10.0281L25.118 9.9496L25.097 9.8715L25.074 9.7938L25.05 9.7166L25.024 9.6398L24.998 9.5635L24.971 9.4876L24.942 9.4122L24.913 9.3372L24.882 9.2627L24.85 9.1887L24.817 9.1151L24.783 9.042L24.747 8.9693L24.71 8.8972L24.672 8.8255L24.633 8.7543L24.593 8.6835L24.551 8.6133L24.508 8.5436L24.464 8.4743L24.419 8.4056L24.372 8.3373L24.324 8.2696L24.275 8.2023L24.224 8.1356L24.172 8.0694L24.119 8.0037L24.064 7.9385L24.008 7.8738L23.951 7.8097L23.892 7.7461L23.832 7.683L23.77 7.6204L23.707 7.5584L23.643 7.497L23.577 7.436L23.509 7.3757L23.441 7.3158L23.37 7.2566L23.298 7.1978L23.225 7.1397L23.15 7.0821L23.074 7.025L22.991 6.9671L22.906 6.9102L22.82 6.8543L22.733 6.7995L22.645 6.7457L22.555 6.6928L22.464 6.641L22.372 6.5902L22.278 6.5404L22.183 6.4916L22.087 6.4438L21.989 6.397L21.89 6.3511L21.79 6.3062L21.688 6.2623L21.585 6.2194L21.48 6.1774L21.375 6.1363L21.268 6.0962L21.159 6.0571L21.049 6.0189L20.938 5.9816L20.825 5.9452L20.711 5.9098L20.596 5.8753L20.479 5.8417L20.361 5.809L20.241 5.7772L20.12 5.7463L19.997 5.7163L19.873 5.6871L19.748 5.6589L19.621 5.6315L19.493 5.605L19.363 5.5793L19.232 5.5546L19.099 5.5306L18.965 5.5075L18.829 5.4853L18.692 5.4639L18.554 5.4433L18.413 5.4236L18.272 5.4047L18.129 5.3866L17.984 5.3693L17.838 5.3528L17.69 5.3371L17.541 5.3222L17.391 5.3081L17.238 5.2948L17.085 5.2823L16.929 5.2706L16.773 5.2596L16.614 5.2494L16.454 5.2399L16.293 5.2312L16.13 5.2233L15.965 5.2161L15.799 5.2096L15.631 5.2039L15.462 5.1989L15.291 5.1946L15.118 5.191L13.796 5.23L12.36 5.2724L10.585 5.3248L8.371 5.3901L7.921 5.4034"/>

<path id="shape02" 
  transform="matrix(1.0000000113406 0 0 1.0000000113406 159.157133222582 8.82000011410772)" 
  fill="#000000" 
  fill-rule="evenodd" 
  stroke="#000000" 
  stroke-width="0.07272" 
  stroke-linecap="square" 
  stroke-linejoin="bevel" 
  d="M18.5018 46.44L26.4173 46.4389L26.4206 5.76337L45.7178 5.75663L45.7178 0L0.00111622 0.00112449L0 5.75887L18.5006 5.76112L18.5018 46.44"/>
</svg>
