<?xml version="1.0" standalone="no"?>
<!DOCTYPE svg PUBLIC "-//W3C//DTD SVG 20010904//EN" "http://www.w3.org/TR/2001/REC-SVG-20010904/DTD/svg10.dtd">

<svg xmlns="http://www.w3.org/2000/svg" 
    xmlns:xlink="http://www.w3.org/1999/xlink"
    width="509.184pt"
    height="64.584pt"
    viewBox="0 0 509.184 64.584">
<defs/>

<path id="shape0" 
transform="matrix(1.11432329093603 0 0 0.870967595143789 5.33033006905191 6.78237129627254)" 
fill="#afafaf" 
stroke="#afafaf" 
stroke-width="0.24" 
stroke-linecap="square" 
stroke-linejoin="bevel" 
d="M32.7612 8.73719L35.1949 2.73342C33.6087 1.6468 28.0484 0.123067 23.2283 0.00607317C19.5316 -0.0780915 15.3754 0.698219 10.8229 3.23153C7.4381 5.4465 3.50334 9.94985 1.43694 16.3755C0.482792 19.2582 -0.0772699 22.5483 0.0086457 26.2459C-0.0163972 32.4158 0.662137 39.4963 4.9999 45.1234C7.78667 49.6696 12.4771 52.8247 20.8736 53.1222C28.3657 53.7291 33.127 50.7112 37.4637 47.1297L33.3912 41.8159C31.1371 44.7005 28.3414 46.8474 22.3399 46.8934C16.4989 46.6811 13.1324 43.9145 10.7718 40.4022C8.16967 36.6302 7.0461 31.5698 7.2124 25.2934C7.84573 16.9231 10.8778 11.0636 16.3086 7.71494C18.3825 6.6738 20.7359 6.21578 23.3688 6.34089C27.3154 6.4902 30.4462 7.28896 32.7612 8.73719Z"/>

<path id="shape01" 
transform="matrix(1.11432329093603 0 0 0.870967595143789 52.3699850362692 18.9673677360881)" 
fill="#afafaf" 
fill-rule="evenodd" 
stroke="#afafaf" stroke-width="0.2424" 
stroke-linecap="square" 
stroke-linejoin="bevel" 
d="M34.222 19.544L34.236 19.238L34.246 18.932L34.253 18.628L34.255 18.324L34.254 18.022L34.249 17.721L34.241 17.421L34.229 17.122L34.213 16.825L34.193 16.529L34.17 16.234L34.143 15.94L34.112 15.648L34.078 15.358L34.041 15.069L33.999 14.781L33.954 14.495L33.906 14.211L33.854 13.928L33.799 13.647L33.74 13.368L33.678 13.091L33.612 12.815L33.543 12.542L33.471 12.27L33.395 12L33.316 11.732L33.234 11.466L33.148 11.203L33.059 10.941L32.967 10.682L32.871 10.425L32.772 10.17L32.67 9.917L32.565 9.666L32.457 9.418L32.345 9.173L32.23 8.93L32.113 8.689L31.992 8.451L31.868 8.215L31.741 7.982L31.611 7.752L31.478 7.524L31.342 7.299L31.203 7.077L31.061 6.857L30.916 6.641L30.768 6.427L30.617 6.216L30.463 6.008L30.307 5.804L30.148 5.602L29.985 5.403L29.821 5.208L29.653 5.015L29.482 4.826L29.309 4.64L29.133 4.457L28.954 4.278L28.773 4.102L28.589 3.93L28.402 3.761L28.221 3.605L28.037 3.451L27.851 3.301L27.663 3.154L27.472 3.01L27.278 2.869L27.083 2.731L26.884 2.595L26.684 2.463L26.481 2.335L26.275 2.209L26.067 2.086L25.857 1.967L25.645 1.851L25.43 1.738L25.213 1.628L24.993 1.522L24.772 1.419L24.547 1.32L24.321 1.224L24.093 1.131L23.862 1.042L23.629 0.956L23.393 0.874L23.156 0.795L22.916 0.72L22.674 0.648L22.43 0.58L22.184 0.516L21.936 0.455L21.685 0.398L21.433 0.345L21.178 0.296L20.921 0.25L20.662 0.208L20.401 0.17L20.138 0.136L19.873 0.106L19.606 0.08L19.337 0.057L19.066 0.039L18.793 0.025L18.517 0.014L18.24 0.008L17.961 0.006L17.68 0.008L17.397 0.014L17.112 0.024L16.644 0.005L16.181 0L15.721 0.009L15.265 0.032L14.813 0.069L14.366 0.12L13.922 0.183L13.484 0.261L13.05 0.351L12.621 0.454L12.197 0.57L11.778 0.698L11.364 0.839L10.956 0.992L10.553 1.157L10.155 1.333L9.763 1.522L9.377 1.721L8.997 1.932L8.622 2.154L8.254 2.387L7.892 2.63L7.537 2.884L7.188 3.148L6.846 3.423L6.511 3.707L6.182 4.001L5.861 4.305L5.546 4.618L5.239 4.94L4.94 5.272L4.648 5.612L4.363 5.961L4.087 6.318L3.818 6.684L3.557 7.058L3.305 7.439L3.06 7.829L2.824 8.226L2.597 8.63L2.378 9.042L2.168 9.46L1.967 9.885L1.775 10.318L1.592 10.756L1.418 11.201L1.254 11.652L1.099 12.108L0.954 12.571L0.818 13.039L0.693 13.512L0.577 13.991L0.472 14.475L0.377 14.963L0.292 15.456L0.218 15.953L0.154 16.455L0.101 16.961L0.059 17.471L0.028 17.984L0.009 18.501L0 19.021L0.003 19.544L0.013 19.824L0.025 20.102L0.04 20.38L0.056 20.656L0.074 20.931L0.095 21.205L0.117 21.479L0.141 21.75L0.168 22.021L0.196 22.291L0.227 22.559L0.26 22.826L0.294 23.092L0.331 23.357L0.37 23.62L0.411 23.882L0.455 24.142L0.5 24.401L0.548 24.659L0.598 24.915L0.65 25.17L0.704 25.424L0.76 25.675L0.819 25.926L0.88 26.175L0.943 26.422L1.009 26.667L1.076 26.911L1.146 27.153L1.219 27.394L1.293 27.633L1.37 27.87L1.449 28.105L1.531 28.339L1.615 28.571L1.702 28.801L1.79 29.029L1.882 29.255L1.975 29.479L2.071 29.702L2.17 29.922L2.271 30.141L2.374 30.357L2.48 30.572L2.588 30.784L2.699 30.994L2.812 31.203L2.928 31.409L3.046 31.613L3.167 31.814L3.291 32.014L3.417 32.211L3.545 32.406L3.677 32.599L3.81 32.79L3.947 32.978L4.086 33.164L4.228 33.347L4.372 33.529L4.519 33.707L4.669 33.883L4.821 34.057L5.001 34.249L5.183 34.437L5.368 34.622L5.556 34.804L5.746 34.983L5.939 35.159L6.134 35.331L6.332 35.5L6.532 35.665L6.735 35.827L6.94 35.986L7.148 36.141L7.358 36.292L7.57 36.44L7.784 36.584L8.001 36.725L8.22 36.862L8.442 36.995L8.665 37.125L8.891 37.251L9.119 37.373L9.349 37.491L9.581 37.605L9.815 37.716L10.051 37.822L10.29 37.924L10.53 38.023L10.772 38.117L11.016 38.207L11.262 38.293L11.511 38.375L11.76 38.452L12.012 38.526L12.266 38.595L12.521 38.66L12.778 38.72L13.037 38.776L13.298 38.828L13.56 38.875L13.824 38.917L14.09 38.955L14.357 38.989L14.626 39.018L14.896 39.042L15.168 39.062L15.441 39.076L15.716 39.087L15.993 39.092L16.27 39.092L16.55 39.088L16.83 39.079L17.112 39.065L17.586 39.087L18.056 39.095L18.522 39.089L18.984 39.07L19.442 39.037L19.895 38.991L20.345 38.932L20.79 38.859L21.23 38.774L21.665 38.675L22.096 38.565L22.521 38.442L22.941 38.306L23.356 38.159L23.765 38L24.169 37.829L24.566 37.646L24.958 37.452L25.344 37.247L25.724 37.03L26.097 36.803L26.464 36.565L26.824 36.316L27.178 36.057L27.525 35.788L27.864 35.508L28.197 35.219L28.522 34.919L28.839 34.61L29.15 34.292L29.452 33.964L29.747 33.628L30.033 33.282L30.311 32.927L30.582 32.564L30.843 32.192L31.096 31.812L31.341 31.424L31.577 31.028L31.803 30.624L32.021 30.212L32.229 29.793L32.428 29.366L32.617 28.933L32.797 28.492L32.967 28.044L33.127 27.59L33.277 27.129L33.417 26.662L33.546 26.189L33.665 25.709L33.773 25.224L33.87 24.733L33.957 24.236L34.032 23.734L34.097 23.227L34.15 22.715L34.191 22.198L34.221 21.676L34.239 21.15L34.245 20.619L34.239 20.084L34.222 19.544M27.035 19.54L27.058 19.158L27.075 18.777L27.085 18.399L27.089 18.023L27.086 17.65L27.077 17.28L27.062 16.912L27.04 16.548L27.013 16.187L26.979 15.83L26.939 15.476L26.892 15.126L26.84 14.779L26.782 14.436L26.717 14.098L26.647 13.764L26.57 13.434L26.488 13.109L26.399 12.788L26.305 12.472L26.205 12.161L26.099 11.856L25.987 11.555L25.87 11.26L25.746 10.97L25.617 10.686L25.483 10.408L25.342 10.136L25.197 9.869L25.045 9.61L24.888 9.356L24.725 9.109L24.557 8.868L24.384 8.635L24.205 8.408L24.021 8.189L23.831 7.976L23.636 7.771L23.436 7.574L23.23 7.384L23.019 7.202L22.803 7.028L22.582 6.862L22.355 6.704L22.124 6.554L21.887 6.413L21.646 6.281L21.399 6.157L21.147 6.043L20.891 5.937L20.629 5.841L20.363 5.754L20.091 5.676L19.815 5.609L19.534 5.55L19.248 5.502L18.958 5.464L18.663 5.436L18.363 5.419L18.058 5.412L17.749 5.415L17.435 5.43L17.117 5.455L16.826 5.448L16.538 5.451L16.253 5.465L15.971 5.489L15.692 5.524L15.417 5.568L15.144 5.623L14.875 5.687L14.609 5.761L14.346 5.845L14.087 5.937L13.832 6.04L13.58 6.151L13.332 6.271L13.088 6.401L12.847 6.539L12.611 6.685L12.378 6.84L12.15 7.003L11.926 7.175L11.706 7.354L11.49 7.542L11.279 7.737L11.072 7.94L10.869 8.15L10.671 8.367L10.478 8.592L10.29 8.824L10.106 9.063L9.927 9.308L9.754 9.561L9.585 9.819L9.421 10.085L9.263 10.356L9.109 10.633L8.961 10.917L8.819 11.206L8.682 11.501L8.55 11.802L8.424 12.108L8.304 12.419L8.189 12.735L8.08 13.057L7.978 13.383L7.881 13.714L7.79 14.049L7.705 14.389L7.626 14.734L7.554 15.082L7.488 15.435L7.428 15.791L7.375 16.152L7.328 16.515L7.288 16.883L7.255 17.253L7.228 17.627L7.209 18.004L7.196 18.384L7.19 18.767L7.191 19.153L7.199 19.54L7.18 19.928L7.168 20.313L7.163 20.695L7.165 21.075L7.173 21.452L7.188 21.825L7.209 22.196L7.237 22.563L7.272 22.927L7.313 23.288L7.36 23.645L7.414 23.998L7.474 24.346L7.54 24.691L7.613 25.032L7.692 25.368L7.776 25.7L7.867 26.026L7.964 26.349L8.067 26.666L8.176 26.978L8.29 27.284L8.411 27.586L8.537 27.882L8.669 28.172L8.807 28.456L8.95 28.734L9.099 29.007L9.253 29.273L9.413 29.532L9.578 29.786L9.748 30.032L9.924 30.272L10.105 30.504L10.292 30.73L10.483 30.948L10.68 31.159L10.882 31.363L11.088 31.559L11.3 31.747L11.517 31.927L11.738 32.099L11.965 32.263L12.196 32.418L12.432 32.565L12.672 32.704L12.917 32.833L13.167 32.954L13.421 33.065L13.68 33.168L13.943 33.261L14.211 33.344L14.483 33.418L14.759 33.482L15.04 33.536L15.324 33.58L15.613 33.614L15.906 33.638L16.203 33.651L16.504 33.654L16.808 33.645L17.117 33.626L17.405 33.636L17.69 33.636L17.974 33.626L18.255 33.605L18.533 33.575L18.809 33.535L19.083 33.485L19.353 33.426L19.621 33.357L19.886 33.278L20.148 33.191L20.407 33.094L20.663 32.988L20.915 32.873L21.164 32.75L21.409 32.617L21.651 32.477L21.888 32.327L22.122 32.17L22.352 32.004L22.578 31.83L22.799 31.648L23.017 31.458L23.229 31.261L23.438 31.055L23.641 30.843L23.84 30.622L24.035 30.395L24.224 30.16L24.408 29.918L24.587 29.67L24.761 29.414L24.929 29.152L25.092 28.883L25.249 28.607L25.401 28.325L25.547 28.037L25.687 27.743L25.821 27.443L25.948 27.137L26.07 26.825L26.185 26.507L26.294 26.183L26.397 25.855L26.492 25.521L26.581 25.181L26.663 24.837L26.739 24.487L26.807 24.133L26.868 23.774L26.921 23.41L26.968 23.041L27.006 22.669L27.038 22.291L27.061 21.91L27.077 21.525L27.085 21.135L27.085 20.742L27.076 20.345L27.06 19.945L27.035 19.54"/>

<path id="shape011" 
transform="matrix(1.11432331378983 0 0 0.870967613006577 98.9598305161464 19.0144935185227)" 
fill="#afafaf" 
fill-rule="evenodd" 
stroke="#afafaf" 
stroke-width="0.2424" 
stroke-linecap="square" 
stroke-linejoin="bevel" 
d="M0 0.681616L1.4637e-05 38.3616L6.49125 38.3541L6.46875 10.2591C7.59168 8.9083 8.73961 7.86598 10.1032 7.13541C11.7133 6.27101 13.5066 5.65854 15.36 5.47788C17.6316 5.60831 19.1256 6.18009 20.136 7.02681C22.5707 8.98817 22.5544 12.4231 23.0325 15.2916L23.0475 38.3429L29.5125 38.3504L29.5238 12.6854C29.4762 8.2632 28.12 5.43493 26.1305 3.32211C25.1826 2.26037 24.2911 1.42531 22.8113 0.910368C21.3406 0.44838 21.2627 0.171724 17.2988 0.0028891C14.7335 -0.0422285 12.3206 0.438634 10.3311 1.61809C8.96536 2.37142 7.73387 3.55777 6.72376 5.47038L6.26251 5.48538L4.28626 0.670379C4.28626 0.670379 2.85751 0.674125 0 0.681616Z"/>

<path id="shape1" 
transform="matrix(1.11432331378983 0 0 0.870967613006577 137.47084507547 19.5951097639809)" 
fill="#afafaf" 
fill-rule="evenodd" 
stroke="#afafaf" 
stroke-width="0.2424" 
stroke-linecap="square" 
stroke-linejoin="bevel" 
d="M0 0.014985L16.0688 38.3775L17.7637 38.4037L34.3125 0.003737L27.36 0L17.1675 26.1637L7.16625 0.00373572C7.16625 0.00373572 4.7775 0.00748549 0 0.014985Z"/>

<path id="shape2" 
transform="matrix(1.11432331378983 0 0 0.870967613006577 178.514730718694 18.9447108742401)" 
fill="#afafaf" 
fill-rule="evenodd" 
stroke="#afafaf" 
stroke-width="0.2424" 
stroke-linecap="square" 
stroke-linejoin="bevel" 
d="M34.322 20.033L34.372 19.747L34.418 19.462L34.462 19.178L34.502 18.894L34.539 18.612L34.573 18.331L34.604 18.051L34.631 17.772L34.655 17.494L34.676 17.217L34.693 16.941L34.707 16.667L34.718 16.393L34.725 16.121L34.728 15.85L34.728 15.58L34.725 15.311L34.718 15.044L34.707 14.778L34.693 14.513L34.675 14.25L34.654 13.988L34.629 13.727L34.6 13.467L34.567 13.209L34.531 12.953L34.491 12.698L34.447 12.444L34.4 12.192L34.348 11.941L34.293 11.692L34.234 11.444L34.171 11.198L34.103 10.953L34.032 10.71L33.957 10.469L33.878 10.229L33.795 9.991L33.708 9.755L33.617 9.52L33.522 9.287L33.422 9.056L33.319 8.826L33.211 8.598L33.099 8.372L32.982 8.148L32.862 7.926L32.737 7.705L32.608 7.486L32.475 7.27L32.337 7.055L32.195 6.842L32.048 6.631L31.897 6.422L31.741 6.215L31.581 6.009L31.417 5.806L31.248 5.605L31.074 5.406L30.896 5.209L30.714 5.015L30.526 4.822L30.334 4.631L30.149 4.453L29.961 4.277L29.771 4.104L29.578 3.935L29.383 3.769L29.186 3.605L28.986 3.445L28.784 3.289L28.58 3.135L28.373 2.985L28.163 2.839L27.952 2.696L27.738 2.556L27.522 2.42L27.303 2.287L27.082 2.158L26.859 2.032L26.634 1.91L26.406 1.792L26.176 1.678L25.944 1.567L25.709 1.461L25.473 1.358L25.234 1.259L24.993 1.164L24.75 1.073L24.504 0.986L24.256 0.903L24.007 0.825L23.755 0.75L23.501 0.68L23.244 0.614L22.986 0.552L22.725 0.494L22.463 0.441L22.198 0.392L21.931 0.348L21.662 0.308L21.391 0.273L21.118 0.242L20.843 0.216L20.566 0.195L20.287 0.178L20.006 0.166L19.723 0.159L19.438 0.156L18.905 0.092L18.377 0.045L17.854 0.014L17.336 0L16.823 0.003L16.316 0.022L15.813 0.057L15.316 0.108L14.825 0.174L14.339 0.255L13.859 0.351L13.385 0.462L12.917 0.588L12.455 0.727L11.999 0.88L11.55 1.047L11.108 1.228L10.672 1.422L10.243 1.628L9.821 1.847L9.407 2.079L8.999 2.322L8.599 2.578L8.206 2.845L7.821 3.124L7.443 3.414L7.073 3.714L6.712 4.025L6.358 4.347L6.013 4.679L5.676 5.02L5.347 5.371L5.027 5.732L4.716 6.101L4.414 6.48L4.121 6.867L3.837 7.262L3.562 7.665L3.296 8.077L3.04 8.495L2.794 8.922L2.557 9.355L2.33 9.795L2.114 10.241L1.907 10.694L1.711 11.153L1.525 11.618L1.349 12.088L1.184 12.563L1.03 13.044L0.887 13.529L0.755 14.019L0.634 14.513L0.525 15.011L0.427 15.513L0.34 16.018L0.265 16.527L0.202 17.039L0.15 17.553L0.111 18.07L0.084 18.589L0.069 19.11L0.067 19.633L0.046 19.918L0.029 20.201L0.016 20.483L0.007 20.764L0.002 21.043L0 21.321L0.003 21.597L0.009 21.872L0.019 22.146L0.032 22.417L0.05 22.688L0.071 22.956L0.095 23.223L0.124 23.489L0.156 23.753L0.191 24.015L0.23 24.276L0.273 24.535L0.319 24.792L0.369 25.048L0.422 25.302L0.478 25.554L0.538 25.804L0.602 26.053L0.668 26.3L0.738 26.545L0.812 26.788L0.888 27.03L0.968 27.269L1.051 27.507L1.137 27.743L1.227 27.977L1.32 28.209L1.415 28.439L1.514 28.667L1.616 28.894L1.721 29.118L1.829 29.34L1.94 29.56L2.054 29.778L2.171 29.995L2.29 30.209L2.413 30.421L2.539 30.63L2.667 30.838L2.798 31.044L2.932 31.247L3.069 31.449L3.209 31.648L3.351 31.845L3.496 32.039L3.644 32.232L3.794 32.422L3.947 32.61L4.102 32.795L4.26 32.979L4.421 33.16L4.584 33.359L4.75 33.555L4.919 33.747L5.091 33.937L5.266 34.124L5.444 34.308L5.625 34.488L5.808 34.666L5.995 34.84L6.185 35.011L6.377 35.179L6.572 35.344L6.77 35.506L6.97 35.664L7.174 35.819L7.379 35.971L7.588 36.12L7.799 36.265L8.012 36.407L8.228 36.546L8.447 36.681L8.668 36.813L8.891 36.942L9.117 37.067L9.345 37.189L9.576 37.308L9.809 37.423L10.044 37.534L10.281 37.642L10.52 37.747L10.762 37.847L11.005 37.945L11.251 38.039L11.499 38.129L11.749 38.216L12.001 38.299L12.255 38.378L12.51 38.454L12.768 38.526L13.028 38.595L13.289 38.659L13.552 38.72L13.817 38.778L14.084 38.831L14.352 38.881L14.622 38.927L14.894 38.969L15.167 39.007L15.442 39.041L15.718 39.072L15.996 39.099L16.276 39.121L16.557 39.14L16.839 39.155L17.123 39.166L17.408 39.173L17.694 39.176L17.981 39.175L18.27 39.17L18.56 39.161L18.852 39.148L19.144 39.131L19.438 39.109L19.728 39.107L20.016 39.102L20.303 39.093L20.587 39.081L20.869 39.065L21.149 39.045L21.427 39.022L21.702 38.996L21.976 38.966L22.247 38.932L22.517 38.896L22.784 38.855L23.048 38.812L23.311 38.765L23.572 38.715L23.83 38.661L24.086 38.604L24.34 38.544L24.591 38.48L24.84 38.413L25.087 38.343L25.332 38.27L25.574 38.193L25.814 38.114L26.052 38.031L26.287 37.945L26.521 37.855L26.751 37.763L26.98 37.667L27.206 37.569L27.429 37.467L27.651 37.362L27.869 37.255L28.086 37.144L28.3 37.03L28.511 36.913L28.72 36.793L28.927 36.67L29.131 36.545L29.333 36.416L29.532 36.284L29.729 36.15L29.923 36.012L30.115 35.872L30.304 35.729L30.491 35.583L30.675 35.434L30.856 35.283L31.035 35.128L31.212 34.971L30.962 34.577L30.753 34.247L30.58 33.973L30.437 33.747L30.319 33.56L30.221 33.402L30.138 33.266L30.064 33.144L29.993 33.025L29.922 32.903L29.844 32.767L29.754 32.61L29.647 32.423L29.517 32.198L29.36 31.925L29.17 31.596L28.942 31.203L28.67 30.736L28.35 30.188L28.336 30.257L28.306 30.33L28.263 30.407L28.204 30.487L28.132 30.571L28.046 30.658L27.947 30.748L27.834 30.84L27.709 30.934L27.572 31.03L27.423 31.128L27.262 31.227L27.09 31.327L26.907 31.428L26.714 31.529L26.511 31.631L26.297 31.733L26.075 31.834L25.843 31.934L25.602 32.034L25.353 32.132L25.096 32.229L24.832 32.325L24.56 32.418L24.281 32.508L23.996 32.597L23.704 32.682L23.406 32.764L23.103 32.843L22.795 32.918L22.482 32.989L22.164 33.055L21.842 33.117L21.517 33.174L21.188 33.226L20.856 33.273L20.521 33.314L20.184 33.348L19.845 33.377L19.505 33.399L19.163 33.414L18.82 33.422L18.477 33.423L18.133 33.416L17.789 33.4L17.446 33.377L17.104 33.345L16.763 33.305L16.424 33.255L16.087 33.196L15.751 33.127L15.419 33.048L15.089 32.959L14.763 32.859L14.44 32.749L14.122 32.628L13.808 32.495L13.498 32.35L13.194 32.194L12.895 32.026L12.602 31.845L12.315 31.651L12.035 31.444L11.801 31.259L11.574 31.071L11.354 30.882L11.141 30.69L10.935 30.496L10.735 30.3L10.542 30.102L10.355 29.901L10.175 29.698L10 29.493L9.832 29.286L9.67 29.076L9.514 28.864L9.364 28.65L9.219 28.434L9.08 28.215L8.946 27.994L8.818 27.77L8.695 27.544L8.578 27.316L8.465 27.086L8.357 26.852L8.254 26.617L8.156 26.379L8.063 26.139L7.974 25.896L7.889 25.651L7.809 25.403L7.733 25.153L7.661 24.9L7.593 24.645L7.529 24.387L7.469 24.127L7.413 23.864L7.36 23.599L7.311 23.331L7.265 23.061L7.222 22.788L7.183 22.512L7.146 22.234L7.113 21.953L7.082 21.669L7.054 21.383L7.029 21.094L7.006 20.803L6.986 20.508L6.968 20.211L7.701 20.21L8.408 20.209L9.091 20.208L9.751 20.208L10.388 20.207L11.003 20.207L11.597 20.207L12.17 20.207L12.724 20.207L13.258 20.208L13.775 20.208L14.274 20.208L14.756 20.209L15.222 20.209L15.673 20.21L16.11 20.211L16.533 20.211L16.943 20.212L17.341 20.212L17.727 20.213L18.103 20.214L18.469 20.214L18.826 20.215L19.175 20.215L19.516 20.215L19.85 20.215L20.178 20.215L20.5 20.215L20.818 20.215L21.132 20.215L21.444 20.214L21.753 20.214L22.06 20.213L22.366 20.212L22.673 20.21L22.98 20.209L23.289 20.207L23.6 20.205L23.914 20.203L24.232 20.2L24.554 20.197L24.881 20.194L25.215 20.19L25.555 20.187L25.903 20.182L26.26 20.178L26.625 20.173L27 20.168L27.386 20.162L27.783 20.156L28.192 20.149L28.614 20.142L29.05 20.135L29.5 20.127L29.965 20.119L30.446 20.11L30.944 20.1L31.459 20.091L31.992 20.08L32.544 20.069L33.116 20.058L33.708 20.046L34.322 20.033M7.083 15.39L27.974 15.417L27.958 15.051L27.934 14.696L27.904 14.353L27.868 14.021L27.826 13.699L27.777 13.388L27.723 13.088L27.663 12.797L27.596 12.516L27.525 12.244L27.447 11.981L27.365 11.727L27.277 11.482L27.183 11.244L27.085 11.015L26.981 10.793L26.873 10.578L26.76 10.371L26.642 10.17L26.519 9.975L26.392 9.787L26.261 9.604L26.125 9.428L25.985 9.256L25.841 9.089L25.693 8.927L25.541 8.77L25.386 8.616L25.226 8.467L25.049 8.307L24.875 8.152L24.704 8.004L24.535 7.86L24.366 7.722L24.198 7.59L24.029 7.462L23.859 7.339L23.686 7.221L23.51 7.108L23.331 6.999L23.146 6.895L22.956 6.795L22.759 6.7L22.555 6.608L22.343 6.52L22.122 6.436L21.891 6.356L21.649 6.28L21.396 6.206L21.131 6.137L20.853 6.07L20.561 6.006L20.254 5.946L19.931 5.888L19.592 5.833L19.236 5.78L18.862 5.73L18.469 5.682L18.056 5.637L17.736 5.647L17.421 5.662L17.111 5.683L16.807 5.71L16.509 5.741L16.215 5.779L15.927 5.822L15.644 5.87L15.366 5.924L15.094 5.983L14.827 6.047L14.565 6.117L14.309 6.193L14.058 6.274L13.812 6.361L13.572 6.452L13.337 6.55L13.107 6.653L12.882 6.761L12.663 6.875L12.449 6.994L12.241 7.119L12.037 7.249L11.84 7.385L11.647 7.526L11.46 7.673L11.277 7.825L11.101 7.982L10.929 8.145L10.763 8.313L10.602 8.487L10.447 8.667L10.267 8.828L10.091 8.995L9.92 9.168L9.753 9.346L9.59 9.531L9.432 9.721L9.279 9.917L9.13 10.119L8.985 10.327L8.845 10.541L8.709 10.761L8.578 10.986L8.451 11.218L8.329 11.455L8.211 11.698L8.098 11.947L7.988 12.202L7.884 12.462L7.784 12.729L7.688 13.001L7.597 13.279L7.51 13.563L7.428 13.853L7.35 14.149L7.277 14.451L7.208 14.758L7.143 15.071L7.083 15.39" />

<path id="shape3" 
transform="matrix(1.11432331378983 0 0 0.870967613006577 225.453648306908 18.9712633436416)" 
fill="#afafaf" 
fill-rule="evenodd" 
stroke="#afafaf" 
stroke-width="0.2424" 
stroke-linecap="square" 
stroke-linejoin="bevel" 
d="M0.00373276 0.712503L0 38.4L6.48373 38.4112L6.48747 15.1162C7.54045 10.3774 9.82016 6.6533 15.3526 5.51937C17.2471 5.87223 18.6274 6.50712 19.9087 7.19625L22.335 0.731253C21.351 0.457179 20.5065 0.177091 17.2725 0C15.077 0.0774815 12.9751 0.376484 11.0344 1.70212C9.25354 2.70775 7.69282 4.27379 6.48373 6.73125L6.48376 0.720019C6.48376 0.720019 4.32375 0.717514 0.00373276 0.712503Z" />

<path id="shape4" 
transform="matrix(1.11432331378983 0 0 0.870967613006577 253.795556048973 10.6263049685977)" 
fill="#afafaf" 
fill-rule="evenodd" 
stroke="#afafaf" 
stroke-width="0.2424" 
stroke-linecap="square" 
stroke-linejoin="bevel" 
d="M4.32747 2.39391L10.802 0L10.8021 10.305L21.1183 10.3163L21.1221 15.5963L10.8095 15.585L10.8081 35.2426C11.3936 39.3403 12.2464 43.2059 17.6196 43.1438L23.0421 41.9775L23.5588 47.7364C22.6147 48.0445 21.1013 48.2885 19.2213 48.5536C17.9737 48.6581 16.5282 48.7132 14.9076 48.7076C10.8819 48.4099 8.96352 47.1486 7.43035 45.5396C3.45171 41.1978 4.40456 37.9283 4.29565 34.2667L4.32208 15.57L0 15.5938L0.0245743 10.2825L4.33329 10.3013C4.33329 10.3013 4.33135 7.66547 4.32747 2.39391Z"/>

<path id="shape5" 
transform="matrix(1.11432331378983 0 0 0.870967613006577 285.456824992822 19.0325806313837)" 
fill="#afafaf" 
fill-rule="evenodd" 
stroke="#afafaf" 
stroke-width="0.2424" 
stroke-linecap="square" 
stroke-linejoin="bevel" 
d="M34.322 20.033L34.372 19.747L34.418 19.462L34.462 19.178L34.502 18.894L34.539 18.612L34.573 18.331L34.604 18.051L34.631 17.772L34.655 17.494L34.676 17.217L34.693 16.941L34.707 16.667L34.718 16.393L34.725 16.121L34.728 15.85L34.728 15.58L34.725 15.311L34.718 15.044L34.707 14.778L34.693 14.513L34.675 14.25L34.654 13.988L34.629 13.727L34.6 13.467L34.567 13.209L34.531 12.953L34.491 12.698L34.447 12.444L34.4 12.192L34.348 11.941L34.293 11.692L34.234 11.444L34.171 11.198L34.103 10.953L34.032 10.71L33.957 10.469L33.878 10.229L33.795 9.991L33.708 9.755L33.617 9.52L33.522 9.287L33.422 9.056L33.319 8.826L33.211 8.598L33.099 8.372L32.982 8.148L32.862 7.926L32.737 7.705L32.608 7.486L32.475 7.27L32.337 7.055L32.195 6.842L32.048 6.631L31.897 6.422L31.741 6.215L31.581 6.009L31.417 5.806L31.248 5.605L31.074 5.406L30.896 5.209L30.714 5.015L30.526 4.822L30.334 4.631L30.149 4.453L29.961 4.277L29.771 4.104L29.578 3.935L29.383 3.769L29.186 3.605L28.986 3.445L28.784 3.289L28.58 3.135L28.373 2.985L28.163 2.839L27.952 2.696L27.738 2.556L27.522 2.42L27.303 2.287L27.082 2.158L26.859 2.032L26.634 1.91L26.406 1.792L26.176 1.678L25.944 1.567L25.709 1.461L25.473 1.358L25.234 1.259L24.993 1.164L24.75 1.073L24.504 0.986L24.256 0.903L24.007 0.825L23.755 0.75L23.501 0.68L23.244 0.614L22.986 0.552L22.725 0.494L22.463 0.441L22.198 0.392L21.931 0.348L21.662 0.308L21.391 0.273L21.118 0.242L20.843 0.216L20.566 0.195L20.287 0.178L20.006 0.166L19.723 0.159L19.438 0.156L18.905 0.092L18.377 0.045L17.854 0.014L17.336 0L16.823 0.003L16.316 0.022L15.813 0.057L15.316 0.108L14.825 0.174L14.339 0.255L13.859 0.351L13.385 0.462L12.917 0.588L12.455 0.727L11.999 0.88L11.55 1.047L11.108 1.228L10.672 1.422L10.243 1.628L9.821 1.847L9.407 2.079L8.999 2.322L8.599 2.578L8.206 2.845L7.821 3.124L7.443 3.414L7.073 3.714L6.712 4.025L6.358 4.347L6.013 4.679L5.676 5.02L5.347 5.371L5.027 5.732L4.716 6.101L4.414 6.48L4.121 6.867L3.837 7.262L3.562 7.665L3.296 8.077L3.04 8.495L2.794 8.922L2.557 9.355L2.33 9.795L2.114 10.241L1.907 10.694L1.711 11.153L1.525 11.618L1.349 12.088L1.184 12.563L1.03 13.044L0.887 13.529L0.755 14.019L0.634 14.513L0.525 15.011L0.427 15.513L0.34 16.018L0.265 16.527L0.202 17.039L0.15 17.553L0.111 18.07L0.084 18.589L0.069 19.11L0.067 19.633L0.046 19.918L0.029 20.201L0.016 20.483L0.007 20.764L0.002 21.043L0 21.321L0.003 21.597L0.009 21.872L0.019 22.146L0.032 22.417L0.05 22.688L0.071 22.956L0.095 23.223L0.124 23.489L0.156 23.753L0.191 24.015L0.23 24.276L0.273 24.535L0.319 24.792L0.369 25.048L0.422 25.302L0.478 25.554L0.538 25.804L0.602 26.053L0.668 26.3L0.738 26.545L0.812 26.788L0.888 27.03L0.968 27.269L1.051 27.507L1.137 27.743L1.227 27.977L1.32 28.209L1.415 28.439L1.514 28.667L1.616 28.894L1.721 29.118L1.829 29.34L1.94 29.56L2.054 29.778L2.171 29.995L2.29 30.209L2.413 30.421L2.539 30.63L2.667 30.838L2.798 31.044L2.932 31.247L3.069 31.449L3.209 31.648L3.351 31.845L3.496 32.039L3.644 32.232L3.794 32.422L3.947 32.61L4.102 32.795L4.26 32.979L4.421 33.16L4.584 33.359L4.75 33.555L4.919 33.747L5.091 33.937L5.266 34.124L5.444 34.308L5.625 34.488L5.808 34.666L5.995 34.84L6.185 35.011L6.377 35.179L6.572 35.344L6.77 35.506L6.97 35.664L7.174 35.819L7.379 35.971L7.588 36.12L7.799 36.265L8.012 36.407L8.228 36.546L8.447 36.681L8.668 36.813L8.891 36.942L9.117 37.067L9.345 37.189L9.576 37.308L9.809 37.423L10.044 37.534L10.281 37.642L10.52 37.747L10.762 37.847L11.005 37.945L11.251 38.039L11.499 38.129L11.749 38.216L12.001 38.299L12.255 38.378L12.51 38.454L12.768 38.526L13.028 38.595L13.289 38.659L13.552 38.72L13.817 38.778L14.084 38.831L14.352 38.881L14.622 38.927L14.894 38.969L15.167 39.007L15.442 39.041L15.718 39.072L15.996 39.099L16.276 39.121L16.557 39.14L16.839 39.155L17.123 39.166L17.408 39.173L17.694 39.176L17.981 39.175L18.27 39.17L18.56 39.161L18.852 39.148L19.144 39.131L19.438 39.109L19.728 39.107L20.016 39.102L20.303 39.093L20.587 39.081L20.869 39.065L21.149 39.045L21.427 39.022L21.702 38.996L21.976 38.966L22.247 38.932L22.517 38.896L22.784 38.855L23.048 38.812L23.311 38.765L23.572 38.715L23.83 38.661L24.086 38.604L24.34 38.544L24.591 38.48L24.84 38.413L25.087 38.343L25.332 38.27L25.574 38.193L25.814 38.114L26.052 38.031L26.287 37.945L26.521 37.855L26.751 37.763L26.98 37.667L27.206 37.569L27.429 37.467L27.651 37.362L27.869 37.255L28.086 37.144L28.3 37.03L28.511 36.913L28.72 36.793L28.927 36.67L29.131 36.545L29.333 36.416L29.532 36.284L29.729 36.15L29.923 36.012L30.115 35.872L30.304 35.729L30.491 35.583L30.675 35.434L30.856 35.283L31.035 35.128L31.212 34.971L30.962 34.577L30.753 34.247L30.58 33.973L30.437 33.747L30.319 33.56L30.221 33.402L30.138 33.266L30.064 33.144L29.993 33.025L29.922 32.903L29.844 32.767L29.754 32.61L29.647 32.423L29.517 32.198L29.36 31.925L29.17 31.596L28.942 31.203L28.67 30.736L28.35 30.188L28.336 30.257L28.306 30.33L28.263 30.407L28.204 30.487L28.132 30.571L28.046 30.658L27.947 30.748L27.834 30.84L27.709 30.934L27.572 31.03L27.423 31.128L27.262 31.227L27.09 31.327L26.907 31.428L26.714 31.529L26.511 31.631L26.297 31.733L26.075 31.834L25.843 31.934L25.602 32.034L25.353 32.132L25.096 32.229L24.832 32.325L24.56 32.418L24.281 32.508L23.996 32.597L23.704 32.682L23.406 32.764L23.103 32.843L22.795 32.918L22.482 32.989L22.164 33.055L21.842 33.117L21.517 33.174L21.188 33.226L20.856 33.273L20.521 33.314L20.184 33.348L19.845 33.377L19.505 33.399L19.163 33.414L18.82 33.422L18.477 33.423L18.133 33.416L17.789 33.4L17.446 33.377L17.104 33.345L16.763 33.305L16.424 33.255L16.087 33.196L15.751 33.127L15.419 33.048L15.089 32.959L14.763 32.859L14.44 32.749L14.122 32.628L13.808 32.495L13.498 32.35L13.194 32.194L12.895 32.026L12.602 31.845L12.315 31.651L12.035 31.444L11.801 31.259L11.574 31.071L11.354 30.882L11.141 30.69L10.935 30.496L10.735 30.3L10.542 30.102L10.355 29.901L10.175 29.698L10 29.493L9.832 29.286L9.67 29.076L9.514 28.864L9.364 28.65L9.219 28.434L9.08 28.215L8.946 27.994L8.818 27.77L8.695 27.544L8.578 27.316L8.465 27.086L8.357 26.852L8.254 26.617L8.156 26.379L8.063 26.139L7.974 25.896L7.889 25.651L7.809 25.403L7.733 25.153L7.661 24.9L7.593 24.645L7.529 24.387L7.469 24.127L7.413 23.864L7.36 23.599L7.311 23.331L7.265 23.061L7.222 22.788L7.183 22.512L7.146 22.234L7.113 21.953L7.082 21.669L7.054 21.383L7.029 21.094L7.006 20.803L6.986 20.508L6.968 20.211L7.701 20.21L8.408 20.209L9.091 20.208L9.751 20.208L10.388 20.207L11.003 20.207L11.597 20.207L12.17 20.207L12.724 20.207L13.258 20.208L13.775 20.208L14.274 20.208L14.756 20.209L15.222 20.209L15.673 20.21L16.11 20.211L16.533 20.211L16.943 20.212L17.341 20.212L17.727 20.213L18.103 20.214L18.469 20.214L18.826 20.215L19.175 20.215L19.516 20.215L19.85 20.215L20.178 20.215L20.5 20.215L20.818 20.215L21.132 20.215L21.444 20.214L21.753 20.214L22.06 20.213L22.366 20.212L22.673 20.21L22.98 20.209L23.289 20.207L23.6 20.205L23.914 20.203L24.232 20.2L24.554 20.197L24.881 20.194L25.215 20.19L25.555 20.187L25.903 20.182L26.26 20.178L26.625 20.173L27 20.168L27.386 20.162L27.783 20.156L28.192 20.149L28.614 20.142L29.05 20.135L29.5 20.127L29.965 20.119L30.446 20.11L30.944 20.1L31.459 20.091L31.992 20.08L32.544 20.069L33.116 20.058L33.708 20.046L34.322 20.033M7.083 15.39L27.974 15.417L27.958 15.051L27.934 14.696L27.904 14.353L27.868 14.021L27.826 13.699L27.777 13.388L27.723 13.088L27.663 12.797L27.596 12.516L27.525 12.244L27.447 11.981L27.365 11.727L27.277 11.482L27.183 11.244L27.085 11.015L26.981 10.793L26.873 10.578L26.76 10.371L26.642 10.17L26.519 9.975L26.392 9.787L26.261 9.604L26.125 9.428L25.985 9.256L25.841 9.089L25.693 8.927L25.541 8.77L25.386 8.616L25.226 8.467L25.049 8.307L24.875 8.152L24.704 8.004L24.535 7.86L24.366 7.722L24.198 7.59L24.029 7.462L23.859 7.339L23.686 7.221L23.51 7.108L23.331 6.999L23.146 6.895L22.956 6.795L22.759 6.7L22.555 6.608L22.343 6.52L22.122 6.436L21.891 6.356L21.649 6.28L21.396 6.206L21.131 6.137L20.853 6.07L20.561 6.006L20.254 5.946L19.931 5.888L19.592 5.833L19.236 5.78L18.862 5.73L18.469 5.682L18.056 5.637L17.736 5.647L17.421 5.662L17.111 5.683L16.807 5.71L16.509 5.741L16.215 5.779L15.927 5.822L15.644 5.87L15.366 5.924L15.094 5.983L14.827 6.047L14.565 6.117L14.309 6.193L14.058 6.274L13.812 6.361L13.572 6.452L13.337 6.55L13.107 6.653L12.882 6.761L12.663 6.875L12.449 6.994L12.241 7.119L12.037 7.249L11.84 7.385L11.647 7.526L11.46 7.673L11.277 7.825L11.101 7.982L10.929 8.145L10.763 8.313L10.602 8.487L10.447 8.667L10.267 8.828L10.091 8.995L9.92 9.168L9.753 9.346L9.59 9.531L9.432 9.721L9.279 9.917L9.13 10.119L8.985 10.327L8.845 10.541L8.709 10.761L8.578 10.986L8.451 11.218L8.329 11.455L8.211 11.698L8.098 11.947L7.988 12.202L7.884 12.462L7.784 12.729L7.688 13.001L7.597 13.279L7.51 13.563L7.428 13.853L7.35 14.149L7.277 14.451L7.208 14.758L7.143 15.071L7.083 15.39"/>

<path id="shape6" 
transform="matrix(1.11432331378983 0 0 0.870967613006577 332.299531642743 19.0683051560086)" 
fill="#afafaf" 
fill-rule="evenodd" 
stroke="#afafaf" 
stroke-width="0.2424" 
stroke-linecap="square" stroke-linejoin="bevel" 
d="M0.00373276 0.712503L0 38.4L6.48373 38.4112L6.48747 15.1162C7.54045 10.3774 9.82016 6.6533 15.3526 5.51937C17.2471 5.87223 18.6274 6.50712 19.9087 7.19625L22.335 0.731253C21.351 0.457179 20.5065 0.177091 17.2725 0C15.077 0.0774815 12.9751 0.376484 11.0344 1.70212C9.25354 2.70775 7.69282 4.27379 6.48373 6.73125L6.48376 0.720019C6.48376 0.720019 4.32375 0.717514 0.00373276 0.712503Z"/>
</svg>
