<?xml version="1.0" standalone="no"?>
<!DOCTYPE svg PUBLIC "-//W3C//DTD SVG 20010904//EN" "http://www.w3.org/TR/2001/REC-SVG-20010904/DTD/svg10.dtd">

<svg xmlns="http://www.w3.org/2000/svg" 
    xmlns:xlink="http://www.w3.org/1999/xlink"
    width="46.656pt"
    height="38.52pt"
    viewBox="0 0 46.656 38.52">
<defs>

  <radialGradient id="gradient0" gradientUnits="objectBoundingBox" cx="0.489099937891468" cy="0.514065386155251" fx="0.495601727954023" fy="0.499885321920928" r="1.0384720794007" spreadMethod="pad">
   <stop stop-color="#566b77" offset="0" stop-opacity="0.0431372549019608"/>
   <stop stop-color="#0e1216" offset="0.241200000047684" stop-opacity="0"/>
   <stop stop-color="#11161b" offset="0.264699995517731" stop-opacity="1"/>
   <stop stop-color="#3e4f92" offset="0.27649998664856" stop-opacity="0"/>
   <stop stop-color="#171f40" offset="0.417600005865097" stop-opacity="0"/>
   <stop stop-color="#050818" offset="0.552900016307831" stop-opacity="0.890196078431372"/>
  </radialGradient>
  <radialGradient id="gradient1" gradientUnits="objectBoundingBox" cx="0" cy="0" fx="0" fy="0" r="1.4142135623731" spreadMethod="pad">
   <stop stop-color="#ffffff" offset="0" stop-opacity="0"/>
   <stop stop-color="#a7a6c3" offset="0.332399994134903" stop-opacity="0.2"/>
   <stop stop-color="#000000" offset="0.655900001525879" stop-opacity="0.337254901960784"/>
  </radialGradient>
 </defs>

<path id="shape0"
  transform="matrix(0.999999952464832 0 0 0.999999952464832 0.730059614236043 1.14816994542156)"
  fill="url(#gradient0)"
  fill-rule="evenodd"
  stroke-opacity="0.300007629510948"
  stroke="#ffffff"
  stroke-width="0.3"
  stroke-linecap="square"
  stroke-linejoin="bevel"
  d="M18.5019 26.5803L18.4924 26.6529L18.4842 26.7272L18.4771 26.8031L18.4711 26.8803L18.4659 26.9589L18.4613 27.0385L18.4574 27.1194L18.4538 27.2011L18.4504 27.2837L18.4471 27.367L18.4437 27.4509L18.4401 27.5354L18.4362 27.6202L18.4317 27.7052L18.4265 27.7904L18.4205 27.8756L18.4134 27.9607L18.4052 28.0458L18.3957 28.1304L18.3847 28.2145L18.3721 28.2982L18.3577 28.3812L18.3415 28.4633L18.3231 28.5447L18.3025 28.6249L18.2795 28.7041L18.254 28.7821L18.2259 28.8586L18.1947 28.9337L18.1606 29.0072L18.1234 29.0791L18.0829 29.1491L18.039 29.2171L17.9914 29.2831L17.9399 29.3469L17.8847 29.4086L17.8252 29.4677L17.8059 29.4944L17.781 29.5207L17.7508 29.5469L17.7154 29.5727L17.675 29.5982L17.6299 29.6233L17.5801 29.648L17.526 29.6725L17.4677 29.6965L17.4053 29.7201L17.3392 29.7433L17.2696 29.766L17.1964 29.7882L17.1201 29.81L17.0406 29.8313L16.9584 29.8521L16.8735 29.8724L16.7861 29.892L16.6966 29.9112L16.6048 29.9297L16.5113 29.9477L16.416 29.9651L16.3193 29.9818L16.2213 29.9978L16.1222 30.0132L16.0221 30.028L15.9214 30.042L15.8202 30.0553L15.7186 30.0678L15.6168 30.0797L15.5151 30.0907L15.4137 30.101L15.3127 30.1105L15.2124 30.1191L15.1128 30.1269L15.0143 30.1339L14.917 30.14L14.8211 30.1452L14.7269 30.1495L14.6344 30.1529L14.5439 30.1553L14.4556 30.1569L14.3696 30.1573L14.2863 30.1569L14.2057 30.1554L14.128 30.1529L14.0535 30.1494L13.9823 30.1448L13.9147 30.1392L13.8507 30.1324L13.7907 30.1245L13.7348 30.1155L13.6833 30.1054L13.6362 30.0941L13.5938 30.0817L13.5563 30.068L13.5239 30.0531L13.4967 30.0371L13.3905 30.0122L13.2876 29.9836L13.188 29.951L13.092 29.9144L12.9997 29.8736L12.9114 29.8286L12.8272 29.7792L12.7475 29.7251L12.6724 29.6664L12.602 29.6028L12.5367 29.5343L12.4939 29.4763L12.4555 29.4156L12.4213 29.3525L12.391 29.2871L12.3643 29.2196L12.3409 29.15L12.3206 29.0787L12.3029 29.0055L12.2878 28.9309L12.2748 28.8549L12.2638 28.7776L12.2543 28.6992L12.2462 28.6199L12.2391 28.5397L12.2329 28.4591L12.2271 28.3778L12.2214 28.2962L12.2157 28.2144L12.2097 28.1325L12.203 28.0508L12.1954 27.9693L12.1866 27.8883L12.1762 27.8077L12.1642 27.7279L12.15 27.649L12.1334 27.571L12.1143 27.4943L12.0923 27.4188L12.067 27.3448L12.0382 27.2723L12.0057 27.2018L11.9692 27.133L11.9284 27.0663L11.8829 27.0018L11.8326 26.9397L11.777 26.8801L11.716 26.8232L11.6492 26.769L11.6336 26.7755L11.6089 26.7789L11.5754 26.7791L11.5339 26.7765L11.4847 26.7712L11.4284 26.7633L11.3656 26.7528L11.2966 26.74L11.2219 26.725L11.1421 26.7078L11.0578 26.6885L10.9693 26.6675L10.8772 26.6447L10.782 26.6203L10.6843 26.5945L10.5843 26.5671L10.4828 26.5387L10.3802 26.5091L10.277 26.4784L10.1737 26.447L10.0708 26.4148L9.96884 26.3821L9.86824 26.3488L9.76955 26.3152L9.67334 26.2813L9.57995 26.2474L9.49005 26.2135L9.40404 26.1797L9.32235 26.1463L9.24565 26.1131L9.17442 26.0807L9.10909 26.0487L9.05012 26.0176L8.97138 26.0345L8.89556 26.0583L8.82244 26.0886L8.75183 26.1249L8.68351 26.1669L8.6173 26.2139L8.55283 26.2656L8.49016 26.3213L8.42871 26.3806L8.36863 26.4431L8.30946 26.5081L8.25104 26.5753L8.19312 26.6442L8.13561 26.7141L8.07819 26.7848L8.02056 26.8557L7.9627 26.9262L7.90433 26.9959L7.84507 27.0643L7.78501 27.131L7.72364 27.1953L7.66084 27.257L7.59641 27.3153L7.53022 27.3699L7.4619 27.4202L7.39129 27.4659L7.31813 27.5063L7.24226 27.5411L7.16353 27.5696L7.08157 27.5914L6.99634 27.6061L6.90745 27.6131L6.81463 27.6119L6.71796 27.6021L6.61697 27.5832L6.51148 27.5546L6.40135 27.5159L6.28641 27.4666L6.25155 27.4531L6.21195 27.4348L6.16775 27.4119L6.11904 27.3845L6.06628 27.3528L6.00957 27.3169L5.94916 27.277L5.88528 27.2332L5.81816 27.1858L5.74803 27.1348L5.67498 27.0804L5.5995 27.0228L5.52156 26.9622L5.44154 26.8986L5.35963 26.8323L5.27597 26.7635L5.1909 26.6922L5.10454 26.6186L5.01722 26.543L4.92915 26.4654L4.84049 26.3859L4.75157 26.305L4.66247 26.2224L4.57348 26.1387L4.48489 26.0537L4.39682 25.9677L4.30953 25.8809L4.22335 25.7935L4.13828 25.7056L4.05478 25.6172L3.97293 25.5286L3.89311 25.44L3.81534 25.3517L3.73991 25.2635L3.66709 25.1757L3.5972 25.0886L3.53026 25.0022L3.46659 24.9166L3.40644 24.8323L3.35001 24.7491L3.29746 24.6673L3.2491 24.587L3.20517 24.5085L3.1659 24.4318L3.1314 24.3572L3.10202 24.2847L3.07797 24.2146L3.05939 24.147L3.04649 24.0819L3.03964 24.0198L3.03903 23.9607L3.07757 23.8341L3.11985 23.7097L3.16552 23.5872L3.21409 23.4672L3.26523 23.3494L3.31865 23.234L3.37379 23.1213L3.43049 23.0111L3.48822 22.9036L3.54664 22.799L3.60537 22.6973L3.66397 22.5985L3.72227 22.5028L3.77959 22.4104L3.83589 22.3213L3.89049 22.2355L3.94322 22.1531L3.99357 22.0745L4.04129 21.9993L4.0858 21.9281L4.12697 21.8605L4.16428 21.797L4.19733 21.7375L4.22583 21.6822L4.24932 21.6311L4.2675 21.5843L4.27998 21.5419L4.28634 21.504L4.28622 21.4706L4.27928 21.4421L4.26506 21.4184L4.24325 21.3995L4.21833 21.3572L4.19039 21.3083L4.15947 21.2532L4.12585 21.1923L4.08977 21.1262L4.05148 21.055L4.01126 20.9794L3.96924 20.8998L3.92568 20.8166L3.88094 20.7301L3.83519 20.6409L3.78855 20.5494L3.74139 20.456L3.6939 20.3612L3.6463 20.2654L3.59894 20.1689L3.5519 20.0723L3.50552 19.9761L3.46007 19.8805L3.41568 19.786L3.37265 19.6932L3.33117 19.6023L3.29146 19.514L3.25382 19.4284L3.21856 19.3463L3.1858 19.2679L3.1558 19.1935L3.12884 19.1239L3.10502 19.0592L3.08475 19.0001L3.06817 18.9468L3.05552 18.9L3.04718 18.8598L3.04319 18.8269L3.04381 18.8017L3.04939 18.7844L3.01096 18.764L2.96647 18.7479L2.91631 18.7355L2.86076 18.7264L2.8003 18.7205L2.73502 18.7171L2.66548 18.7159L2.5919 18.7166L2.51462 18.7188L2.43404 18.7219L2.35045 18.7256L2.26412 18.7296L2.17555 18.7334L2.08491 18.7368L1.99266 18.7391L1.89901 18.7401L1.80434 18.7395L1.70912 18.7366L1.61343 18.7312L1.51788 18.723L1.42252 18.7113L1.32796 18.6961L1.23435 18.6766L1.1422 18.6527L1.05157 18.6239L0.963075 18.5899L0.876845 18.5501L0.793315 18.5043L0.712825 18.4519L0.635685 18.3928L0.562265 18.3263L0.492845 18.2521L0.427825 18.17L0.367465 18.0794L0.351645 18.0566L0.336035 18.0286L0.320685 17.9958L0.305485 17.9583L0.290565 17.9162L0.275945 17.8697L0.26143 17.8191L0.247344 17.7643L0.233387 17.7055L0.219801 17.6431L0.206494 17.5772L0.193569 17.5077L0.180859 17.4351L0.16847 17.3594L0.156527 17.2808L0.144832 17.1994L0.133627 17.1155L0.122702 17.0292L0.112182 16.9405L0.10209 16.8498L0.092331 16.7572L0.083043 16.6629L0.074214 16.5668L0.065783 16.4695L0.057854 16.3708L0.050355 16.2711L0.043285 16.1704L0.036772 16.0689L0.030731 15.9669L0.025184 15.8644L0.02013 15.7616L0.015708 15.6588L0.011718 15.5559L0.008285 15.4534L0.005527 15.3512L0.003243 15.2495L0.001571 15.1486L0.000522 15.0486L0 14.9496L0.000133 14.8517L0.000942 14.7554L0.002333 14.6605L0.004421 14.5673L0.007134 14.476L0.010587 14.3868L0.014581 14.2998L0.019442 14.215L0.024897 14.1329L0.031041 14.0534L0.038011 13.9768L0.045723 13.9033L0.054073 13.8329L0.063292 13.7659L0.07319 13.7024L0.084001 13.6426L0.095513 13.5866L0.107864 13.5346L0.12097 13.4869L0.134926 13.4434L0.149784 13.4046L0.16543 13.3704L0.18199 13.3409L0.19938 13.3165L0.249225 13.2434L0.302425 13.1751L0.358535 13.1113L0.417545 13.0519L0.479195 12.9967L0.543385 12.9455L0.609985 12.898L0.678735 12.854L0.749655 12.8135L0.822375 12.7761L0.897005 12.7417L0.973075 12.71L1.05057 12.681L1.12948 12.6542L1.20937 12.6297L1.29029 12.6071L1.37193 12.5863L1.45426 12.567L1.53706 12.5492L1.62028 12.5325L1.7035 12.5167L1.7869 12.5017L1.87005 12.4873L1.9529 12.4732L2.03525 12.4594L2.11707 12.4454L2.1981 12.4312L2.27815 12.4167L2.35706 12.4014L2.43471 12.3853L2.5111 12.3682L2.58576 12.3498L2.6588 12.3301L2.72985 12.3086L2.7989 12.2853L2.86573 12.26L2.93022 12.2325L2.9922 12.2024L3.0515 12.1698L3.10793 12.1343L3.10116 12.0804L3.09912 12.0207L3.10156 11.956L3.10817 11.8862L3.11878 11.812L3.13292 11.7337L3.1506 11.6516L3.17134 11.5662L3.19495 11.4778L3.22119 11.3868L3.24985 11.2936L3.28057 11.1985L3.31313 11.102L3.3472 11.0045L3.38268 10.9061L3.4192 10.8075L3.45644 10.7089L3.49418 10.6107L3.53231 10.5134L3.57034 10.4173L3.60813 10.3228L3.64534 10.2301L3.68185 10.1398L3.71725 10.0522L3.75137 9.96773L3.78393 9.88673L3.81454 9.80953L3.84324 9.73643L3.86944 9.66803L3.89306 9.60463L3.91383 9.54663L3.93135 9.49423L3.94555 9.44803L3.95608 9.40843L3.96262 9.37553L3.91378 9.34793L3.86317 9.31643L3.81109 9.28103L3.75779 9.24193L3.70345 9.19913L3.64837 9.15283L3.5927 9.10313L3.53669 9.05003L3.48058 8.99383L3.42469 8.93443L3.36902 8.87223L3.314 8.80701L3.25978 8.73909L3.20659 8.66861L3.1547 8.59556L3.10428 8.52012L3.05565 8.44238L3.00894 8.36253L2.96444 8.28054L2.9223 8.1966L2.88284 8.11081L2.84627 8.02322L2.81276 7.93416L2.78268 7.84347L2.75608 7.75147L2.73331 7.65823L2.71442 7.56375L2.69991 7.46828L2.68987 7.37183L2.68453 7.27448L2.68411 7.17652L2.68884 7.07792L2.69905 6.97888L2.71476 6.87949L2.70995 6.8365L2.71181 6.7889L2.72011 6.73693L2.73467 6.6806L2.75531 6.62024L2.78164 6.55623L2.81354 6.48856L2.85074 6.4176L2.89294 6.34346L2.93995 6.2666L2.99158 6.18693L3.04765 6.10501L3.10772 6.02076L3.17165 5.93463L3.23935 5.84684L3.31028 5.75745L3.3845 5.66687L3.46167 5.57514L3.54144 5.48272L3.62369 5.38962L3.70824 5.29618L3.79469 5.20266L3.88298 5.10926L3.97267 5.01615L4.06367 4.92354L4.15573 4.83178L4.24852 4.74101L4.34199 4.65156L4.43569 4.56346L4.52958 4.47714L4.62324 4.39277L4.71657 4.31045L4.80932 4.23063L4.90116 4.15335L4.99189 4.07895L5.08136 4.00765L5.16925 3.93959L5.25526 3.87513L5.33932 3.81438L5.42111 3.75757L5.50038 3.70506L5.57679 3.65699L5.65039 3.61356L5.72067 3.57505L5.78751 3.54156L5.85067 3.51354L5.90993 3.49114L5.965 3.47447L6.01567 3.46389L6.0618 3.45951L6.14719 3.45049L6.23156 3.4471L6.31487 3.44903L6.39734 3.45614L6.4788 3.46804L6.55959 3.48468L6.63976 3.50575L6.71927 3.53091L6.79836 3.56017L6.87709 3.59307L6.9555 3.62941L7.03376 3.66916L7.11187 3.7119L7.19008 3.7574L7.26832 3.80555L7.3467 3.85593L7.42539 3.9085L7.5045 3.96294L7.58409 4.01914L7.66414 4.07657L7.74495 4.1353L7.82652 4.19502L7.90888 4.2554L7.99216 4.31633L8.0765 4.37746L8.16193 4.4386L8.24872 4.49959L8.33673 4.56014L8.42607 4.62013L8.45768 4.59448L8.49581 4.567L8.54032 4.53759L8.59062 4.50653L8.64649 4.47373L8.70754 4.43955L8.77352 4.40392L8.84386 4.3671L8.91834 4.32911L8.99663 4.29009L9.07835 4.2502L9.16306 4.20946L9.25047 4.16814L9.34024 4.12625L9.43205 4.08405L9.52544 4.04148L9.62014 3.99867L9.71575 3.95586L9.81194 3.91323L9.90835 3.87066L10.0045 3.82844L10.1003 3.78658L10.1952 3.74534L10.2888 3.70476L10.381 3.66487L10.4712 3.62602L10.5592 3.58814L10.6444 3.5514L10.7266 3.51591L10.8057 3.48192L10.8809 3.44928L10.9522 3.41831L11.0189 3.38919L11.081 3.36182L11.1379 3.33657L11.1893 3.31326L11.235 3.29223L11.2744 3.27366L11.3073 3.25745L11.3333 3.24385L11.3571 3.17828L11.3764 3.11052L11.3914 3.04086L11.4026 2.96924L11.4105 2.89604L11.4156 2.82112L11.418 2.74477L11.4183 2.66715L11.4169 2.5883L11.4143 2.50832L11.4109 2.42757L11.407 2.3459L11.4031 2.2636L11.3995 2.18084L11.3969 2.09766L11.3954 2.01416L11.3956 1.93059L11.3978 1.84713L11.4026 1.76373L11.4103 1.68057L11.4212 1.59793L11.4359 1.51576L11.4548 1.43421L11.4783 1.35359L11.5067 1.27396L11.5405 1.19535L11.5801 1.11787L11.6261 1.04186L11.6786 0.96731L11.7383 0.89437L11.8053 0.82323L11.8803 0.75394L11.9258 0.71997L11.9728 0.6868L12.0217 0.65429L12.0721 0.62268L12.1245 0.59184L12.1785 0.56178L12.2342 0.53251L12.2918 0.504L12.351 0.47638L12.4121 0.44965L12.475 0.42378L12.5396 0.3987L12.6062 0.37449L12.6745 0.35127L12.7446 0.32892L12.8165 0.30746L12.8903 0.28687L12.966 0.26735L13.0435 0.24862L13.1229 0.23096L13.2041 0.21429L13.2873 0.19858L13.3724 0.18386L13.4594 0.1701L13.5482 0.15733L13.639 0.14574L13.7318 0.13502L13.8265 0.12547L13.9232 0.117L14.0217 0.10952L14.1224 0.10319L14.2248 0.09796L14.3294 0.09379L14.4359 0.0908L14.5492 0.07384L14.6601 0.05861L14.7685 0.04533L14.8745 0.03368L14.9781 0.02387L15.0794 0.01579L15.1783 0.00932L15.2751 0.00456L15.3695 0.00153L15.4617 0L15.5519 0.00017L15.6398 0.00184L15.7256 0.00511L15.8094 0.00986L15.8912 0.01609L15.9709 0.0238L16.0487 0.03299L16.1245 0.04355L16.1986 0.05556L16.2706 0.06885L16.341 0.08357L16.4095 0.09955L16.4762 0.11689L16.5412 0.13545L16.6046 0.15525L16.6662 0.17629L16.7263 0.19844L16.7848 0.22182L16.8418 0.24642L16.8972 0.27202L16.9511 0.29873L17.0036 0.32655L17.0548 0.35535L17.1045 0.38515L17.1528 0.41605L17.1938 0.46322L17.2326 0.51708L17.2695 0.577L17.3043 0.64254L17.3373 0.71338L17.3685 0.78897L17.398 0.86898L17.4259 0.95287L17.4522 1.04033L17.4771 1.13069L17.5008 1.22374L17.5231 1.31893L17.5443 1.41585L17.5643 1.51415L17.5833 1.61319L17.6014 1.71265L17.6187 1.81207L17.6353 1.91105L17.6512 2.00914L17.6664 2.10591L17.6813 2.2008L17.6956 2.29352L17.7097 2.38361L17.7236 2.47053L17.7373 2.55395L17.751 2.63345L17.7646 2.70849L17.7784 2.77861L17.7924 2.84352L17.8066 2.90266L17.8212 2.95559L17.8363 3.002L17.8519 3.04123L17.8682 3.07305L17.8851 3.09695L17.9028 3.11247L17.9215 3.11918L17.9257 3.11194L17.9393 3.10768L17.9619 3.10644L17.993 3.10806L18.0322 3.11247L18.0789 3.11961L18.1328 3.12921L18.1934 3.14122L18.2601 3.15568L18.3325 3.17233L18.4103 3.19108L18.4929 3.2119L18.5799 3.2347L18.6708 3.25925L18.7651 3.28546L18.8624 3.31328L18.9622 3.34265L19.0642 3.3734L19.1677 3.40548L19.2725 3.4386L19.3778 3.47293L19.4836 3.50819L19.589 3.54432L19.6937 3.58117L19.7973 3.61865L19.8993 3.65673L19.9992 3.69524L20.0967 3.73409L20.1912 3.77315L20.2822 3.81235L20.3694 3.85151L20.4522 3.89059L20.5303 3.92952L20.603 3.96813L20.67 4.00637L20.7308 4.04397L20.854 3.92236L20.9745 3.80718L21.0923 3.69825L21.2073 3.59553L21.3196 3.49884L21.4294 3.40815L21.5366 3.32324L21.6415 3.24411L21.7439 3.17043L21.8439 3.10231L21.9416 3.03941L22.0372 2.98185L22.1306 2.92928L22.2218 2.88172L22.311 2.83904L22.3982 2.80103L22.4836 2.76757L22.567 2.73865L22.6487 2.71407L22.7286 2.6937L22.8068 2.67755L22.8834 2.66528L22.9585 2.65689L23.032 2.65227L23.1041 2.6512L23.1748 2.65366L23.2443 2.65945L23.3124 2.66856L23.3793 2.68077L23.4451 2.69607L23.5098 2.71413L23.5735 2.73496L23.6363 2.75854L23.698 2.78456L23.7591 2.813L23.8193 2.84364L23.8787 2.87649L23.9377 2.91141L23.9958 2.9481L24.0536 2.98666L24.1108 3.02696L24.1676 3.06869L24.2241 3.11183L24.2802 3.15627L24.3361 3.20192L24.3919 3.24864L24.4475 3.29624L24.5031 3.34467L24.5586 3.39376L24.6142 3.44336L24.6701 3.49348L24.726 3.54391L24.7822 3.59452L24.8387 3.6451L24.8955 3.69575L24.9528 3.74614L25.0105 3.79628L25.0689 3.84604L25.1278 3.8952L25.2278 3.97291L25.324 4.05017L25.4164 4.12686L25.5049 4.20319L25.5898 4.27894L25.6712 4.35431L25.7488 4.42931L25.8231 4.5038L25.8938 4.57792L25.9611 4.65152L26.0252 4.72482L26.086 4.7976L26.1437 4.87007L26.1981 4.94212L26.2496 5.01383L26.298 5.08521L26.3435 5.15615L26.3861 5.22675L26.426 5.2971L26.463 5.36699L26.4974 5.43661L26.5293 5.50597L26.5585 5.57495L26.5852 5.64367L26.6095 5.71209L26.6315 5.78021L26.6511 5.84806L26.6686 5.91568L26.6837 5.98302L26.697 6.05002L26.708 6.11692L26.7171 6.18349L26.7242 6.24984L26.7296 6.31605L26.7331 6.38202L26.7349 6.44774L26.7351 6.5133L26.7184 6.61354L26.69 6.71487L26.6507 6.81687L26.6018 6.91922L26.5443 7.0217L26.4796 7.12386L26.4085 7.22528L26.3323 7.32563L26.2522 7.42457L26.1691 7.52179L26.0841 7.61686L25.9985 7.70945L25.9135 7.79932L25.83 7.88586L25.7491 7.96893L25.6722 8.0482L25.6002 8.12303L25.5342 8.19342L25.4755 8.25872L25.4251 8.31881L25.3841 8.37316L25.3536 8.42144L25.3348 8.46343L25.3288 8.49859L25.3594 8.55914L25.3922 8.6234L25.427 8.69129L25.4635 8.76251L25.5016 8.83665L25.5411 8.91363L25.5818 8.99323L25.6236 9.07493L25.6663 9.15873L25.7095 9.24423L25.7534 9.33133L25.7975 9.41963L25.8417 9.50883L25.8859 9.59873L25.9298 9.68923L25.9733 9.77983L26.0162 9.87033L26.0583 9.96063L26.0994 10.0503L26.1394 10.1391L26.178 10.2268L26.2152 10.3133L26.2505 10.3981L26.284 10.481L26.3154 10.5618L26.3446 10.6402L26.3713 10.7161L26.3954 10.789L26.4167 10.8587L26.435 10.925L26.4501 10.9877L26.4618 11.0465L26.4701 11.101L26.4745 11.151L26.4751 11.1965L26.4716 11.2369L26.4638 11.2721L26.4516 11.3019L26.526 11.3132L26.6036 11.3237L26.6842 11.3333L26.7673 11.3422L26.8527 11.3504L26.9402 11.3582L27.0293 11.3654L27.1197 11.3723L27.2113 11.379L27.3036 11.3855L27.3963 11.392L27.4892 11.3984L27.5819 11.405L27.6741 11.4118L27.7656 11.419L27.8558 11.4266L27.9449 11.4346L28.0321 11.4433L28.1173 11.4525L28.2002 11.4627L28.2804 11.4738L28.3577 11.4858L28.4318 11.4988L28.5023 11.5131L28.569 11.5287L28.6315 11.5456L28.6894 11.564L28.7426 11.5839L28.7908 11.6054L28.8334 11.6287L28.8704 11.6539L28.9315 11.6939L28.9905 11.7396L29.0475 11.791L29.1026 11.8478L29.1556 11.9098L29.2068 11.9767L29.2559 12.0484L29.3031 12.1247L29.3483 12.2053L29.3916 12.2901L29.4329 12.3788L29.4723 12.4712L29.5098 12.5672L29.5454 12.6665L29.5791 12.7689L29.6107 12.8742L29.6406 12.9822L29.6685 13.0927L29.6945 13.2055L29.7186 13.3204L29.7409 13.4372L29.7613 13.5555L29.7798 13.6754L29.7963 13.7965L29.8111 13.9188L29.824 14.0417L29.8351 14.1654L29.8443 14.2894L29.8517 14.4137L29.8572 14.538L29.8609 14.6621L29.8628 14.7859L29.8629 14.9089L29.8611 15.0311L29.8576 15.1524L29.8522 15.2724L29.8452 15.391L29.8363 15.508L29.8255 15.623L29.813 15.7361L29.7988 15.8468L29.7827 15.9551L29.765 16.0607L29.7455 16.1635L29.7242 16.2631L29.7012 16.3595L29.6764 16.4523L29.65 16.5414L29.6217 16.6266L29.5918 16.7077L29.5601 16.7844L29.5268 16.8566L29.4918 16.9241L29.455 16.9866L29.4165 17.044L29.3764 17.0959L29.3346 17.1424L29.2911 17.1829L29.246 17.2176L29.1992 17.246L29.1508 17.268L29.1006 17.2834L29.0488 17.292L28.9886 17.3329L28.9255 17.3701L28.8599 17.4036L28.7919 17.4339L28.7217 17.4612L28.6493 17.4855L28.5752 17.5069L28.4993 17.526L28.4218 17.5429L28.3432 17.5575L28.2633 17.5703L28.1823 17.5813L28.1006 17.5909L28.0182 17.5992L27.9353 17.6064L27.8522 17.6127L27.769 17.6184L27.6858 17.6236L27.6028 17.6284L27.5203 17.6332L27.4383 17.6383L27.3571 17.6436L27.2768 17.6494L27.1977 17.656L27.1198 17.6635L27.0434 17.6722L26.9686 17.6822L26.8957 17.6938L26.8247 17.7072L26.7559 17.7225L26.6894 17.74L26.6255 17.7598L26.5642 17.7822L26.5059 17.8074L26.4506 17.8355L26.4576 17.8634L26.4598 17.9012L26.4572 17.948L26.4502 18.0033L26.4391 18.0666L26.4241 18.1373L26.4055 18.2145L26.3835 18.298L26.3584 18.3868L26.3305 18.4806L26.3001 18.5786L26.2673 18.6802L26.2326 18.785L26.1961 18.892L26.1581 19.001L26.1188 19.1111L26.0787 19.2219L26.0378 19.3326L25.9964 19.4427L25.955 19.5516L25.9136 19.6586L25.8724 19.7631L25.8321 19.8646L25.7925 19.9624L25.7542 20.0559L25.7172 20.1446L25.682 20.2277L25.6487 20.3047L25.6176 20.3749L25.589 20.4378L25.5632 20.4927L25.5402 20.5391L25.5208 20.5763L25.5047 20.6037L25.4924 20.6208L25.5662 20.6683L25.6381 20.7173L25.7083 20.768L25.7769 20.8202L25.8438 20.874L25.9091 20.9292L25.9726 20.9861L26.0345 21.0445L26.0947 21.1044L26.1531 21.1659L26.2099 21.229L26.2651 21.2935L26.3186 21.3597L26.3704 21.4274L26.4205 21.4967L26.4688 21.5675L26.5155 21.6399L26.5606 21.7138L26.604 21.7892L26.6456 21.8663L26.6856 21.9448L26.724 22.025L26.7606 22.1066L26.7955 22.1899L26.8288 22.2746L26.8604 22.361L26.8903 22.4488L26.9185 22.5382L26.9451 22.6293L26.9699 22.7218L26.9931 22.8158L27.0146 22.9115L27.0317 22.9724L27.044 23.0348L27.0514 23.0989L27.054 23.1645L27.0516 23.2318L27.0442 23.3006L27.0322 23.3711L27.015 23.4431L26.9931 23.5166L26.9663 23.5919L26.9346 23.6686L26.8979 23.747L26.8565 23.827L26.8101 23.9086L26.7589 23.9917L26.7027 24.0764L26.6416 24.1628L26.5757 24.2507L26.5049 24.3402L26.4292 24.4314L26.3486 24.524L26.263 24.6183L26.1727 24.7142L26.0775 24.8116L25.9773 24.9107L25.8723 25.0114L25.7624 25.1136L25.6857 25.205L25.6094 25.2935L25.5334 25.3795L25.4577 25.4627L25.3823 25.5431L25.3073 25.6208L25.2326 25.6959L25.1582 25.7682L25.0842 25.8377L25.0106 25.9045L24.9372 25.9686L24.8641 26.0301L24.7914 26.0887L24.7191 26.1448L24.647 26.1979L24.5753 26.2485L24.5039 26.2963L24.4328 26.3413L24.3621 26.3837L24.2917 26.4233L24.2217 26.4603L24.1519 26.4944L24.0825 26.526L24.0134 26.5547L23.9446 26.5807L23.8731 26.5978L23.7998 26.6112L23.7247 26.6209L23.6478 26.627L23.5692 26.6294L23.4887 26.6281L23.4065 26.6232L23.3225 26.6147L23.2368 26.6025L23.1493 26.5865L23.06 26.567L22.9689 26.5438L22.8761 26.5169L22.7815 26.4864L22.6527 26.4179L22.5285 26.3507L22.4087 26.2847L22.2933 26.22L22.1824 26.1567L22.076 26.0945L21.974 26.0336L21.8765 25.974L21.7835 25.9156L21.6949 25.8585L21.6108 25.8026L21.5312 25.7481L21.4559 25.6948L21.3852 25.6427L21.3189 25.5919L21.2571 25.5424L21.1998 25.4942L21.147 25.4471L21.0985 25.4014L21.0546 25.357L21.0151 25.3137L20.9175 25.3708L20.8214 25.4267L20.7269 25.4814L20.6338 25.5348L20.5423 25.5871L20.4523 25.638L20.3638 25.6878L20.2769 25.7363L20.1913 25.7836L20.1075 25.8296L20.025 25.8744L19.9441 25.918L19.8647 25.9603L19.7869 26.0014L19.7104 26.0413L19.6356 26.08L19.5624 26.1174L19.4905 26.1536L19.4203 26.1886L19.3514 26.2223L19.2842 26.2547L19.2185 26.286L19.1542 26.316L19.0916 26.3448L19.0304 26.3724L18.9707 26.3987L18.9126 26.4239L18.8559 26.4477L18.8008 26.4703L18.7472 26.4917L18.6951 26.5119L18.6445 26.5308L18.5954 26.5485L18.5479 26.565L18.5019 26.5803M20.1437 15.0405L20.1419 14.9008L20.1365 14.762L20.1277 14.6241L20.1153 14.4872L20.0995 14.3513L20.0803 14.2165L20.0578 14.0828L20.032 13.9502L20.0029 13.8188L19.9707 13.6887L19.9352 13.5598L19.8966 13.4323L19.855 13.3061L19.8103 13.1814L19.7626 13.0581L19.7119 12.9363L19.6584 12.816L19.602 12.6974L19.5428 12.5803L19.4808 12.465L19.4161 12.3514L19.3487 12.2395L19.2786 12.1294L19.206 12.0212L19.1308 11.9149L19.0531 11.8105L18.9729 11.7081L18.8903 11.6078L18.8053 11.5095L18.718 11.4133L18.6284 11.3192L18.5365 11.2274L18.4425 11.1378L18.3463 11.0506L18.248 10.9656L18.1476 10.883L18.0451 10.8029L17.9407 10.7252L17.8344 10.65L17.7261 10.5774L17.616 10.5074L17.5041 10.44L17.3905 10.3753L17.2751 10.3133L17.158 10.2541L17.0393 10.1977L16.9191 10.1442L16.7972 10.0936L16.6739 10.0459L16.5491 10.0012L16.4229 9.95953L16.2953 9.92103L16.1665 9.88553L16.0363 9.85333L15.9049 9.82423L15.7723 9.79843L15.6385 9.77593L15.5036 9.75673L15.3677 9.74093L15.2308 9.72863L15.0929 9.71973L14.954 9.71433L14.8143 9.71263L14.6746 9.71433L14.5357 9.71973L14.3978 9.72863L14.2609 9.74093L14.1249 9.75673L13.9901 9.77593L13.8563 9.79843L13.7237 9.82423L13.5923 9.85333L13.4621 9.88553L13.3332 9.92103L13.2057 9.95953L13.0795 10.0012L12.9547 10.0459L12.8314 10.0936L12.7095 10.1442L12.5893 10.1977L12.4706 10.2541L12.3535 10.3133L12.2381 10.3753L12.1244 10.44L12.0125 10.5074L11.9025 10.5774L11.7942 10.65L11.6879 10.7252L11.5835 10.8029L11.481 10.883L11.3806 10.9656L11.2823 11.0506L11.1861 11.1378L11.092 11.2274L11.0002 11.3192L10.9106 11.4133L10.8233 11.5095L10.7383 11.6078L10.6557 11.7081L10.5755 11.8105L10.4978 11.9149L10.4226 12.0212L10.35 12.1294L10.2799 12.2395L10.2125 12.3514L10.1478 12.465L10.0858 12.5803L10.0266 12.6974L9.97025 12.816L9.91665 12.9363L9.86604 13.0581L9.81835 13.1814L9.77365 13.3061L9.73204 13.4323L9.69345 13.5598L9.65794 13.6887L9.62575 13.8188L9.59665 13.9502L9.57085 14.0828L9.54824 14.2165L9.52914 14.3513L9.51334 14.4872L9.50094 14.6241L9.49215 14.762L9.48674 14.9008L9.48494 15.0405L9.48674 15.1801L9.49215 15.3189L9.50094 15.4568L9.51334 15.5937L9.52914 15.7296L9.54824 15.8644L9.57085 15.9981L9.59665 16.1307L9.62575 16.2621L9.65794 16.3922L9.69345 16.5211L9.73204 16.6486L9.77365 16.7748L9.81835 16.8995L9.86604 17.0228L9.91665 17.1446L9.97025 17.2649L10.0266 17.3835L10.0858 17.5006L10.1478 17.6159L10.2125 17.7295L10.2799 17.8414L10.35 17.9515L10.4226 18.0597L10.4978 18.166L10.5755 18.2704L10.6557 18.3728L10.7383 18.4732L10.8233 18.5714L10.9106 18.6676L11.0002 18.7617L11.092 18.8535L11.1861 18.9431L11.2823 19.0303L11.3806 19.1153L11.481 19.1979L11.5835 19.278L11.6879 19.3557L11.7942 19.4309L11.9025 19.5035L12.0125 19.5736L12.1244 19.6409L12.2381 19.7056L12.3535 19.7676L12.4706 19.8268L12.5893 19.8832L12.7095 19.9367L12.8314 19.9874L12.9547 20.035L13.0795 20.0797L13.2057 20.1214L13.3332 20.1599L13.4621 20.1954L13.5923 20.2276L13.7237 20.2567L13.8563 20.2825L13.9901 20.305L14.1249 20.3242L14.2609 20.34L14.3978 20.3523L14.5357 20.3612L14.6746 20.3666L14.8143 20.3684L14.954 20.3666L15.0929 20.3612L15.2308 20.3523L15.3677 20.34L15.5036 20.3242L15.6385 20.305L15.7723 20.2825L15.9049 20.2567L16.0363 20.2276L16.1665 20.1954L16.2953 20.1599L16.4229 20.1214L16.5491 20.0797L16.6739 20.035L16.7972 19.9874L16.9191 19.9367L17.0393 19.8832L17.158 19.8268L17.2751 19.7676L17.3905 19.7056L17.5041 19.6409L17.616 19.5736L17.7261 19.5035L17.8344 19.4309L17.9407 19.3557L18.0451 19.278L18.1476 19.1979L18.248 19.1153L18.3463 19.0303L18.4425 18.9431L18.5365 18.8535L18.6284 18.7617L18.718 18.6676L18.8053 18.5714L18.8903 18.4732L18.9729 18.3728L19.0531 18.2704L19.1308 18.166L19.206 18.0597L19.2786 17.9515L19.3487 17.8414L19.4161 17.7295L19.4808 17.6159L19.5428 17.5006L19.602 17.3835L19.6584 17.2649L19.7119 17.1446L19.7626 17.0228L19.8103 16.8995L19.855 16.7748L19.8966 16.6486L19.9352 16.5211L19.9707 16.3922L20.0029 16.2621L20.032 16.1307L20.0578 15.9981L20.0803 15.8644L20.0995 15.7296L20.1153 15.5937L20.1277 15.4568L20.1365 15.3189L20.1419 15.1801L20.1437 15.0405"/>

<path id="shape01"
  transform="matrix(0.999999988116208 0 0 0.999999988116208 26.4481008479311 18.6990997777838)"
  fill="url(#gradient0)"
  fill-rule="evenodd"
  stroke-opacity="0.300007629510948"
  stroke="#ffffff"
  stroke-width="0.288" stroke-linecap="square"
  stroke-linejoin="bevel"
  d="M17.4306 9.3151L17.5972 9.2655L17.7522 9.2124L17.8958 9.1561L18.0286 9.0967L18.1508 9.0343L18.2628 8.9691L18.365 8.9012L18.4577 8.8308L18.5412 8.758L18.6161 8.6829L18.6825 8.6056L18.7407 8.5263L18.7913 8.4452L18.8345 8.3625L18.8708 8.2781L18.9003 8.1923L18.9237 8.1051L18.941 8.0169L18.9529 7.9276L18.9594 7.8373L18.9611 7.7464L18.9582 7.6549L18.9513 7.5629L18.9404 7.4706L18.9262 7.378L18.9089 7.2855L18.8888 7.1929L18.8663 7.1006L18.8418 7.0087L18.8156 6.9173L18.7881 6.8266L18.7596 6.7365L18.7305 6.6475L18.7011 6.5595L18.6719 6.4727L18.6017 6.2832L18.5298 6.1102L18.4562 5.9529L18.3811 5.8108L18.3045 5.683L18.2266 5.5688L18.1474 5.4676L18.0669 5.3786L17.9854 5.3012L17.903 5.2345L17.8196 5.1781L17.7355 5.1311L17.6506 5.0928L17.5651 5.0625L17.4792 5.0397L17.3928 5.0234L17.306 5.0131L17.2191 5.008L17.1319 5.0074L17.0448 5.0107L16.9577 5.017L16.8708 5.0258L16.784 5.0363L16.6977 5.0479L16.6117 5.0596L16.5263 5.0712L16.4415 5.0815L16.3574 5.0901L16.2742 5.0962L16.1918 5.0991L16.0941 4.9678L16.0001 4.8431L15.9095 4.7247L15.8224 4.6124L15.7383 4.5059L15.6574 4.4052L15.5793 4.3098L15.5041 4.2195L15.4313 4.1344L15.3612 4.0538L15.2933 3.9779L15.2276 3.9061L15.1639 3.8385L15.1022 3.7746L15.0421 3.7144L14.9837 3.6575L14.9267 3.6038L14.871 3.553L14.8164 3.5049L14.7629 3.4593L14.7102 3.4158L14.6583 3.3744L14.6068 3.3348L14.5558 3.2967L14.5051 3.2601L14.4546 3.2245L14.404 3.1897L14.3532 3.1557L14.3023 3.122L14.2507 3.0886L14.1986 3.055L14.1458 3.0213L14.0921 2.9871L14.0373 2.9522L13.9813 2.9164L13.9241 2.8793L13.8653 2.8409L13.8048 2.8009L13.7427 2.759L13.6786 2.7151L13.6125 2.6689L13.6463 2.5631L13.6757 2.4602L13.7012 2.3603L13.7227 2.2632L13.7402 2.1689L13.7539 2.0773L13.7639 1.9884L13.7701 1.9022L13.773 1.8186L13.7722 1.7378L13.7681 1.6593L13.7606 1.5833L13.7501 1.5099L13.7363 1.4389L13.7196 1.3702L13.6998 1.304L13.6773 1.24L13.652 1.1782L13.6239 1.1187L13.5933 1.0614L13.5602 1.0061L13.5247 0.953L13.4868 0.902L13.4467 0.8529L13.4044 0.8059L13.3602 0.7607L13.3139 0.7175L13.2657 0.676L13.2157 0.6364L13.176 0.6054L13.1292 0.5739L13.0756 0.5423L13.016 0.5106L12.9506 0.4789L12.8799 0.4473L12.8045 0.416L12.7248 0.385L12.6412 0.3544L12.5541 0.3244L12.4641 0.2951L12.3716 0.2665L12.277 0.2389L12.1809 0.2121L12.0837 0.1864L11.9859 0.162L11.8879 0.1388L11.7901 0.1171L11.693 0.0968L11.5972 0.0782L11.503 0.0613L11.4109 0.0462L11.3214 0.0331L11.2349 0.022L11.1519 0.0131L11.0729 0.0063L10.9982 0.0019L10.9285 0L10.8641 0.0008L10.8054 0.0041L10.7531 0.0102L10.7075 0.0192L10.6185 0.0437L10.5299 0.0737L10.4421 0.1094L10.3556 0.1507L10.2707 0.1975L10.1879 0.2497L10.1076 0.3073L10.0303 0.3702L9.9564 0.4382L9.8863 0.5114L9.8203 0.5897L9.7591 0.6729L9.7029 0.7612L9.6522 0.8543L9.6074 0.9522L9.5691 1.0548L9.5375 1.1621L9.5131 1.2739L9.4964 1.3903L9.4877 1.5111L9.4066 1.5112L9.3263 1.512L9.2468 1.5136L9.1682 1.5161L9.0903 1.5193L9.0132 1.5232L8.9368 1.528L8.8612 1.5334L8.7862 1.5395L8.7119 1.5463L8.6382 1.5538L8.5652 1.5619L8.4928 1.5707L8.421 1.5801L8.3496 1.5901L8.2789 1.6006L8.2087 1.6117L8.139 1.6233L8.0698 1.6356L8.0009 1.6483L7.9326 1.6616L7.8647 1.6753L7.7972 1.6895L7.7299 1.7042L7.6631 1.7193L7.5966 1.7347L7.5304 1.7507L7.4644 1.7669L7.3987 1.7836L7.3333 1.8006L7.2682 1.818L7.2031 1.8356L7.1383 1.8537L7.0735 1.8719L7.0089 1.8904L6.9445 1.9092L6.8801 1.9282L6.8159 1.9475L6.7515 1.9669L6.6873 1.9865L6.623 2.0063L6.5587 2.0263L6.4945 2.0464L6.43 2.0666L6.3656 2.0869L6.3009 2.1073L6.2362 2.1278L6.1713 2.1483L6.1063 2.1688L6.0411 2.1894L5.9756 2.2101L5.9099 2.2307L5.7996 2.1302L5.6926 2.0377L5.5891 1.9527L5.4887 1.8751L5.3915 1.8046L5.2973 1.7408L5.2061 1.6835L5.1176 1.6324L5.0318 1.5873L4.9485 1.5478L4.8677 1.5138L4.7892 1.4848L4.713 1.4607L4.6388 1.4412L4.5667 1.4259L4.4965 1.4146L4.4282 1.4072L4.3614 1.4032L4.2962 1.4023L4.2325 1.4043L4.1701 1.409L4.1089 1.4161L4.0489 1.4252L3.9726 1.4604L3.8946 1.5007L3.8152 1.5454L3.7346 1.5945L3.6533 1.6473L3.5711 1.7039L3.4887 1.7637L3.4063 1.8262L3.324 1.8914L3.2421 1.9587L3.1609 2.0279L3.0808 2.0986L3.0019 2.1705L2.9246 2.2431L2.849 2.3164L2.7754 2.3897L2.7042 2.4627L2.6357 2.5353L2.5699 2.607L2.5072 2.6774L2.448 2.7462L2.3924 2.8131L2.3408 2.8778L2.2934 2.9398L2.2504 2.999L2.2121 3.0548L2.1788 3.1069L2.1508 3.1551L2.1285 3.199L2.1118 3.2381L2.1012 3.2723L2.0969 3.3011L2.053 3.3999L2.0173 3.495L1.9894 3.5866L1.9689 3.6748L1.9553 3.7598L1.9486 3.8418L1.9482 3.9209L1.9537 3.9975L1.9649 4.0716L1.9813 4.1434L2.0027 4.2132L2.0285 4.2811L2.0584 4.3473L2.0923 4.412L2.1296 4.4753L2.1698 4.5375L2.2129 4.5988L2.2583 4.6593L2.3058 4.7193L2.3548 4.7787L2.4052 4.838L2.4565 4.8974L2.5083 4.9568L2.5603 5.0166L2.6121 5.0769L2.5759 5.1418L2.5396 5.2072L2.5034 5.2732L2.4673 5.3397L2.4312 5.4068L2.3953 5.4743L2.3596 5.5425L2.324 5.6111L2.2885 5.6803L2.2534 5.75L2.2185 5.8201L2.184 5.8906L2.1496 5.9618L2.1158 6.0333L2.0822 6.1052L2.049 6.1776L2.0163 6.2503L1.9841 6.3236L1.9524 6.3971L1.9211 6.4712L1.8904 6.5454L1.8603 6.6202L1.8308 6.6952L1.802 6.7706L1.7737 6.8464L1.7461 6.9224L1.7194 6.9988L1.6933 7.0754L1.668 7.1524L1.6435 7.2296L1.6198 7.307L1.5971 7.3847L1.5751 7.4627L1.5541 7.5409L1.5341 7.6193L1.515 7.6979L1.4969 7.7768L1.4799 7.8558L1.4638 7.9349L1.4489 8.0143L1.4352 8.0938L1.4225 8.1734L1.411 8.2531L1.4007 8.333L1.3916 8.4131L1.3837 8.4932L1.3773 8.5733L1.3721 8.6536L1.3682 8.7339L1.3656 8.8143L1.3645 8.8947L1.3648 8.9751L1.3666 9.0556L1.3698 9.1361L1.3745 9.2166L1.3809 9.297L1.3888 9.3775L1.3982 9.4579L1.4092 9.5383L1.422 9.6186L1.4363 9.6989L1.279 9.7584L1.1327 9.8193L0.9971 9.8816L0.8719 9.9453L0.7568 10.0104L0.6512 10.0769L0.5551 10.1448L0.4679 10.2142L0.3896 10.285L0.3194 10.3574L0.2572 10.4311L0.2027 10.5064L0.1555 10.5831L0.1153 10.6613L0.0817 10.7411L0.0543 10.8224L0.0329 10.9053L0.0171 10.9897L0.0066 11.0756L0.0009 11.1631L0 11.2522L0.0031 11.343L0.0102 11.4353L0.0208 11.5293L0.0347 11.6248L0.0514 11.722L0.0706 11.8209L0.0921 11.9214L0.1154 12.0236L0.1402 12.1276L0.1661 12.2331L0.1929 12.3404L0.2789 12.5104L0.3615 12.6701L0.4409 12.8199L0.5175 12.9597L0.5916 13.09L0.6635 13.2111L0.7335 13.3229L0.8019 13.426L0.8691 13.5204L0.9354 13.6063L1.001 13.6841L1.0663 13.7538L1.1315 13.8159L1.1971 13.8704L1.2633 13.9177L1.3304 13.958L1.3989 13.9914L1.4688 14.0183L1.5407 14.0388L1.6148 14.0532L1.6913 14.0617L1.7707 14.0645L1.8532 14.062L1.9391 14.0541L2.0288 14.0413L2.1226 14.0238L2.2208 14.0018L2.3237 13.9754L2.4315 13.945L2.5447 13.9108L2.6635 13.8729L2.7883 13.8318L2.9194 13.7874L2.9466 13.8451L2.9775 13.9035L3.0121 13.9628L3.0501 14.0226L3.0913 14.0832L3.1358 14.1442L3.1833 14.2058L3.2337 14.2679L3.2868 14.3304L3.3425 14.3933L3.4007 14.4564L3.4612 14.5199L3.5239 14.5835L3.5886 14.6474L3.6552 14.7112L3.7236 14.7752L3.7936 14.8391L3.865 14.903L3.9378 14.9667L4.0117 15.0303L4.0867 15.0936L4.1626 15.1567L4.2392 15.2195L4.3166 15.2819L4.3943 15.3437L4.4724 15.4051L4.5507 15.4661L4.6289 15.5263L4.7072 15.586L5.2403 15.9807L5.3127 16.0332L5.3837 16.0846L5.4532 16.1348L5.521 16.1837L5.587 16.2313L5.5703 16.3188L5.5544 16.4049L5.5391 16.4897L5.5251 16.5731L5.5123 16.6553L5.5011 16.7362L5.4915 16.8158L5.4839 16.8942L5.4784 16.9712L5.4752 17.047L5.4746 17.1215L5.4768 17.1948L5.4819 17.2668L5.4902 17.3377L5.5018 17.4073L5.5171 17.4756L5.5363 17.5427L5.5594 17.6087L5.5867 17.6735L5.6185 17.737L5.6548 17.7994L5.6961 17.8605L5.7424 17.9206L5.794 17.9794L5.8511 18.0372L5.9138 18.0937L5.9825 18.1491L6.0572 18.2034L6.1382 18.2566L6.2257 18.3086L6.3201 18.3595L6.4213 18.4093L6.5298 18.4581L6.6455 18.5057L6.7688 18.5522L6.8998 18.5977L7.039 18.6421L7.1862 18.6855L7.342 18.7277L7.5065 18.7552L7.6629 18.7768L7.8115 18.7927L7.9524 18.8031L8.0858 18.8082L8.212 18.808L8.3312 18.8029L8.4436 18.7931L8.5496 18.7786L8.649 18.7597L8.7425 18.7366L8.83 18.7095L8.9118 18.6784L8.9882 18.6437L9.0593 18.6055L9.1254 18.5639L9.1868 18.5193L9.2435 18.4717L9.296 18.4213L9.3443 18.3684L9.3887 18.313L9.4294 18.2554L9.4667 18.1958L9.5007 18.1344L9.5317 18.0713L9.5599 18.0067L9.5855 17.9409L9.6088 17.8739L9.6299 17.806L9.649 17.7374L9.6666 17.6682L9.6826 17.5987L9.6974 17.5289L9.7112 17.4592L9.7242 17.3896L9.7365 17.3204L9.7486 17.2517L9.8149 17.2515L9.8808 17.2509L9.9464 17.2498L10.0115 17.2481L10.0764 17.246L10.141 17.2433L10.2053 17.2402L10.2692 17.2365L10.333 17.2321L10.3967 17.2272L10.4601 17.2218L10.5234 17.2158L10.5866 17.2091L10.6497 17.2019L10.7127 17.194L10.7757 17.1856L10.8388 17.1765L10.9018 17.1667L10.9649 17.1563L11.028 17.1453L11.0913 17.1335L11.1546 17.121L11.2182 17.1079L11.2819 17.0941L11.3459 17.0794L11.4101 17.0642L11.4746 17.0481L11.5394 17.0313L11.6045 17.0137L11.6699 16.9954L11.7357 16.9762L11.8019 16.9564L11.8686 16.9357L11.9357 16.9141L12.0033 16.8918L12.0714 16.8686L12.14 16.8445L12.2092 16.8197L12.2791 16.7939L12.3496 16.7674L12.4206 16.7399L12.4924 16.7114L12.5649 16.6822L12.6381 16.6519L12.7121 16.6209L12.7869 16.5887L12.8625 16.5557L12.9389 16.5217L13.0162 16.4868L13.0944 16.4509L13.1735 16.414L13.2535 16.3761L13.3346 16.3372L13.4166 16.2972L13.4997 16.2562L13.5838 16.2142L13.6691 16.1712L13.7258 16.2309L13.7831 16.2895L13.841 16.3469L13.8995 16.4029L13.9587 16.4573L14.0186 16.5101L14.0792 16.5611L14.1404 16.61L14.2024 16.6567L14.265 16.7012L14.3285 16.7432L14.3926 16.7826L14.4576 16.8192L14.5232 16.8528L14.5897 16.8834L14.6571 16.9108L14.7252 16.9347L14.7941 16.955L14.864 16.9717L14.9347 16.9845L15.0062 16.9933L15.0787 16.9979L15.152 16.9981L15.2262 16.9938L15.3015 16.985L15.3777 16.9713L15.4548 16.9527L15.5329 16.9288L15.612 16.8998L15.6921 16.8654L15.7733 16.8254L15.8555 16.7796L15.9386 16.728L16.023 16.6702L16.1083 16.6063L16.1948 16.5361L16.2824 16.4594L16.371 16.3759L16.4609 16.2857L16.5518 16.1884L16.622 16.1213L16.6906 16.054L16.7578 15.9865L16.8232 15.9185L16.8868 15.8504L16.9483 15.7819L17.0079 15.713L17.0652 15.6439L17.1203 15.5746L17.1728 15.5049L17.2228 15.4349L17.2699 15.3647L17.3144 15.294L17.3558 15.2232L17.3942 15.1519L17.4293 15.0805L17.4612 15.0086L17.4895 14.9366L17.5143 14.8641L17.5353 14.7915L17.5525 14.7184L17.5657 14.6451L17.5749 14.5715L17.5798 14.4976L17.5804 14.4232L17.5765 14.3487L17.568 14.2739L17.5548 14.1987L17.5367 14.1233L17.5136 14.0475L17.4855 13.9714L17.4522 13.895L17.4135 13.8183L17.3693 13.7413L17.3196 13.664L17.2641 13.5864L17.2027 13.5084L17.1354 13.4302L17.0619 13.3516L16.9822 13.2727L16.8962 13.1935L16.8037 13.114L16.831 13.0652L16.8577 13.0153L16.8838 12.9644L16.9094 12.9126L16.9343 12.8596L16.9586 12.8056L16.9824 12.7507L17.0055 12.6947L17.028 12.6376L17.05 12.5795L17.0713 12.5205L17.0919 12.4603L17.1121 12.3992L17.1316 12.3371L17.1506 12.2739L17.1688 12.2096L17.1865 12.1443L17.2036 12.0781L17.2202 12.0108L17.2361 11.9424L17.2513 11.8732L17.2661 11.8027L17.2802 11.7313L17.2936 11.6589L17.3066 11.5855L17.3188 11.511L17.3305 11.4354L17.3416 11.3589L17.3522 11.2814L17.362 11.2027L17.3712 11.1231L17.3799 11.0424L17.388 10.9608L17.3955 10.8781L17.4024 10.7944L17.4087 10.7096L17.4144 10.6239L17.4195 10.5371L17.424 10.4492L17.4278 10.3603L17.4311 10.2704L17.4337 10.1796L17.4358 10.0876L17.4372 9.9946L17.4381 9.9006L17.4384 9.8056L17.438 9.7096L17.4371 9.6125L17.4356 9.5144L17.4335 9.4153L17.4306 9.3151M12.8459 9.5104L12.844 9.3947L12.8383 9.28L12.8288 9.1663L12.8157 9.0536L12.7989 8.9422L12.7786 8.8319L12.7547 8.7228L12.7275 8.6151L12.6968 8.5088L12.6629 8.4039L12.6257 8.3005L12.5853 8.1987L12.5417 8.0985L12.4951 7.9999L12.4454 7.9031L12.3928 7.8081L12.3374 7.715L12.279 7.6238L12.2179 7.5345L12.1541 7.4473L12.0876 7.3622L12.0186 7.2793L11.947 7.1985L11.8729 7.1201L11.7964 7.044L11.7176 6.9703L11.6365 6.8991L11.5531 6.8303L11.4676 6.7642L11.38 6.7007L11.2903 6.6399L11.1986 6.5818L11.105 6.5266L11.0096 6.4743L10.9123 6.4249L10.8133 6.3785L10.7125 6.3352L10.6102 6.2949L10.5063 6.2579L10.4009 6.2241L10.294 6.1936L10.1858 6.1665L10.0762 6.1428L9.9654 6.1226L9.8534 6.1059L9.7402 6.0928L9.6259 6.0834L9.5106 6.0777L9.3944 6.0758L9.2782 6.0777L9.1629 6.0834L9.0486 6.0928L8.9354 6.1059L8.8234 6.1226L8.7126 6.1428L8.603 6.1665L8.4948 6.1936L8.3879 6.2241L8.2825 6.2579L8.1786 6.2949L8.0763 6.3352L7.9755 6.3785L7.8765 6.4249L7.7792 6.4743L7.6838 6.5266L7.5902 6.5818L7.4985 6.6399L7.4088 6.7007L7.3212 6.7642L7.2357 6.8303L7.1523 6.8991L7.0712 6.9703L6.9924 7.044L6.9159 7.1201L6.8418 7.1985L6.7702 7.2793L6.7012 7.3622L6.6347 7.4473L6.5709 7.5345L6.5098 7.6238L6.4514 7.715L6.396 7.8081L6.3434 7.9031L6.2937 7.9999L6.2471 8.0985L6.2035 8.1987L6.1631 8.3005L6.1259 8.4039L6.092 8.5088L6.0613 8.6151L6.0341 8.7228L6.0102 8.8319L5.9899 8.9422L5.9731 9.0536L5.96 9.1663L5.9505 9.28L5.9448 9.3947L5.9429 9.5104L5.9448 9.626L5.9505 9.7407L5.96 9.8544L5.9731 9.9671L5.9899 10.0785L6.0102 10.1888L6.0341 10.2979L6.0613 10.4056L6.092 10.5119L6.1259 10.6168L6.1631 10.7202L6.2035 10.822L6.2471 10.9222L6.2937 11.0208L6.3434 11.1176L6.396 11.2126L6.4514 11.3057L6.5098 11.3969L6.5709 11.4862L6.6347 11.5734L6.7012 11.6585L6.7702 11.7414L6.8418 11.8222L6.9159 11.9006L6.9924 11.9767L7.0712 12.0504L7.1523 12.1216L7.2357 12.1904L7.3212 12.2565L7.4088 12.32L7.4985 12.3808L7.5902 12.4389L7.6838 12.4941L7.7792 12.5464L7.8765 12.5958L7.9755 12.6422L8.0763 12.6855L8.1786 12.7258L8.2825 12.7628L8.3879 12.7966L8.4948 12.8271L8.603 12.8542L8.7126 12.8779L8.8234 12.8981L8.9354 12.9148L9.0486 12.9279L9.1629 12.9373L9.2782 12.943L9.3944 12.9449L9.5106 12.943L9.6259 12.9373L9.7402 12.9279L9.8534 12.9148L9.9654 12.8981L10.0762 12.8779L10.1858 12.8542L10.294 12.8271L10.4009 12.7966L10.5063 12.7628L10.6102 12.7258L10.7125 12.6855L10.8133 12.6422L10.9123 12.5958L11.0096 12.5464L11.105 12.4941L11.1986 12.4389L11.2903 12.3808L11.38 12.32L11.4676 12.2565L11.5531 12.1904L11.6365 12.1216L11.7176 12.0504L11.7964 11.9767L11.8729 11.9006L11.947 11.8222L12.0186 11.7414L12.0876 11.6585L12.1541 11.5734L12.2179 11.4862L12.279 11.3969L12.3374 11.3057L12.3928 11.2126L12.4454 11.1176L12.4951 11.0208L12.5417 10.9222L12.5853 10.822L12.6257 10.7202L12.6629 10.6168L12.6968 10.5119L12.7275 10.4056L12.7547 10.2979L12.7786 10.1888L12.7989 10.0785L12.8157 9.9671L12.8288 9.8544L12.8383 9.7407L12.844 9.626L12.8459 9.5104"/>
</svg>
