<?xml version="1.0" standalone="no"?>
<!DOCTYPE svg PUBLIC "-//W3C//DTD SVG 20010904//EN" "http://www.w3.org/TR/2001/REC-SVG-20010904/DTD/svg10.dtd">

<svg xmlns="http://www.w3.org/2000/svg" 
    xmlns:xlink="http://www.w3.org/1999/xlink"
    width="113.04pt"
    height="117pt"
    viewBox="0 0 113.04 117">
<defs/>
<path id="shape0"
 transform="matrix(0.69017092805676 0 0 0.69017092805676 18.3612348500293 22.430771537229)"
 fill="#000000"
 fill-rule="evenodd"
 stroke="#000000"
 stroke-width="1"
 stroke-linecap="square"
 stroke-linejoin="bevel"
 d="M58.625 0C75.0246 23.9763 65.4335 49.4501 54.2156 61.8854C43.2996 74.0745 19.1617 82.6845 0 73.125C10.5163 93.7219 26.8604 101.836 40.9786 103.779C46.1531 104.822 51.1938 104.741 56.1206 103.704C68.3485 101.596 81.2051 94.9075 88.9922 84.4644C90.2921 83.1099 94.5077 76.6667 95.1597 74.7935C99.6309 66.7059 101.327 58.0424 100.248 48.803C100.293 48.184 99.6686 42.5525 99.3088 41.3179C98.1112 33.3045 94.0207 25.1466 87.0375 16.8444C80.6417 9.00503 71.1709 3.39024 58.625 0Z"/>
</svg>
