<?xml version="1.0" standalone="no"?>
<!DOCTYPE svg PUBLIC "-//W3C//DTD SVG 20010904//EN" "http://www.w3.org/TR/2001/REC-SVG-20010904/DTD/svg10.dtd">

<svg xmlns="http://www.w3.org/2000/svg" 
    xmlns:xlink="http://www.w3.org/1999/xlink"
    width="509.184pt"
    height="64.584pt"
    viewBox="0 0 509.184 64.584">
<defs/>

<path id="shape0" 
  transform="matrix(1.10282128150167 0 0 0.882666700357698 6.04049244282618 15.0501521851899)" 
  fill="#afafaf" 
  fill-rule="evenodd" 
  stroke="#afafaf" 
  stroke-width="0.24" 
  stroke-linecap="square" 
  stroke-linejoin="bevel" 
  d="M0 0.0150002L13.4475 38.4187L15.3375 38.415L26.2575 12.75L37.2037 38.4L39.1162 38.4112L52.5488 0.0187512L46.0725 0.00750011L37.3275 24.7313L26.8575 0L25.2075 0.015L15.2287 24.7425L7.17375 0.00374984C7.17375 0.00374984 4.7825 0.00749996 0 0.0150002Z"/>

<path id="shape1" transform="matrix(1.10282128150167 0 0 0.882666700357698 67.6905732025768 14.5995516636163)" 
  fill="#afafaf" 
  fill-rule="evenodd" 
  stroke="#afafaf" 
  stroke-width="0.2424" 
  stroke-linecap="square" 
  stroke-linejoin="bevel" 
  d="M0 18.9964L0.0093 19.2538L0.0188 19.5113L0.0286 19.7688L0.0389 20.0263L0.0496 20.2837L0.0611 20.5411L0.0732 20.7983L0.0862 21.0554L0.1001 21.3123L0.1151 21.5689L0.1312 21.8253L0.1485 22.0813L0.1672 22.337L0.1874 22.5923L0.2091 22.8471L0.2324 23.1014L0.2575 23.3552L0.2844 23.6085L0.3132 23.8612L0.3442 24.1132L0.3772 24.3645L0.4126 24.6151L0.4503 24.865L0.4904 25.1141L0.5331 25.3623L0.5785 25.6096L0.6266 25.856L0.6775 26.1015L0.7315 26.3459L0.7885 26.5894L0.8487 26.8317L0.9121 27.0729L0.9789 27.313L1.0492 27.5519L1.123 27.7895L1.2005 28.0258L1.2818 28.2609L1.3669 28.4946L1.4561 28.7268L1.5493 28.9577L1.6466 29.1871L1.7483 29.4149L1.8543 29.6412L1.9648 29.8659L2.0799 30.089L2.1997 30.3104L2.3243 30.53L2.4537 30.748L2.5882 30.9641L2.7277 31.1784L2.8724 31.3908L3.0224 31.6013L3.1778 31.8099L3.3387 32.0164L3.5051 32.2209L3.6773 32.4234L3.8553 32.6237L4.0392 32.8219L4.229 33.0179L4.425 33.2117L4.5482 33.3567L4.6761 33.5028L4.8087 33.6499L4.9459 33.7978L5.0877 33.9463L5.2341 34.0954L5.3849 34.2448L5.5403 34.3945L5.7001 34.5442L5.8644 34.6938L6.0329 34.8432L6.2059 34.9922L6.3831 35.1407L6.5645 35.2885L6.7502 35.4355L6.94 35.5815L7.134 35.7263L7.3321 35.8699L7.5342 36.0121L7.7404 36.1527L7.9505 36.2916L8.1646 36.4286L8.3826 36.5636L8.6044 36.6965L8.8301 36.827L9.0596 36.9551L9.2928 37.0805L9.5298 37.2032L9.7704 37.323L10.0146 37.4397L10.2625 37.5532L10.5139 37.6634L10.7688 37.77L11.0272 37.873L11.2891 37.9723L11.5543 38.0675L11.8229 38.1587L12.0949 38.2456L12.3701 38.3281L12.6486 38.4061L12.9303 38.4793L13.2152 38.5478L13.5032 38.6112L13.7943 38.6695L14.0885 38.7226L14.3857 38.7701L14.6859 38.8121L14.989 38.8484L15.295 38.8788L15.6039 38.9031L15.9156 38.9213L16.2302 38.9331L16.5474 38.9385L16.8674 38.9372L17.1901 38.9292L17.5154 38.9143L17.8235 38.9037L18.1293 38.8912L18.4329 38.8767L18.7341 38.8603L19.033 38.842L19.3295 38.8217L19.6237 38.7994L19.9155 38.7751L20.2049 38.7488L20.4919 38.7206L20.7765 38.6903L21.0587 38.6579L21.3385 38.6236L21.6158 38.5871L21.8906 38.5487L22.163 38.5081L22.4329 38.4655L22.7003 38.4207L22.9652 38.3739L23.2275 38.3249L23.4873 38.2739L23.7446 38.2207L23.9993 38.1653L24.2515 38.1078L24.5011 38.0481L24.748 37.9863L24.9924 37.9222L25.2341 37.856L25.4732 37.7876L25.7097 37.7169L25.9435 37.644L26.1746 37.5689L26.403 37.4915L26.6288 37.4119L26.8518 37.3299L27.0721 37.2458L27.2897 37.1593L27.5045 37.0705L27.7165 36.9794L27.9258 36.8859L28.1323 36.7902L28.336 36.6921L28.5369 36.5916L28.735 36.4888L28.9303 36.3836L29.1227 36.276L29.3122 36.166L29.4988 36.0536L29.6826 35.9388L29.8635 35.8216L30.0415 35.7019L30.2165 35.5797L30.3886 35.4552L30.5578 35.3281L30.724 35.1986L30.8872 35.0665L31.0474 34.932L31.2047 34.7949L28.3191 30.0342L28.1472 30.1713L27.9692 30.3075L27.7854 30.4427L27.5959 30.5766L27.4009 30.7092L27.2006 30.8403L26.9954 30.9697L26.7853 31.0975L26.5705 31.2233L26.3514 31.3471L26.1281 31.4687L25.9008 31.5879L25.6697 31.7048L25.435 31.819L25.197 31.9304L24.9558 32.039L24.7117 32.1446L24.4649 32.247L24.2156 32.346L23.9639 32.4417L23.7102 32.5337L23.4546 32.6221L23.1973 32.7065L22.9385 32.787L22.6785 32.8633L22.4174 32.9353L22.1555 33.0029L21.893 33.0659L21.6301 33.1242L21.3669 33.1777L21.1038 33.2261L20.8409 33.2695L20.5784 33.3076L20.3166 33.3402L20.0556 33.3673L19.7956 33.3887L19.537 33.4043L19.2798 33.4139L19.0243 33.4174L18.7707 33.4146L18.5192 33.4055L18.252 33.3731L17.9857 33.3393L17.7203 33.304L17.4559 33.2669L17.1927 33.2277L16.9306 33.186L16.6697 33.1417L16.4102 33.0945L16.1521 33.044L15.8955 32.9901L15.6404 32.9324L15.387 32.8707L15.1353 32.8047L14.8855 32.7342L14.6375 32.6587L14.3915 32.5782L14.1475 32.4923L13.9057 32.4007L13.666 32.3032L13.4287 32.1995L13.1937 32.0893L12.9611 31.9723L12.7311 31.8483L12.5036 31.717L12.2789 31.5782L12.0569 31.4315L11.8377 31.2767L11.6215 31.1135L11.4082 30.9416L11.198 30.7608L10.991 30.5708L10.7872 30.3714L10.5867 30.1621L10.3896 29.9429L10.196 29.7133L10.0753 29.5813L9.9561 29.4452L9.8382 29.3049L9.7218 29.1602L9.607 29.0112L9.4936 28.8577L9.3818 28.6996L9.2716 28.5368L9.163 28.3693L9.056 28.1969L8.9508 28.0196L8.8472 27.8372L8.7454 27.6497L8.6454 27.4571L8.5471 27.2591L8.4507 27.0557L8.3562 26.8469L8.2635 26.6324L8.1728 26.4124L8.084 26.1865L7.9973 25.9548L7.9125 25.7172L7.8298 25.4736L7.7492 25.2238L7.6706 24.9678L7.5943 24.7056L7.5201 24.4369L7.4481 24.1618L7.3783 23.8801L7.3108 23.5917L7.2456 23.2966L7.1827 22.9946L7.1222 22.6857L7.0641 22.3698L7.0084 22.0468L6.9551 21.7166L6.9043 21.3791L6.856 21.0342L6.8103 20.6818L6.7671 20.3218L6.7266 19.9542L34.1215 19.9669L34.1622 19.8053L34.2026 19.6331L34.2426 19.4508L34.2818 19.2589L34.3203 19.0578L34.3577 18.8479L34.3939 18.6299L34.4287 18.404L34.4619 18.1707L34.4934 17.9306L34.5229 17.6841L34.5503 17.4315L34.5753 17.1735L34.5979 16.9104L34.6178 16.6427L34.6348 16.3708L34.6488 16.0953L34.6595 15.8165L34.6669 15.535L34.6706 15.2512L34.6706 14.9655L34.6665 14.6784L34.6584 14.3903L34.6247 14.1284L34.587 13.866L34.5453 13.6033L34.4996 13.3405L34.4501 13.0776L34.3969 12.8149L34.3399 12.5525L34.2793 12.2905L34.2152 12.0291L34.1476 11.7685L34.0767 11.5088L34.0024 11.2502L33.9249 10.9928L33.8442 10.7368L33.7604 10.4823L33.6737 10.2294L33.5839 9.9784L33.4914 9.7294L33.396 9.4826L33.2979 9.238L33.1972 8.9959L33.0939 8.7563L32.9882 8.5196L32.88 8.2857L32.7695 8.0549L32.6568 7.8273L32.5419 7.6031L32.4248 7.3823L32.3058 7.1653L32.1848 6.9521L32.0619 6.7429L31.9372 6.5378L31.8107 6.337L31.6827 6.1406L31.553 5.9488L31.4218 5.7618L31.2893 5.5796L31.1553 5.4025L31.0109 5.2249L30.8631 5.0501L30.712 4.8782L30.5576 4.7091L30.3999 4.5429L30.2388 4.3796L30.0745 4.2191L29.9068 4.0615L29.7357 3.9068L29.5613 3.7549L29.3836 3.606L29.2025 3.4599L29.0181 3.3168L28.8303 3.1765L28.6391 3.0392L28.4446 2.9048L28.2466 2.7733L28.0453 2.6447L27.8406 2.519L27.6325 2.3963L27.421 2.2765L27.2061 2.1596L26.9878 2.0457L26.766 1.9347L26.5409 1.8267L26.3123 1.7217L26.0802 1.6196L25.8448 1.5204L25.6059 1.4243L25.3635 1.3311L25.1177 1.2409L24.8684 1.1537L24.6157 1.0695L24.3594 0.9883L24.0997 0.9101L23.8366 0.8349L23.5699 0.7626L23.2998 0.6935L23.0261 0.6273L22.749 0.5641L22.4683 0.504L22.1841 0.4469L21.8964 0.3929L21.6052 0.3418L21.3104 0.2939L21.0122 0.249L20.7103 0.2071L20.405 0.1683L20.096 0.1325L19.7836 0.0999L19.4675 0.0703L19.1479 0.0438L18.8247 0.0203L18.498 0L18.232 0.0116L17.9678 0.024L17.7054 0.0374L17.4447 0.0516L17.1857 0.0666L16.9286 0.0826L16.6732 0.0994L16.4195 0.117L16.1676 0.1355L15.9174 0.1549L15.669 0.1752L15.4224 0.1963L15.1775 0.2183L14.9344 0.2412L14.693 0.265L14.4534 0.2896L14.2156 0.315L13.9795 0.3414L13.5495 0.4681L13.1262 0.6003L12.7096 0.7379L12.2998 0.8811L11.8966 1.0296L11.5002 1.1837L11.1105 1.3432L10.7274 1.5082L10.3511 1.6786L9.9816 1.8545L9.6187 2.0359L9.2625 2.2227L8.9131 2.415L8.5704 2.6128L8.2343 2.816L7.905 3.0247L7.5825 3.2389L7.2666 3.4585L6.9574 3.6836L6.655 3.9141L6.3592 4.1501L6.0702 4.3916L5.7879 4.6385L5.5123 4.8909L5.2434 5.1488L4.9812 5.4121L4.7258 5.6809L4.477 5.9552L4.235 6.2349L3.9996 6.5201L3.771 6.8107L3.5491 7.1068L3.334 7.4084L3.1255 7.7154L2.9237 8.0279L2.7287 8.3459L2.5404 8.6693L2.3587 8.9982L2.1838 9.3326L2.0156 9.6724L1.8542 10.0177L1.6994 10.3685L1.5513 10.7247L1.41 11.0863L1.2754 11.4535L1.1475 11.8261L1.0263 12.2042L0.9118 12.5877L0.804 12.9767L0.7029 13.3712L0.6086 13.7711L0.521 14.1765L0.44 14.5873L0.3658 15.0037L0.2983 15.4254L0.2376 15.8527L0.1835 16.2854L0.1361 16.7236L0.0955 17.1672L0.0616 17.6163L0.0343 18.0709L0.0138 18.5309L0 18.9964M6.9741 15.4055L28.0866 15.398L28.0424 15.0416L27.9944 14.6945L27.9427 14.3566L27.8871 14.0279L27.8276 13.708L27.7642 13.397L27.6968 13.0946L27.6254 12.8007L27.55 12.5152L27.4704 12.238L27.3866 11.9688L27.2987 11.7075L27.2065 11.4541L27.11 11.2083L27.0091 10.97L26.9039 10.7391L26.7943 10.5154L26.6801 10.2989L26.5615 10.0892L26.4383 9.8864L26.3104 9.6902L26.1779 9.5006L26.0407 9.3173L25.8988 9.1403L25.752 8.9694L25.6005 8.8044L25.444 8.6452L25.2826 8.4917L25.1162 8.3437L24.9448 8.2011L24.7777 8.0413L24.606 7.8861L24.4297 7.7355L24.2487 7.5896L24.063 7.4483L23.8726 7.3117L23.6773 7.1799L23.4773 7.0528L23.2724 6.9306L23.0626 6.8133L22.8478 6.7008L22.6281 6.5934L22.4034 6.4908L22.1736 6.3933L21.9387 6.3009L21.6987 6.2136L21.4535 6.1313L21.2031 6.0543L20.9474 5.9825L20.6865 5.9159L20.4202 5.8546L20.1486 5.7986L19.8716 5.7479L19.5891 5.7027L19.3011 5.6629L19.0077 5.6286L18.7087 5.5998L18.404 5.5765L18.0938 5.5588L17.7778 5.5467L17.4398 5.5793L17.1071 5.6173L16.7796 5.6607L16.4576 5.7095L16.1408 5.7637L15.8294 5.8233L15.5233 5.8884L15.2225 5.9588L14.927 6.0347L14.6369 6.116L14.3521 6.2027L14.0726 6.2948L13.7984 6.3923L13.5296 6.4953L13.266 6.6036L13.0078 6.7174L12.755 6.8366L12.5074 6.9612L12.2652 7.0912L12.0283 7.2266L11.7968 7.3674L11.5705 7.5137L11.3496 7.6653L11.134 7.8224L10.9237 7.9849L10.7188 8.1528L10.5192 8.3261L10.3249 8.5049L10.1359 8.689L9.9522 8.8786L9.7739 9.0735L9.6009 9.2739L9.4332 9.4797L9.2709 9.6909L9.1138 9.9076L8.9621 10.1296L8.8158 10.3571L8.6747 10.5899L8.5715 10.7931L8.4701 11.0003L8.3707 11.2114L8.2732 11.4265L8.1776 11.6456L8.084 11.8685L7.9922 12.0955L7.9024 12.3264L7.8145 12.5612L7.7285 12.8L7.6444 13.0428L7.5623 13.2895L7.482 13.5402L7.4037 13.7948L7.3273 14.0534L7.2528 14.3159L7.1803 14.5824L7.1096 14.8528L7.0409 15.1272L6.9741 15.4055"/>

<path id="shape2" 
  transform="matrix(1.10282128150167 0 0 0.882666700357698 113.485116634806 1.69761250448775)" 
  fill="#afafaf" 
  fill-rule="evenodd" 
  stroke="#afafaf" 
  stroke-width="0.2424" 
  stroke-linecap="square" 
  stroke-linejoin="bevel"
  d="M0 0.00108L0.0054 53.5275L3.1292 53.5275L5.5182 50.1937L5.7412 50.3569L5.9642 50.5175L6.1872 50.6754L6.4112 50.8306L6.6352 50.9828L6.8602 51.1321L7.0852 51.2783L7.3102 51.4213L7.5362 51.5611L7.7632 51.6973L7.9902 51.8301L8.2172 51.9593L8.4452 52.0847L8.6732 52.2063L8.9022 52.324L9.1322 52.4376L9.3622 52.547L9.5932 52.6522L9.8242 52.7531L10.0562 52.8494L10.2882 52.9412L10.5212 53.0283L10.7552 53.1105L10.9902 53.1879L11.2252 53.2603L11.4612 53.3276L11.6972 53.3896L11.9342 53.4463L12.1722 53.4976L12.4112 53.5434L12.6512 53.5835L12.8912 53.6178L13.1322 53.6463L13.3742 53.6688L13.6172 53.6853L13.8612 53.6956L14.1052 53.6995L14.3502 53.6971L14.5972 53.6882L14.8442 53.6727L15.0922 53.6505L15.3412 53.6215L15.5912 53.5855L15.8422 53.5425L16.1322 53.5231L16.4202 53.501L16.7072 53.4761L16.9922 53.4484L17.2752 53.418L17.5572 53.3846L17.8362 53.3483L18.1142 53.3091L18.3892 53.2668L18.6632 53.2215L18.9352 53.1731L19.2042 53.1215L19.4712 53.0667L19.7372 53.0088L20.0002 52.9475L20.2612 52.8829L20.5202 52.8149L20.7762 52.7435L21.0302 52.6686L21.2822 52.5903L21.5322 52.5084L21.7792 52.4228L22.0242 52.3337L22.2662 52.2408L22.5062 52.1443L22.7442 52.0439L22.9792 51.9397L23.2112 51.8317L23.4412 51.7197L23.6682 51.6038L23.8922 51.4839L24.1142 51.3599L24.3332 51.2319L24.5492 51.0997L24.7632 50.9633L24.9732 50.8227L25.1812 50.6778L25.3862 50.5287L25.5882 50.3751L25.7872 50.2171L25.9832 50.0547L26.1762 49.8878L26.3662 49.7164L26.5532 49.5403L26.7372 49.3596L26.9172 49.1743L27.0952 48.9842L27.2692 48.7894L27.4402 48.5897L27.6082 48.3852L27.7472 48.242L27.8862 48.0965L28.0222 47.9485L28.1572 47.7982L28.2902 47.6454L28.4212 47.4901L28.5502 47.3323L28.6772 47.172L28.8032 47.009L28.9272 46.8434L29.0492 46.6752L29.1692 46.5043L29.2872 46.3306L29.4042 46.1542L29.5182 45.9749L29.6302 45.7929L29.7412 45.6079L29.8502 45.4201L29.9562 45.2293L30.0612 45.0355L30.1632 44.8387L30.2642 44.6389L30.3622 44.436L30.4582 44.23L30.5532 44.0208L30.6452 43.8084L30.7352 43.5928L30.8232 43.374L30.9092 43.1518L30.9922 42.9264L31.0742 42.6975L31.1532 42.4653L31.2302 42.2296L31.3052 41.9905L31.3772 41.7479L31.4472 41.5017L31.5152 41.252L31.5812 40.9986L31.6442 40.7416L31.7052 40.4809L31.7642 40.2166L31.8202 39.9484L31.8742 39.6765L31.9262 39.4008L31.9752 39.1212L32.0222 38.8377L32.0662 38.5503L32.1082 38.2589L32.1472 37.9636L32.1842 37.6642L32.2182 37.3607L32.2502 37.0532L32.2802 36.7415L32.3062 36.4256L32.3302 36.1056L32.3522 35.7813L32.3712 35.4527L32.3872 35.1198L32.4012 34.7826L32.4122 34.441L32.4202 34.095L32.4512 33.8604L32.4792 33.625L32.5032 33.389L32.5232 33.1523L32.5392 32.915L32.5522 32.6771L32.5602 32.4386L32.5652 32.1995L32.5662 31.9599L32.5632 31.7197L32.5562 31.4791L32.5452 31.238L32.5302 30.9964L32.5112 30.7544L32.4882 30.5119L32.4612 30.2691L32.4302 30.0259L32.3952 29.7824L32.3562 29.5386L32.3122 29.2944L32.2652 29.05L32.2132 28.8053L32.1672 28.5469L32.1172 28.2894L32.0642 28.0327L32.0072 27.777L31.9462 27.5222L31.8822 27.2684L31.8142 27.0157L31.7422 26.764L31.6672 26.5133L31.5872 26.2638L31.5042 26.0155L31.4172 25.7683L31.3262 25.5224L31.2312 25.2777L31.1322 25.0343L31.0292 24.7922L30.9232 24.5515L30.8122 24.3122L30.6972 24.0743L30.5782 23.8379L30.4552 23.6029L30.3282 23.3695L30.1962 23.1376L30.0612 22.9074L29.9212 22.6787L29.7772 22.4517L29.6292 22.2264L29.4772 22.0029L29.3202 21.7811L29.1592 21.5611L28.9932 21.3429L28.8232 21.1266L28.6512 20.9029L28.4782 20.6813L28.3042 20.4616L28.1272 20.2439L27.9482 20.028L27.7642 19.814L27.5772 19.6019L27.3842 19.3915L27.1852 19.1829L26.9812 18.9761L26.7692 18.7709L26.5492 18.5675L26.3212 18.3656L26.0842 18.1654L25.8362 17.9668L25.5792 17.7697L25.3102 17.5742L25.0292 17.3801L24.7352 17.1875L24.4292 16.9963L24.1082 16.8066L23.7722 16.6181L23.4222 16.431L23.0552 16.2452L22.6712 16.0607L22.4872 15.993L22.2992 15.9263L22.1062 15.8606L21.9102 15.7959L21.7092 15.7322L21.5042 15.6695L21.2952 15.608L21.0812 15.5474L20.8632 15.488L20.6402 15.4296L20.4132 15.3724L20.1812 15.3163L19.9442 15.2613L19.7022 15.2074L19.4552 15.1547L19.2032 15.1032L18.9472 15.0528L18.6852 15.0036L18.4182 14.9557L18.1452 14.909L17.8672 14.8634L17.5842 14.8192L17.2962 14.7762L17.0012 14.7344L16.7022 14.694L16.3962 14.6548L16.0852 14.617L15.8682 14.619L15.6512 14.6214L15.4352 14.6245L15.2172 14.6285L15.0002 14.6337L14.7822 14.6405L14.5642 14.6492L14.3442 14.66L14.1252 14.6734L13.9042 14.6895L13.6832 14.7088L13.4602 14.7315L13.2372 14.7579L13.0122 14.7884L12.7862 14.8232L12.5592 14.8627L12.3302 14.9072L12.1002 14.9569L11.8682 15.0123L11.6352 15.0735L11.4002 15.141L11.1632 15.215L10.9242 15.2958L10.6832 15.3837L10.4402 15.4791L10.1952 15.5823L9.9472 15.6935L9.6972 15.8131L9.4452 15.9414L9.1902 16.0787L8.9332 16.2254L8.6722 16.3816L8.4092 16.5478L8.1432 16.7242L7.8742 16.9111L7.6022 17.1089L7.3272 17.3179L7.0492 17.5384L6.7672 17.7706L6.4822 18.015L6.4782 0L0 0.00108M6.4962 22.8212L6.5002 45.1313L6.7572 45.3029L7.0132 45.4696L7.2682 45.6312L7.5212 45.7877L7.7742 45.9392L8.0252 46.0856L8.2742 46.2269L8.5232 46.363L8.7702 46.4941L9.0162 46.6199L9.2612 46.7406L9.5052 46.8561L9.7472 46.9664L9.9882 47.0714L10.2282 47.1712L10.4662 47.2657L10.7042 47.355L10.9392 47.4389L11.1742 47.5176L11.4082 47.5908L11.6402 47.6588L11.8712 47.7213L12.1002 47.7785L12.3282 47.8303L12.5552 47.8766L12.7812 47.9175L13.0052 47.9529L13.2282 47.9829L13.4502 48.0073L13.6702 48.0262L13.9332 47.9944L14.1952 47.962L14.4552 47.9288L14.7142 47.8947L14.9722 47.8594L15.2272 47.8228L15.4822 47.7846L15.7342 47.7448L15.9852 47.703L16.2342 47.6592L16.4812 47.6131L16.7272 47.5645L16.9702 47.5132L17.2112 47.4591L17.4502 47.4019L17.6872 47.3415L17.9222 47.2776L18.1552 47.2102L18.3852 47.1389L18.6132 47.0637L18.8382 46.9843L19.0612 46.9005L19.2822 46.8121L19.4992 46.7189L19.7142 46.6209L19.9272 46.5176L20.1512 46.4054L20.3712 46.2883L20.5862 46.1661L20.7972 46.0386L21.0032 45.9056L21.2052 45.7668L21.4022 45.6222L21.5952 45.4714L21.7832 45.3143L21.9672 45.1507L22.1462 44.9804L22.3212 44.8032L22.4912 44.6188L22.6572 44.427L22.8192 44.2277L22.9762 44.0207L23.1292 43.8058L23.2772 43.5826L23.4212 43.3512L23.5612 43.1111L23.6962 42.8623L23.8272 42.6046L23.9542 42.3376L24.0762 42.0613L24.1952 41.7754L24.3082 41.4797L24.4182 41.1741L24.5232 40.8582L24.6242 40.532L24.7212 40.1952L24.8142 39.8475L24.9022 39.4889L24.9862 39.1191L25.0662 38.7378L25.1422 38.3449L25.2132 37.9403L25.2502 37.7128L25.2862 37.482L25.3202 37.2477L25.3532 37.0101L25.3852 36.7691L25.4152 36.5246L25.4442 36.2766L25.4712 36.0251L25.4972 35.7701L25.5212 35.5115L25.5442 35.2494L25.5662 34.9836L25.5862 34.7142L25.6052 34.4412L25.6222 34.1645L25.6372 33.8841L25.6522 33.6L25.6202 33.3233L25.5872 33.0477L25.5532 32.7735L25.5162 32.5006L25.4772 32.2292L25.4372 31.9592L25.3942 31.6907L25.3492 31.4238L25.3022 31.1585L25.2522 30.8949L25.2002 30.6331L25.1462 30.3731L25.0892 30.1149L25.0292 29.8587L24.9672 29.6044L24.9012 29.3522L24.8332 29.1021L24.7622 28.8541L24.6882 28.6084L24.6102 28.3649L24.5302 28.1237L24.4462 27.8849L24.3592 27.6486L24.2682 27.4148L24.1732 27.1835L24.0752 26.9548L23.9742 26.7288L23.8682 26.5055L23.7592 26.285L23.6462 26.0674L23.5282 25.8526L23.4072 25.6408L23.2812 25.432L23.1522 25.2263L23.0172 25.0238L22.8792 24.8244L22.7362 24.6282L22.5882 24.4354L22.4352 24.2459L22.2782 24.0598L22.1302 23.8909L21.9792 23.7251L21.8242 23.5626L21.6662 23.4033L21.5032 23.2472L21.3372 23.0945L21.1662 22.9451L20.9912 22.7991L20.8122 22.6565L20.6282 22.5173L20.4392 22.3815L20.2462 22.2493L20.0472 22.1206L19.8442 21.9954L19.6352 21.8738L19.4212 21.7558L19.2012 21.6415L18.9762 21.5308L18.7452 21.4239L18.5072 21.3206L18.2642 21.2212L18.0152 21.1255L17.7592 21.0337L17.4972 20.9457L17.2282 20.8617L16.9522 20.7815L16.6702 20.7053L16.3802 20.6331L16.0832 20.5649L15.7792 20.5007L15.4682 20.4407L15.1492 20.3847L14.8222 20.3328L14.4872 20.2852L14.1442 20.2417L13.7932 20.2025L13.4342 20.1675L13.2092 20.1827L12.9832 20.2034L12.7562 20.2295L12.5282 20.2611L12.2982 20.2981L12.0682 20.3406L11.8372 20.3885L11.6052 20.4419L11.3722 20.5007L11.1382 20.565L10.9022 20.6347L10.6662 20.7099L10.4292 20.7905L10.1912 20.8765L9.9522 20.968L9.7112 21.065L9.4702 21.1674L9.2282 21.2752L8.9852 21.3885L8.7402 21.5073L8.4952 21.6315L8.2492 21.7611L8.0012 21.8962L7.7532 22.0368L7.5042 22.1828L7.2532 22.3342L7.0022 22.4911L6.7502 22.6534L6.4962 22.8212"/>

<path id="shape3" 
  transform="matrix(1.10282128150167 0 0 0.882666700357698 154.798290393791 14.6201049066636)" 
  fill="#afafaf" 
  fill-rule="evenodd" 
  stroke="#afafaf" 
  stroke-width="0.2424" 
  stroke-linecap="square" 
  stroke-linejoin="bevel" 
  d="M22.5366 2.42971C18.5952 0.766912 15.559 -0.183749 11.9616 0.0297149C10.377 0.0571226 8.83806 0.180348 7.42362 0.45929C4.30915 1.46499 0.254057 3.84379 0.231589 9.62596C0.152436 12.042 0.902219 14.0522 2.15662 15.8152C4.87924 19.6987 11.8371 21.2009 16.012 24.777C16.8046 25.7599 17.3371 26.9154 17.4778 28.3235C17.1378 31.5896 16.1354 32.3083 14.4739 32.7213C11.5582 34.0653 7.45081 33.0781 2.15159 29.7597L0 36.1086C2.98181 37.8461 7.8762 39.163 11.7639 38.9878C13.9188 38.9096 16.6929 38.7681 20.4039 36.5688C22.7793 35.0894 24.3424 32.592 24.4828 28.0947C23.8956 16.7931 12.2166 16.71 9.05609 13.7018C7.89503 12.2262 7.18009 10.8431 7.1766 9.60721C7.72925 6.2806 10.8162 5.59995 12.9152 5.63229C17.6589 5.68358 19.4344 7.96925 20.8641 8.65096C20.8641 8.65096 21.4216 6.57721 22.5366 2.42971Z"/>

<path id="shape4" 
  transform="matrix(1.10282128150167 0 0 0.882666700357698 186.578126094431 14.512608993631)" 
  fill="#afafaf" 
  fill-rule="evenodd" 
  stroke="#afafaf" 
  stroke-width="0.2424" 
  stroke-linecap="square" 
  stroke-linejoin="bevel" 
  d="M17.007 39.0352L17.375 39.0447L17.737 39.0483L18.093 39.0463L18.443 39.0386L18.787 39.0254L19.126 39.0069L19.459 38.9831L19.786 38.954L20.108 38.9199L20.424 38.8808L20.735 38.8368L21.04 38.788L21.34 38.7346L21.635 38.6765L21.924 38.614L22.209 38.5471L22.488 38.4759L22.763 38.4005L23.032 38.3211L23.296 38.2376L23.556 38.1504L23.81 38.0593L24.06 37.9645L24.306 37.8662L24.546 37.7645L24.782 37.6593L25.014 37.5509L25.241 37.4393L25.463 37.3247L25.682 37.2071L25.895 37.0866L26.105 36.9634L26.311 36.8375L26.512 36.7091L26.709 36.5782L26.903 36.445L27.092 36.3095L27.277 36.1718L27.459 36.0321L27.637 35.8904L27.811 35.7469L27.981 35.6017L28.148 35.4548L28.312 35.3064L28.471 35.1565L28.628 35.0053L28.781 34.8528L28.93 34.6992L29.076 34.5446L29.22 34.389L29.36 34.2326L29.496 34.0754L29.63 33.9177L29.761 33.7594L29.95 33.5361L30.134 33.3097L30.314 33.0802L30.489 32.8477L30.659 32.6125L30.824 32.3746L30.985 32.1341L31.141 31.8913L31.293 31.6462L31.44 31.399L31.583 31.1498L31.722 30.8988L31.856 30.646L31.986 30.3917L32.112 30.136L32.233 29.879L32.351 29.6208L32.464 29.3616L32.573 29.1015L32.679 28.8407L32.78 28.5793L32.878 28.3174L32.971 28.0551L33.061 27.7927L33.147 27.5302L33.229 27.2678L33.308 27.0056L33.382 26.7438L33.454 26.4824L33.522 26.2217L33.586 25.9617L33.647 25.7027L33.704 25.4447L33.758 25.1878L33.809 24.9323L33.856 24.6782L33.9 24.4257L33.941 24.175L33.979 23.926L34.014 23.6791L34.046 23.4344L34.074 23.1919L34.1 22.9518L34.123 22.7143L34.143 22.4794L34.16 22.2474L34.174 22.0183L34.186 21.7924L34.195 21.5696L34.201 21.3503L34.205 21.1344L34.206 20.9222L34.204 20.7138L34.201 20.5093L34.194 20.3088L34.186 20.1126L34.175 19.9206L34.161 19.7332L34.146 19.5503L34.128 19.3722L34.108 19.199L34.086 19.0308L34.062 18.8678L34.074 18.5768L34.083 18.2878L34.088 18.0005L34.089 17.7151L34.087 17.4315L34.082 17.1497L34.073 16.8698L34.061 16.5917L34.045 16.3154L34.026 16.041L34.004 15.7685L33.979 15.4978L33.95 15.2289L33.918 14.9619L33.883 14.6968L33.845 14.4335L33.803 14.1721L33.759 13.9125L33.711 13.6548L33.66 13.399L33.606 13.1451L33.549 12.893L33.49 12.6428L33.427 12.3945L33.361 12.1481L33.292 11.9036L33.221 11.6609L33.146 11.4202L33.069 11.1813L32.988 10.9444L32.905 10.7093L32.82 10.4762L32.731 10.2449L32.64 10.0156L32.546 9.7882L32.449 9.5627L32.35 9.3391L32.248 9.1174L32.143 8.8977L32.036 8.6799L31.926 8.464L31.814 8.25L31.699 8.038L31.581 7.8279L31.462 7.6198L31.339 7.4136L31.215 7.2093L31.088 7.007L30.958 6.8066L30.826 6.6082L30.692 6.4118L30.556 6.2173L30.417 6.0247L30.276 5.8342L30.133 5.6456L29.988 5.4589L29.841 5.2743L29.691 5.0916L29.539 4.9109L29.322 4.6866L29.1 4.4662L28.873 4.2496L28.643 4.037L28.407 3.8285L28.168 3.6242L27.924 3.4242L27.676 3.2287L27.424 3.0377L27.167 2.8514L26.907 2.6699L26.642 2.4933L26.373 2.3217L26.101 2.1552L25.824 1.994L25.544 1.8381L25.26 1.6877L24.972 1.5429L24.791 1.45L24.609 1.3605L24.424 1.2743L24.237 1.1913L24.048 1.1114L23.855 1.0345L23.659 0.9606L23.458 0.8895L23.253 0.8212L23.044 0.7556L22.829 0.6925L22.608 0.632L22.382 0.5739L22.149 0.5181L21.909 0.4646L21.662 0.4133L21.408 0.364L21.145 0.3167L20.874 0.2714L20.594 0.2278L20.305 0.186L20.006 0.1458L19.697 0.1072L19.378 0.0701L19.047 0.0344L18.706 0L18.444 0.0041L18.185 0.0082L17.926 0.0125L17.67 0.0169L17.415 0.0217L17.162 0.0269L16.911 0.0327L16.662 0.0391L16.414 0.0463L16.168 0.0544L15.924 0.0635L15.682 0.0737L15.441 0.0851L15.203 0.0978L14.966 0.1119L14.731 0.1276L14.497 0.145L14.266 0.1641L14.037 0.1851L13.809 0.2081L13.583 0.2332L13.359 0.2605L13.123 0.3327L12.884 0.4047L12.642 0.4771L12.397 0.5503L12.149 0.6247L11.899 0.7007L11.648 0.7787L11.395 0.8593L11.141 0.9427L10.886 1.0296L10.631 1.1202L10.375 1.2151L10.12 1.3146L9.865 1.4192L9.611 1.5293L9.357 1.6454L9.106 1.7678L8.855 1.8971L8.607 2.0336L8.361 2.1778L8.118 2.3302L7.878 2.491L7.64 2.6609L7.407 2.8402L7.177 3.0293L6.922 3.2259L6.673 3.4269L6.429 3.6321L6.19 3.8414L5.956 4.0547L5.728 4.2717L5.504 4.4925L5.286 4.7169L5.072 4.9447L4.864 5.1758L4.661 5.4102L4.462 5.6476L4.269 5.888L4.08 6.1311L3.897 6.377L3.718 6.6254L3.543 6.8763L3.374 7.1295L3.209 7.3849L3.049 7.6423L2.893 7.9017L2.742 8.1629L2.595 8.4258L2.453 8.6902L2.316 8.956L2.182 9.2231L2.054 9.4915L1.929 9.7608L1.809 10.0311L1.693 10.3022L1.581 10.5739L1.474 10.8462L1.37 11.1189L1.271 11.3919L1.176 11.665L1.084 11.9382L0.997 12.2113L0.914 12.4841L0.834 12.7566L0.759 13.0287L0.687 13.3001L0.619 13.5708L0.555 13.8407L0.495 14.1096L0.438 14.3774L0.385 14.6439L0.336 14.9091L0.29 15.1728L0.248 15.4349L0.209 15.6952L0.173 15.9537L0.141 16.2102L0.113 16.4646L0.088 16.7167L0.066 16.9664L0.047 17.2137L0.032 17.4583L0.019 17.7002L0.01 17.9392L0.004 18.1752L0.001 18.408L0.002 18.6376L0.005 18.8638L0.002 19.0845L0 19.3069L0.001 19.531L0.003 19.7565L0.007 19.9836L0.014 20.2121L0.022 20.4419L0.032 20.6731L0.044 20.9054L0.058 21.1389L0.074 21.3735L0.092 21.6091L0.112 21.8457L0.134 22.0832L0.158 22.3216L0.184 22.5606L0.213 22.8004L0.243 23.0409L0.276 23.2818L0.31 23.5233L0.347 23.7653L0.386 24.0076L0.428 24.2502L0.471 24.4931L0.517 24.7361L0.565 24.9792L0.615 25.2224L0.668 25.4656L0.722 25.7087L0.78 25.9516L0.839 26.1943L0.901 26.4368L0.965 26.6789L1.032 26.9206L1.101 27.1618L1.172 27.4024L1.246 27.6425L1.322 27.8818L1.401 28.1205L1.482 28.3583L1.566 28.5952L1.652 28.8313L1.741 29.0663L1.832 29.3002L1.926 29.5331L2.023 29.7647L2.122 29.995L2.223 30.2241L2.328 30.4517L2.435 30.6779L2.545 30.9025L2.657 31.1256L2.772 31.347L2.977 31.6263L3.183 31.9027L3.391 32.176L3.599 32.446L3.809 32.7126L4.021 32.9757L4.234 33.235L4.449 33.4903L4.665 33.7415L4.883 33.9885L5.103 34.231L5.325 34.4689L5.548 34.702L5.774 34.9302L6.002 35.1532L6.232 35.3709L6.465 35.5832L6.699 35.7898L6.936 35.9906L7.176 36.1854L7.418 36.3741L7.662 36.5565L7.91 36.7324L8.16 36.9016L8.413 37.064L8.669 37.2194L8.927 37.3676L9.189 37.5085L9.454 37.6418L9.722 37.7675L9.994 37.8853L10.269 37.9951L10.547 38.0967L10.829 38.19L11.114 38.2747L11.403 38.3507L11.625 38.4248L11.85 38.495L12.076 38.5614L12.304 38.6239L12.534 38.6825L12.766 38.7372L12.999 38.7879L13.235 38.8346L13.472 38.8773L13.711 38.9159L13.953 38.9504L14.196 38.9808L14.441 39.0071L14.688 39.0292L14.938 39.0471L15.189 39.0607L15.442 39.0701L15.698 39.0752L15.956 39.076L16.215 39.0724L16.477 39.0644L16.741 39.0521L17.007 39.0352M7.171 18.6277L7.177 18.8709L7.184 19.1161L7.191 19.363L7.199 19.6118L7.209 19.8621L7.219 20.1138L7.23 20.3669L7.243 20.6212L7.257 20.8765L7.272 21.1329L7.289 21.39L7.307 21.6478L7.328 21.9061L7.35 22.1649L7.373 22.424L7.399 22.6833L7.427 22.9426L7.458 23.2018L7.49 23.4608L7.525 23.7195L7.562 23.9777L7.602 24.2352L7.645 24.4921L7.691 24.7481L7.739 25.0031L7.79 25.2569L7.845 25.5096L7.902 25.7608L7.963 26.0106L8.028 26.2587L8.095 26.505L8.167 26.7495L8.242 26.9919L8.321 27.2322L8.403 27.4702L8.49 27.7058L8.581 27.9389L8.676 28.1693L8.775 28.3969L8.878 28.6216L8.986 28.8432L9.099 29.0617L9.216 29.2768L9.338 29.4885L9.465 29.6966L9.597 29.9011L9.733 30.1017L9.875 30.2983L10.023 30.4909L10.175 30.6793L10.333 30.8633L10.497 31.0428L10.666 31.2178L10.841 31.388L11.021 31.5533L11.181 31.696L11.347 31.8347L11.518 31.9694L11.696 32.0999L11.879 32.2263L12.068 32.3484L12.264 32.4661L12.466 32.5794L12.675 32.6882L12.89 32.7923L13.111 32.8918L13.34 32.9864L13.576 33.0762L13.818 33.1611L14.068 33.2409L14.325 33.3156L14.59 33.3851L14.862 33.4493L15.142 33.5082L15.429 33.5616L15.725 33.6095L16.028 33.6517L16.34 33.6883L16.66 33.7191L16.988 33.744L17.4 33.7L17.8 33.6467L18.189 33.5843L18.567 33.5129L18.935 33.4327L19.292 33.3439L19.639 33.2465L19.975 33.1407L20.301 33.0266L20.618 32.9045L20.924 32.7744L21.221 32.6365L21.509 32.491L21.787 32.3379L22.056 32.1774L22.316 32.0098L22.567 31.835L22.809 31.6534L23.043 31.4649L23.268 31.2698L23.485 31.0682L23.693 30.8602L23.894 30.6461L24.087 30.4259L24.272 30.1997L24.45 29.9678L24.62 29.7303L24.783 29.4873L24.939 29.2389L25.088 28.9854L25.23 28.7269L25.365 28.4634L25.494 28.1952L25.617 27.9224L25.733 27.6451L25.844 27.3635L25.948 27.0777L26.047 26.7879L26.14 26.4943L26.228 26.1969L26.31 25.8959L26.387 25.5915L26.46 25.2838L26.527 24.9729L26.59 24.659L26.648 24.3423L26.701 24.0229L26.751 23.7009L26.796 23.3764L26.837 23.0497L26.875 22.7209L26.909 22.39L26.939 22.0574L26.966 21.723L26.99 21.3871L27.011 21.0498L27.029 20.7112L27.044 20.3715L27.057 20.0309L27.067 19.6894L27.074 19.3472L27.08 19.0046L27.084 18.6615L27.075 18.5225L27.065 18.3724L27.055 18.2116L27.045 18.0406L27.033 17.8597L27.02 17.6695L27.005 17.4704L26.989 17.2628L26.971 17.0473L26.951 16.8241L26.928 16.5938L26.904 16.3568L26.876 16.1135L26.846 15.8645L26.813 15.6101L26.777 15.3508L26.737 15.087L26.694 14.8192L26.647 14.5479L26.596 14.2733L26.54 13.9962L26.481 13.7167L26.417 13.4355L26.348 13.1529L26.274 12.8694L26.195 12.5854L26.111 12.3015L26.021 12.0179L25.926 11.7352L25.825 11.4538L25.717 11.1742L25.603 10.8968L25.483 10.622L25.356 10.3503L25.222 10.0821L25.082 9.818L24.933 9.5582L24.778 9.3033L24.614 9.0538L24.443 8.8099L24.264 8.5723L24.077 8.3414L23.881 8.1175L23.677 7.9012L23.463 7.6928L23.241 7.4929L23.009 7.3018L22.769 7.12L22.518 6.948L22.258 6.7863L21.987 6.6351L21.773 6.5398L21.551 6.4478L21.321 6.3592L21.085 6.2741L20.843 6.1925L20.595 6.1145L20.344 6.0403L20.089 5.9698L19.832 5.9031L19.572 5.8403L19.312 5.7815L19.052 5.7267L18.793 5.676L18.535 5.6295L18.279 5.5872L18.027 5.5493L17.779 5.5157L17.535 5.4866L17.17 5.5125L16.819 5.5426L16.483 5.5767L16.16 5.615L15.851 5.6575L15.557 5.704L15.277 5.7547L15.01 5.8096L14.758 5.8686L14.52 5.9317L14.296 5.9989L14.086 6.0703L13.89 6.1458L13.708 6.2254L13.54 6.3092L13.387 6.3971L13.247 6.4892L13.037 6.5852L12.831 6.6868L12.628 6.7942L12.429 6.9072L12.234 7.0259L12.042 7.1503L11.854 7.2804L11.67 7.4161L11.489 7.5576L11.312 7.7047L11.138 7.8575L10.968 8.016L10.802 8.1801L10.639 8.3499L10.48 8.5255L10.325 8.7067L10.173 8.8936L10.025 9.0861L9.88 9.2844L9.739 9.4883L9.602 9.6979L9.468 9.9132L9.338 10.1341L9.212 10.3608L9.089 10.5931L8.97 10.8311L8.854 11.0748L8.743 11.3242L8.634 11.5792L8.53 11.84L8.429 12.1064L8.331 12.3785L8.238 12.6563L8.148 12.9397L8.061 13.2289L7.978 13.5237L7.899 13.8242L7.823 14.1304L7.751 14.4422L7.683 14.7598L7.618 15.083L7.557 15.4119L7.5 15.7465L7.446 16.0868L7.396 16.4327L7.349 16.7844L7.306 17.1417L7.267 17.5047L7.231 17.8734L7.199 18.2477L7.171 18.6277"/>

<path id="shape5" 
  transform="matrix(1.10282128150167 0 0 0.882666700357698 229.668509684873 14.601746278339)" 
  fill="#afafaf" 
  fill-rule="evenodd" 
  stroke="#afafaf" 
  stroke-width="0.2424" 
  stroke-linecap="square" 
  stroke-linejoin="bevel" 
  d="M30.7381 3.63551C28.2192 2.21194 27.274 0.588742 18.9856 0.0205139C13.5889 -0.220486 8.73177 1.66958 5.28697 5.28961C3.78343 6.74437 2.56334 8.53014 1.67464 10.7366C0.606435 13.1176 -0.0766647 15.9874 0.00689327 19.7193C-0.111498 26.0221 1.78355 30.3365 4.80888 33.6521C6.24263 35.1717 7.83447 36.3775 9.58439 37.2693C11.6764 38.3106 14.1793 38.9016 17.0931 39.0422C23.126 39.1581 27.8269 37.9221 31.1956 35.3343L28.3569 29.7955C25.805 31.8774 22.9546 33.2324 18.9819 33.4105C15.8697 33.2654 11.9085 31.9334 10.0947 29.5434C8.15826 27.2615 7.12785 23.9863 6.98564 19.738C7.2388 16.0956 7.92916 13.4578 8.88665 11.524C10.796 7.97839 13.5291 6.61319 15.7586 6.00463C17.0567 5.74351 18.1897 5.63831 19.207 5.65098C23.0623 5.78345 26.6933 7.58645 27.5844 8.40926C27.5844 8.40926 28.6356 6.81801 30.7381 3.63551Z"/>

<path id="shape6" 
  transform="matrix(1.10282128150167 0 0 0.882666700357698 272.352452448313 1.68550836311988)" 
  fill="#afafaf" 
  fill-rule="evenodd" 
  stroke="#afafaf" 
  stroke-width="0.2424" 
  stroke-linecap="square" 
  stroke-linejoin="bevel"
  d="M0.00375625 3.05669e-09L0 52.8113L6.46499 52.815L6.47998 39.8625L12.2163 34.1387L24.24 52.8187L31.3619 52.8198L16.5626 29.5637L28.545 15.3862L20.895 15.3788L6.49125 32.6213L6.48001 6.66134e-16C6.48001 6.66134e-16 4.32126 1.0189e-09 0.00375625 3.05669e-09Z"/>

<path id="shape7" 
  transform="matrix(1.10282128150167 0 0 0.882666700357698 309.258133905847 14.5952840101401)" 
  fill="#afafaf" 
  fill-rule="evenodd" 
  stroke="#afafaf" 
  stroke-width="0.2424" 
  stroke-linecap="square" 
  stroke-linejoin="bevel" 
  d="M0 18.9964L0.0093 19.2538L0.0188 19.5113L0.0286 19.7688L0.0389 20.0263L0.0496 20.2837L0.0611 20.5411L0.0732 20.7983L0.0862 21.0554L0.1001 21.3123L0.1151 21.5689L0.1312 21.8253L0.1485 22.0813L0.1672 22.337L0.1874 22.5923L0.2091 22.8471L0.2324 23.1014L0.2575 23.3552L0.2844 23.6085L0.3132 23.8612L0.3442 24.1132L0.3772 24.3645L0.4126 24.6151L0.4503 24.865L0.4904 25.1141L0.5331 25.3623L0.5785 25.6096L0.6266 25.856L0.6775 26.1015L0.7315 26.3459L0.7885 26.5894L0.8487 26.8317L0.9121 27.0729L0.9789 27.313L1.0492 27.5519L1.123 27.7895L1.2005 28.0258L1.2818 28.2609L1.3669 28.4946L1.4561 28.7268L1.5493 28.9577L1.6466 29.1871L1.7483 29.4149L1.8543 29.6412L1.9648 29.8659L2.0799 30.089L2.1997 30.3104L2.3243 30.53L2.4537 30.748L2.5882 30.9641L2.7277 31.1784L2.8724 31.3908L3.0224 31.6013L3.1778 31.8099L3.3387 32.0164L3.5051 32.2209L3.6773 32.4234L3.8553 32.6237L4.0392 32.8219L4.229 33.0179L4.425 33.2117L4.5482 33.3567L4.6761 33.5028L4.8087 33.6499L4.9459 33.7978L5.0877 33.9463L5.2341 34.0954L5.3849 34.2448L5.5403 34.3945L5.7001 34.5442L5.8644 34.6938L6.0329 34.8432L6.2059 34.9922L6.3831 35.1407L6.5645 35.2885L6.7502 35.4355L6.94 35.5815L7.134 35.7263L7.3321 35.8699L7.5342 36.0121L7.7404 36.1527L7.9505 36.2916L8.1646 36.4286L8.3826 36.5636L8.6044 36.6965L8.8301 36.827L9.0596 36.9551L9.2928 37.0805L9.5298 37.2032L9.7704 37.323L10.0146 37.4397L10.2625 37.5532L10.5139 37.6634L10.7688 37.77L11.0272 37.873L11.2891 37.9723L11.5543 38.0675L11.8229 38.1587L12.0949 38.2456L12.3701 38.3281L12.6486 38.4061L12.9303 38.4793L13.2152 38.5478L13.5032 38.6112L13.7943 38.6695L14.0885 38.7226L14.3857 38.7701L14.6859 38.8121L14.989 38.8484L15.295 38.8788L15.6039 38.9031L15.9156 38.9213L16.2302 38.9331L16.5474 38.9385L16.8674 38.9372L17.1901 38.9292L17.5154 38.9143L17.8235 38.9037L18.1293 38.8912L18.4329 38.8767L18.7341 38.8603L19.033 38.842L19.3295 38.8217L19.6237 38.7994L19.9155 38.7751L20.2049 38.7488L20.4919 38.7206L20.7765 38.6903L21.0587 38.6579L21.3385 38.6236L21.6158 38.5871L21.8906 38.5487L22.163 38.5081L22.4329 38.4655L22.7003 38.4207L22.9652 38.3739L23.2275 38.3249L23.4873 38.2739L23.7446 38.2207L23.9993 38.1653L24.2515 38.1078L24.5011 38.0481L24.748 37.9863L24.9924 37.9222L25.2341 37.856L25.4732 37.7876L25.7097 37.7169L25.9435 37.644L26.1746 37.5689L26.403 37.4915L26.6288 37.4119L26.8518 37.3299L27.0721 37.2458L27.2897 37.1593L27.5045 37.0705L27.7165 36.9794L27.9258 36.8859L28.1323 36.7902L28.336 36.6921L28.5369 36.5916L28.735 36.4888L28.9303 36.3836L29.1227 36.276L29.3122 36.166L29.4988 36.0536L29.6826 35.9388L29.8635 35.8216L30.0415 35.7019L30.2165 35.5797L30.3886 35.4552L30.5578 35.3281L30.724 35.1986L30.8872 35.0665L31.0474 34.932L31.2047 34.7949L28.3191 30.0342L28.1472 30.1713L27.9692 30.3075L27.7854 30.4427L27.5959 30.5766L27.4009 30.7092L27.2006 30.8403L26.9954 30.9697L26.7853 31.0975L26.5705 31.2233L26.3514 31.3471L26.1281 31.4687L25.9008 31.5879L25.6697 31.7048L25.435 31.819L25.197 31.9304L24.9558 32.039L24.7117 32.1446L24.4649 32.247L24.2156 32.346L23.9639 32.4417L23.7102 32.5337L23.4546 32.6221L23.1973 32.7065L22.9385 32.787L22.6785 32.8633L22.4174 32.9353L22.1555 33.0029L21.893 33.0659L21.6301 33.1242L21.3669 33.1777L21.1038 33.2261L20.8409 33.2695L20.5784 33.3076L20.3166 33.3402L20.0556 33.3673L19.7956 33.3887L19.537 33.4043L19.2798 33.4139L19.0243 33.4174L18.7707 33.4146L18.5192 33.4055L18.252 33.3731L17.9857 33.3393L17.7203 33.304L17.4559 33.2669L17.1927 33.2277L16.9306 33.186L16.6697 33.1417L16.4102 33.0945L16.1521 33.044L15.8955 32.9901L15.6404 32.9324L15.387 32.8707L15.1353 32.8047L14.8855 32.7342L14.6375 32.6587L14.3915 32.5782L14.1475 32.4923L13.9057 32.4007L13.666 32.3032L13.4287 32.1995L13.1937 32.0893L12.9611 31.9723L12.7311 31.8483L12.5036 31.717L12.2789 31.5782L12.0569 31.4315L11.8377 31.2767L11.6215 31.1135L11.4082 30.9416L11.198 30.7608L10.991 30.5708L10.7872 30.3714L10.5867 30.1621L10.3896 29.9429L10.196 29.7133L10.0753 29.5813L9.9561 29.4452L9.8382 29.3049L9.7218 29.1602L9.607 29.0112L9.4936 28.8577L9.3818 28.6996L9.2716 28.5368L9.163 28.3693L9.056 28.1969L8.9508 28.0196L8.8472 27.8372L8.7454 27.6497L8.6454 27.4571L8.5471 27.2591L8.4507 27.0557L8.3562 26.8469L8.2635 26.6324L8.1728 26.4124L8.084 26.1865L7.9973 25.9548L7.9125 25.7172L7.8298 25.4736L7.7492 25.2238L7.6706 24.9678L7.5943 24.7056L7.5201 24.4369L7.4481 24.1618L7.3783 23.8801L7.3108 23.5917L7.2456 23.2966L7.1827 22.9946L7.1222 22.6857L7.0641 22.3698L7.0084 22.0468L6.9551 21.7166L6.9043 21.3791L6.856 21.0342L6.8103 20.6818L6.7671 20.3218L6.7266 19.9542L34.1215 19.9669L34.1622 19.8053L34.2026 19.6331L34.2426 19.4508L34.2818 19.2589L34.3203 19.0578L34.3577 18.8479L34.3939 18.6299L34.4287 18.404L34.4619 18.1707L34.4934 17.9306L34.5229 17.6841L34.5503 17.4315L34.5753 17.1735L34.5979 16.9104L34.6178 16.6427L34.6348 16.3708L34.6488 16.0953L34.6595 15.8165L34.6669 15.535L34.6706 15.2512L34.6706 14.9655L34.6665 14.6784L34.6584 14.3903L34.6247 14.1284L34.587 13.866L34.5453 13.6033L34.4996 13.3405L34.4501 13.0776L34.3969 12.8149L34.3399 12.5525L34.2793 12.2905L34.2152 12.0291L34.1476 11.7685L34.0767 11.5088L34.0024 11.2502L33.9249 10.9928L33.8442 10.7368L33.7604 10.4823L33.6737 10.2294L33.5839 9.9784L33.4914 9.7294L33.396 9.4826L33.2979 9.238L33.1972 8.9959L33.0939 8.7563L32.9882 8.5196L32.88 8.2857L32.7695 8.0549L32.6568 7.8273L32.5419 7.6031L32.4248 7.3823L32.3058 7.1653L32.1848 6.9521L32.0619 6.7429L31.9372 6.5378L31.8107 6.337L31.6827 6.1406L31.553 5.9488L31.4218 5.7618L31.2893 5.5796L31.1553 5.4025L31.0109 5.2249L30.8631 5.0501L30.712 4.8782L30.5576 4.7091L30.3999 4.5429L30.2388 4.3796L30.0745 4.2191L29.9068 4.0615L29.7357 3.9068L29.5613 3.7549L29.3836 3.606L29.2025 3.4599L29.0181 3.3168L28.8303 3.1765L28.6391 3.0392L28.4446 2.9048L28.2466 2.7733L28.0453 2.6447L27.8406 2.519L27.6325 2.3963L27.421 2.2765L27.2061 2.1596L26.9878 2.0457L26.766 1.9347L26.5409 1.8267L26.3123 1.7217L26.0802 1.6196L25.8448 1.5204L25.6059 1.4243L25.3635 1.3311L25.1177 1.2409L24.8684 1.1537L24.6157 1.0695L24.3594 0.9883L24.0997 0.9101L23.8366 0.8349L23.5699 0.7626L23.2998 0.6935L23.0261 0.6273L22.749 0.5641L22.4683 0.504L22.1841 0.4469L21.8964 0.3929L21.6052 0.3418L21.3104 0.2939L21.0122 0.249L20.7103 0.2071L20.405 0.1683L20.096 0.1325L19.7836 0.0999L19.4675 0.0703L19.1479 0.0438L18.8247 0.0203L18.498 0L18.232 0.0116L17.9678 0.024L17.7054 0.0374L17.4447 0.0516L17.1857 0.0666L16.9286 0.0826L16.6732 0.0994L16.4195 0.117L16.1676 0.1355L15.9174 0.1549L15.669 0.1752L15.4224 0.1963L15.1775 0.2183L14.9344 0.2412L14.693 0.265L14.4534 0.2896L14.2156 0.315L13.9795 0.3414L13.5495 0.4681L13.1262 0.6003L12.7096 0.7379L12.2998 0.8811L11.8966 1.0296L11.5002 1.1837L11.1105 1.3432L10.7274 1.5082L10.3511 1.6786L9.9816 1.8545L9.6187 2.0359L9.2625 2.2227L8.9131 2.415L8.5704 2.6128L8.2343 2.816L7.905 3.0247L7.5825 3.2389L7.2666 3.4585L6.9574 3.6836L6.655 3.9141L6.3592 4.1501L6.0702 4.3916L5.7879 4.6385L5.5123 4.8909L5.2434 5.1488L4.9812 5.4121L4.7258 5.6809L4.477 5.9552L4.235 6.2349L3.9996 6.5201L3.771 6.8107L3.5491 7.1068L3.334 7.4084L3.1255 7.7154L2.9237 8.0279L2.7287 8.3459L2.5404 8.6693L2.3587 8.9982L2.1838 9.3326L2.0156 9.6724L1.8542 10.0177L1.6994 10.3685L1.5513 10.7247L1.41 11.0863L1.2754 11.4535L1.1475 11.8261L1.0263 12.2042L0.9118 12.5877L0.804 12.9767L0.7029 13.3712L0.6086 13.7711L0.521 14.1765L0.44 14.5873L0.3658 15.0037L0.2983 15.4254L0.2376 15.8527L0.1835 16.2854L0.1361 16.7236L0.0955 17.1672L0.0616 17.6163L0.0343 18.0709L0.0138 18.5309L0 18.9964M6.9741 15.4055L28.0866 15.398L28.0424 15.0416L27.9944 14.6945L27.9427 14.3566L27.8871 14.0279L27.8276 13.708L27.7642 13.397L27.6968 13.0946L27.6254 12.8007L27.55 12.5152L27.4704 12.238L27.3866 11.9688L27.2987 11.7075L27.2065 11.4541L27.11 11.2083L27.0091 10.97L26.9039 10.7391L26.7943 10.5154L26.6801 10.2989L26.5615 10.0892L26.4383 9.8864L26.3104 9.6902L26.1779 9.5006L26.0407 9.3173L25.8988 9.1403L25.752 8.9694L25.6005 8.8044L25.444 8.6452L25.2826 8.4917L25.1162 8.3437L24.9448 8.2011L24.7777 8.0413L24.606 7.8861L24.4297 7.7355L24.2487 7.5896L24.063 7.4483L23.8726 7.3117L23.6773 7.1799L23.4773 7.0528L23.2724 6.9306L23.0626 6.8133L22.8478 6.7008L22.6281 6.5934L22.4034 6.4908L22.1736 6.3933L21.9387 6.3009L21.6987 6.2136L21.4535 6.1313L21.2031 6.0543L20.9474 5.9825L20.6865 5.9159L20.4202 5.8546L20.1486 5.7986L19.8716 5.7479L19.5891 5.7027L19.3011 5.6629L19.0077 5.6286L18.7087 5.5998L18.404 5.5765L18.0938 5.5588L17.7778 5.5467L17.4398 5.5793L17.1071 5.6173L16.7796 5.6607L16.4576 5.7095L16.1408 5.7637L15.8294 5.8233L15.5233 5.8884L15.2225 5.9588L14.927 6.0347L14.6369 6.116L14.3521 6.2027L14.0726 6.2948L13.7984 6.3923L13.5296 6.4953L13.266 6.6036L13.0078 6.7174L12.755 6.8366L12.5074 6.9612L12.2652 7.0912L12.0283 7.2266L11.7968 7.3674L11.5705 7.5137L11.3496 7.6653L11.134 7.8224L10.9237 7.9849L10.7188 8.1528L10.5192 8.3261L10.3249 8.5049L10.1359 8.689L9.9522 8.8786L9.7739 9.0735L9.6009 9.2739L9.4332 9.4797L9.2709 9.6909L9.1138 9.9076L8.9621 10.1296L8.8158 10.3571L8.6747 10.5899L8.5715 10.7931L8.4701 11.0003L8.3707 11.2114L8.2732 11.4265L8.1776 11.6456L8.084 11.8685L7.9922 12.0955L7.9024 12.3264L7.8145 12.5612L7.7285 12.8L7.6444 13.0428L7.5623 13.2895L7.482 13.5402L7.4037 13.7948L7.3273 14.0534L7.2528 14.3159L7.1803 14.5824L7.1096 14.8528L7.0409 15.1272L6.9741 15.4055"/>

<path id="shape8" 
  transform="matrix(1.10282128150167 0 0 0.882666700357698 352.755080686949 6.14956284496287)" 
  fill="#afafaf" 
  fill-rule="evenodd" 
  stroke="#afafaf" 
  stroke-width="0.2424" 
  stroke-linecap="square" 
  stroke-linejoin="bevel" 
  d="M10.1063 0.00749977L4.31627 2.4075L4.30877 10.3238L0 10.335L0.0187398 15.3787L4.31999 15.3825L4.3125 37.6575C4.54075 39.5467 4.25436 41.5546 6.93244 44.9024C8.05643 46.1122 9.55726 47.239 11.5198 48.0626C12.6457 48.365 13.936 48.5341 15.4162 48.5287C20.5034 48.4917 22.4065 47.9503 24.0037 47.52L23.0363 41.7675C21.2614 42.2149 19.9065 42.8045 17.2912 42.9675C15.0619 42.8363 13.7688 42.1824 12.9767 41.2489C11.2368 39.3619 11.0619 36.2882 10.7925 34.3275L10.8112 15.3675L21.12 15.36L21.1312 10.3387L10.8075 10.3313L10.7963 0C10.7963 0 10.5663 0.00249992 10.1063 0.00749977Z"/>
</svg>
