<?xml version="1.0" standalone="no"?>
<!DOCTYPE svg PUBLIC "-//W3C//DTD SVG 20010904//EN" "http://www.w3.org/TR/2001/REC-SVG-20010904/DTD/svg10.dtd">

<svg xmlns="http://www.w3.org/2000/svg" 
    xmlns:xlink="http://www.w3.org/1999/xlink"
    width="466.776pt"
    height="162pt"
    viewBox="0 0 466.776 162">

<defs>
  <linearGradient id="gradient0" gradientUnits="objectBoundingBox" x1="0.133488789755202" y1="0.933487825093273" x2="0.988875934187066" y2="0.12696420025973" spreadMethod="pad">
   <stop stop-color="#0a000d" offset="0.0577000007033348" stop-opacity="1"/>
   <stop stop-color="#475256" offset="0.5" stop-opacity="1"/>
   <stop stop-color="#b5aeac" offset="0.826900005340576" stop-opacity="1"/>
   <stop stop-color="#ffffff" offset="1" stop-opacity="1"/>
  </linearGradient>
  <linearGradient id="gradient1" gradientUnits="objectBoundingBox" x1="1.11022302462516e-16" y1="1.03354466472039" x2="0.996065945512078" y2="-0.0264667404655292" spreadMethod="pad">
   <stop stop-color="#0a000d" offset="0.0577000007033348" stop-opacity="1"/>
   <stop stop-color="#475256" offset="0.5" stop-opacity="1"/>
   <stop stop-color="#b5aeac" offset="0.723100006580353" stop-opacity="1"/>
   <stop stop-color="#ffffff" offset="1" stop-opacity="1"/>
  </linearGradient>
  <linearGradient id="gradient2" gradientUnits="objectBoundingBox" x1="0.0104903060030055" y1="1.02714597246585" x2="0.978865863248379" y2="0.0287925141957911" spreadMethod="pad">
   <stop stop-color="#0a000d" offset="0" stop-opacity="1"/>
   <stop stop-color="#475256" offset="0.4966000020504" stop-opacity="1"/>
   <stop stop-color="#b5aeac" offset="0.791899979114532" stop-opacity="1"/>
   <stop stop-color="#ffffff" offset="1" stop-opacity="1"/>
  </linearGradient>
  <linearGradient id="gradient3" gradientUnits="objectBoundingBox" x1="0.00876810535013473" y1="1.00749951447012" x2="1.01169080713351" y2="0.0118754761927631" spreadMethod="pad">
   <stop stop-color="#0a000d" offset="0" stop-opacity="1"/>
   <stop stop-color="#475256" offset="0.154400005936623" stop-opacity="1"/>
   <stop stop-color="#b5aeac" offset="0.603999972343445" stop-opacity="1"/>
   <stop stop-color="#ffffff" offset="1" stop-opacity="1"/>
  </linearGradient>
 </defs>

<path id="shape01"
  transform="matrix(0.999999997907856 0 0 0.999999997907856 177.96902905514 8.03400028068602)"
  fill="url(#gradient0)"
  fill-rule="evenodd"
  stroke="#000000"
  stroke-width="1"
  stroke-linecap="square"
  stroke-linejoin="bevel"
  d="M0 8.904L15.939 11.932L18.988 17.943L19.209 130.947L16.027 135.985L11.961 138.99L0.029 138.99L0 148.841L74.031 149.029L75.138 148.937L76.239 148.845L77.334 148.753L78.422 148.659L79.504 148.563L80.579 148.464L81.647 148.362L82.709 148.255L83.764 148.144L84.812 148.027L85.854 147.904L86.888 147.774L87.916 147.637L88.936 147.491L89.949 147.337L90.956 147.173L91.955 146.999L92.946 146.814L93.931 146.617L94.908 146.408L95.877 146.186L96.839 145.951L97.794 145.701L98.741 145.436L99.68 145.156L100.611 144.859L101.535 144.545L102.451 144.214L103.359 143.864L104.259 143.496L105.151 143.107L106.035 142.699L106.911 142.269L107.778 141.817L108.638 141.344L109.489 140.847L110.425 140.317L111.349 139.755L112.258 139.16L113.153 138.531L114.032 137.867L114.896 137.165L115.743 136.426L116.574 135.646L117.388 134.826L118.183 133.964L118.96 133.059L119.718 132.109L120.456 131.113L121.175 130.07L121.872 128.978L122.549 127.837L123.204 126.645L123.836 125.4L124.445 124.102L125.032 122.748L125.594 121.339L126.131 119.872L126.644 118.346L127.131 116.761C128.943 110.726 128.328 105.305 127.043 100.055L126.611 98.28L126.127 96.586L125.593 94.971L125.01 93.432L124.381 91.966L123.706 90.572L122.988 89.246L122.227 87.987L121.425 86.792L120.585 85.658L119.707 84.582L118.793 83.564L117.845 82.599L116.863 81.685L115.851 80.821L114.809 80.004L113.739 79.23L112.642 78.498L111.52 77.805L110.375 77.149L109.208 76.528L108.021 75.938L106.815 75.377L105.592 74.843L104.354 74.334L103.101 73.847L101.836 73.379L100.56 72.928L99.275 72.492L97.983 72.068L96.684 71.653L95.38 71.246L94.074 70.843L94.118 69.031L96.037 68.511L97.869 67.946L99.616 67.339L101.28 66.689L102.863 65.999L104.366 65.268L105.791 64.499L107.14 63.69L108.416 62.845L109.619 61.963L110.753 61.046L111.817 60.094L112.816 59.108L113.749 58.09L114.62 57.04L115.429 55.959L116.18 54.848L116.873 53.709L117.51 52.541L118.094 51.346L118.626 50.125L119.108 48.879L119.542 47.608L119.93 46.314L120.273 44.998L120.573 43.66L120.833 42.302L121.054 40.924C121.156 38.7127 121.458 36.7017 121.01 33.941L120.873 32.647L120.702 31.376L120.497 30.126L120.258 28.899L119.985 27.695L119.677 26.513L119.334 25.354L118.956 24.218L118.542 23.106L118.093 22.017L117.607 20.952L117.085 19.91L116.526 18.893L115.931 17.899L115.298 16.931L114.627 15.986L113.919 15.067L113.173 14.172L112.389 13.303L111.565 12.459L110.703 11.64L109.802 10.847L108.861 10.08L107.881 9.339L106.861 8.624L105.8 7.936L104.698 7.274L103.556 6.639L102.373 6.031L101.148 5.451L99.882 4.897L98.573 4.371L97.222 3.873L95.829 3.402L94.393 2.96L92.914 2.546L91.391 2.16L89.825 1.803L88.215 1.475L86.56 1.176L84.861 0.906L83.118 0.665L81.329 0.454L79.495 0.273L77.615 0.121L75.689 0L0.031 0.091L0 8.904M52.001 10.938L52.089 64.877L68.132 64.921L69.739 64.377L71.304 63.794L72.821 63.166L74.285 62.489L75.69 61.758L77.032 60.967L78.304 60.113L79.502 59.189L80.62 58.192L81.652 57.115L82.595 55.955L83.442 54.706L84.187 53.363L84.826 51.921L85.354 50.376L85.764 48.723L86.053 46.956L86.031 28.019L85.773 26.576L85.434 25.197L85.013 23.882L84.511 22.631L83.929 21.442L83.267 20.316L82.525 19.252L81.704 18.25L80.805 17.31L79.827 16.43L78.772 15.611L77.641 14.853L76.432 14.154L75.148 13.514L73.788 12.934L72.353 12.412L70.844 11.949L69.261 11.543L67.604 11.195L65.875 10.904L65.793 10.899L65.546 10.896L65.136 10.894L64.561 10.893L63.822 10.894L62.919 10.895L61.852 10.898L60.621 10.902L59.225 10.907L57.665 10.913L55.941 10.92L54.053 10.928L52.001 10.938M51.906 137.966L69.469 138.029L71.363 137.848L73.17 137.581L74.891 137.229L76.526 136.794L78.077 136.276L79.545 135.676L80.932 134.997L82.238 134.238L83.465 133.402L84.615 132.489L85.687 131.501L86.685 130.439L87.608 129.305L88.458 128.098L89.237 126.821L89.945 125.475L90.583 124.061L91.154 122.58L91.658 121.034L92.097 119.423L92.471 117.749L92.782 116.013L93.031 114.216L93.057 100.763L92.778 99.155L92.46 97.589L92.101 96.067L91.699 94.588L91.251 93.155L90.755 91.769L90.209 90.43L89.611 89.14L88.958 87.899L88.248 86.71L87.479 85.572L86.648 84.488L85.754 83.458L84.794 82.483L83.765 81.565L82.666 80.705L81.494 79.903L80.247 79.161L78.923 78.48L77.519 77.861L76.034 77.305L74.464 76.814L72.807 76.388L71.062 76.029L52.089 76.058L52.074 81.112L52.056 87.429L52.048 90.096L52.033 95.165L51.992 109.063L51.964 118.235L51.929 130.354L51.917 134.098L51.906 137.966"/>

<path id="shape11"
  transform="matrix(0.999999997907856 0 0 0.999999997907856 16.9540293921091 7.94500028087231)"
  fill="url(#gradient1)"
  fill-rule="evenodd"
  stroke="#000000"
  stroke-width="1"
  stroke-linecap="square"
  stroke-linejoin="bevel"
  d="M0 0.045L0.044 8.972L9.016 8.972L15.998 12.043L18.982 17.855L19.136 130.02L16.043 136.163L11.049 139.079L0 139.124L0.044 148.935L74.734 149.055C80.2965 148.369 85.7804 148.005 91.678 146.326L92.789 146.14L93.907 145.937L95.034 145.715L96.168 145.469L97.262 145.053L98.353 144.631L99.439 144.201L100.522 143.762L101.601 143.311L102.676 142.846L103.746 142.366L104.812 141.868L105.873 141.35L106.929 140.811L107.98 140.249L109.026 139.661L110.066 139.045L111.1 138.4L112.129 137.724L113.152 137.014L114.168 136.27L114.76 135.853L115.355 135.427L115.951 134.99L116.549 134.544L117.148 134.087L117.748 133.618L118.349 133.137L118.951 132.644L119.552 132.138L120.153 131.618L120.754 131.084L121.354 130.536L121.953 129.973L122.55 129.394L123.146 128.799L123.74 128.188L124.332 127.559L124.92 126.913L125.506 126.249L126.089 125.566L126.668 124.864L127.244 124.142L127.815 123.4L128.382 122.637L128.944 121.853L129.502 121.047L130.054 120.219L130.6 119.368L131.14 118.494L131.674 117.596L132.202 116.673L132.723 115.726L133.237 114.754L133.743 113.755L134.241 112.73L134.732 111.678L135.214 110.599L135.688 109.492L136.153 108.356L136.608 107.192L137.054 105.997L137.49 104.773L137.916 103.518L138.332 102.233L138.736 100.915L139.13 99.566L139.513 98.184L139.883 96.769L140.242 95.32L140.589 93.837L140.923 92.319L141.244 90.766L141.553 89.178L141.847 87.553L142.128 85.891L142.395 84.193L142.648 82.456L142.886 80.681L143.109 78.868L143.057 65.143L142.943 63.784L142.816 62.438L142.675 61.104L142.52 59.783L142.352 58.475L142.171 57.179L141.975 55.897L141.766 54.628L141.543 53.372L141.306 52.129L141.055 50.899L140.789 49.683L140.51 48.48L140.217 47.291L139.91 46.116L139.588 44.954L139.252 43.807L138.902 42.673L138.537 41.554L138.158 40.448L137.764 39.357L137.356 38.28L136.933 37.218L136.495 36.17L136.043 35.137L135.576 34.119L135.094 33.115L134.597 32.127L134.085 31.153L133.559 30.194L133.017 29.251L132.46 28.323L131.888 27.41L131.301 26.513L130.698 25.631L130.08 24.765L129.447 23.915L128.798 23.08L128.134 22.262L127.454 21.459L126.759 20.673L126.048 19.903L125.322 19.149L124.579 18.411L123.821 17.69L123.047 16.986L122.257 16.298L121.451 15.627L120.629 14.973L119.791 14.336L118.937 13.716L118.066 13.113L117.18 12.527L116.277 11.958L115.484 11.431L114.679 10.915L113.861 10.409L113.032 9.913L112.189 9.428L111.335 8.954L110.467 8.491L109.588 8.039L108.695 7.597L107.79 7.166L106.873 6.746L105.943 6.336L105 5.938L104.044 5.551L103.076 5.174L102.094 4.809L101.1 4.455L100.093 4.111L99.073 3.779L98.04 3.458L96.994 3.148L95.935 2.849L94.863 2.562L93.778 2.286L92.679 2.021L91.568 1.767L90.443 1.525L89.305 1.294L88.154 1.075L86.989 0.867L85.811 0.671L84.619 0.486L83.414 0.312L82.196 0.151L80.964 0L71.968 0.005L62.605 0.01L51.508 0.016L43.246 0.021L31.986 0.027L23.663 0.032L9.955 0.039L0 0.045M51.066 10.986L51.046 136.961L72.037 136.851L73.532 136.386L74.987 135.885L76.402 135.35L77.777 134.781L79.113 134.179L80.411 133.545L81.672 132.878L82.895 132.18L84.083 131.451L85.235 130.691L86.353 129.902L87.437 129.083L88.487 128.236L89.505 127.361L90.491 126.458L91.445 125.529L92.37 124.573L93.264 123.591L94.129 122.584L94.966 121.552L95.776 120.496L96.558 119.417L97.314 118.314L98.044 117.19L98.75 116.043L99.431 114.875L100.089 113.687L100.724 112.478L101.337 111.25L101.695 110.334L102.043 109.408L102.38 108.472L102.707 107.526L103.026 106.572L103.334 105.609L103.634 104.637L103.925 103.657L104.208 102.669L104.483 101.674L104.749 100.671L105.009 99.662L105.261 98.646L105.506 97.623L105.744 96.594L105.976 95.56L106.202 94.52L106.422 93.475L106.637 92.426L106.847 91.371L107.051 90.313L107.251 89.25L107.447 88.184L107.638 87.115L107.826 86.043L108.011 84.967L107.984 58.118L107.726 56.921L107.477 55.727L107.234 54.535L106.995 53.346L106.758 52.161L106.522 50.979L106.284 49.802L106.042 48.629L105.795 47.461L105.54 46.299L105.276 45.144L105 43.995L104.711 42.853L104.407 41.718L104.085 40.592L103.744 39.474L103.382 38.365L102.997 37.266L102.586 36.177L102.149 35.098L101.682 34.03L101.185 32.973L100.654 31.928L100.089 30.895L99.487 29.876L98.846 28.869L98.164 27.876L97.44 26.897L96.67 25.933L95.855 24.985L94.991 24.051L94.076 23.134L93.109 22.233L92.087 21.35L91.009 20.484L89.873 19.636L88.676 18.806L87.417 17.995L86.094 17.204L84.705 16.432L83.248 15.681L81.72 14.95L80.121 14.241L78.448 13.554L76.699 12.888L74.871 12.246L72.965 11.626L70.976 11.031L55.037 10.995L51.066 10.986"/>

<path id="shape02"
  transform="matrix(0.999999997907856 0 0 0.999999997907856 324.441028748639 8.64780027931473)"
  fill="url(#gradient2)"
  fill-rule="evenodd"
  stroke="#000000"
  stroke-width="1.00999999999992"
  stroke-linecap="square"
  stroke-linejoin="bevel"
  d="M134.812 27.749L133.847 26.5987L132.862 25.4709L131.857 24.3658L130.832 23.2834L129.788 22.224L128.725 21.1876L127.644 20.1743L126.545 19.1843L125.427 18.2177L124.293 17.2746L123.142 16.3551L121.975 15.4593L120.792 14.5874L119.593 13.7396L118.379 12.9158L117.15 12.1162L115.907 11.3411L114.651 10.5903L113.381 9.8642L112.098 9.1628L110.802 8.4863L109.494 7.8347L108.175 7.2082L106.844 6.6069L105.503 6.0309L104.151 5.4803L102.789 4.9554L101.417 4.4561L100.036 3.9826L98.646 3.5351L97.248 3.1136L95.842 2.7183L94.429 2.3492L93.008 2.0066L91.581 1.6906L90.147 1.4012L88.708 1.1385L87.263 0.9028L85.814 0.6941L84.359 0.5125L82.901 0.3582L81.439 0.2313L79.973 0.1319L78.505 0.0601L77.034 0.0161L75.561 0L74.087 0.0118L72.611 0.0518L71.135 0.1199L69.658 0.2165L68.181 0.3415L66.705 0.4951L65.23 0.6775L63.756 0.8887L62.283 1.1288L60.813 1.398L59.346 1.6965L57.881 2.0242L56.42 2.3814L54.963 2.7682L53.51 3.1847L52.062 3.631L50.618 4.1072L49.186 4.6115L47.768 5.142L46.366 5.6983L44.98 6.2799L43.61 6.8867L42.256 7.5182L40.918 8.1741L39.598 8.8541L38.294 9.5578L37.008 10.285L35.739 11.0352L34.488 11.8081L33.255 12.6034L32.04 13.4208L30.844 14.2599L29.667 15.1204L28.508 16.0019L27.369 16.9042L26.249 17.8268L25.149 18.7694L24.069 19.7318L23.009 20.7135L21.97 21.7142L20.951 22.7337L19.954 23.7714L18.977 24.8272L18.022 25.9007L17.089 26.9915L16.177 28.0993L15.288 29.2238L14.421 30.3646L13.577 31.5214L12.756 32.6938L11.958 33.8816L11.183 35.0843L10.433 36.3017L9.705 37.5334L9.003 38.7791L8.324 40.0384L7.67 41.3111L7.041 42.5966L6.438 43.8948L5.859 45.2053L5.306 46.5278L4.78 47.8618L4.279 49.2072L3.804 50.5634L3.357 51.9303L2.936 53.3075L2.542 54.6945L2.175 56.0912L1.836 57.4971L1.525 58.912L1.242 60.3354L0.988 61.7671L0.762 63.2066L0.564 64.6538L0.396 66.1082L0.257 67.5695L0.148 69.0373L0.069 70.5114L0.019 71.9914L0 73.4769L0.012 74.9625L0.053 76.4427L0.125 77.9171L0.227 79.3855L0.358 80.8474L0.518 82.3027L0.708 83.7508L0.927 85.1915L1.174 86.6244L1.449 88.0492L1.753 89.4652L2.084 90.8732L2.444 92.2712L2.83 93.6602L3.244 95.0402L3.685 96.4092L4.152 97.7672L4.646 99.1152L5.166 100.452L5.711 101.777L6.283 103.09L6.88 104.392L7.502 105.68L8.149 106.956L8.821 108.219L9.517 109.468L10.238 110.703L10.983 111.924L11.751 113.131L12.543 114.323L13.358 115.499L14.196 116.66L15.057 117.805L15.94 118.934L16.845 120.046L17.773 121.142L18.723 122.22L19.693 123.281L20.686 124.323L21.699 125.348L22.733 126.354L23.788 127.341L24.863 128.308L25.958 129.257L27.073 130.185L28.207 131.093L29.361 131.98L30.534 132.846L31.726 133.691L32.937 134.515L34.165 135.316L35.412 136.095L36.677 136.852L37.96 137.585L39.259 138.295L40.576 138.982L41.91 139.645L43.261 140.283L44.628 140.896L46.011 141.485L47.41 142.048L48.825 142.586L50.255 143.097L51.696 143.581L53.141 144.034L54.591 144.459L56.044 144.853L57.502 145.219L58.962 145.555L60.425 145.861L61.891 146.139L63.359 146.388L64.828 146.608L66.298 146.8L67.77 146.963L69.241 147.097L70.713 147.203L72.184 147.281L73.654 147.33L75.123 147.352L76.59 147.346L78.055 147.312L79.517 147.25L80.977 147.16L82.434 147.044L83.886 146.899L85.335 146.728L86.779 146.53L88.218 146.304L89.652 146.052L91.08 145.772L92.501 145.467L93.917 145.134L95.325 144.775L96.726 144.39L98.119 143.979L99.504 143.541L100.88 143.078L102.247 142.588L103.605 142.073L104.953 141.533L106.291 140.966L107.618 140.375L108.934 139.757L110.239 139.115L111.532 138.448L112.813 137.756L114.08 137.038L115.335 136.296L116.577 135.53L117.804 134.739L119.017 133.923L120.216 133.084L121.399 132.22L122.567 131.332L123.719 130.419L124.854 129.484L125.973 128.524L127.074 127.541L128.159 126.534L129.225 125.504L130.272 124.451L131.301 123.374L132.311 122.274L133.301 121.152L134.271 120.006L116.227 102.044L115.544 102.942L114.843 103.821L114.124 104.681L113.388 105.523L112.635 106.346L111.865 107.15L111.079 107.934L110.278 108.7L109.461 109.446L108.629 110.172L107.783 110.879L106.922 111.566L106.047 112.233L105.16 112.88L104.259 113.507L103.345 114.114L102.42 114.7L101.482 115.265L100.534 115.81L99.574 116.334L98.603 116.837L97.623 117.319L96.632 117.78L95.632 118.219L94.623 118.637L93.605 119.033L92.58 119.407L91.546 119.76L90.505 120.091L89.456 120.399L88.401 120.685L87.34 120.949L86.273 121.19L85.2 121.409L84.123 121.605L83.04 121.778L81.954 121.927L80.863 122.054L79.769 122.157L78.672 122.237L77.572 122.294L76.47 122.326L75.366 122.335L74.26 122.32L73.153 122.281L72.046 122.217L70.938 122.129L69.83 122.017L68.722 121.88L67.616 121.718L66.51 121.532L65.407 121.32L64.305 121.083L63.206 120.821L62.109 120.534L61.016 120.221L59.926 119.882L58.644 119.449L57.379 118.984L56.132 118.488L54.905 117.962L53.697 117.406L52.508 116.821L51.34 116.207L50.191 115.564L49.064 114.894L47.958 114.197L46.873 113.473L45.811 112.723L44.771 111.947L43.753 111.147L42.759 110.322L41.789 109.473L40.842 108.6L39.92 107.705L39.023 106.788L38.151 105.848L37.304 104.888L36.483 103.907L35.689 102.906L34.921 101.885L34.181 100.845L33.468 99.7872L32.783 98.7102L32.127 97.6172L31.499 96.5062L30.901 95.3792L30.332 94.2362L29.792 93.0782L29.284 91.9062L28.806 90.7192L28.359 89.5182L27.943 88.305L27.56 87.0789L27.208 85.8408L26.89 84.5912L26.605 83.3308L26.353 82.0599L26.135 80.7793L25.951 79.4893L25.802 78.1906L25.688 76.8837L25.61 75.5691L25.567 74.2474L25.561 72.9191L25.592 71.563L25.661 70.2143L25.767 68.8738L25.911 67.542L26.09 66.2194L26.305 64.9066L26.556 63.6041L26.843 62.3127L27.163 61.0327L27.518 59.7648L27.907 58.5096L28.329 57.2676L28.784 56.0394L29.272 54.8256L29.792 53.6267L30.343 52.4433L30.926 51.276L31.539 50.1254L32.183 48.9919L32.856 47.8762L33.559 46.7789L34.291 45.7005L35.052 44.6417L35.841 43.6028L36.658 42.5846L37.502 41.5876L38.373 40.6124L39.27 39.6595L40.193 38.7296L41.142 37.8231L42.116 36.9407L43.115 36.0828L44.138 35.2502L45.185 34.4434L46.255 33.6628L47.349 32.9092L48.465 32.183L49.603 31.4849L50.762 30.8154L51.943 30.1751L53.145 29.5645L54.367 28.9842L55.609 28.4348L56.871 27.9169L58.152 27.431L59.451 26.9777L60.769 26.5576L61.865 26.2382L62.964 25.9449L64.065 25.6777L65.17 25.4364L66.276 25.2208L67.384 25.0308L68.493 24.8662L69.603 24.7268L70.713 24.6126L71.824 24.5234L72.934 24.4589L74.043 24.4191L75.152 24.4038L76.259 24.4128L77.364 24.446L78.466 24.5032L79.566 24.5844L80.663 24.6892L81.756 24.8176L82.846 24.9694L83.931 25.1445L85.011 25.3427L86.087 25.5638L87.157 25.8077L88.221 26.0743L89.278 26.3633L90.329 26.6747L91.373 27.0082L92.41 27.3638L93.439 27.7413L94.459 28.1404L95.471 28.5611L96.474 29.0032L97.467 29.4666L98.45 29.9511L99.423 30.4565L100.386 30.9827L101.338 31.5295L102.278 32.0968L103.206 32.6844L104.122 33.2922L105.026 33.92L105.916 34.5676L106.793 35.235L107.656 35.9219L108.505 36.6282L109.34 37.3538L110.159 38.0984L110.963 38.862L111.752 39.6443L112.524 40.4453L113.279 41.2647L114.018 42.1024L114.739 42.9584L115.443 43.8323L116.128 44.724L116.795 45.6335L134.812 27.749M122.497 29.2272L121.903 26.8613L120.345 25.1797L118.153 24.5397L115.96 25.1797L114.402 26.8613L113.809 29.2272L114.402 31.5931L115.96 33.2747L118.153 33.9147L120.345 33.2747L121.903 31.5931L122.497 29.2272M78.833 12.8754L78.24 10.5095L76.681 8.8278L74.489 8.1879L72.297 8.8278L70.738 10.5095L70.145 12.8754L70.738 15.2412L72.297 16.9229L74.489 17.5629L76.681 16.9229L78.24 15.2412L78.833 12.8754M34.59 31.0736L33.997 28.7077L32.439 27.0261L30.247 26.3861L28.054 27.0261L26.496 28.7077L25.903 31.0736L26.496 33.4395L28.054 35.1211L30.247 35.7611L32.439 35.1211L33.997 33.4395L34.59 31.0736M15.94 76.5052L15.347 74.1393L13.789 72.4577L11.597 71.8177L9.404 72.4577L7.846 74.1393L7.253 76.5052L7.846 78.8711L9.404 80.5527L11.597 81.1927L13.789 80.5527L15.347 78.8711L15.94 76.5052M32.124 118.777L31.531 116.411L29.973 114.729L27.78 114.09L25.588 114.729L24.03 116.411L23.436 118.777L24.03 121.143L25.588 122.825L27.78 123.465L29.973 122.825L31.531 121.143L32.124 118.777M79.436 138.871L78.843 136.505L77.285 134.823L75.093 134.183L72.9 134.823L71.342 136.505L70.749 138.871L71.342 141.237L72.9 142.918L75.093 143.558L77.285 142.918L78.843 141.237L79.436 138.871M124.765 120.564L124.171 118.199L122.613 116.517L120.421 115.877L118.228 116.517L116.67 118.199L116.077 120.564L116.67 122.93L118.228 124.612L120.421 125.252L122.613 124.612L124.171 122.93L124.765 120.564"/>

<path id="shape03"
  transform="matrix(0.999999997907856 0 0 0.999999997907856 353.775253099864 36.9245808203957)"
  fill="url(#gradient3)"
  fill-rule="evenodd"
  stroke="#000000"
  stroke-width="1.00999999999992"
  stroke-linecap="square"
  stroke-linejoin="bevel"
  d="M85.5373 19.216C73.6123 3.38482 51.3092 -3.96969 32.1038 2.14355C12.8985 8.25678 -0.06304 25.6725 0.000230609 45.2794C0.0635012 64.8863 13.1372 82.2229 32.3816 88.2194C51.626 94.2159 72.9804 87.0412 84.8029 71.1379C83.65 70.3389 82.6433 69.3431 81.4904 68.5442C70.5363 83.027 50.7247 89.6316 33.1823 83.8996C15.64 78.1677 3.9323 62.0793 4.23031 44.1146C4.52833 26.1499 16.7636 10.4357 34.487 5.25502C52.2103 0.0743064 71.3504 6.61712 81.8184 21.4348Z"/>
</svg>