<?xml version="1.0" standalone="no"?>
<!DOCTYPE svg PUBLIC "-//W3C//DTD SVG 20010904//EN" "http://www.w3.org/TR/2001/REC-SVG-20010904/DTD/svg10.dtd">

<svg xmlns="http://www.w3.org/2000/svg" 
    xmlns:xlink="http://www.w3.org/1999/xlink"
    width="464.4pt"
    height="160.56pt"
    viewBox="0 0 464.4 160.56">
<defs/>

<path id="shape04"
  transform="matrix(2.04938265082577 0 0 2.04938265082577 2.1299525148331 73.5185265808494)"
  fill="#1e5081"
  fill-rule="evenodd"
  stroke-opacity="0.6"
  stroke="#000000"
  stroke-width="1"
  stroke-linecap="square"
  stroke-linejoin="bevel"
  d="M0.297 17.288L0.308 16.967L0.323 16.649L0.341 16.335L0.362 16.024L0.387 15.717L0.416 15.413L0.448 15.112L0.483 14.815L0.521 14.521L0.563 14.23L0.609 13.942L0.657 13.658L0.709 13.378L0.765 13.1L0.823 12.826L0.885 12.555L0.95 12.287L1.019 12.023L1.09 11.761L1.165 11.503L1.243 11.248L1.325 10.996L1.409 10.748L1.497 10.502L1.587 10.26L1.681 10.021L1.778 9.785L1.879 9.551L1.982 9.322L2.088 9.095L2.198 8.871L2.31 8.65L2.426 8.432L2.544 8.217L2.666 8.005L2.79 7.796L2.918 7.591L3.049 7.388L3.182 7.188L3.319 6.991L3.458 6.796L3.6 6.605L3.746 6.417L3.894 6.231L4.045 6.048L4.199 5.869L4.355 5.692L4.515 5.517L4.677 5.346L4.843 5.177L5.011 5.011L5.181 4.848L5.355 4.688L5.531 4.528L5.709 4.371L5.89 4.216L6.074 4.065L6.26 3.916L6.448 3.77L6.64 3.627L6.834 3.487L7.03 3.349L7.229 3.214L7.431 3.082L7.635 2.953L7.843 2.826L8.053 2.702L8.265 2.58L8.481 2.461L8.699 2.345L8.92 2.231L9.145 2.12L9.371 2.011L9.601 1.905L9.834 1.801L10.07 1.7L10.308 1.601L10.55 1.505L10.795 1.41L11.042 1.319L11.293 1.229L11.547 1.142L11.804 1.058L12.064 0.975L12.327 0.895L12.594 0.817L12.863 0.741L13.136 0.668L13.412 0.597L13.691 0.528L13.974 0.461L14.26 0.396L14.549 0.333L14.842 0.272L15.137 0.214L15.437 0.157L15.739 0.103L16.046 0.05L16.355 0L21.658 0.006L21.995 0.065L22.326 0.128L22.653 0.193L22.976 0.262L23.293 0.334L23.606 0.408L23.915 0.486L24.218 0.567L24.518 0.651L24.812 0.738L25.102 0.828L25.388 0.921L25.67 1.016L25.947 1.115L26.219 1.217L26.488 1.321L26.752 1.428L27.011 1.538L27.267 1.651L27.518 1.767L27.765 1.885L28.009 2.006L28.248 2.13L28.483 2.256L28.714 2.385L28.94 2.517L29.163 2.651L29.383 2.788L29.598 2.928L29.809 3.07L30.017 3.215L30.22 3.362L30.42 3.511L30.617 3.663L30.809 3.818L30.998 3.975L31.183 4.134L31.365 4.296L31.543 4.46L31.718 4.626L31.889 4.795L32.056 4.966L32.221 5.139L32.382 5.315L32.539 5.492L32.693 5.672L32.844 5.854L32.992 6.039L33.138 6.228L33.281 6.419L33.421 6.612L33.558 6.808L33.691 7.005L33.821 7.205L33.949 7.407L34.073 7.61L34.194 7.816L34.312 8.024L34.427 8.234L34.539 8.445L34.648 8.659L34.755 8.874L34.858 9.092L34.959 9.311L35.057 9.532L35.152 9.755L35.245 9.979L35.335 10.206L35.422 10.434L35.507 10.664L35.589 10.895L35.668 11.129L35.745 11.363L35.82 11.6L35.892 11.838L35.962 12.078L36.03 12.319L36.095 12.562L36.158 12.806L36.218 13.052L36.277 13.299L36.333 13.548L36.387 13.798L36.439 14.049L36.489 14.302L36.537 14.556L36.583 14.812L36.627 15.069L36.668 15.327L36.708 15.586L36.747 15.847L36.783 16.109L36.818 16.372L36.85 16.636L36.881 16.901L36.911 17.168L36.938 17.435L36.964 17.704L36.989 17.974L37.012 18.244L37.033 18.516L37.017 21.298L36.981 21.658L36.944 22.013L36.904 22.363L36.861 22.708L36.817 23.048L36.771 23.382L36.722 23.712L36.672 24.036L36.619 24.356L36.565 24.671L36.508 24.98L36.45 25.285L36.389 25.585L36.326 25.88L36.262 26.171L36.195 26.457L36.127 26.738L36.057 27.015L35.985 27.287L35.911 27.555L35.835 27.819L35.757 28.077L35.678 28.332L35.597 28.582L35.514 28.828L35.429 29.07L35.343 29.308L35.254 29.541L35.165 29.771L35.073 29.996L34.98 30.218L34.885 30.435L34.789 30.649L34.691 30.858L34.592 31.064L34.49 31.266L34.388 31.465L34.284 31.659L34.178 31.85L34.071 32.038L33.962 32.222L33.852 32.402L33.741 32.579L33.628 32.753L33.514 32.923L33.398 33.09L33.281 33.253L33.163 33.414L33.044 33.571L32.923 33.725L32.801 33.876L32.677 34.023L32.552 34.168L32.427 34.31L32.3 34.449L32.171 34.585L32.042 34.718L31.841 34.917L31.638 35.11L31.432 35.296L31.223 35.476L31.012 35.651L30.799 35.819L30.584 35.982L30.366 36.14L30.146 36.292L29.924 36.439L29.7 36.581L29.474 36.718L29.246 36.851L29.016 36.979L28.785 37.103L28.552 37.223L28.317 37.338L28.08 37.45L27.843 37.558L27.603 37.663L27.363 37.764L27.121 37.862L26.878 37.957L26.634 38.05L26.388 38.139L26.142 38.226L25.895 38.311L25.647 38.393L25.398 38.473L25.148 38.551L24.897 38.628L24.646 38.703L24.395 38.776L24.143 38.849L23.89 38.92L23.638 38.99L23.384 39.06L23.131 39.128L22.878 39.197L22.624 39.265L22.371 39.333L22.117 39.401L21.864 39.469L21.611 39.537L21.358 39.606L16.318 39.621L15.997 39.589L15.679 39.554L15.366 39.516L15.056 39.474L14.749 39.428L14.447 39.379L14.148 39.327L13.853 39.271L13.562 39.212L13.274 39.15L12.99 39.084L12.709 39.014L12.432 38.942L12.159 38.866L11.889 38.787L11.623 38.705L11.36 38.619L11.101 38.53L10.845 38.438L10.593 38.343L10.344 38.244L10.099 38.143L9.857 38.038L9.618 37.93L9.383 37.819L9.151 37.705L8.923 37.588L8.698 37.467L8.476 37.344L8.258 37.217L8.042 37.088L7.83 36.955L7.622 36.82L7.416 36.682L7.214 36.54L7.015 36.396L6.819 36.249L6.626 36.099L6.436 35.946L6.25 35.79L6.066 35.631L5.886 35.469L5.709 35.305L5.534 35.138L5.363 34.968L5.195 34.795L5.03 34.619L4.867 34.441L4.708 34.26L4.56 34.086L4.415 33.91L4.272 33.731L4.132 33.55L3.994 33.367L3.859 33.181L3.726 32.993L3.596 32.803L3.469 32.61L3.344 32.415L3.221 32.218L3.101 32.019L2.984 31.817L2.868 31.613L2.756 31.407L2.645 31.198L2.537 30.988L2.431 30.775L2.328 30.56L2.227 30.342L2.129 30.123L2.032 29.902L1.938 29.678L1.847 29.452L1.757 29.225L1.67 28.995L1.585 28.763L1.502 28.529L1.422 28.293L1.343 28.055L1.267 27.815L1.193 27.573L1.121 27.329L1.051 27.083L0.984 26.835L0.918 26.585L0.855 26.333L0.793 26.08L0.734 25.824L0.677 25.567L0.621 25.307L0.568 25.046L0.517 24.783L0.468 24.518L0.42 24.252L0.375 23.983L0.331 23.713L0.29 23.441L0.25 23.167L0.212 22.892L0.177 22.615L0.143 22.336L0.11 22.055L0.08 21.773L0.052 21.489L0.025 21.203L0 20.916L0.054 20.25L0.151 19.065L0.297 17.288M11.052 21.404L11.045 21.672L11.041 21.939L11.038 22.205L11.038 22.468L11.039 22.73L11.043 22.991L11.049 23.25L11.057 23.507L11.067 23.762L11.079 24.015L11.093 24.267L11.11 24.517L11.129 24.765L11.15 25.012L11.174 25.256L11.2 25.498L11.229 25.739L11.26 25.978L11.293 26.214L11.329 26.449L11.367 26.682L11.408 26.912L11.452 27.141L11.498 27.367L11.547 27.591L11.598 27.813L11.652 28.033L11.709 28.251L11.769 28.467L11.832 28.68L11.897 28.891L11.965 29.1L12.036 29.306L12.11 29.51L12.206 29.868L12.311 30.216L12.425 30.555L12.549 30.886L12.682 31.207L12.826 31.519L12.981 31.821L13.146 32.113L13.323 32.396L13.511 32.668L13.711 32.929L13.923 33.18L14.147 33.421L14.385 33.65L14.635 33.868L14.899 34.074L15.177 34.269L15.469 34.453L15.775 34.624L16.097 34.783L16.433 34.93L16.784 35.064L17.152 35.185L17.535 35.294L17.799 35.305L18.064 35.311L18.329 35.313L18.596 35.313L18.864 35.312L19.135 35.31L19.41 35.309L19.771 35.234L20.118 35.146L20.451 35.045L20.77 34.931L21.075 34.805L21.368 34.667L21.648 34.517L21.915 34.355L22.17 34.183L22.414 33.999L22.646 33.806L22.867 33.602L23.078 33.388L23.278 33.164L23.468 32.932L23.649 32.69L23.82 32.44L23.982 32.181L24.136 31.915L24.239 31.723L24.337 31.528L24.432 31.329L24.523 31.127L24.611 30.922L24.695 30.713L24.776 30.501L24.854 30.286L24.928 30.069L24.999 29.848L25.068 29.625L25.134 29.399L25.197 29.17L25.257 28.939L25.315 28.706L25.371 28.471L25.425 28.233L25.477 27.994L25.526 27.753L25.574 27.51L25.62 27.265L25.665 27.019L25.708 26.771L25.75 26.522L25.79 26.272L25.829 26.021L25.868 25.769L25.905 25.515L25.942 25.261L25.978 25.007L26.014 24.751L26.049 24.496L26.084 24.239L26.118 23.983L26.153 23.727L26.187 23.47L26.222 23.213L26.257 22.957L26.293 22.701L26.173 15.351L26.13 15.1L26.087 14.849L26.045 14.598L26.004 14.346L25.962 14.094L25.921 13.842L25.88 13.59L25.839 13.338L25.797 13.086L25.754 12.835L25.71 12.585L25.665 12.335L25.619 12.086L25.572 11.838L25.522 11.591L25.471 11.346L25.417 11.102L25.362 10.859L25.303 10.618L25.242 10.379L25.178 10.142L25.111 9.906L25.041 9.673L24.967 9.442L24.889 9.214L24.807 8.988L24.721 8.764L24.631 8.544L24.536 8.327L24.437 8.112L24.333 7.901L24.223 7.693L24.067 7.418L23.9 7.149L23.723 6.888L23.534 6.634L23.334 6.387L23.121 6.148L22.896 5.918L22.658 5.695L22.406 5.482L22.139 5.278L21.858 5.083L21.562 4.899L21.25 4.724L20.923 4.56L20.578 4.406L20.216 4.263L17.203 4.251L16.877 4.37L16.561 4.502L16.254 4.649L15.956 4.81L15.667 4.986L15.387 5.175L15.116 5.378L14.854 5.595L14.601 5.826L14.357 6.071L14.121 6.33L13.895 6.603L13.677 6.889L13.467 7.189L13.266 7.502L13.074 7.829L12.89 8.17L12.792 8.365L12.698 8.565L12.608 8.768L12.521 8.975L12.438 9.186L12.359 9.401L12.282 9.62L12.209 9.843L12.139 10.07L12.072 10.301L12.008 10.536L11.947 10.775L11.888 11.018L11.832 11.265L11.778 11.516L11.726 11.771L11.677 12.03L11.629 12.294L11.584 12.562L11.54 12.833L11.497 13.109L11.457 13.389L11.417 13.674L11.379 13.962L11.342 14.255L11.306 14.552L11.307 14.566L11.306 14.597L11.305 14.645L11.303 14.71L11.3 14.793L11.297 14.892L11.293 15.009L11.288 15.142L11.283 15.293L11.277 15.461L11.27 15.646L11.263 15.848L11.255 16.067L11.246 16.303L11.237 16.556L11.226 16.827L11.216 17.114L11.204 17.419L11.192 17.74L11.179 18.079L11.166 18.435L11.151 18.808L11.137 19.198L11.121 19.605L11.105 20.029L11.088 20.47L11.07 20.928L11.052 21.404"/>
  
<path id="shape05"
  transform="matrix(2.04938265082577 0 0 2.04938265082577 88.345984057536 73.9612008729407)"
  fill="#1e5081"
  fill-rule="evenodd"
  stroke-opacity="0.6"
  stroke="#000000"
  stroke-width="1"
  stroke-linecap="square"
  stroke-linejoin="bevel"
  d="M0.516075 4.32317C2.80326 4.87393 5.51165 4.9717 5.77875 7.695L5.52771 31.6988C4.93337 34.8371 2.63592 35.3298 0.00373606 35.3025L0 38.88L21.5808 38.9113L21.5888 35.505C18.5595 35.3215 16.5716 34.1651 16.2788 31.425L16.5639 14.357C17.1821 10.6347 17.9499 7.04038 21.6187 5.925L24.0037 6C26.7989 6.88454 27.7972 9.12467 28.3312 11.715L28.5487 38.895L44.141 39.1765L44.1623 35.5278C39.7716 35.3035 39.7722 33.7984 39.3037 32.4L39.1135 11.3872C39.0463 7.97812 37.9104 4.91127 35.6408 2.82705C34.2537 1.28781 32.3108 0.245912 29.4787 0L25.0238 0.0300071C22.9211 0.252753 21.2759 0.975068 20.0086 1.90151C18.3101 3.08558 17.2906 4.54447 16.7588 6.01501L16.3388 6.00001C15.8386 4.31114 15.8773 2.09894 15.1087 0.742495L0.431241 0.738148C0.431241 0.738148 0.459519 1.93316 0.516075 4.32317Z"/>

<path id="shape06"
  transform="matrix(2.04938265082577 0 0 2.04938265082577 185.741988286395 42.9988852946861)"
  fill="#1e5081"
  fill-rule="evenodd"
  stroke-opacity="0.6"
  stroke="#000000"
  stroke-width="1"
  stroke-linecap="square"
  stroke-linejoin="bevel"
  d="M0.0449949 50.6284L0 54.1785L22.3342 54.2281L22.2898 50.7738C17.3332 50.5676 17.1027 48.5083 16.5598 46.5738L16.8142 0.228118L0.249243 0L0.227921 3.59186C2.86514 3.8017 5.43095 4.13765 5.98212 7.17006C6.29192 21.18 5.59005 33.8349 5.8117 47.0281C5.38866 49.421 3.46643 50.6211 0.0449949 50.6284Z"/>

<path id="shape07"
  transform="matrix(2.04938265082577 0 0 2.04938265082577 236.845637313943 75.9593434821672)"
  fill="#1e5081"
  fill-rule="evenodd"
  stroke-opacity="0.6"
  stroke="#000000"
  stroke-width="1"
  stroke-linecap="square"
  stroke-linejoin="bevel"
  d="M0.015553 34.56L0 38.3288L22.7856 38.3925L22.8081 34.815C18.4696 34.9747 17.4855 33.0416 16.7902 30.92L17.066 0.22984L0.233057 0L0.266836 3.81001C2.85164 3.9489 5.27469 3.99078 6.23668 7.16656L6.2579 30.7344C5.72887 33.4841 3.64809 34.7593 0.015553 34.56Z"/>

<path id="shape08"
  transform="matrix(2.04938265082577 0 0 2.04938265082577 247.670647784403 41.9985077361206)"
  fill="#1e5081"
  fill-rule="evenodd"
  stroke-opacity="0.6"
  stroke="#000000"
  stroke-width="1"
  stroke-linecap="square"
  stroke-linejoin="bevel"
  d="M6.68099 10.0613C8.99921 9.88607 11.4104 9.29201 11.9985 5.74875L12.021 4.05375C11.3203 1.25639 9.37965 0.14179 6.72222 0L5.29798 0.00553159C1.91736 0.156342 0.467872 1.84147 0 4.30651L0.0106066 5.29293C-0.126233 8.07506 1.91079 9.3677 4.81538 10.0659C4.81538 10.0659 5.43725 10.0643 6.68099 10.0613Z"/>

<path id="shape09"
  transform="matrix(2.04938265082577 0 0 2.04938265082577 288.913847059678 74.901430516993)"
  fill="#1e5081"
  fill-rule="evenodd"
  stroke-opacity="0.6"
  stroke="#000000"
  stroke-width="1"
  stroke-linecap="square"
  stroke-linejoin="bevel"
  d="M0.528786 4.36371C2.81597 4.61767 5.74152 4.77266 6.00862 7.695L5.75759 31.6988C5.16325 34.8371 2.65474 35.3296 0.022555 35.3024L0 38.8899L21.8701 38.8975L21.8588 35.3687C18.6301 35.373 16.6634 34.2951 16.5086 31.425L16.7938 14.357C17.4119 10.6347 18.1798 7.04038 21.8486 5.925L24.2336 6C27.0288 6.88454 28.0271 9.12467 28.5611 11.715L28.6126 38.9237L44.3709 39.1765L44.3921 35.5278C40.0015 35.3035 40.0021 33.7984 39.5336 32.4L39.3434 11.3872C39.2762 7.97812 38.1403 4.91127 35.8707 2.82705C34.4835 1.28781 32.5407 0.245912 29.7086 0L25.2536 0.0300071C23.151 0.252753 21.5057 0.975068 20.2384 1.90151C18.54 3.08558 17.5205 4.54447 16.9886 6.01501L16.5686 6.00001C16.0685 4.31114 16.1072 2.09894 15.3386 0.742495L0.498777 0.74496C0.462227 0.767447 0.47223 1.9737 0.528786 4.36371Z"/>

<path id="shape10"
  transform="matrix(2.04938265082577 0 0 2.04938265082577 391.242137661821 75.2850944258611)"
  fill="#1e5081"
  fill-rule="evenodd"
  stroke-opacity="0.6"
  stroke="#000000"
  stroke-width="1"
  stroke-linecap="square"
  stroke-linejoin="bevel"
  d="M0.075 22.133L0.091 22.388L0.109 22.645L0.128 22.902L0.148 23.159L0.17 23.417L0.194 23.675L0.219 23.934L0.247 24.193L0.276 24.452L0.307 24.711L0.34 24.97L0.376 25.23L0.414 25.489L0.454 25.747L0.496 26.006L0.542 26.264L0.589 26.522L0.64 26.78L0.693 27.037L0.749 27.293L0.808 27.549L0.871 27.804L0.936 28.058L1.005 28.311L1.076 28.564L1.152 28.815L1.231 29.065L1.313 29.314L1.399 29.562L1.489 29.809L1.583 30.054L1.681 30.297L1.782 30.54L1.888 30.78L1.998 31.019L2.113 31.257L2.231 31.492L2.355 31.726L2.482 31.958L2.615 32.187L2.752 32.415L2.894 32.641L3.041 32.864L3.193 33.085L3.35 33.304L3.512 33.52L3.679 33.734L3.852 33.945L4.03 34.154L4.214 34.359L4.403 34.563L4.599 34.763L4.799 34.96L5.006 35.155L5.219 35.346L5.438 35.534L5.662 35.719L5.894 35.901L6.131 36.08L6.375 36.255L6.515 36.381L6.658 36.506L6.805 36.629L6.955 36.75L7.108 36.869L7.265 36.986L7.426 37.101L7.59 37.213L7.758 37.324L7.929 37.432L8.104 37.539L8.284 37.643L8.467 37.744L8.654 37.844L8.845 37.941L9.04 38.036L9.239 38.128L9.443 38.218L9.651 38.305L9.863 38.39L10.079 38.473L10.301 38.553L10.526 38.63L10.756 38.705L10.991 38.777L11.23 38.846L11.474 38.912L11.723 38.976L11.977 39.037L12.236 39.095L12.5 39.15L12.768 39.202L13.042 39.252L13.321 39.298L13.605 39.342L13.895 39.382L14.19 39.419L14.49 39.453L14.796 39.484L15.107 39.512L15.424 39.536L15.746 39.558L16.074 39.576L16.408 39.59L16.748 39.602L17.094 39.61L17.445 39.614L21.165 39.659L21.402 39.643L21.64 39.627L21.88 39.611L22.121 39.592L22.364 39.573L22.607 39.552L22.852 39.528L23.097 39.503L23.343 39.474L23.589 39.443L23.835 39.408L24.082 39.369L24.328 39.327L24.575 39.28L24.821 39.229L25.066 39.173L25.311 39.111L25.554 39.044L25.797 38.971L26.039 38.892L26.279 38.807L26.518 38.714L26.755 38.615L26.99 38.508L27.223 38.394L27.528 38.286L27.828 38.169L28.122 38.044L28.41 37.909L28.692 37.764L28.967 37.608L29.234 37.441L29.494 37.262L29.746 37.07L29.989 36.865L30.223 36.646L30.447 36.412L30.662 36.164L30.867 35.899L31.061 35.618L31.244 35.321L31.416 35.005L31.575 34.671L31.723 34.319L31.857 33.947L31.979 33.555L32.087 33.142L32.181 32.707L32.202 31.742L32.169 31.333L32.101 30.953L32.001 30.602L31.871 30.283L31.712 29.996L31.524 29.743L31.311 29.524L31.074 29.341L30.813 29.194L30.532 29.085L30.34 29.371L30.146 29.648L29.949 29.917L29.749 30.178L29.546 30.432L29.341 30.677L29.132 30.914L28.922 31.143L28.708 31.365L28.492 31.579L28.273 31.785L28.052 31.984L27.827 32.175L27.601 32.359L27.372 32.535L27.14 32.704L26.905 32.866L26.669 33.02L26.429 33.167L26.188 33.307L25.943 33.44L25.697 33.566L25.448 33.685L25.196 33.797L24.943 33.902L24.686 34L24.428 34.092L24.167 34.176L23.904 34.255L23.639 34.326L23.371 34.391L23.101 34.45L22.829 34.502L22.555 34.548L22.279 34.588L22 34.621L21.719 34.649L21.437 34.67L18 34.627L17.709 34.524L17.42 34.412L17.134 34.289L16.852 34.156L16.572 34.012L16.296 33.859L16.024 33.695L15.756 33.521L15.491 33.337L15.232 33.143L14.977 32.938L14.726 32.723L14.481 32.498L14.242 32.262L14.008 32.016L13.779 31.76L13.557 31.493L13.341 31.216L13.131 30.929L12.928 30.631L12.732 30.322L12.544 30.003L12.362 29.674L12.273 29.479L12.187 29.281L12.106 29.079L12.028 28.874L11.954 28.665L11.883 28.453L11.816 28.237L11.751 28.017L11.688 27.795L11.628 27.568L11.57 27.338L11.514 27.105L11.46 26.867L11.407 26.627L11.356 26.383L11.305 26.135L11.255 25.884L11.206 25.629L11.157 25.37L11.109 25.108L11.06 24.843L11.011 24.573L10.961 24.301L10.911 24.024L10.859 23.744L10.807 23.461L10.753 23.174L10.697 22.883L10.639 22.589L10.724 20.542L34.088 20.714L34.058 14.772L34.008 14.477L33.957 14.183L33.905 13.891L33.851 13.6L33.796 13.31L33.739 13.022L33.681 12.735L33.621 12.45L33.559 12.167L33.494 11.885L33.428 11.606L33.359 11.328L33.288 11.052L33.215 10.778L33.138 10.507L33.06 10.238L32.978 9.971L32.893 9.706L32.805 9.444L32.715 9.185L32.62 8.928L32.523 8.674L32.422 8.423L32.317 8.174L32.208 7.929L32.096 7.686L31.98 7.447L31.859 7.211L31.735 6.978L31.606 6.749L31.473 6.523L31.335 6.3L31.192 6.081L31.045 5.866L30.893 5.654L30.736 5.447L30.574 5.243L30.406 5.043L30.234 4.848L30.055 4.656L29.872 4.469L29.682 4.286L29.487 4.107L29.286 3.933L29.079 3.763L28.866 3.598L28.646 3.438L28.421 3.282L28.188 3.131L28.013 2.992L27.834 2.855L27.652 2.721L27.466 2.589L27.276 2.461L27.082 2.334L26.885 2.211L26.684 2.09L26.479 1.973L26.271 1.858L26.058 1.745L25.842 1.636L25.621 1.53L25.396 1.427L25.167 1.326L24.935 1.229L24.697 1.134L24.456 1.043L24.21 0.955L23.96 0.87L23.705 0.788L23.446 0.71L23.183 0.634L22.915 0.562L22.642 0.494L22.365 0.428L22.083 0.366L21.796 0.307L21.504 0.252L21.208 0.2L20.907 0.152L20.6 0.107L20.289 0.066L19.973 0.029L15.263 0L14.961 0.049L14.66 0.1L14.361 0.153L14.064 0.208L13.769 0.266L13.476 0.326L13.184 0.388L12.894 0.454L12.607 0.522L12.321 0.593L12.038 0.666L11.756 0.743L11.477 0.823L11.201 0.905L10.926 0.992L10.655 1.081L10.385 1.174L10.118 1.27L9.854 1.37L9.592 1.473L9.333 1.58L9.077 1.691L8.824 1.806L8.573 1.925L8.326 2.048L8.081 2.175L7.84 2.306L7.601 2.442L7.366 2.582L7.134 2.726L6.905 2.876L6.68 3.029L6.458 3.188L6.239 3.351L6.024 3.519L5.813 3.693L5.605 3.871L5.401 4.054L5.201 4.243L5.004 4.437L4.812 4.637L4.623 4.842L4.438 5.052L4.257 5.269L4.081 5.491L3.908 5.719L3.74 5.952L3.576 6.192L3.416 6.438L3.261 6.69L3.11 6.949L2.998 7.113L2.888 7.28L2.78 7.449L2.674 7.621L2.569 7.796L2.466 7.974L2.365 8.154L2.266 8.337L2.168 8.523L2.073 8.711L1.979 8.903L1.887 9.097L1.797 9.295L1.709 9.495L1.623 9.698L1.539 9.905L1.457 10.114L1.377 10.326L1.299 10.542L1.223 10.76L1.149 10.982L1.078 11.207L1.008 11.435L0.94 11.666L0.875 11.901L0.812 12.138L0.75 12.379L0.691 12.624L0.635 12.872L0.58 13.123L0.528 13.377L0.478 13.635L0.43 13.897L0.385 14.162L0.342 14.43L0.301 14.702L0.262 14.978L0.226 15.257L0.193 15.54L0.161 15.827L0.132 16.117L0.106 16.411L0.082 16.708L0.061 17.01L0.042 17.315L0.025 17.624L0.011 17.937L0 18.254L0.011 18.277L0.021 18.334L0.03 18.425L0.039 18.549L0.046 18.707L0.053 18.898L0.059 19.123L0.064 19.382L0.068 19.674L0.071 20L0.074 20.359L0.075 20.752L0.076 21.179L0.076 21.639L0.075 22.133M10.851 16.389L23.542 16.394L23.511 16.146L23.482 15.894L23.456 15.64L23.431 15.384L23.408 15.125L23.387 14.864L23.366 14.601L23.346 14.337L23.327 14.071L23.308 13.805L23.289 13.537L23.269 13.268L23.248 12.999L23.227 12.729L23.204 12.46L23.18 12.19L23.154 11.921L23.125 11.652L23.094 11.384L23.061 11.117L23.024 10.85L22.984 10.586L22.94 10.323L22.892 10.061L22.84 9.802L22.783 9.545L22.721 9.29L22.654 9.038L22.582 8.789L22.504 8.543L22.42 8.3L22.329 8.06L22.232 7.824L22.128 7.593L22.017 7.365L21.898 7.141L21.771 6.922L21.636 6.708L21.493 6.499L21.34 6.295L21.179 6.097L21.009 5.904L20.829 5.716L20.639 5.535L20.438 5.36L20.227 5.192L20.006 5.03L19.773 4.875L19.529 4.728L19.273 4.587L19.005 4.454L16.275 4.454L16.083 4.547L15.895 4.646L15.71 4.751L15.529 4.861L15.351 4.977L15.176 5.099L15.005 5.226L14.837 5.358L14.672 5.497L14.511 5.641L14.354 5.79L14.2 5.946L14.049 6.107L13.902 6.273L13.758 6.445L13.617 6.623L13.48 6.806L13.346 6.995L13.216 7.19L13.089 7.39L12.966 7.596L12.846 7.808L12.729 8.025L12.616 8.248L12.506 8.476L12.4 8.71L12.297 8.95L12.198 9.195L12.101 9.446L12.009 9.702L11.92 9.964L11.834 10.232L11.751 10.506L11.672 10.785L11.597 11.069L11.524 11.36L11.456 11.656L11.39 11.957L11.328 12.264L11.27 12.577L11.215 12.895L11.163 13.22L11.115 13.549L11.07 13.885L11.028 14.225L10.99 14.572L10.956 14.924L10.924 15.282L10.897 15.645L10.872 16.014L10.851 16.389"/>
</svg>
