<?xml version="1.0" standalone="no"?>
<!DOCTYPE svg PUBLIC "-//W3C//DTD SVG 20010904//EN" "http://www.w3.org/TR/2001/REC-SVG-20010904/DTD/svg10.dtd">

<svg xmlns="http://www.w3.org/2000/svg" 
    xmlns:xlink="http://www.w3.org/1999/xlink"
    width="57.12pt"
    height="53.04pt"
    viewBox="0 0 57.12 53.04">
<defs/>

<path id="shape0"
  transform="matrix(0.999999982738927 0 0 0.999999982738927 0.824369655183687 1.0500259101412)"
  fill="none"
  stroke="#ffffff"
  stroke-width="0.0024"
  stroke-linecap="square"
  stroke-linejoin="bevel"
  d="M0 17.4911L27.0907 0.015L28.7407 0L55.1556 17.235L52.1256 20.85L27.8781 5.78249L27.5631 5.77499L3.15064 20.76C3.15064 20.76 2.10043 19.6703 0 17.4911Z"/>

<path id="shape1" 
  transform="matrix(0.999999982738927 0 0 0.999999982738927 6.8280009091753 9.47299983648588)"
  fill="#000000"
  fill-rule="evenodd"
  stroke="#000000"
  stroke-width="0.2424"
  stroke-linecap="square"
  stroke-linejoin="bevel"
  d="M0.021 13.942L21.627 0L21.875 0.007L42.988 13.48L42.978 41.779L42.49 42.246L22.58 42.24L21.845 41.52L21.849 23.514L7.925 23.527L7.928 41.752L7.44 42.246L0.742 42.246L0 41.524L0.021 13.942M28.302 23.482L28.332 34.335L40.093 34.333L40.111 23.516L28.302 23.482"/>

<path id="shape2"
  transform="matrix(0.999999982738927 0 0 0.999999982738927 0.824369655183687 1.0500259101412)"
  fill="none"
  stroke="#ffffff"
  stroke-width="0.0024"
  stroke-linecap="square"
  stroke-linejoin="bevel"
  d="M0 17.4911L27.0907 0.015L28.7407 0L55.1556 17.235L52.1256 20.85L27.8781 5.78249L27.5631 5.77499L3.15064 20.76C3.15064 20.76 2.10043 19.6703 0 17.4911Z"/>

<path id="shape3"
  transform="matrix(0.999999982738927 0 0 0.999999982738927 0.576288588071621 1.10385099108439)"
  fill="#000000"
  fill-rule="evenodd"
  stroke-opacity="0.466666666666667"
  stroke="#000000"
  stroke-width="0.2424"
  stroke-linecap="square"
  stroke-linejoin="bevel"
  d="M1.43373 15.9812L27.3798 0L29.0768 0L34.5498 3.55322L35.3937 3.57615L35.3347 0.954582C35.4571 0.687168 35.6229 0.458763 35.8863 0.318186L48.1287 0.31367C48.4244 0.511425 48.7002 0.723128 48.8562 1.01867L48.89 12.7067L55.2087 17.0011C55.6725 17.8078 55.8476 18.3859 55.8244 18.807C55.472 21.2795 52.6221 21.411 52.0362 20.6161L28.2813 5.76998L27.5813 5.64271L4.17252 20.2268C1.88645 21.3752 0.498516 20.7599 0.00871243 18.3811C-0.0716054 17.6449 0.4034 16.8449 1.43373 15.9812Z"/>
</svg>
