<?xml version="1.0" standalone="no"?>
<!DOCTYPE svg PUBLIC "-//W3C//DTD SVG 20010904//EN" "http://www.w3.org/TR/2001/REC-SVG-20010904/DTD/svg10.dtd">
<!-- Created using Krita: https://krita.org -->
<svg xmlns="http://www.w3.org/2000/svg" 
    xmlns:xlink="http://www.w3.org/1999/xlink"
    xmlns:krita="http://krita.org/namespaces/svg/krita"
    xmlns:sodipodi="http://sodipodi.sourceforge.net/DTD/sodipodi-0.dtd"
    width="218.88pt"
    height="220.32pt"
    viewBox="0 0 218.88 220.32">
<defs/>
<path id="shape0" transform="matrix(0.999999966756452 0 0 0.999999966756452 67.1039926506627 94.175991055554)" fill="none" stroke="#ffffff" stroke-width="1.44" stroke-linecap="round" stroke-linejoin="miter" stroke-miterlimit="2.01600003242493" d="M68.832 0L0 63.36" sodipodi:nodetypes="cc"/><path id="shape1" transform="matrix(0.967497849633139 0.252879110383118 -0.252879110383118 0.967497849633139 10.5698040546492 72.5345762374995)" fill="none" stroke="#ffffff" stroke-width="1.44" stroke-linecap="round" stroke-linejoin="miter" stroke-miterlimit="2.01600003242493" d="M68.832 0L0 63.36" sodipodi:nodetypes="cc"/><path id="shape2" transform="matrix(0.914871527997575 0.403744994733417 -0.403744994733417 0.914871527997575 33.0004212589512 8.09758715469877)" fill="none" stroke="#ffffff" stroke-width="1.44" stroke-linecap="round" stroke-linejoin="miter" stroke-miterlimit="2.01600003242493" d="M68.832 0L0 63.36" sodipodi:nodetypes="cc"/><path id="shape4" transform="matrix(0.736145966625132 0.676822760650418 -0.676822760650418 0.736145966625132 29.6585423198496 -61.8786258682669)" fill="none" stroke="#ffffff" stroke-width="1.44" stroke-linecap="round" stroke-linejoin="miter" stroke-miterlimit="2.01600003242493" d="M68.832 0L0 63.36" sodipodi:nodetypes="cc"/><path id="shape5" transform="matrix(0.875246328305864 -0.483677370051577 0.483677370051577 0.875246328305864 111.082614194321 156.822421777128)" fill="none" stroke="#ffffff" stroke-width="1.44" stroke-linecap="round" stroke-linejoin="miter" stroke-miterlimit="2.01600003242493" d="M68.832 0L0 63.36" sodipodi:nodetypes="cc"/><path id="shape6" transform="matrix(0.807222490138237 -0.542989757262526 0.605921751184859 0.831233813619397 139.935014295069 211.810041051026)" fill="none" stroke="#ffffff" stroke-width="1.44" stroke-linecap="round" stroke-linejoin="miter" stroke-miterlimit="2.01600003242493" d="M68.832 0L0 63.36" sodipodi:nodetypes="cc"/><path id="shape7" transform="matrix(0.974726815405472 -0.223400019790533 0.223400019790533 0.974726815405472 62.3364874394273 160.265177303336)" fill="none" stroke="#ffffff" stroke-width="1.44" stroke-linecap="round" stroke-linejoin="miter" stroke-miterlimit="2.01600003242493" d="M68.832 0L0 63.36" sodipodi:nodetypes="cc"/><path id="shape8" transform="matrix(0.673225200568337 -0.739437463774068 0.739437463774068 0.673225200568337 191.14888875069 190.744693673636)" fill="none" stroke="#ffffff" stroke-width="1.44" stroke-linecap="round" stroke-linejoin="miter" stroke-miterlimit="2.01600003242493" d="M68.832 0L0 63.36" sodipodi:nodetypes="cc"/><path id="shape9" transform="matrix(0.999999966756452 0 0 0.999999966756452 -19.5839984508282 174.815982777871)" fill="none" stroke="#ffffff" stroke-width="1.44" stroke-linecap="round" stroke-linejoin="miter" stroke-miterlimit="2.01600003242493" d="M68.832 0L0 63.36" sodipodi:nodetypes="cc"/><path id="shape10" transform="matrix(0.736145966625132 0.676822760650418 -0.676822760650418 0.736145966625132 29.6585423198496 -61.8786258682669)" fill="none" stroke="#ffffff" stroke-width="1.44" stroke-linecap="round" stroke-linejoin="miter" stroke-miterlimit="2.01600003242493" d="M68.832 0L0 63.36" sodipodi:nodetypes="cc"/><path id="shape11" transform="matrix(0.673225200568337 -0.739437463774068 0.739437463774068 0.673225200568337 191.14888875069 190.744693673636)" fill="none" stroke="#ffffff" stroke-width="1.44" stroke-linecap="round" stroke-linejoin="miter" stroke-miterlimit="2.01600003242493" d="M68.832 0L0 63.36" sodipodi:nodetypes="cc"/><ellipse id="shape12" transform="matrix(2.45747253621137 0 0 2.45747253621137 97.5186910346677 -181.779304690607)" rx="56.592" ry="58.896" cx="56.592" cy="58.896" fill="none" stroke="#ffffff" stroke-width="1.44" stroke-linecap="square" stroke-linejoin="bevel"/><path id="shape3" transform="matrix(0.821922637174459 0.569599080066926 -0.569599080066926 0.821922637174459 -5.91573860399042 -20.7933356808317)" fill="none" stroke="#ffffff" stroke-width="1.44" stroke-linecap="round" stroke-linejoin="miter" stroke-miterlimit="2.01600003242493" d="M68.832 0L0 63.36" sodipodi:nodetypes="cc"/><path id="shape41" transform="matrix(0.763564279553262 0.645731774425892 -0.645731774425892 0.763564279553262 30.4074474160568 -62.0176928761322)" fill="none" stroke="#ffffff" stroke-width="1.44" stroke-linecap="round" stroke-linejoin="miter" stroke-miterlimit="2.01600003242493" d="M68.832 0L0 63.36" sodipodi:nodetypes="cc"/><path id="shape81" transform="matrix(0.642000889802055 -0.766703848305377 0.766703848305377 0.642000889802055 202.228974607416 183.695628619371)" fill="none" stroke="#ffffff" stroke-width="1.44" stroke-linecap="round" stroke-linejoin="miter" stroke-miterlimit="2.01600003242493" d="M68.832 0L0 63.36" sodipodi:nodetypes="cc"/><path id="shape101" transform="matrix(0.763564279553262 0.645731774425892 -0.645731774425892 0.763564279553262 30.4074474160568 -62.0176928761322)" fill="none" stroke="#ffffff" stroke-width="1.44" stroke-linecap="round" stroke-linejoin="miter" stroke-miterlimit="2.01600003242493" d="M68.832 0L0 63.36" sodipodi:nodetypes="cc"/><path id="shape111" transform="matrix(0.642000889802055 -0.766703848305377 0.766703848305377 0.642000889802055 202.228974607416 183.695628619371)" fill="none" stroke="#ffffff" stroke-width="1.44" stroke-linecap="round" stroke-linejoin="miter" stroke-miterlimit="2.01600003242493" d="M68.832 0L0 63.36" sodipodi:nodetypes="cc"/>
</svg>
