<?xml version="1.0" standalone="no"?>
<!DOCTYPE svg PUBLIC "-//W3C//DTD SVG 20010904//EN" "http://www.w3.org/TR/2001/REC-SVG-20010904/DTD/svg10.dtd">
<!-- Created using Krita: https://krita.org -->
<svg xmlns="http://www.w3.org/2000/svg" 
    xmlns:xlink="http://www.w3.org/1999/xlink"
    xmlns:krita="http://krita.org/namespaces/svg/krita"
    xmlns:sodipodi="http://sodipodi.sourceforge.net/DTD/sodipodi-0.dtd"
    width="112.968pt"
    height="111.672pt"
    viewBox="0 0 112.968 111.672">
<defs>
  <linearGradient id="gradient0" gradientUnits="objectBoundingBox" x1="0.495660919286337" y1="0" x2="0.495660919286337" y2="1" spreadMethod="pad">
   <stop stop-color="#82d2ff" offset="0" stop-opacity="1"/>
   <stop stop-color="#ffffff" offset="0.652499973773956" stop-opacity="1"/>
  </linearGradient>
 </defs>
<path id="shape0" transform="matrix(0.99999991787636 0 0 0.99999991787636 5.22000005452614 4.75200497104297)" fill="url(#gradient0)" stroke-opacity="0" stroke="#000000" stroke-width="0" stroke-linecap="square" stroke-linejoin="bevel" d="M3.44432 0L100.525 0C101.3 1.82177 102.346 2.53496 103.426 3.11334L103.426 99.6303C101.928 100.458 100.975 101.675 100.391 102.952L3.43217 102.928C3.23102 102.157 2.59309 101.372 1.8797 100.672C1.405 100.194 0.836518 99.7676 0 99.4234L0 3.51142C1.43025 2.73427 2.70623 1.74207 3.44432 0Z" sodipodi:nodetypes="cccccccccc"/><rect id="shape01" transform="matrix(1.04245898074529 0 0 1.02291657220678 3.00460085229547 4.67416474776363)" fill="none" stroke-opacity="0" stroke="#000000" stroke-width="0" stroke-linecap="square" stroke-linejoin="bevel" width="103.896" height="102.168"/><path id="shape011" transform="matrix(1.04245895934265 0 0 1.02291655120537 6.46286648652076 27.6970801402093)" fill="#0046aa" fill-rule="evenodd" stroke="#000000" stroke-width="0.757499999999939" stroke-linecap="square" stroke-linejoin="bevel" d="M31.8849 0L87.0685 72.5625L87.6779 71.7422L87.7248 70.9922L63.0568 27.4453L70.9083 15.7734L96.8089 46.9624L96.7964 74.1487C95.9368 74.9457 95.0308 75.5538 94.3453 77.0607L2.90865 76.9943C2.16864 75.6222 1.22803 74.5704 0 73.9774L0.0215896 38.6836L31.8849 0" sodipodi:nodetypes="ccccccccccccc"/><path id="shape02" transform="matrix(1.04245895934265 0 0 1.02291655120537 24.4550618300806 27.7598022931514)" fill="#ffffff" fill-rule="evenodd" stroke-opacity="0" stroke="#000000" stroke-width="0" stroke-linecap="square" stroke-linejoin="bevel" d="M0 17.6666L11.4684 9.01562L15.0481 20.8818L17.9649 8.48529L28.2401 17.9649L14.7167 0L0 17.6666" sodipodi:nodetypes="ccccccc"/><path id="shape1" transform="matrix(1.04245895934265 0 0 1.02291655120537 72.2335918721886 43.867949432688)" fill="#ffffff" fill-rule="evenodd" stroke-opacity="0" stroke="#000000" stroke-width="0" stroke-linecap="square" stroke-linejoin="bevel" d="M0 11.7539L5.90625 7.06641L8.17969 12.4102L10.4531 7.08985L17.2031 11.6602L7.78124 0L0 11.7539" sodipodi:nodetypes="ccccccc"/><path id="shape021" transform="matrix(0.99999991787636 0 0 0.99999991787636 5.8319999699662 4.36000422739652)" fill="none" stroke="#000000" stroke-width="2.16" stroke-linecap="square" stroke-linejoin="bevel" d="M3.41036 0L99.5339 0C100.301 1.82059 101.337 2.53332 102.406 3.11133L102.406 99.5659C100.923 100.393 99.9794 101.609 99.4012 102.885L3.39833 102.861C3.19916 102.091 2.56752 101.306 1.86117 100.607C1.39115 100.129 0.82827 99.7031 0 99.3592L0 3.50915C1.41615 2.7325 2.67955 1.74094 3.41036 0Z" sodipodi:nodetypes="cccccccccc"/>
</svg>
