<?xml version="1.0" standalone="no"?>
<!DOCTYPE svg PUBLIC "-//W3C//DTD SVG 20010904//EN" "http://www.w3.org/TR/2001/REC-SVG-20010904/DTD/svg10.dtd">

<svg xmlns="http://www.w3.org/2000/svg" 
    xmlns:xlink="http://www.w3.org/1999/xlink"
    width="112.968pt"
    height="111.672pt"
    viewBox="0 0 112.968 111.672">
<defs>
  <linearGradient id="gradient0" gradientUnits="objectBoundingBox" x1="0.495660919286337" y1="0" x2="0.495660919286337" y2="1" spreadMethod="pad">
   <stop stop-color="#000000" offset="0" stop-opacity="1"/>
   <stop stop-color="#2a2a2a" offset="0.6525" stop-opacity="1"/>
  </linearGradient>
 </defs>

<path id="shape0"
  transform="matrix(0.999999897345451 0 0 0.999999897345451 5.21999994735479 4.75200748468761)"
  fill="url(#gradient0)"
  stroke-opacity="0"
  stroke="#000000"
  stroke-width="0"
  stroke-linecap="square"
  stroke-linejoin="bevel"
  d="M3.44432 0L100.525 0C101.3 1.82177 102.346 2.53496 103.426 3.11334L103.426 99.6303C101.928 100.458 100.975 101.675 100.391 102.952L3.43217 102.928C3.23102 102.157 2.59309 101.372 1.8797 100.672C1.405 100.194 0.836518 99.7676 0 99.4234L0 3.51142C1.43025 2.73427 2.70623 1.74207 3.44432 0Z"/>
  
<rect id="shape01"
  transform="matrix(1.04245895934266 0 0 1.02291655120537 3.00460079060828 4.6741672630064)"
  fill="none"
  stroke-opacity="0"
  stroke="#000000"
  stroke-width="0"
  stroke-linecap="square"
  stroke-linejoin="bevel"
  width="103.896"
  height="102.168"/>
  
<path id="shape011"
  transform="matrix(1.04245893794002 0 0 1.02291653020396 6.46286635383223 27.6970821827707)"
  fill="#0046aa"
  fill-rule="evenodd"
  stroke="#000000"
  stroke-width="0.757499999999939"
  stroke-linecap="square"
  stroke-linejoin="bevel"
  d="M31.8849 0L87.0685 72.5625L87.6779 71.7422L87.7248 70.9922L63.0568 27.4453L70.9083 15.7734L96.8089 46.9624L96.7964 74.1487C95.7045 75.4594 95.7086 75.4532 94.3453 77.0607L2.90865 76.9943C1.47607 75.653 1.46925 75.6629 0 73.9774L0.0215896 38.6836L31.8849 0"/>
  
<path id="shape02"
  transform="matrix(1.04245893794002 0 0 1.02291653020396 24.4550613279959 27.759804334425)"
  fill="#ffffff"
  fill-rule="evenodd"
  stroke-opacity="0"
  stroke="#000000"
  stroke-width="0"
  stroke-linecap="square"
  stroke-linejoin="bevel"
  d="M0 17.6666L11.4684 9.01562L15.0481 20.8818L17.9649 8.48529L28.2401 17.9649L14.7167 0L0 17.6666"/>
  
<path id="shape1"
  transform="matrix(1.04245893794002 0 0 1.02291653020396 72.2335903891672 43.8679511432467)"
  fill="#ffffff"
  fill-rule="evenodd"
  stroke-opacity="0"
  stroke="#000000"
  stroke-width="0"
  stroke-linecap="square"
  stroke-linejoin="bevel"
  d="M0 11.7539L5.90625 7.06641L8.17969 12.4102L10.4531 7.08985L17.2031 11.6602L7.78124 0L0 11.7539"/>
  
<path id="shape021"
  transform="matrix(0.999999897345451 0 0 0.999999897345451 5.80393210501056 4.75200748468761)"
  fill="none"
  stroke="#ffffff"
  stroke-width="2.16"
  stroke-linecap="square"
  stroke-linejoin="bevel"
  d="M3.40696 0L99.4345 0C100.964 1.5893 100.963 1.59328 102.304 3.09616L102.304 99.0806C100.694 100.695 100.689 100.696 99.302 102.384L3.39494 102.36C1.71675 100.716 1.71593 100.729 0 98.8749L0 3.49205C1.57968 1.8744 1.57097 1.86061 3.40696 0Z"/>
</svg>
