<?xml version="1.0" standalone="no"?>
<!DOCTYPE svg PUBLIC "-//W3C//DTD SVG 20010904//EN" "http://www.w3.org/TR/2001/REC-SVG-20010904/DTD/svg10.dtd">

<svg xmlns="http://www.w3.org/2000/svg" 
    xmlns:xlink="http://www.w3.org/1999/xlink"
    width="242pt"
    height="265pt"
    viewBox="0 0 242 265">
<defs/>
<path id="shape0"
  transform="translate(72.8217571518126, 179.159326265326)"
  fill="#808080"
  fill-rule="evenodd"
  stroke="#666666"
  stroke-width="1.00999999999992"
  stroke-linecap="square"
  stroke-linejoin="bevel"
  d="M45.1767 24.1339C45.1058 15.2213 43.1811 1.62099 36.077 0.268158C32.2946 -1.74726 -0.665337 7.86251 0.0102414 20.2006C0.733906 23.5971 4.23408 28.4311 8.54652 33.768C12.2567 37.1894 16.5681 40.0556 20.2299 41.9767C26.5024 43.5868 33.1069 43.0604 38.236 39.3057C42.4356 35.4488 44.686 30.6013 45.1767 24.1339Z"/>

<path id="shape1"
  transform="translate(90.4687530793416, 185.437506311852)"
  fill="none"
  stroke="#666666"
  stroke-width="2.99999999999976"
  stroke-linecap="round"
  stroke-linejoin="bevel"
  d="M0 0C9.13365 7.47166 10.444 16.7719 11.8437 21.9687"/>

<path id="shape01"
  transform="matrix(0.928160978043814 0 0 0.954023054666671 41.9640855693851 57.4850985845767)"
  fill="#808080"
  fill-rule="evenodd"
  stroke="#666666"
  stroke-width="1.00999999999992"
  stroke-linecap="square"
  stroke-linejoin="bevel"
  d="M25.0156 33.0156L0.031248 7.07812L8 3.14069e-07L33.4844 24.9219L59.0781 0L67.0156 8.01563L42 33.5469L67 59.0469L59 66.0469L33.4844 41.9375L8.01562 66.0937L0 58.9844L25.0156 33.0156"/>
  
<path id="shape11"
  transform="matrix(0.928160978043814 0 0 0.954023054666671 140.123290289345 57.2742873075995)"
  fill="#808080"
  fill-rule="evenodd"
  stroke="#666666"
  stroke-width="1.00999999999992"
  stroke-linecap="square"
  stroke-linejoin="bevel"
  d="M25.0156 33.0156L0.031248 7.07812L8 3.14069e-07L33.4844 24.9219L59.0781 0L67.0156 8.01563L42 33.5469L67 59.0469L59 66.0469L33.4844 41.9375L8.01562 66.0937L0 58.9844L25.0156 33.0156"/>
  
<path id="shape2"
  transform="matrix(0.928160978043814 0 0 0.954023054666671 43.2693127268868 170.551737926958)"
  fill="#808080"
  fill-rule="evenodd"
  stroke="#666666"
  stroke-width="1.00999999999992"
  stroke-linecap="square"
  stroke-linejoin="bevel"
  d="M0 49.9688C1.50395 42.4366 14.1749 26.7119 33.3619 14.8965C47.4362 6.4828 64.8359 0.760911 85.0937 0C106.522 1.48356 127.289 6.04123 145.791 21.124C154.545 28.1905 164.238 37.4807 170.156 50.0469C168.136 57.4262 164.286 56.434 160.125 54.0156C151.328 38.5673 142.191 27.1939 129.051 20.1291C115.076 11.0046 100.947 9.5 85.5 7.95313C60.9497 8.37754 54.9426 11.5757 43.4466 18.5658C29.3647 26.5928 18.357 38.2816 9.48245 53.5206C4.6047 57.1144 1.44388 55.9304 0 49.9688Z"/>
  
<path id="shape3"
  transform="matrix(0.974446014302945 0 0 0.856071912738236 10.9440965492134 6.8030739025721)"
  fill="#808080"
  fill-rule="evenodd"
  stroke="#666666"
  stroke-width="1.00999999999992"
  stroke-linecap="square"
  stroke-linejoin="bevel"
  d="M0 143.937L0.6894 279.882L1.1215 281.953L1.6877 283.786L2.3774 285.399L3.1803 286.811L4.0858 288.04L5.0835 289.106L6.1628 290.026L7.3133 290.82L8.5246 291.506L9.7861 292.103L11.0874 292.628L12.4179 293.102L13.7673 293.543L15.125 293.968L207.937 294.093L209.766 293.873L211.439 293.472L212.964 292.898L214.352 292.164L215.61 291.279L216.747 290.254L217.773 289.099L218.695 287.824L219.524 286.44L220.268 284.956L220.936 283.384L221.536 281.734L222.078 280.015L221.969 15.0932L221.802 12.8302L221.47 10.8029L220.982 8.998L220.348 7.4021L219.576 6.0018L218.677 4.7837L217.659 3.7347L216.532 2.8412L215.305 2.0899L213.989 1.4675L212.591 0.9607L211.121 0.5561L209.589 0.2403L208.004 0L63.0782 0.0775L0.9218 68.1557L0 143.937M10.1874 68.1869L10.3679 275.838L11.2052 277.249L12.1767 278.547L13.2599 279.75L14.4321 280.878L15.6707 281.949L16.9531 282.984L205.093 282.999L206.254 282.094L207.395 281.161L208.494 280.172L209.531 279.097L210.484 277.904L211.329 276.564L212.047 275.046L212 18.8744L211.336 17.5545L210.649 16.2481L209.887 14.9873L208.994 13.8045L207.918 12.7319L206.604 11.8018L205 11.0463L62.9692 10.9994L63.0312 51.8744L62.6392 53.5603L62.2012 55.1891L61.7102 56.7539L61.1622 58.2478L60.5492 59.6638L59.8682 60.995L59.1122 62.2344L58.2752 63.3752L57.3522 64.4104L56.3372 65.333L55.2253 66.1361L54.0098 66.8128L52.6854 67.3561L51.2465 67.7592L49.6874 68.015L10.1874 68.1869"/>
</svg>
