<?xml version="1.0" standalone="no"?>
<!DOCTYPE svg PUBLIC "-//W3C//DTD SVG 20010904//EN" "http://www.w3.org/TR/2001/REC-SVG-20010904/DTD/svg10.dtd">

<svg xmlns="http://www.w3.org/2000/svg" 
    xmlns:xlink="http://www.w3.org/1999/xlink"
    width="145.368pt"
    height="135.864pt"
    viewBox="0 0 145.368 135.864">
<defs/>
<rect id="shape0"
  transform="matrix(0.923927696037813 -0.744849238531243 0.363250488671674 0.450584050733311 2.12529949060939 82.8242728376827)"
  fill="#ffffff"
  stroke="#a91818"
  stroke-width="4.32"
  stroke-linecap="square"
  stroke-linejoin="bevel"
  width="108.306394976066"
  height="113.472"
  rx="0.795201137856577"
  ry="1.44"/>

<path id="shape01"
  transform="matrix(0.679739432723252 -0.557152649496706 0.557152649496706 0.679739432723252 16.106132707442 86.0936657331583)"
  fill="#af0000"
  stroke="#a91818"
  stroke-width="1"
  stroke-linecap="square"
  stroke-linejoin="bevel"
  d="M12.7237 0.0149961L0 0L0.0149998 34.065C0.467913 45.5724 5.7094 53.497 21.8325 53.28C33.6503 53.1284 42.7507 48.6883 43.4512 35.0587L43.4475 0.00749828L30.4912 0.0187458L30.478 34.7998C29.6767 39.0759 28.7056 43.2421 21.6215 43.4495C17.0228 43.5917 14.9331 41.4999 13.9191 38.4503C12.9149 35.8468 12.959 31.8581 12.7162 28.32C12.7162 28.32 12.7187 18.885 12.7237 0.0149961Z"/>

<path id="shape011"
  transform="matrix(0.679739432723252 -0.557152649496706 0.557152649496706 0.679739432723252 51.1806802518233 57.3445798929503)"
  fill="#ab0000"
  stroke="#a91818"
  stroke-width="1"
  stroke-linecap="square"
  stroke-linejoin="bevel"
  d="M0.00375291 43.2038L0.0149947 52.3237L27.8362 52.3237L27.84 43.2038L20.4075 43.215L20.4187 9.13499L27.8512 9.1275L27.8437 0L0 0.0150101L0.0112491 9.12751L7.45125 9.13501L7.44749 43.2C7.44749 43.2 4.96625 43.2012 0.00375291 43.2038Z"/>

<path id="shape02"
  transform="matrix(0.679739432723251 -0.557152649496706 0.557152649496706 0.679739432723251 72.7287296987042 39.6953631462167)"
  fill="#a40000"
  stroke="#a91818"
  stroke-width="1"
  stroke-linecap="square"
  stroke-linejoin="bevel"
  d="M0 0L8.87944e-06 9.84002L15.3563 9.85127L15.3637 52.3087L28.3238 52.3163L28.322 9.83126L43.9163 9.84377L43.92 0.00375775C43.92 0.00375775 29.28 0.00250517 0 0Z"/>
</svg>
