<?xml version="1.0" standalone="no"?>
<!DOCTYPE svg PUBLIC "-//W3C//DTD SVG 20010904//EN" "http://www.w3.org/TR/2001/REC-SVG-20010904/DTD/svg10.dtd">

<svg xmlns="http://www.w3.org/2000/svg" 
    xmlns:xlink="http://www.w3.org/1999/xlink"
    width="340.488pt"
    height="337.176pt"
    viewBox="0 0 340.488 337.176">
<defs>
  <linearGradient id="gradient0" gradientUnits="objectBoundingBox" x1="0" y1="0" x2="1" y2="1" spreadMethod="pad">
   <stop stop-color="#6635dc" offset="0.0546999983489513" stop-opacity="1"/>
   <stop stop-color="#591ec4" offset="0.207000002264977" stop-opacity="1"/>
   <stop stop-color="#5940cc" offset="0.36719998717308" stop-opacity="1"/>
   <stop stop-color="#5113c9" offset="0.488299995660782" stop-opacity="1"/>
   <stop stop-color="#5e2dd9" offset="0.613300025463104" stop-opacity="1"/>
   <stop stop-color="#582ae1" offset="0.75" stop-opacity="1"/>
   <stop stop-color="#6c42e7" offset="0.925800025463104" stop-opacity="1"/>
  </linearGradient>
 </defs>
 
<path id="shape0"
  transform="matrix(3.29951193256863 0 0 3.42984637396185 4.59390030986015 6.32806779085253)"
  fill="url(#gradient0)"
  fill-rule="evenodd"
  stroke="#afafaf"
  stroke-width="1"
  stroke-linecap="round"
  stroke-linejoin="round"
  d="M0.844 0.496467L0.9109 1.22047L0.9759 1.96237L1.039 2.72187L1.1001 3.49837L1.1592 4.29157L1.2163 5.10087L1.2711 5.92577L1.3239 6.76587L1.3744 7.62067L1.4226 8.48967L1.4686 9.37247L1.5122 10.2687L1.5533 11.1776L1.5921 12.0989L1.6283 13.0321L1.662 13.9768L1.693 14.9323L1.7215 15.8984L1.7472 16.8745L1.7703 17.8601L1.7905 18.8548L1.8079 19.858L1.8224 20.8695L1.834 21.8885L1.8426 22.9148L1.8482 23.9478L1.8508 24.987L1.8502 26.032L1.8465 27.0824L1.8395 28.1375L1.8293 29.1971L1.8158 30.2605L1.7989 31.3274L1.7787 32.3972L1.755 33.4695L1.7278 34.5438L1.697 35.6197L1.6627 36.6967L1.6248 37.7743L1.5831 38.852L1.5377 39.9294L1.4886 41.006L1.4356 42.0813L1.3787 43.1548L1.318 44.2262L1.2532 45.2949L1.1845 46.3607L1.1117 47.4227L1.0347 48.4797L0.9537 49.5337L0.8684 50.5817L0.7789 51.6247L0.685 52.6607L0.5868 53.6917L0.4843 54.7147L0.3773 55.7307L0.2658 56.7387L0.1497 57.7387L0.0291 58.7297L0.015 59.9267L0.0053 61.1077L0.0002 62.2737L0 63.4237L0.0049 64.5567L0.0151 65.6717L0.484343 77.4392C1.41174 77.8272 2.0457 77.5126 2.81819 76.7978C3.05656 76.7195 3.33034 76.6567 3.65364 76.6242C4.21179 76.5709 4.76783 76.6799 5.27686 77.1308C5.59643 77.0505 5.90467 76.9684 6.19342 76.8904C6.7132 76.924 7.1853 77.0633 7.57183 77.3766C8.60756 78.0762 9.09705 79.0274 8.88049 80.6556C9.35453 80.8295 9.77373 80.9927 10.116 81.1438C10.6378 81.6815 10.8934 82.4063 10.9106 83.259C11.4481 84.2794 11.5902 85.1812 11.4791 86.0071C11.3033 86.4304 11.0533 86.8795 10.76 87.3478C10.7163 88.0037 10.7865 88.4492 10.8266 88.8202C9.47118 90.4538 9.16899 91.8069 9.92005 92.8795L25.7767 93.1688L26.4049 93.2038L27.3502 93.2508L28.3045 93.2928L29.2672 93.3308L30.238 93.3628L31.2164 93.3918L32.202 93.4148L33.1945 93.4348L34.1934 93.4488L35.1984 93.4598L36.2089 93.4658L37.2247 93.4678L38.2453 93.4658L39.2706 93.4598L40.2996 93.4498L41.3316 93.4358L42.3676 93.4178L43.4056 93.3968L44.4466 93.3718L45.4896 93.3428L46.5336 93.3108L47.5786 93.2748L48.6246 93.2358L49.6716 93.1938L50.7176 93.1488L51.7636 93.0998L52.8086 93.0478L53.8526 92.9928L54.8946 92.9358L55.9336 92.8748L56.9716 92.8118L58.0056 92.7458L59.0366 92.6768L60.0636 92.6058L61.0866 92.5328L62.1056 92.4568L63.3836 92.5918L64.6296 92.7468L65.8426 92.9208L67.0206 93.1168L68.1606 93.3338L69.2616 93.5728L70.3226 93.8358L71.3396 94.1238L92.0817 94.2681L93.3837 94.1911L94.6247 94.0971L95.8027 93.9841L96.9147 93.8521L97.9577 93.7011L98.2257 92.7451L98.4777 91.7781L98.7147 90.8011L98.9357 89.8131L98.3452 66.3973L98.5362 65.3893L98.7142 64.3713L98.8772 63.3433L99.0282 62.3073L99.1652 61.2613L99.2902 60.2073L99.4022 59.1443L99.5032 58.0743L99.5922 56.9953L99.6712 55.9093L99.7392 54.8163L99.7962 53.7163L99.8442 52.6093L99.8822 51.4953L99.7632 50.5483L99.6482 49.5963L99.5392 48.6403L99.4342 47.6803L99.3342 46.7163L99.2382 45.7493L99.1482 44.7785L99.0612 43.8044L98.9792 42.8272L98.9012 41.847L98.8272 40.864L98.7582 39.8783L98.6922 38.8901L98.6302 37.8996L98.5722 36.907L98.5182 35.9123L98.4672 34.9159L98.4192 33.9177L98.3752 32.9181L98.3352 31.9171L98.2972 30.9149L98.2622 29.9117L98.2312 28.9077L98.2022 27.903L98.1772 26.8978L98.1542 25.8922L98.1332 24.8864L98.1152 23.8806L98.1002 22.8749L98.0872 21.8695L98.0762 20.8646L98.0672 19.8603L98.0602 18.8568L98.0552 17.8542L98.0522 16.8528L98.0512 15.8526L98.0512 14.8539L98.0532 13.8568L98.0572 12.8614L98.0622 11.868L98.0682 10.8767L98.0752 9.88767L98.0842 8.90107L98.0932 7.91707L98.1032 6.93577L98.1142 5.95737L98.1262 4.98217L98.1392 4.01017L98.1512 3.04147L98.1652 2.07647L98.1782 1.11517L98.1922 0.157773L97.6112 0.158673L96.9772 0.160373L96.2882 0.162873L95.5452 0.166273L94.7482 0.170473L93.8982 0.175573L92.9932 0.181473L92.0342 0.188273L91.0212 0.195873L70.5731 0L69.4521 0.0093L68.2771 0.0195L67.0481 0.0304L65.7661 0.0423L64.4291 0.0549L63.0381 0.0685L61.5931 0.0828L60.9871 2.0436L60.2811 3.6455L59.4741 4.8883L58.5671 5.7723L57.5601 6.2973L57.5571 8.4264L56.7981 9.8115L55.2851 10.4525L54.7611 11.8451L53.3741 12.7464L51.1261 13.1562L49.2651 12.2754L48.2201 11.3792L46.9091 12.4176L45.6661 12.5036L44.3051 11.9085L42.9001 11.285L41.4521 10.6329L39.9601 9.9523L39.0761 7.933L37.0904 6.8134L37.2273 5.2288L37.1275 3.7927L36.7911 2.5053L36.2181 1.3663L35.3243 0.285572L34.434 0.3876L33.4494 0.3994L32.4546 0.4114L31.4497 0.4235L30.4346 0.4358L29.4094 0.4483L28.374 0.4609L27.3284 0.4737L26.2727 0.4866L25.2068 0.4997L24.1308 0.513L23.0446 0.5264L5.331 0.440567L4.2245 0.454367L3.1078 0.468267L1.981 0.482267L0.844 0.496467M2.1256 10.9167"/>
  
<path id="shape1"
  transform="matrix(0.869179400894282 -0.00124065911911864 0.00124065911911864 0.869179400894282 82.1828223727734 181.215076718579)"
  fill="#ffffff"
  fill-rule="evenodd"
  stroke="#773dff"
  stroke-width="0.605999999999952"
  stroke-linecap="square"
  stroke-linejoin="bevel"
  d="M24.0468 0.00319006L0 0.00938251C28.3491 37.508 21.7775 86.1762 27.675 130.856L52.275 130.838L59.0056 99.9526C65.324 80.8538 69.1454 61.7514 71.4938 42.6469L72.0375 42.6188C87.6145 68.6575 84.0889 101.278 89.4469 130.838L114.038 130.838C118.354 109.531 120.211 88.5283 129.369 66.6234C145.602 18.2925 145.483 9.71003 145.275 1.94255e-05L121.219 0C127.24 10.3834 120.309 28.1614 106.576 67.8373L102.047 88.8188C99.3947 65.7702 94.5037 46.2267 87.3741 30.1885C81.4136 15.232 83.9472 8.62216 84.0562 0.00938089L60.6656 0.0187495C53.5903 5.42157 50.9153 22.4214 53.0351 42.5542C52.2101 60.4628 46.4649 76.3139 40.8375 87C40.8671 53.2539 35.5166 24.0471 24.0468 0.00319006"/>

<path id="shape2"
  transform="matrix(0.869179400894282 -0.00124065911911864 0.00124065911911864 0.869179400894282 204.761146933699 180.898132260168)"
  fill="#ffffff"
  fill-rule="evenodd"
  stroke="#6a3dff"
  stroke-width="0.605999999999952"
  stroke-linecap="square"
  stroke-linejoin="bevel"
  d="M0 130.392L21.7661 39.5275C25.4372 25.4249 29.3193 11.211 27.5097 0L65.2832 0.0539175C71.3105 9.09951 73.8794 19.2925 78.1131 28.9331L97.1764 93.6252C97.6261 99.8284 99.465 107.441 102.59 114.226C107.999 125.201 109.584 124.891 110.492 129.841L85.8057 130.8C84.6161 127.21 83.7042 123.83 81.3292 119.349C78.6421 113.245 76.4184 107.374 74.391 101.601L31.238 101.592L24.63 130.469L0 130.392M36.032 79.9547L68.356 80.0077L55.819 32.5817L46.81 32.5917L36.032 79.9547"/>
</svg>
