<?xml version="1.0" standalone="no"?>
<!DOCTYPE svg PUBLIC "-//W3C//DTD SVG 20010904//EN" "http://www.w3.org/TR/2001/REC-SVG-20010904/DTD/svg10.dtd">

<svg xmlns="http://www.w3.org/2000/svg" 
    xmlns:xlink="http://www.w3.org/1999/xlink"
    width="135.864pt"
    height="40.392pt"
    viewBox="0 0 135.864 40.392">
<defs/>
<path id="shape01"
  transform="matrix(0.548876956385535 -0.0058794891552806 0.00444279435554973 0.726370805036475 1.82907833419814 1.31992420805818)"
  fill="#545c64"
  stroke="black"
  stroke-width="1"
  stroke-linecap="square"
  stroke-linejoin="bevel"
  d="M12.7237 0.0149961L0 0L0.0149998 34.065C0.467913 45.5724 5.7094 53.497 21.8325 53.28C33.6503 53.1284 42.7507 48.6883 43.4512 35.0587L43.4475 0.00749828L30.4912 0.0187458L30.478 34.7998C29.6767 39.0759 28.7056 43.2421 21.6215 43.4495C17.0228 43.5917 14.9331 41.4999 13.9191 38.4503C12.9149 35.8468 12.959 31.8581 12.7162 28.32C12.7162 28.32 12.7187 18.885 12.7237 0.0149961Z"/>

<path id="shape011"
  transform="matrix(0.548876956385535 -0.0058794891552806 0.00444279435554973 0.726370805036475 30.151129368049 1.01653296903859)"
  fill="#545c64"
  stroke="black"
  stroke-width="1"
  stroke-linecap="square"
  stroke-linejoin="bevel"
  d="M0.00375291 43.2038L0.0149947 52.3237L27.8362 52.3237L27.84 43.2038L20.4075 43.215L20.4187 9.13499L27.8512 9.1275L27.8437 0L0 0.0150101L0.0112491 9.12751L7.45125 9.13501L7.44749 43.2C7.44749 43.2 4.96625 43.2012 0.00375291 43.2038Z"/>

<path id="shape02"
  transform="matrix(0.548876956385535 -0.0058794891552806 0.00444279435554973 0.726370805036475 47.5457708995189 0.838370725025287)"
  fill="#545c64"
  stroke="black"
  stroke-width="1"
  stroke-linecap="square"
  stroke-linejoin="bevel"
  d="M0 0L8.87944e-06 9.84002L15.3563 9.85127L15.3637 52.3087L28.3238 52.3163L28.322 9.83126L43.9163 9.84377L43.92 0.00375775C43.92 0.00375775 29.28 0.00250517 0 0Z"/>
  
<path id="shape0111"
  transform="matrix(0.54887699099379 -0.00587948952599913 0.00444279463568058 0.726370850836224 72.7451731538888 9.07844207491705)"
  fill="#545c64"
  fill-rule="evenodd"
  stroke="black"
  stroke-width="1"
  stroke-linecap="square"
  stroke-linejoin="bevel"
  d="M12.024 23.078L39.133 23.077L39.151 18.359L39.141 18.061L39.13 17.764L39.116 17.47L39.1 17.178L39.082 16.889L39.062 16.601L39.04 16.316L39.015 16.033L38.988 15.752L38.958 15.474L38.927 15.197L38.893 14.923L38.857 14.651L38.818 14.382L38.778 14.114L38.735 13.849L38.689 13.586L38.642 13.326L38.592 13.067L38.539 12.811L38.485 12.558L38.428 12.306L38.368 12.057L38.307 11.811L38.243 11.566L38.176 11.324L38.107 11.084L38.036 10.847L37.962 10.612L37.886 10.379L37.808 10.149L37.727 9.921L37.644 9.696L37.558 9.473L37.47 9.252L37.379 9.034L37.286 8.818L37.191 8.604L37.093 8.393L36.992 8.184L36.89 7.978L36.784 7.775L36.676 7.573L36.566 7.374L36.453 7.178L36.338 6.984L36.22 6.793L36.099 6.604L35.976 6.417L35.851 6.233L35.722 6.052L35.592 5.873L35.459 5.697L35.323 5.523L35.184 5.351L35.043 5.183L34.88 4.995L34.713 4.811L34.543 4.63L34.37 4.453L34.194 4.278L34.015 4.107L33.833 3.938L33.648 3.773L33.46 3.612L33.269 3.453L33.075 3.298L32.877 3.146L32.677 2.998L32.474 2.853L32.268 2.711L32.059 2.572L31.847 2.437L31.632 2.306L31.414 2.178L31.193 2.053L30.969 1.932L30.742 1.814L30.512 1.7L30.279 1.59L30.043 1.483L29.804 1.38L29.563 1.28L29.318 1.184L29.071 1.091L28.82 1.003L28.567 0.917L28.31 0.836L28.051 0.759L27.789 0.685L27.524 0.615L27.256 0.548L26.985 0.486L26.712 0.427L26.435 0.372L26.155 0.322L25.873 0.275L25.588 0.231L25.3 0.192L25.009 0.157L24.715 0.126L24.418 0.099L24.119 0.076L23.816 0.056L23.511 0.041L23.215 0.033L22.927 0.026L22.647 0.019L22.374 0.014L22.109 0.009L21.849 0.005L21.595 0.003L21.346 0.001L21.101 0L20.621 0L20.385 0.002L20.151 0.004L19.918 0.007L19.686 0.011L19.453 0.015L19.22 0.021L18.985 0.027L18.749 0.033L18.51 0.041L18.268 0.049L17.953 0.077L17.643 0.108L17.336 0.141L17.033 0.176L16.733 0.214L16.437 0.254L16.144 0.297L15.855 0.342L15.569 0.39L15.286 0.44L15.007 0.493L14.731 0.548L14.458 0.606L14.188 0.667L13.921 0.73L13.658 0.797L13.397 0.865L13.139 0.937L12.884 1.011L12.632 1.088L12.383 1.168L12.136 1.251L11.892 1.336L11.651 1.425L11.412 1.516L11.175 1.611L10.942 1.708L10.71 1.808L10.481 1.912L10.254 2.018L10.03 2.128L9.807 2.241L9.587 2.356L9.369 2.475L9.153 2.597L8.939 2.723L8.727 2.851L8.517 2.983L8.309 3.118L8.102 3.257L7.898 3.398L7.695 3.543L7.493 3.692L7.294 3.844L7.095 3.999L6.899 4.158L6.703 4.32L6.509 4.486L6.317 4.656L6.126 4.829L5.936 5.005L5.747 5.185L5.559 5.369L5.373 5.557L5.187 5.748L5.002 5.943L4.841 6.116L4.682 6.291L4.526 6.469L4.371 6.648L4.22 6.829L4.07 7.012L3.923 7.197L3.779 7.384L3.637 7.573L3.497 7.764L3.36 7.957L3.226 8.152L3.094 8.349L2.965 8.548L2.838 8.749L2.713 8.952L2.592 9.157L2.473 9.364L2.356 9.573L2.242 9.784L2.131 9.997L2.022 10.212L1.916 10.43L1.813 10.649L1.713 10.87L1.615 11.093L1.52 11.318L1.427 11.546L1.338 11.775L1.251 12.006L1.167 12.24L1.086 12.475L1.007 12.713L0.931 12.952L0.859 13.194L0.789 13.437L0.722 13.683L0.657 13.931L0.596 14.181L0.538 14.433L0.482 14.687L0.43 14.943L0.38 15.201L0.334 15.461L0.29 15.723L0.249 15.988L0.212 16.254L0.177 16.523L0.146 16.793L0.117 17.066L0.092 17.341L0.069 17.618L0.05 17.897L0.034 18.178L0.021 18.461L0.011 18.747L0.004 19.034L0.001 19.324L0 19.615L0.003 19.909L0.009 20.205L0.024 22.594L0.033 22.944L0.045 23.29L0.061 23.631L0.08 23.968L0.102 24.3L0.129 24.628L0.159 24.951L0.192 25.271L0.229 25.585L0.269 25.896L0.313 26.203L0.361 26.505L0.413 26.804L0.468 27.098L0.526 27.389L0.589 27.676L0.655 27.959L0.724 28.238L0.798 28.514L0.875 28.786L0.956 29.055L1.04 29.32L1.129 29.582L1.221 29.84L1.317 30.095L1.416 30.347L1.52 30.596L1.627 30.842L1.738 31.084L1.853 31.324L1.972 31.561L2.095 31.795L2.221 32.026L2.352 32.255L2.486 32.48L2.625 32.703L2.767 32.924L2.913 33.142L3.063 33.358L3.217 33.571L3.376 33.782L3.538 33.991L3.704 34.198L3.874 34.402L4.048 34.605L4.227 34.805L4.409 35.004L4.595 35.2L4.786 35.395L4.98 35.588L5.179 35.779L5.382 35.969L5.589 36.157L5.8 36.344L6.015 36.529L6.235 36.713L6.459 36.895L6.687 37.076L6.919 37.256L7.155 37.435L7.396 37.613L7.64 37.79L7.89 37.965L8.097 38.114L8.305 38.259L8.516 38.399L8.727 38.534L8.94 38.665L9.155 38.791L9.371 38.913L9.588 39.031L9.807 39.145L10.027 39.255L10.248 39.361L10.47 39.463L10.694 39.562L10.919 39.657L11.145 39.748L11.373 39.836L11.601 39.921L11.831 40.002L12.062 40.08L12.294 40.155L12.527 40.227L12.76 40.297L12.995 40.363L13.231 40.427L13.468 40.488L13.706 40.546L13.945 40.603L14.184 40.656L14.425 40.708L14.666 40.757L14.908 40.805L15.151 40.85L15.395 40.894L15.639 40.935L15.885 40.975L16.13 41.014L16.624 41.086L16.872 41.12L17.12 41.153L17.618 41.215L17.868 41.245L18.621 41.329L19.125 41.381L19.378 41.407L19.631 41.432L19.884 41.458L20.138 41.483L20.392 41.507L20.9 41.557L25.708 41.565C32.9035 41.1065 33.7522 40.4179 38.413 38.437L38.417 28.358L37.003 28.365L36.681 28.579L36.364 28.785L36.053 28.983L35.746 29.174L35.443 29.358L35.146 29.534L34.852 29.704L34.563 29.867L34.279 30.023C30.6523 32.2052 27.0753 33.1739 23.548 32.929L23.258 32.904L22.973 32.877L22.691 32.847L22.412 32.814L22.137 32.779L21.866 32.741L21.599 32.7L21.335 32.656L21.075 32.61L20.819 32.56L20.566 32.508L20.317 32.454L20.072 32.396L19.83 32.336L19.592 32.273L19.358 32.207L19.128 32.138L18.901 32.067L18.677 31.993L18.458 31.916L18.242 31.837L18.03 31.754L17.821 31.669L17.521 31.535L17.229 31.395L16.945 31.248L16.668 31.096L16.4 30.938L16.139 30.774L15.887 30.604L15.643 30.428L15.406 30.246L15.177 30.058L14.957 29.864L14.744 29.664L14.539 29.458L14.342 29.246L14.154 29.028L13.973 28.804L13.8 28.575L13.635 28.339L13.478 28.097L13.328 27.85L13.187 27.596L13.054 27.337L12.929 27.071L12.812 26.8L12.702 26.522L12.601 26.239L12.507 25.95L12.422 25.654L12.344 25.353L12.275 25.046L12.213 24.733L12.159 24.414L12.114 24.089L12.076 23.757L12.046 23.42L12.024 23.078M12.028 15.8738L27.148 15.8887L27.112 15.4693L27.066 15.0606L27.011 14.6628L26.947 14.2758L26.873 13.8996L26.79 13.5343L26.698 13.1798L26.596 12.8361L26.485 12.5033L26.365 12.1813L26.235 11.8702L26.096 11.5699L25.947 11.2805L25.789 11.0019L25.622 10.7342L25.445 10.4773L25.259 10.2313L25.063 9.9962L24.858 9.7719L24.644 9.5585L24.42 9.3559L24.187 9.1643L23.944 8.9835L23.692 8.8136L23.431 8.6546L23.16 8.5064L22.88 8.3692L22.59 8.2428L22.291 8.1273L21.983 8.0227L21.665 7.9291L21.337 7.8463L21.001 7.7744L20.654 7.7134L20.37 7.6826L20.085 7.6617L19.799 7.6568L19.512 7.6738L19.223 7.7187L18.872 7.764L18.529 7.8212L18.195 7.8901L17.87 7.9708L17.553 8.0633L17.244 8.1676L16.944 8.2837L16.652 8.4115L16.369 8.5512L16.094 8.7026L15.828 8.8659L15.57 9.0409L15.32 9.2277L15.079 9.4263L14.846 9.6367L14.622 9.8588L14.406 10.0928L14.199 10.3385L14 10.5961L13.809 10.8654L13.627 11.1465L13.453 11.4394L13.288 11.7441L13.131 12.0606L12.983 12.3889L12.843 12.7289L12.712 13.0808L12.589 13.4444L12.474 13.8198L12.368 14.207L12.27 14.606L12.181 15.0168L12.1 15.4394L12.028 15.8738"/>
  
<path id="shape03"
  transform="matrix(0.548876956385535 -0.0058794891552806 0.00444279435554973 0.726370805036475 96.4729884181607 9.00540260906894)"
  fill="#545c64"
  stroke="black"
  stroke-width="1"
  stroke-linecap="square"
  stroke-linejoin="bevel"
  d="M1.87959e-05 28.1082L0 38.4056C4.78604 40.8499 9.10054 41.0751 13.4175 41.3119C14.9205 41.3742 16.1556 41.3175 17.4975 41.3082C22.0378 41.0756 25.375 39.967 27.8395 38.1994C30.1768 36.7108 31.9319 34.8348 32.6927 32.851C33.21 31.6273 33.6635 28.5066 33.6791 26.7859C33.8125 25.6371 33.0803 23.3205 31.9842 21.4937C31.1704 20.0912 29.2322 18.7339 26.82 17.4865C22.3623 15.8624 17.8447 15.414 15.0574 14.3761C13.3809 13.6875 12.357 12.9243 12.465 12.0319L12.465 11.0569C13.1988 9.38627 15.5259 8.74771 17.9898 8.19772C18.7155 8.06716 19.4669 8.05453 20.1483 8.18181C24.4173 8.9637 27.7942 10.5261 30.7088 12.4932L31.9125 12.5157L31.9125 2.67191C29.6905 1.43159 28.2767 1.03018 26.6638 0.672542C24.0578 0.0629463 21.6382 0.0288621 19.1937 0.0253485C18.4645 -0.0170698 17.7498 -0.00121967 17.0405 0.0359551C11.214 0.196752 6.90003 1.58915 4.09877 4.21316C2.46913 5.49479 1.34525 7.02407 0.727106 8.80099C-0.39116 10.6613 -0.0319758 15.946 0.626839 17.3169C1.41261 19.823 3.23824 21.5857 5.57921 22.9318C9.40624 25.2782 16.4379 26.1031 19.1638 27.1325C20.3352 27.7011 21.0858 28.3912 21.1238 29.3007C21.1395 29.4679 21.138 29.6409 21.1238 29.8182C21.4499 31.4373 19.1707 32.5263 14.6325 33.1557L13.4288 33.1557C6.56969 32.4779 4.00359 29.8244 0.922508 28.1157C0.922508 28.1157 0.615012 28.1132 1.87959e-05 28.1082Z"/>
  
<path id="shape04"
  transform="matrix(0.548876956385535 -0.0058794891552806 0.00444279435554973 0.726370805036475 115.919227520581 1.31546222345414)"
  fill="#545c64"
  stroke="black"
  stroke-width="1"
  stroke-linecap="square"
  stroke-linejoin="bevel"
  d="M4.7936 11.274L4.8075 0L16.8075 0.0187386L16.8038 11.2688L28.8 11.295L28.7963 19.6875L16.8037 19.6987L17.0389 38.5064C17.6803 40.812 18.9687 42.6074 22.0718 42.9718C22.5407 43.0092 23.0255 42.9945 23.5143 42.9665C24.958 42.6895 26.2317 42.282 27.3713 41.7713L28.8038 41.7788L28.8 50.3962C26.197 51.1572 22.9575 51.2065 19.9163 51.3675C15.4439 51.195 11.3948 50.6012 8.61258 48.7461C6.93454 47.5699 5.78413 45.7139 5.21203 43.4892C5.04112 42.8166 4.90163 41.5327 4.79357 39.6375L4.7925 19.6913L0 19.6912L0.0112548 11.295C0.0112548 11.295 1.60537 11.288 4.7936 11.274Z"/>
</svg>
