<?xml version="1.0" standalone="no"?>
<!DOCTYPE svg PUBLIC "-//W3C//DTD SVG 20010904//EN" "http://www.w3.org/TR/2001/REC-SVG-20010904/DTD/svg10.dtd">

<svg xmlns="http://www.w3.org/2000/svg" 
    xmlns:xlink="http://www.w3.org/1999/xlink"
    width="102.024pt"
    height="58.608pt"
    viewBox="0 0 102.024 58.608">

<defs>
  <linearGradient id="gradient0"
    gradientUnits="objectBoundingBox"
    x1="-0.0122737061442825"
    y1="0.65516279669068"
    x2="0.501926038897337"
    y2="0.500508489541587"
    spreadMethod="pad">
   <stop stop-color="#ffffff" offset="0" stop-opacity="1"/>
   <stop stop-color="#d4a600" offset="1" stop-opacity="1"/>
  </linearGradient>
 </defs>

<path id="shape0"
  transform="matrix(0.899510069535196 -0.436899694677261 0.436899694677261 0.899510069535196 34.8418586497543 16.811789558276)"
  fill="url(#gradient0)"
  fill-rule="evenodd"
  stroke="#000000"
  stroke-width="0.28872"
  stroke-linecap="square"
  stroke-linejoin="bevel"
  d="M6.318 8.48386L33.9966 0L55.5068 18.5828L49.23 45.8069L21.3705 54.0682L0 35.2499L6.318 8.48386"/>

<path id="shape01"
  transform="matrix(0.312974273649724 -0.0684458909800483 0.0684458909800483 0.312974273649724 2.79347208104479 29.5234170071183)"
  fill="#000000"
  fill-rule="evenodd"
  stroke="#000000"
  stroke-width="0.144"
  stroke-linecap="square"
  stroke-linejoin="bevel"
  d="M59.2434 47.0492L59.2447 46.331L59.2423 45.615L59.2359 44.9011L59.2258 44.1895L59.2117 43.4803L59.1937 42.7735L59.1717 42.0693L59.1457 41.3677L59.1157 40.6687L59.0816 39.9727L59.0435 39.2795L59.0012 38.5893L58.9547 37.9021L58.9041 37.2182L58.8493 36.5375L58.7902 35.8601L58.7268 35.1862L58.6591 34.5159L58.587 33.8491L58.5106 33.1861L58.4297 32.5269L58.3444 31.8715L58.2547 31.2201L58.1604 30.5729L58.0616 29.9297L57.9582 29.2909L57.8502 28.6563L57.7376 28.0262L57.6203 27.4007L57.4983 26.7797L57.3716 26.1635L57.2401 25.552L57.1038 24.9454L56.9627 24.3438L56.8167 23.7473L56.6659 23.1559L56.5101 22.5698L56.3494 21.989L56.1837 21.4137L56.0129 20.8438L55.8372 20.2796L55.6563 19.721L55.4703 19.1683L55.2792 18.6214L55.0829 18.0805L54.8814 17.5457L54.6747 17.017L54.4626 16.4945L54.2453 15.9784L54.0227 15.4687L53.7946 14.9655L53.5612 14.4689L53.3223 13.979L53.078 13.4958L52.8282 13.0196L52.5729 12.5503L52.312 12.088L52.0455 11.6329L51.7733 11.1851L51.4956 10.7445L51.2121 10.3114L50.9229 9.8858L50.628 9.4677L50.3883 9.1642L50.1453 8.8652L49.8993 8.5708L49.65 8.281L49.3977 7.9958L49.1422 7.7152L48.8836 7.4393L48.6218 7.168L48.357 6.9014L48.089 6.6395L47.818 6.3823L47.5438 6.1299L47.2666 5.8823L46.9863 5.6394L46.7029 5.4014L46.4165 5.1681L46.127 4.9398L45.8345 4.7163L45.5389 4.4977L45.2403 4.284L44.9386 4.0752L44.634 3.8714L44.3263 3.6726L44.0157 3.4787L43.702 3.2899L43.3853 3.1061L43.0657 2.9274L42.7431 2.7537L42.4175 2.5851L42.089 2.4217L41.7575 2.2634L41.423 2.1102L41.0856 1.9623L40.7453 1.8195L40.402 1.6819L40.0559 1.5496L39.7068 1.4226L39.3548 1.3008L38.9999 1.1844L38.6422 1.0732L38.2815 0.9674L37.918 0.867L37.5516 0.7719L37.1823 0.6823L36.8102 0.5981L36.4353 0.5193L36.0575 0.446L35.6768 0.3782L35.2934 0.3159L34.9071 0.2591L34.518 0.2079L34.1261 0.1622L33.7314 0.1222L33.334 0.0877L32.9337 0.0589L32.5306 0.0357L32.1248 0.0182L31.7163 0.0064L31.3049 0.0003L30.8909 0L30.4741 0.0054L30.0545 0.0165L29.6322 0.0335L29.2658 0.0318L28.9006 0.0355L28.5368 0.0447L28.1743 0.0591L27.8131 0.079L27.4534 0.1042L27.095 0.1347L26.7381 0.1705L26.3826 0.2116L26.0286 0.2579L25.6761 0.3095L25.325 0.3663L24.9755 0.4283L24.6275 0.4954L24.2811 0.5677L23.9362 0.6451L23.593 0.7276L23.2513 0.8153L22.9113 0.9079L22.573 1.0057L22.2363 1.1084L21.9013 1.2161L21.568 1.3289L21.2364 1.4466L20.9066 1.5692L20.5786 1.6967L20.2524 1.8292L19.9279 1.9665L19.6053 2.1086L19.2845 2.2556L18.9656 2.4075L18.6486 2.5641L18.3335 2.7254L18.0203 2.8916L17.709 3.0624L17.3997 3.238L17.0924 3.4182L16.7871 3.6031L16.4838 3.7927L16.1825 3.9869L15.8833 4.1857L15.5861 4.389L15.2911 4.597L14.9982 4.8094L14.7074 5.0264L14.4187 5.2479L14.1323 5.4739L13.848 5.7043L13.5659 5.9391L13.2861 6.1784L13.0085 6.422L12.7331 6.6701L12.4601 6.9224L12.1893 7.1792L11.9209 7.4402L11.6549 7.7055L11.3911 7.975L11.1298 8.2488L10.8709 8.5269L10.6144 8.8091L10.3603 9.0955L10.1087 9.3861L9.8596 9.6809L9.7532 9.8195L9.6473 9.959L9.5419 10.0993L9.4371 10.2405L9.3329 10.3825L9.2292 10.5254L9.1261 10.6692L9.0235 10.8138L8.9214 10.9592L8.8199 11.1054L8.719 11.2525L8.6186 11.4004L8.5187 11.5491L8.4194 11.6987L8.3207 11.8491L8.2225 12.0003L8.1249 12.1522L8.0278 12.305L7.9313 12.4587L7.8353 12.6131L7.7399 12.7683L7.645 12.9242L7.5507 13.081L7.457 13.2386L7.3638 13.3969L7.2712 13.5561L7.1791 13.716L7.0876 13.8767L6.9967 14.0381L6.9063 14.2003L6.8165 14.3633L6.7272 14.527L6.6385 14.6915L6.5504 14.8568L6.4628 15.0228L6.3758 15.1895L6.2894 15.357L6.2035 15.5252L6.1182 15.6942L6.0335 15.8638L5.9493 16.0343L5.8657 16.2054L5.7827 16.3772L5.7002 16.5498L5.6183 16.7231L5.5369 16.8971L5.4562 17.0718L5.376 17.2472L5.2964 17.4234L5.2173 17.6002L5.1388 17.7777L5.0609 17.9559L4.9836 18.1348L4.9068 18.3143L4.8306 18.4946L4.755 18.6755L4.68 18.8571L4.6055 19.0394L4.5316 19.2223L4.4583 19.4059L4.3856 19.5902L4.3134 19.7751L4.2419 19.9607L4.1079 20.3337L3.9763 20.7093L3.847 21.0874L3.72 21.468L3.5953 21.8511L3.4729 22.2365L3.3528 22.6244L3.235 23.0146L3.1194 23.4071L3.0061 23.8018L2.895 24.1989L2.7861 24.5981L2.6795 24.9994L2.5752 25.403L2.473 25.8086L2.373 26.2162L2.2753 26.6259L2.1797 27.0376L2.0864 27.4512L1.9952 27.8668L1.9062 28.2842L1.8193 28.7035L1.7346 29.1246L1.652 29.5475L1.5716 29.9721L1.4933 30.3984L1.4171 30.8264L1.3431 31.2561L1.2711 31.6873L1.2013 32.1201L1.1335 32.5544L1.0678 32.9902L1.0042 33.4275L0.9427 33.8662L0.8832 34.3063L0.8258 34.7478L0.7704 35.1906L0.717 35.6346L0.6657 36.0799L0.6164 36.5264L0.5691 36.9741L0.5238 37.4229L0.4805 37.8729L0.4392 38.3239L0.3998 38.7759L0.3625 39.2289L0.3271 39.6829L0.2936 40.1379L0.2621 40.5937L0.2325 41.0504L0.2049 41.5079L0.1792 41.9661L0.1554 42.4252L0.1335 42.8849L0.1135 43.3454L0.0955 43.8065L0.0792 44.2682L0.0649 44.7304L0.0524 45.1932L0.0418 45.6566L0.0331 46.1203L0.0262 46.5845L0.0211 47.0492L0.0102 47.7177L0.0031 48.3842L0 49.0485L0.0009 49.7106L0.0056 50.3704L0.0144 51.0279L0.0271 51.683L0.0438 52.3356L0.0646 52.9856L0.0894 53.6331L0.1183 54.2778L0.1513 54.9199L0.1883 55.5591L0.2295 56.1955L0.2748 56.8289L0.3243 57.4598L0.3779 58.0868L0.4358 58.7108L0.4978 59.3318L0.5641 59.9498L0.6347 60.5648L0.7095 61.1758L0.7886 61.7828L0.872 62.3868L0.9598 62.9878L1.0518 63.5848L1.1483 64.1778L1.2491 64.7668L1.3543 65.3528L1.464 65.9348L1.5781 66.5118L1.6966 67.0858L1.8196 67.6548L1.9471 68.2208L2.0792 68.7818L2.2157 69.3388L2.3568 69.8908L2.5025 70.4388L2.6527 70.9828L2.8076 71.5218L2.9671 72.0558L3.1312 72.5848L3.3 73.1098L3.4735 73.6298L3.6517 74.1448L3.8346 74.6558L4.0222 75.1608L4.2146 75.6608L4.4118 76.1558L4.6137 76.6458L4.8205 77.1298L5.0321 77.6088L5.2485 78.0828L5.4699 78.5508L5.6961 79.0138L5.9272 79.4708L6.1632 79.9218L6.4042 80.3678L6.6501 80.8078L6.901 81.2418L7.1569 81.6698L7.4179 82.0918L7.6838 82.5078L7.9179 82.8598L8.1555 83.2068L8.3965 83.5488L8.641 83.8868L8.889 84.2188L9.1406 84.5458L9.3956 84.8678L9.6541 85.1848L9.9162 85.4978L10.1819 85.8038L10.4511 86.1058L10.7239 86.4028L11.0002 86.6938L11.2802 86.9798L11.5637 87.2608L11.8509 87.5368L12.1417 87.8068L12.4362 88.0718L12.7343 88.3318L13.036 88.5858L13.3414 88.8348L13.6505 89.0778L13.9633 89.3158L14.2799 89.5488L14.6001 89.7758L14.924 89.9968L15.2517 90.2128L15.5832 90.4238L15.9184 90.6278L16.2573 90.8268L16.6001 91.0208L16.9466 91.2078L17.297 91.3898L17.6512 91.5668L18.0092 91.7368L18.371 91.9018L18.7367 92.0608L19.1062 92.2138L19.4797 92.3608L19.857 92.5018L20.2382 92.6368L20.6233 92.7668L21.0123 92.8898L21.4052 93.0078L21.8021 93.1188L22.2029 93.2238L22.6077 93.3238L23.0165 93.4168L23.4293 93.5038L23.846 93.5848L24.2668 93.6588L24.6915 93.7278L25.1203 93.7898L25.5532 93.8458L25.99 93.8958L26.431 93.9388L26.876 93.9768L27.3251 94.0068L27.7783 94.0318L28.2356 94.0498L28.697 94.0608L29.1626 94.0658L29.6322 94.0648L29.9518 94.0488L30.2704 94.0298L30.5881 94.0078L30.905 93.9828L31.2208 93.9548L31.5358 93.9238L31.8498 93.8888L32.1627 93.8518L32.4747 93.8118L32.7857 93.7678L33.0956 93.7208L33.4044 93.6718L33.7122 93.6178L34.0189 93.5618L34.3245 93.5028L34.6289 93.4398L34.9322 93.3738L35.2343 93.3038L35.5353 93.2318L35.835 93.1558L36.1335 93.0758L36.4308 92.9938L36.7268 92.9078L37.0216 92.8178L37.3151 92.7248L37.6072 92.6288L37.898 92.5288L38.1875 92.4258L38.4756 92.3188L38.7624 92.2088L39.0477 92.0948L39.3316 91.9768L39.6141 91.8558L39.8951 91.7318L40.1747 91.6028L40.4528 91.4718L40.7293 91.3358L41.0044 91.1968L41.2779 91.0538L41.5498 90.9068L41.8202 90.7568L42.0889 90.6028L42.3561 90.4448L42.6216 90.2838L42.8855 90.1178L43.1477 89.9488L43.4082 89.7758L43.667 89.5988L43.9241 89.4178L44.1794 89.2328L44.433 89.0438L44.6848 88.8518L44.9348 88.6548L45.1831 88.4548L45.4294 88.2498L45.674 88.0408L45.9166 87.8288L46.1574 87.6118L46.3963 87.3908L46.6333 87.1658L46.8683 86.9368L47.1014 86.7038L47.3325 86.4668L47.4367 86.3618L47.5405 86.2568L47.6438 86.1508L47.7466 86.0438L47.849 85.9368L47.9509 85.8278L48.0524 85.7188L48.1534 85.6098L48.2539 85.4988L48.354 85.3878L48.4537 85.2758L48.5529 85.1638L48.6516 85.0508L48.7498 84.9368L48.8476 84.8218L48.945 84.7068L49.0419 84.5908L49.1383 84.4738L49.2343 84.3568L49.3298 84.2388L49.4248 84.1198L49.5194 84.0008L49.6136 83.8808L49.7072 83.7598L49.8005 83.6378L49.8932 83.5158L49.9855 83.3928L50.0774 83.2698L50.1688 83.1458L50.2597 83.0208L50.3502 82.8958L50.4402 82.7698L50.5297 82.6428L50.6188 82.5158L50.7075 82.3878L50.7956 82.2588L50.8834 82.1298L50.9706 81.9998L51.0574 81.8688L51.1438 81.7378L51.2297 81.6058L51.3151 81.4728L51.4001 81.3398L51.4846 81.2068L51.5687 81.0718L51.6523 80.9368L51.7354 80.8018L51.8181 80.6658L51.9003 80.5288L51.9821 80.3908L52.0634 80.2528L52.1443 80.1148L52.2247 79.9748L52.3046 79.8358L52.3841 79.6948L52.4631 79.5538L52.5417 79.4118L52.6198 79.2698L52.6975 79.1268L52.7746 78.9838L52.8514 78.8398L52.9277 78.6958L53.0035 78.5508L53.2075 78.1498L53.4079 77.7448L53.6045 77.3358L53.7974 76.9228L53.9867 76.5058L54.1723 76.0848L54.3543 75.6588L54.5327 75.2298L54.7074 74.7968L54.8786 74.3598L55.0462 73.9198L55.2103 73.4748L55.3708 73.0268L55.5278 72.5758L55.6812 72.1208L55.8312 71.6618L55.9778 71.1998L56.1208 70.7338L56.2604 70.2648L56.3966 69.7928L56.5294 69.3168L56.6588 68.8378L56.7848 68.3558L56.9075 67.8708L57.0268 67.3828L57.1428 66.8918L57.2554 66.3968L57.3648 65.8998L57.4709 65.3998L57.5737 64.8978L57.6733 64.3918L57.7697 63.8838L57.8628 63.3728L57.9528 62.8588L58.0395 62.3428L58.1231 61.8238L58.2036 61.3028L58.2809 60.7788L58.3551 60.2528L58.4262 59.7248L58.4942 59.1948L58.5592 58.6618L58.6211 58.1268L58.68 57.5898L58.7358 57.0504L58.7886 56.5093L58.8385 55.9661L58.8854 55.4211L58.9293 54.8742L58.9703 54.3254L59.0084 53.7749L59.0436 53.2227L59.0759 52.6688L59.1053 52.1133L59.1318 51.5562L59.1555 50.9976L59.1764 50.4376L59.1945 49.8761L59.2098 49.3132L59.2223 48.7491L59.2321 48.1836L59.2391 47.617L59.2434 47.0492M48.5806 46.9919L48.5785 46.3552L48.5734 45.7201L48.5651 45.0869L48.5536 44.4554L48.539 43.826L48.5212 43.1986L48.5002 42.5733L48.4759 41.9504L48.4483 41.3299L48.4175 40.7119L48.3833 40.0965L48.3458 39.4838L48.3049 38.874L48.2607 38.2671L48.213 37.6633L48.1619 37.0626L48.1073 36.4652L48.0493 35.8711L47.9877 35.2806L47.9226 34.6936L47.854 34.1104L47.7817 33.5309L47.7059 32.9554L47.6264 32.3839L47.5433 31.8165L47.4565 31.2534L47.3661 30.6947L47.2719 30.1404L47.1739 29.5906L47.0722 29.0456L46.9667 28.5053L46.8573 27.97L46.7442 27.4396L46.6271 26.9144L46.5062 26.3943L46.3814 25.8796L46.2526 25.3704L46.1199 24.8667L45.9832 24.3686L45.8425 23.8763L45.6977 23.3899L45.5489 22.9095L45.396 22.4351L45.2391 21.967L45.078 21.5051L44.9127 21.0497L44.7433 20.6008L44.5696 20.1586L44.3918 19.723L44.2097 19.2944L44.0233 18.8726L43.8327 18.458L43.6377 18.0505L43.4384 17.6503L43.2348 17.2575L43.0267 16.8722L42.8142 16.4946L42.5973 16.1246L42.376 15.7625L42.1501 15.4082L41.9198 15.0621L41.6849 14.7241L41.4455 14.3943L41.2984 14.2099L41.1498 14.0286L40.9997 13.8502L40.8482 13.675L40.6951 13.5027L40.5406 13.3335L40.3846 13.1674L40.2272 13.0043L40.0684 12.8443L39.9081 12.6874L39.7464 12.5335L39.5833 12.3827L39.4189 12.2349L39.253 12.0903L39.0857 11.9487L38.9171 11.8103L38.7472 11.6749L38.5758 11.5426L38.4032 11.4134L38.2292 11.2874L38.0539 11.1644L37.8774 11.0446L37.6995 10.9278L37.5203 10.8142L37.3399 10.7038L37.1582 10.5964L36.9752 10.4922L36.791 10.3912L36.6056 10.2932L36.4189 10.1985L36.231 10.1068L36.042 10.0184L35.8517 9.9331L35.6602 9.8509L35.4676 9.772L35.2738 9.6962L35.0789 9.6236L34.8828 9.5541L34.6856 9.4879L34.4873 9.4248L34.2878 9.3649L34.0873 9.3082L33.8856 9.2548L33.6829 9.2045L33.4791 9.1575L33.2742 9.1136L33.0683 9.073L32.8614 9.0356L32.6534 9.0014L32.4444 8.9705L32.2344 8.9428L32.0233 8.9183L31.8113 8.8971L31.5984 8.8791L31.3844 8.8644L31.1695 8.8529L30.9536 8.8447L30.7368 8.8397L30.519 8.838L30.3004 8.8396L30.0808 8.8445L29.8603 8.8526L29.639 8.8641L29.5155 8.8645L29.3924 8.866L29.2694 8.8685L29.1467 8.8719L29.0243 8.8764L28.9021 8.8818L28.7802 8.8882L28.6585 8.8955L28.5371 8.9039L28.4159 8.9132L28.2951 8.9236L28.1744 8.9349L28.0541 8.9471L27.934 8.9604L27.8142 8.9746L27.6947 8.9898L27.5755 9.006L27.4565 9.0231L27.3379 9.0413L27.2195 9.0604L27.1014 9.0804L26.9836 9.1014L26.8661 9.1234L26.7489 9.1464L26.6321 9.1703L26.5155 9.1953L26.3992 9.2211L26.2832 9.2479L26.1675 9.2757L26.0522 9.3045L25.9372 9.3342L25.8224 9.3649L25.708 9.3965L25.594 9.4291L25.4802 9.4627L25.3668 9.4972L25.2537 9.5327L25.141 9.5691L25.0286 9.6065L24.9165 9.6448L24.8047 9.6841L24.6933 9.7243L24.5823 9.7655L24.4716 9.8077L24.3613 9.8507L24.2513 9.8948L24.1416 9.9398L24.0323 9.9857L23.9234 10.0326L23.8149 10.0804L23.7067 10.1292L23.5988 10.1789L23.4914 10.2295L23.3843 10.2811L23.2776 10.3337L23.1713 10.3871L23.0654 10.4416L22.9598 10.4969L22.8546 10.5532L22.7498 10.6104L22.6454 10.6686L22.5414 10.7277L22.4378 10.7877L22.3599 10.8336L22.2821 10.8801L22.2046 10.9271L22.1273 10.9746L22.0503 11.0227L21.9734 11.0713L21.8968 11.1205L21.8205 11.1702L21.7443 11.2204L21.6684 11.2711L21.5928 11.3224L21.5173 11.3743L21.4422 11.4267L21.3672 11.4796L21.2925 11.533L21.218 11.587L21.1437 11.6415L21.0697 11.6966L20.996 11.7522L20.9224 11.8083L20.8492 11.865L20.7761 11.9222L20.7033 11.98L20.6308 12.0383L20.5584 12.0971L20.4864 12.1564L20.4145 12.2163L20.343 12.2768L20.2716 12.3377L20.2005 12.3992L20.1297 12.4612L20.0591 12.5238L19.9888 12.5869L19.9187 12.6506L19.8488 12.7147L19.7792 12.7794L19.7099 12.8447L19.6408 12.9105L19.572 12.9768L19.5034 13.0436L19.4351 13.111L19.367 13.1789L19.2992 13.2474L19.2316 13.3164L19.1643 13.3859L19.0973 13.4559L19.0305 13.5265L18.964 13.5977L18.8977 13.6693L18.8317 13.7415L18.7659 13.8142L18.7005 13.8875L18.6352 13.9613L18.5703 14.0356L18.5056 14.1104L18.4412 14.1858L18.377 14.2618L18.3131 14.3382L18.2495 14.4152L18.1861 14.4927L18.0797 14.6302L17.9741 14.7693L17.8693 14.9098L17.7652 15.0518L17.6618 15.1953L17.5592 15.3402L17.4574 15.4866L17.3563 15.6345L17.2559 15.7838L17.1563 15.9345L17.0575 16.0866L16.9594 16.2402L16.862 16.3952L16.7654 16.5516L16.6696 16.7094L16.5745 16.8685L16.4802 17.0291L16.3866 17.191L16.2937 17.3543L16.2017 17.5189L16.1103 17.6849L16.0198 17.8522L15.9299 18.0208L15.8409 18.1908L15.7526 18.362L15.665 18.5346L15.5782 18.7085L15.4921 18.8836L15.4068 19.0601L15.3223 19.2378L15.2385 19.4168L15.1555 19.597L15.0732 19.7785L14.9917 19.9612L14.9109 20.1452L14.8309 20.3304L14.7516 20.5168L14.6731 20.7044L14.5954 20.8932L14.5184 21.0831L14.4421 21.2743L14.3667 21.4667L14.2919 21.6602L14.218 21.8549L14.1448 22.0507L14.0723 22.2477L14.0006 22.4458L13.9297 22.645L13.8595 22.8454L13.7901 23.0468L13.7214 23.2494L13.6535 23.4531L13.5864 23.6578L13.52 23.8636L13.4544 24.0705L13.3895 24.2785L13.3254 24.4875L13.2621 24.6975L13.1995 24.9086L13.1377 25.1207L13.0766 25.3339L13.0163 25.548L12.9567 25.7632L12.8831 26.0601L12.8108 26.3587L12.7398 26.6592L12.6703 26.9614L12.6021 27.2653L12.5352 27.5709L12.4697 27.8782L12.4055 28.1872L12.3427 28.4978L12.2811 28.81L12.2209 29.1238L12.162 29.4391L12.1044 29.7559L12.048 30.0743L11.993 30.3941L11.9392 30.7154L11.8866 31.0381L11.8354 31.3622L11.7853 31.6877L11.7365 32.0146L11.689 32.3427L11.6426 32.6722L11.5975 33.0029L11.5536 33.3349L11.5109 33.6682L11.4694 34.0026L11.429 34.3382L11.3898 34.675L11.3518 35.0128L11.315 35.3518L11.2793 35.6919L11.2448 36.033L11.2113 36.3751L11.1791 36.7183L11.1479 37.0624L11.1178 37.4075L11.0889 37.7534L11.061 38.1003L11.0343 38.4481L11.0086 38.7967L10.9839 39.1462L10.9604 39.4964L10.9379 39.8474L10.9164 40.1992L10.896 40.5517L10.8766 40.9049L10.8583 41.2587L10.841 41.6132L10.8246 41.9684L10.8093 42.3241L10.7949 42.6804L10.7816 43.0373L10.7692 43.3947L10.7578 43.7526L10.7473 44.1109L10.7378 44.4697L10.7293 44.829L10.7217 45.1886L10.715 45.5486L10.7092 45.909L10.7044 46.2696L10.7004 46.6306L10.6974 46.9919L10.6924 47.5484L10.6895 48.1028L10.6887 48.6552L10.6899 49.2054L10.6933 49.7535L10.6988 50.2993L10.7064 50.8429L10.7163 51.3841L10.7284 51.923L10.7427 52.4594L10.7593 52.9933L10.7783 53.5247L10.7996 54.0536L10.8233 54.5798L10.8494 55.1033L10.8779 55.6241L10.9089 56.1421L10.9423 56.6572L10.9784 57.1695L11.0169 57.6788L11.0581 58.1848L11.1019 58.6888L11.1483 59.1888L11.1974 59.6858L11.2492 60.1798L11.3037 60.6708L11.361 61.1578L11.4211 61.6418L11.484 62.1228L11.5498 62.5998L11.6185 63.0738L11.6901 63.5438L11.7646 64.0108L11.8421 64.4738L11.9226 64.9328L12.0061 65.3888L12.0927 65.8408L12.1824 66.2888L12.2752 66.7328L12.3712 67.1728L12.4703 67.6088L12.5727 68.0408L12.6783 68.4688L12.7872 68.8928L12.8994 69.3128L13.0149 69.7278L13.1338 70.1388L13.256 70.5458L13.3817 70.9488L13.5109 71.3468L13.6435 71.7398L13.7796 72.1288L13.9193 72.5128L14.0625 72.8928L14.2094 73.2678L14.3599 73.6388L14.514 74.0038L14.6718 74.3648L14.8334 74.7208L14.9987 75.0708L15.1677 75.4168L15.3406 75.7578L15.5173 76.0938L15.5916 76.2328L15.6666 76.3708L15.7421 76.5078L15.8183 76.6438L15.8951 76.7788L15.9725 76.9128L16.0505 77.0458L16.1292 77.1778L16.2084 77.3088L16.2883 77.4388L16.3687 77.5668L16.4498 77.6948L16.5315 77.8218L16.6138 77.9468L16.6967 78.0718L16.7803 78.1948L16.8644 78.3178L16.9491 78.4388L17.0344 78.5588L17.1204 78.6788L17.2069 78.7968L17.294 78.9138L17.3818 79.0298L17.4701 79.1448L17.559 79.2588L17.6485 79.3718L17.7386 79.4838L17.8293 79.5948L17.9206 79.7038L18.0125 79.8128L18.105 79.9208L18.1981 80.0268L18.2917 80.1328L18.386 80.2368L18.4808 80.3398L18.5762 80.4428L18.6722 80.5438L18.7688 80.6438L18.866 80.7428L18.9637 80.8408L19.062 80.9378L19.1609 81.0328L19.2604 81.1278L19.3604 81.2218L19.4611 81.3138L19.5623 81.4058L19.664 81.4958L19.7664 81.5848L19.8693 81.6728L19.9728 81.7608L20.0768 81.8468L20.1814 81.9318L20.2866 82.0148L20.3924 82.0978L20.4987 82.1798L20.6056 82.2598L20.713 82.3398L20.821 82.4178L20.9295 82.4948L21.0387 82.5718L21.1483 82.6468L21.2586 82.7208L21.3694 82.7928L21.4819 82.8658L21.595 82.9378L21.7087 83.0078L21.823 83.0778L21.9379 83.1458L22.0534 83.2128L22.1695 83.2788L22.2861 83.3438L22.4034 83.4068L22.5213 83.4698L22.6398 83.5308L22.7588 83.5918L22.8785 83.6508L22.9988 83.7088L23.1197 83.7648L23.2411 83.8208L23.3632 83.8758L23.4859 83.9288L23.6092 83.9808L23.7331 84.0318L23.8575 84.0818L23.9826 84.1308L24.1083 84.1778L24.2346 84.2248L24.3615 84.2698L24.4891 84.3138L24.6172 84.3568L24.7459 84.3988L24.8752 84.4388L25.0052 84.4788L25.1358 84.5168L25.2669 84.5538L25.3987 84.5898L25.5311 84.6248L25.6641 84.6578L25.7977 84.6908L25.9319 84.7218L26.0668 84.7518L26.2022 84.7808L26.3383 84.8088L26.475 84.8348L26.6123 84.8608L26.7502 84.8848L26.8887 84.9078L27.0279 84.9298L27.1677 84.9508L27.3081 84.9698L27.4491 84.9878L27.5907 85.0048L27.733 85.0208L27.8758 85.0358L28.0193 85.0498L28.1634 85.0618L28.3082 85.0728L28.4535 85.0828L28.5995 85.0918L28.7461 85.0988L28.8934 85.1058L29.0412 85.1108L29.1897 85.1148L29.3389 85.1178L29.4886 85.1188L29.639 85.1198L29.7687 85.1248L29.8982 85.1288L30.0275 85.1318L30.1565 85.1328L30.2853 85.1328L30.4139 85.1318L30.5422 85.1298L30.6703 85.1258L30.7982 85.1208L30.9258 85.1138L31.0533 85.1068L31.1804 85.0978L31.3074 85.0868L31.4341 85.0758L31.5605 85.0628L31.6868 85.0498L31.8128 85.0348L31.9386 85.0178L32.0641 85.0008L32.1894 84.9818L32.3145 84.9618L32.4394 84.9408L32.564 84.9188L32.6884 84.8958L32.8125 84.8718L32.9364 84.8458L33.0601 84.8188L33.1836 84.7918L33.3068 84.7628L33.4298 84.7328L33.5526 84.7018L33.6752 84.6698L33.7975 84.6358L33.9196 84.6018L34.0414 84.5668L34.163 84.5298L34.2844 84.4928L34.4056 84.4538L34.5266 84.4148L34.6473 84.3738L34.7677 84.3328L34.888 84.2908L35.008 84.2468L35.1278 84.2028L35.2474 84.1568L35.3667 84.1108L35.4858 84.0638L35.6047 84.0148L35.7234 83.9658L35.8418 83.9158L35.96 83.8648L36.078 83.8128L36.1958 83.7608L36.3133 83.7068L36.4306 83.6518L36.5477 83.5968L36.6645 83.5408L36.7811 83.4828L36.8975 83.4248L37.0137 83.3668L37.1296 83.3068L37.2453 83.2468L37.3608 83.1848L37.4978 83.1008L37.6342 83.0148L37.7699 82.9268L37.905 82.8368L38.0394 82.7458L38.1732 82.6518L38.3063 82.5568L38.4387 82.4608L38.5705 82.3618L38.7015 82.2618L38.8319 82.1588L38.9616 82.0558L39.0905 81.9498L39.2188 81.8418L39.3463 81.7328L39.473 81.6218L39.5991 81.5088L39.7244 81.3948L39.8489 81.2788L39.9727 81.1608L40.0957 81.0408L40.218 80.9188L40.3394 80.7958L40.4601 80.6708L40.58 80.5438L40.699 80.4148L40.8173 80.2848L40.9347 80.1528L41.0513 80.0188L41.1671 79.8828L41.282 79.7458L41.3961 79.6068L41.5094 79.4658L41.6218 79.3228L41.7333 79.1788L41.8439 79.0328L41.9537 78.8848L42.0625 78.7348L42.1705 78.5838L42.2775 78.4308L42.3837 78.2758L42.4889 78.1188L42.5932 77.9608L42.6966 77.8008L42.799 77.6388L42.9005 77.4758L43.001 77.3098L43.1006 77.1428L43.1992 76.9748L43.2968 76.8038L43.3934 76.6318L43.489 76.4578L43.5837 76.2818L43.6773 76.1048L43.7699 75.9258L43.8615 75.7448L43.9521 75.5628L44.0416 75.3778L44.1301 75.1918L44.2176 75.0048L44.304 74.8148L44.3893 74.6238L44.4736 74.4308L44.6179 74.1018L44.7591 73.7678L44.8971 73.4298L45.0321 73.0878L45.164 72.7418L45.2928 72.3918L45.4187 72.0368L45.5415 71.6788L45.6615 71.3158L45.7785 70.9498L45.8926 70.5788L46.0038 70.2048L46.1123 69.8268L46.2179 69.4458L46.3208 69.0598L46.4209 68.6708L46.5183 68.2778L46.613 67.8818L46.7051 67.4818L46.7946 67.0778L46.8815 66.6708L46.9658 66.2608L47.0475 65.8468L47.1268 65.4298L47.2036 65.0088L47.278 64.5848L47.3499 64.1578L47.4194 63.7278L47.4866 63.2948L47.5515 62.8588L47.6141 62.4188L47.6744 61.9768L47.7324 61.5308L47.7883 61.0828L47.842 60.6308L47.8935 60.1768L47.9429 59.7198L47.9903 59.2608L48.0355 58.7978L48.0787 58.3328L48.12 57.8648L48.1592 57.3947L48.1966 56.9217L48.232 56.4463L48.2655 55.9684L48.2972 55.4881L48.327 55.0054L48.3551 54.5203L48.3813 54.033L48.4059 53.5434L48.4287 53.0515L48.4499 52.5575L48.4694 52.0614L48.4873 51.5632L48.5037 51.0629L48.5184 50.5606L48.5316 50.0563L48.5434 49.5501L48.5536 49.0421L48.5625 48.5322L48.5699 48.0205L48.5759 47.507L48.5806 46.9919"/>

<path id="shape11"
  transform="matrix(0.312974273649724 -0.0684458909800483 0.0684458909800483 0.312974273649724 25.6028314657161 33.9503488668719)"
  fill="#000000" fill-rule="evenodd"
  stroke="#000000"
  stroke-width="0.07272"
  stroke-linecap="square"
  stroke-linejoin="bevel"
  d="M0.946117 0.00337626L12.969 0.00337657L28.305 27.2205L28.5199 27.2183L44.7941 0L56.1656 6.26653e-06L34.4254 32.8339L55.8101 64.8742L43.7119 64.8675L28.1588 38.9486L27.8753 38.9498L11.9599 64.8709L0 64.8709L22.0399 33.1301L22.0365 33.0435L0.946117 0.00337626"/>

<path id="shape21"
  transform="matrix(0.312227817619496 -0.0717741725757728 0.0717741725757728 0.312227817619496 52.4457668553452 19.2814970523738)"
  fill="#000000"
  fill-rule="evenodd"
  stroke="#000000"
  stroke-width="0.07272"
  stroke-linecap="square"
  stroke-linejoin="bevel"
  d="M0 0L0.00448493 90.8685L10.656 90.8651L10.6537 50.6914L43.4869 50.6857L43.4835 41.0434L10.6549 41.0445L10.6549 9.64913L46.152 9.6525L46.1509 0.00562362L0 0"/>

<path id="shape31"
  transform="matrix(0.312227817619496 -0.0717741725757728 0.0717741725757728 0.312227817619496 72.1174105144538 14.7653444323962)"
  fill="#000000"
  fill-rule="evenodd"
  stroke="#000000"
  stroke-width="0.07272"
  stroke-linecap="square"
  stroke-linejoin="bevel"
  d="M0 0L0.00448493 90.8685L10.656 90.8651L10.6537 50.6914L43.4869 50.6857L43.4835 41.0434L10.6549 41.0445L10.6549 9.64913L46.152 9.6525L46.1509 0.00562362L0 0"/>
</svg>
