<?xml version="1.0" standalone="no"?>
<!DOCTYPE svg PUBLIC "-//W3C//DTD SVG 20010904//EN" "http://www.w3.org/TR/2001/REC-SVG-20010904/DTD/svg10.dtd">

<svg xmlns="http://www.w3.org/2000/svg" 
    xmlns:xlink="http://www.w3.org/1999/xlink"
    width="509.184pt"
    height="64.584pt"
    viewBox="0 0 509.184 64.584">
<defs/>

<path id="shape1" 
  transform="matrix(1.00860760698762 0 0 1.01428811717111 3.46900205564972 9.14129474156042)" 
  fill="#afafaf" 
  stroke="#afafaf" 
  stroke-width="0.07272" 
  stroke-linecap="square" 
  stroke-linejoin="bevel" 
  d="M0 0.00225043L18.1462 45.7211L20.5222 45.7267L33.4057 14.6216L47.0846 45.7222L49.5349 45.7222L67.4629 0.0033744L59.3303 0L47.5948 31.3285L47.5168 31.3254L35.064 0.00562436L32.3314 0.00562424L19.728 31.3976L19.656 31.3931L8.13263 0.00337539L0 0.00225043"/>

<path id="shape01"
  transform="matrix(1.00860760698762 0 0 1.01428811717111 70.8646660412576 20.8286830683062)" 
  fill="#afafaf" 
  fill-rule="evenodd" 
  stroke="#afafaf" 
  stroke-width="0.07272" 
  stroke-linecap="square" 
  stroke-linejoin="bevel" 
  d="M7.8075 17.6024L38.1205 17.6024L38.1795 17.3326L38.2345 17.0654L38.2855 16.801L38.3335 16.5391L38.3775 16.28L38.4175 16.0234L38.4535 15.7695L38.4865 15.5182L38.5155 15.2694L38.5415 15.0232L38.5635 14.7796L38.5815 14.5385L38.5965 14.2999L38.6085 14.0639L38.6155 13.8303L38.6205 13.5993L38.6215 13.3707L38.6185 13.1445L38.6125 12.9208L38.6035 12.6996L38.5905 12.4807L38.5745 12.2642L38.5545 12.0502L38.5315 11.8385L38.5055 11.6291L38.4765 11.4221L38.4435 11.2175L38.4075 11.0151L38.3685 10.8151L38.3265 10.6173L38.2805 10.4218L38.2325 10.2286L38.1805 10.0376L38.1255 9.8488L38.0675 9.6622L38.0065 9.4779L37.9425 9.2957L37.8755 9.1158L37.8045 8.9379L37.7315 8.7623L37.6555 8.5887L37.5765 8.4173L37.4945 8.248L37.4095 8.0807L37.3215 7.9155L37.2315 7.7524L37.1375 7.5914L37.0415 7.4324L36.9425 7.2754L36.8405 7.1204L36.7355 6.9673L36.6285 6.8163L36.5185 6.6672L36.4055 6.5201L36.2895 6.3749L36.1715 6.2316L36.0505 6.0903L35.9275 5.9508L35.8015 5.8132L35.6725 5.6774L35.5415 5.5436L35.4085 5.4115L35.2715 5.2813L35.2035 5.2123L35.1335 5.1437L35.0635 5.0754L34.9935 5.0076L34.9225 4.9402L34.8505 4.8732L34.7785 4.8066L34.7055 4.7404L34.6325 4.6746L34.5585 4.6092L34.4845 4.5442L34.4095 4.4796L34.3345 4.4154L34.2585 4.3517L34.1815 4.2883L34.1045 4.2253L34.0275 4.1628L33.9495 4.1007L33.8705 4.039L33.7915 3.9777L33.7115 3.9168L33.6315 3.8564L33.5505 3.7964L33.4695 3.7367L33.3885 3.6776L33.3055 3.6188L33.2235 3.5605L33.1405 3.5026L33.0565 3.4451L32.9725 3.388L32.8875 3.3314L32.8025 3.2752L32.7165 3.2194L32.6305 3.1641L32.5445 3.1092L32.4575 3.0548L32.3695 3.0007L32.2815 2.9471L32.1935 2.894L32.1045 2.8413L32.0155 2.789L31.9255 2.7372L31.8355 2.6858L31.7445 2.6349L31.6535 2.5844L31.5615 2.5344L31.4695 2.4848L31.3775 2.4357L31.2845 2.387L31.1905 2.3388L31.0975 2.291L31.0025 2.2437L30.9085 2.1968L30.8135 2.1504L30.7175 2.1044L30.6215 2.0589L30.5255 2.0139L30.4285 1.9693L30.3315 1.9252L30.2335 1.8816L30.1365 1.8384L30.0375 1.7957L29.9385 1.7534L29.8235 1.7066L29.7065 1.6604L29.5905 1.6148L29.4725 1.5698L29.3545 1.5255L29.2365 1.4818L29.1175 1.4387L28.9985 1.3962L28.8785 1.3543L28.7585 1.3131L28.6375 1.2724L28.5165 1.2324L28.3945 1.193L28.2725 1.1543L28.1495 1.1161L28.0265 1.0786L27.9035 1.0417L27.7795 1.0054L27.6555 0.9698L27.5305 0.9347L27.4055 0.9003L27.2795 0.8665L27.1535 0.8333L27.0265 0.8007L26.9005 0.7688L26.7725 0.7374L26.6455 0.7067L26.5175 0.6766L26.3885 0.6472L26.2595 0.6183L26.1305 0.5901L26.0015 0.5625L25.8715 0.5355L25.7415 0.5091L25.6105 0.4833L25.4795 0.4582L25.3485 0.4337L25.2165 0.4098L25.0845 0.3865L24.9525 0.3638L24.8205 0.3418L24.6875 0.3204L24.5545 0.2995L24.4205 0.2793L24.2865 0.2598L24.1525 0.2408L24.0185 0.2225L23.8835 0.2048L23.7485 0.1876L23.6135 0.1712L23.4785 0.1553L23.3425 0.14L23.2065 0.1254L23.0705 0.1114L22.9335 0.098L22.7971 0.0852L22.6602 0.073L22.523 0.0615L22.3857 0.0506L22.2481 0.0402L22.1102 0.0305L21.9722 0.0215L21.834 0.013L21.7633 0.0125L21.6925 0.012L21.6218 0.0115L21.5511 0.011L21.4803 0.0105L21.4096 0.0099L21.3389 0.0094L21.2681 0.0088L21.1974 0.0082L21.1267 0.0077L21.0559 0.0071L20.9852 0.0065L20.9145 0.006L20.8437 0.0054L20.773 0.0049L20.7022 0.0044L20.6315 0.0038L20.5608 0.0034L20.49 0.0029L20.4193 0.0025L20.3486 0.002L20.2778 0.0017L20.2071 0.0013L20.1364 0.001L20.0656 0.0007L19.9949 0.0005L19.9242 0.0003L19.8534 0.0001L19.7827 0L19.712 0L19.6412 0L19.5705 0.0001L19.4998 0.0002L19.429 0.0004L19.3583 0.0006L19.2875 0.0009L19.2168 0.0013L19.1461 0.0018L19.0753 0.0023L19.0046 0.0029L18.9339 0.0036L18.8631 0.0043L18.7924 0.0052L18.7217 0.0061L18.6509 0.0071L18.5802 0.0082L18.5095 0.0095L18.4387 0.0108L18.368 0.0122L18.2973 0.0137L18.2265 0.0153L18.1558 0.017L18.0851 0.0189L18.0143 0.0208L17.9436 0.0229L17.8729 0.0251L17.8021 0.0274L17.7314 0.0298L17.592 0.0421L17.4534 0.0551L17.3155 0.0688L17.1783 0.0832L17.0418 0.0983L16.906 0.1141L16.771 0.1306L16.6366 0.1477L16.503 0.1656L16.37 0.1841L16.2377 0.2032L16.1061 0.223L15.9752 0.2435L15.8449 0.2646L15.7153 0.2863L15.5863 0.3087L15.458 0.3318L15.3304 0.3554L15.2034 0.3797L15.077 0.4046L14.9512 0.4301L14.8261 0.4563L14.7016 0.483L14.5777 0.5104L14.4544 0.5383L14.3317 0.5668L14.2096 0.5959L14.0881 0.6256L13.9671 0.6559L13.8468 0.6868L13.727 0.7182L13.6078 0.7502L13.4891 0.7827L13.371 0.8158L13.2535 0.8494L13.1365 0.8836L13.02 0.9184L12.9041 0.9536L12.7887 0.9894L12.6738 1.0257L12.5595 1.0626L12.4456 1.0999L12.3323 1.1378L12.2194 1.1762L12.1071 1.2151L11.9952 1.2544L11.8839 1.2943L11.773 1.3347L11.6625 1.3755L11.5526 1.4168L11.4431 1.4586L11.334 1.5009L11.2254 1.5436L11.1173 1.5868L11.0096 1.6304L10.9023 1.6745L10.7955 1.719L10.6891 1.764L10.583 1.8094L10.4774 1.8553L10.3723 1.9015L10.2675 1.9482L10.1631 1.9953L10.075 2.0352L9.9873 2.0754L9.9 2.1162L9.8131 2.1573L9.7265 2.1989L9.6404 2.2409L9.5546 2.2834L9.4692 2.3262L9.3842 2.3695L9.2995 2.4132L9.2152 2.4573L9.1313 2.5017L9.0477 2.5466L8.9645 2.5919L8.8817 2.6375L8.7992 2.6836L8.717 2.73L8.6352 2.7768L8.5537 2.8239L8.4726 2.8714L8.3918 2.9193L8.3114 2.9675L8.2312 3.0161L8.1514 3.065L8.072 3.1142L7.9928 3.1638L7.914 3.2137L7.8355 3.2639L7.7573 3.3145L7.6794 3.3653L7.6019 3.4165L7.5246 3.468L7.4477 3.5197L7.371 3.5718L7.2946 3.6242L7.2186 3.6768L7.1428 3.7297L7.0673 3.7829L6.9921 3.8364L6.9172 3.8901L6.8426 3.9441L6.7682 3.9984L6.6942 4.0529L6.6204 4.1077L6.5468 4.1627L6.4735 4.2179L6.4005 4.2734L6.3278 4.3291L6.2553 4.385L6.1831 4.4412L6.1111 4.4975L6.0394 4.5541L5.9679 4.6109L5.8966 4.6678L5.8256 4.725L5.7549 4.7824L5.6844 4.8399L5.6141 4.8977L5.544 4.9556L5.4742 5.0137L5.4046 5.0719L5.3352 5.1303L5.266 5.1889L5.1627 5.2839L5.0604 5.3793L4.959 5.4753L4.8586 5.5718L4.7592 5.6688L4.6607 5.7665L4.5632 5.8647L4.4666 5.9635L4.371 6.0629L4.2763 6.163L4.1826 6.2637L4.0898 6.3651L3.9979 6.4671L3.907 6.5699L3.8169 6.6735L3.7278 6.7777L3.6396 6.8827L3.5523 6.9885L3.4659 7.0951L3.3804 7.2025L3.2958 7.3108L3.2121 7.4199L3.1293 7.5298L3.0474 7.6407L2.9663 7.7524L2.8861 7.8651L2.8068 7.9787L2.7284 8.0932L2.6508 8.2087L2.574 8.3252L2.4982 8.4428L2.4232 8.5613L2.349 8.6809L2.2756 8.8015L2.2031 8.9233L2.1315 9.0461L2.0606 9.17L1.9906 9.2951L1.9214 9.4213L1.8531 9.5487L1.7855 9.6772L1.7187 9.807L1.6528 9.938L1.5876 10.0702L1.5233 10.2036L1.4597 10.3384L1.397 10.4744L1.335 10.6117L1.2737 10.7504L1.2133 10.8904L1.1536 11.0318L1.0947 11.1745L1.0366 11.3186L0.9792 11.4642L0.9226 11.6111L0.8667 11.7595L0.8116 11.9094L0.7572 12.0608L0.7035 12.2136L0.6506 12.368L0.5984 12.5239L0.5469 12.6814L0.4962 12.8404L0.4811 12.9035L0.4662 12.9668L0.4515 13.0304L0.4369 13.0943L0.4226 13.1584L0.4085 13.2227L0.3946 13.2874L0.3809 13.3522L0.3675 13.4174L0.3542 13.4827L0.3411 13.5484L0.3283 13.6143L0.3157 13.6804L0.3033 13.7468L0.2911 13.8134L0.2792 13.8803L0.2675 13.9474L0.256 14.0148L0.2447 14.0824L0.2337 14.1503L0.2229 14.2184L0.2124 14.2868L0.2021 14.3554L0.192 14.4242L0.1822 14.4933L0.1727 14.5626L0.1633 14.6321L0.1543 14.7019L0.1454 14.7719L0.1369 14.8422L0.1286 14.9127L0.1205 14.9834L0.1128 15.0543L0.1052 15.1255L0.098 15.1969L0.091 15.2686L0.0843 15.3404L0.0778 15.4125L0.0717 15.4849L0.0658 15.5574L0.0602 15.6302L0.0548 15.7032L0.0498 15.7764L0.045 15.8498L0.0405 15.9235L0.0363 15.9974L0.0324 16.0715L0.0288 16.1458L0.0255 16.2203L0.0225 16.295L0.0198 16.37L0.0174 16.4452L0.0153 16.5206L0.0135 16.5962L0.012 16.672L0.0108 16.748L0.0099 16.8242L0.0093 16.9007L0 18.1615L0.0024 18.2611L0.0054 18.3604L0.0089 18.4594L0.0131 18.558L0.0178 18.6562L0.0232 18.7542L0.0291 18.8517L0.0355 18.949L0.0426 19.0459L0.0502 19.1424L0.0584 19.2386L0.0671 19.3345L0.0764 19.43L0.0863 19.5252L0.0967 19.62L0.1077 19.7145L0.1192 19.8087L0.1312 19.9025L0.1439 19.996L0.157 20.0892L0.1707 20.182L0.1849 20.2744L0.1997 20.3666L0.215 20.4584L0.2308 20.5498L0.2471 20.6409L0.264 20.7317L0.2814 20.8221L0.2993 20.9122L0.3177 21.002L0.3366 21.0914L0.356 21.1805L0.3759 21.2693L0.3964 21.3577L0.4173 21.4458L0.4387 21.5335L0.4607 21.6209L0.4831 21.708L0.506 21.7948L0.5293 21.8812L0.5532 21.9672L0.5776 22.053L0.6024 22.1384L0.6277 22.2235L0.6534 22.3082L0.6797 22.3926L0.7064 22.4767L0.7335 22.5604L0.7611 22.6438L0.7892 22.7269L0.8177 22.8096L0.8467 22.892L0.8762 22.9741L0.906 23.0558L0.9364 23.1373L0.9671 23.2183L0.9983 23.2991L1.0299 23.3795L1.062 23.4596L1.0945 23.5393L1.1274 23.6188L1.1607 23.6979L1.1945 23.7766L1.2987 24.018L1.4071 24.2563L1.5195 24.4915L1.636 24.7236L1.7564 24.9527L1.8805 25.1787L2.0084 25.4016L2.14 25.6215L2.275 25.8383L2.4136 26.0521L2.5554 26.2629L2.7006 26.4706L2.849 26.6753L3.0004 26.877L3.1549 27.0757L3.3122 27.2713L3.4724 27.4639L3.6353 27.6535L3.8009 27.8401L3.969 28.0238L4.1396 28.2044L4.3126 28.382L4.4878 28.5566L4.6653 28.7283L4.8448 28.897L5.0264 29.0627L5.2099 29.2255L5.3952 29.3852L5.5823 29.5421L5.771 29.6959L5.9613 29.8469L6.1531 29.9948L6.3463 30.1399L6.5408 30.282L6.7364 30.4211L6.9332 30.5574L7.131 30.6907L7.3298 30.8211L7.5294 30.9485L7.7298 31.0731L7.9308 31.1948L8.1324 31.3135L8.3345 31.4294L8.537 31.5424L8.7398 31.6525L8.9429 31.7597L9.146 31.864L9.3492 31.9654L9.5524 32.064L9.7554 32.1597L9.9582 32.2526L10.1606 32.3426L10.3627 32.4297L10.5642 32.514L10.7652 32.5954L10.9655 32.6741L11.165 32.7498L11.3637 32.8228L11.5614 32.8929L11.7581 32.9602L11.9536 33.0247L12.1479 33.0863L12.341 33.1452L12.5502 33.2037L12.7613 33.2605L12.9743 33.3156L13.1892 33.3691L13.4059 33.421L13.6243 33.4712L13.8444 33.5197L14.0663 33.5665L14.2897 33.6116L14.5147 33.6551L14.7413 33.6968L14.9694 33.7369L15.199 33.7752L15.4299 33.8118L15.6623 33.8468L15.896 33.8799L16.131 33.9114L16.3672 33.9411L16.6047 33.9691L16.8433 33.9953L17.083 34.0198L17.3239 34.0425L17.5657 34.0635L17.8086 34.0827L18.0524 34.1001L18.2972 34.1157L18.5428 34.1296L18.7893 34.1416L19.0365 34.1519L19.2845 34.1604L19.5332 34.167L19.7825 34.1718L20.0325 34.1749L20.2831 34.1761L20.5342 34.1754L20.7858 34.173L21.0378 34.1686L21.2903 34.1625L21.5431 34.1545L21.7963 34.1446L22.0497 34.1329L22.3034 34.1192L22.5572 34.1038L22.8113 34.0864L23.0655 34.0672L23.3195 34.046L23.5735 34.023L23.8285 33.998L24.0825 33.9712L24.3365 33.9424L24.5905 33.9117L24.8445 33.8791L25.0975 33.8446L25.3515 33.8081L25.6045 33.7697L25.8565 33.7293L26.1085 33.687L26.3605 33.6427L26.6125 33.5965L26.8635 33.5483L27.1135 33.4981L27.3625 33.4459L27.6125 33.3918L27.7625 33.353L27.9125 33.3145L28.0605 33.2761L28.2075 33.2378L28.3535 33.1997L28.4975 33.1616L28.6405 33.1237L28.7825 33.0858L28.9235 33.0479L29.0625 33.0101L29.2005 32.9722L29.3365 32.9344L29.4725 32.8965L29.6065 32.8586L29.7395 32.8206L29.8715 32.7825L30.0015 32.7443L30.1315 32.706L30.2595 32.6676L30.3865 32.629L30.5115 32.5902L30.6365 32.5512L30.7595 32.512L30.8815 32.4726L31.0025 32.4329L31.1225 32.3929L31.2415 32.3526L31.3585 32.3121L31.4755 32.2712L31.5905 32.2299L31.7045 32.1883L31.8175 32.1463L31.9295 32.1039L32.0405 32.0611L32.1495 32.0179L32.2585 31.9742L32.3655 31.93L32.4725 31.8853L32.5775 31.8401L32.6825 31.7944L32.7855 31.7481L32.8875 31.7012L32.9885 31.6538L33.0885 31.6058L33.1875 31.5571L33.2855 31.5078L33.3835 31.4578L33.4795 31.4072L33.5745 31.3558L33.6685 31.3037L33.7615 31.2509L33.8535 31.1974L33.9445 31.143L34.0345 31.0879L34.1245 31.0319L34.2125 30.9752L34.2995 30.9176L34.3865 30.8591L34.4715 30.7997L34.5565 30.7394L34.6395 30.6782L34.7225 30.6161L34.8045 30.553L31.7085 26.3886L31.5845 26.4651L31.4615 26.5405L31.3375 26.6148L31.2135 26.6881L31.0905 26.7602L30.9665 26.8313L30.8415 26.9013L30.7175 26.9703L30.5935 27.0381L30.4685 27.1049L30.3445 27.1707L30.2195 27.2353L30.0945 27.2989L29.9695 27.3614L29.8445 27.4228L29.7195 27.4831L29.5935 27.5424L29.4685 27.6006L29.3425 27.6577L29.2175 27.7138L29.0915 27.7687L28.9655 27.8226L28.8395 27.8754L28.7125 27.9272L28.5865 27.9779L28.4595 28.0275L28.3335 28.076L28.2065 28.1234L28.0795 28.1698L27.9525 28.2151L27.8255 28.2593L27.6985 28.3024L27.5715 28.3445L27.4435 28.3855L27.3155 28.4254L27.1885 28.4643L27.0605 28.502L26.9325 28.5387L26.8045 28.5744L26.6755 28.6089L26.5475 28.6424L26.4195 28.6748L26.2905 28.7061L26.1615 28.7363L26.0325 28.7655L25.9035 28.7936L25.7745 28.8206L25.6455 28.8466L25.5165 28.8714L25.3865 28.8952L25.2565 28.9179L25.1275 28.9396L24.9975 28.9602L24.8675 28.9797L24.7375 28.9981L24.6065 29.0154L24.4765 29.0317L24.3465 29.0469L24.2155 29.061L24.0845 29.0741L23.9535 29.086L23.8225 29.0969L23.6915 29.1067L23.6005 29.1202L23.5085 29.1332L23.4175 29.1457L23.3265 29.1577L23.2355 29.1694L23.1435 29.1805L23.0525 29.1912L22.9615 29.2014L22.8708 29.2112L22.7798 29.2205L22.689 29.2293L22.5982 29.2377L22.5075 29.2457L22.4168 29.2531L22.3262 29.2602L22.2357 29.2667L22.1452 29.2728L22.0548 29.2785L21.9644 29.2836L21.8741 29.2884L21.7839 29.2926L21.6938 29.2964L21.6037 29.2998L21.5136 29.3026L21.4236 29.3051L21.3337 29.307L21.2439 29.3085L21.1541 29.3096L21.0643 29.3102L20.9747 29.3103L20.8851 29.31L20.7955 29.3092L20.706 29.3079L20.6166 29.3062L20.5273 29.3041L20.438 29.3014L20.3487 29.2984L20.2596 29.2948L20.1705 29.2908L20.0814 29.2864L19.9924 29.2814L19.9035 29.2761L19.8146 29.2702L19.7258 29.2639L19.6371 29.2572L19.5484 29.25L19.4598 29.2423L19.3713 29.2342L19.2828 29.2256L19.1944 29.2165L19.106 29.207L19.0177 29.197L18.9295 29.1866L18.8413 29.1757L18.7532 29.1644L18.6651 29.1526L18.5771 29.1403L18.4892 29.1276L18.4013 29.1144L18.3135 29.1008L18.2258 29.0867L18.1381 29.0721L18.0505 29.0571L17.9733 29.0434L17.8961 29.0293L17.819 29.0149L17.7419 29.0001L17.6649 28.9849L17.588 28.9694L17.5111 28.9536L17.4344 28.9373L17.3576 28.9207L17.281 28.9038L17.2044 28.8865L17.1278 28.8688L17.0513 28.8508L16.9749 28.8324L16.8986 28.8137L16.8223 28.7946L16.7461 28.7752L16.6699 28.7553L16.5938 28.7352L16.5178 28.7146L16.4419 28.6937L16.366 28.6725L16.2901 28.6509L16.2144 28.6289L16.1386 28.6066L16.063 28.5839L15.9874 28.5609L15.9119 28.5375L15.8365 28.5137L15.7611 28.4896L15.6857 28.4651L15.6105 28.4403L15.5353 28.4151L15.4602 28.3896L15.3851 28.3636L15.3101 28.3374L15.2352 28.3107L15.1603 28.2838L15.0855 28.2564L15.0107 28.2287L14.936 28.2007L14.8614 28.1722L14.7869 28.1435L14.7124 28.1143L14.6379 28.0848L14.5636 28.055L14.4893 28.0247L14.415 27.9942L14.3409 27.9632L14.2668 27.932L14.1927 27.9003L14.1187 27.8683L14.0448 27.8359L13.971 27.8032L13.8972 27.7701L13.8235 27.7367L13.7498 27.7029L13.6762 27.6687L13.6027 27.6342L13.5292 27.5993L13.4558 27.5641L13.3825 27.5285L13.3092 27.4925L13.2012 27.4308L13.0944 27.3683L12.9886 27.3051L12.8838 27.2412L12.7802 27.1766L12.6776 27.1113L12.576 27.0452L12.4756 26.9785L12.3762 26.911L12.2779 26.8428L12.1806 26.774L12.0845 26.7044L11.9893 26.634L11.8953 26.563L11.8023 26.4913L11.7104 26.4189L11.6196 26.3457L11.5298 26.2718L11.4411 26.1973L11.3535 26.122L11.267 26.046L11.1815 25.9693L11.0971 25.8919L11.0137 25.8137L10.9315 25.7349L10.8502 25.6553L10.7701 25.5751L10.691 25.4941L10.613 25.4124L10.5361 25.33L10.4603 25.2469L10.3855 25.1631L10.3117 25.0785L10.2391 24.9933L10.1675 24.9073L10.097 24.8206L10.0276 24.7333L9.9592 24.6452L9.8919 24.5564L9.8256 24.4669L9.7605 24.3766L9.6964 24.2857L9.6334 24.194L9.5714 24.1017L9.5105 24.0086L9.4507 23.9148L9.3919 23.8203L9.3343 23.7251L9.2777 23.6292L9.2221 23.5326L9.1676 23.4352L9.1142 23.3372L9.0619 23.2384L9.0106 23.1389L8.9605 23.0387L8.9113 22.9378L8.8633 22.8362L8.8163 22.7339L8.7704 22.6309L8.7255 22.5271L8.6818 22.4227L8.639 22.3175L8.5974 22.2116L8.5699 22.145L8.5429 22.0782L8.5164 22.0111L8.4903 21.9438L8.4648 21.8764L8.4397 21.8087L8.4151 21.7408L8.391 21.6727L8.3673 21.6044L8.3442 21.5359L8.3215 21.4671L8.2993 21.3982L8.2776 21.329L8.2564 21.2596L8.2357 21.1901L8.2154 21.1203L8.1956 21.0503L8.1764 20.9801L8.1575 20.9096L8.1392 20.839L8.1214 20.7682L8.104 20.6971L8.0871 20.6258L8.0707 20.5544L8.0548 20.4827L8.0394 20.4108L8.0244 20.3387L8.01 20.2664L7.996 20.1938L7.9825 20.1211L7.9695 20.0481L7.9569 19.975L7.9449 19.9016L7.9333 19.828L7.9222 19.7542L7.9116 19.6802L7.9015 19.606L7.8918 19.5316L7.8827 19.4569L7.874 19.3821L7.8658 19.307L7.8581 19.2317L7.8508 19.1563L7.8441 19.0806L7.8378 19.0047L7.832 18.9286L7.8267 18.8522L7.8219 18.7757L7.8176 18.6989L7.8137 18.622L7.8103 18.5448L7.8075 18.4674L7.805 18.3899L7.8031 18.3121L7.8017 18.234L7.8007 18.1558L7.8002 18.0774L7.8002 17.9987L7.8007 17.9199L7.8017 17.8408L7.8031 17.7616L7.8051 17.6821L7.8075 17.6024M8.0216 13.4005L31.2795 13.4241L31.2805 13.3393L31.2795 13.2552L31.2785 13.1717L31.2765 13.0889L31.2735 13.0068L31.2695 12.9253L31.2645 12.8445L31.2585 12.7644L31.2525 12.6849L31.2445 12.606L31.2365 12.5278L31.2285 12.4502L31.2185 12.3733L31.2085 12.297L31.1975 12.2213L31.1855 12.1462L31.1735 12.0718L31.1605 11.9979L31.1465 11.9247L31.1325 11.8521L31.1175 11.7801L31.1025 11.7086L31.0865 11.6378L31.0705 11.5676L31.0535 11.4979L31.0355 11.4288L31.0175 11.3603L30.9995 11.2924L30.9805 11.225L30.9605 11.1582L30.9415 11.092L30.9215 11.0263L30.9005 10.9612L30.8795 10.8966L30.8585 10.8326L30.8365 10.7691L30.8155 10.7061L30.7935 10.6437L30.7705 10.5818L30.7485 10.5204L30.7255 10.4596L30.7025 10.3992L30.6785 10.3394L30.6055 10.2046L30.5315 10.0722L30.4565 9.9422L30.3815 9.8146L30.3045 9.6892L30.2275 9.5662L30.1505 9.4455L30.0715 9.327L29.9925 9.2108L29.9125 9.0967L29.8325 8.9849L29.7515 8.8752L29.6695 8.7677L29.5865 8.6622L29.5035 8.5589L29.4195 8.4576L29.3345 8.3584L29.2495 8.2612L29.1635 8.166L29.0775 8.0727L28.9905 7.9815L28.9025 7.8921L28.8145 7.8046L28.7255 7.719L28.6365 7.6353L28.5465 7.5534L28.4565 7.4733L28.3655 7.395L28.2735 7.3184L28.1815 7.2436L28.0885 7.1705L27.9955 7.0991L27.9015 7.0293L27.8075 6.9612L27.7125 6.8947L27.6175 6.8298L27.5215 6.7664L27.4255 6.7046L27.3295 6.6443L27.2325 6.5855L27.1345 6.5282L27.0365 6.4723L26.9385 6.4179L26.8395 6.3649L26.7405 6.3132L26.6405 6.2629L26.5405 6.2139L26.4405 6.1662L26.3395 6.1198L26.2385 6.0747L26.1365 6.0308L26.0345 5.9881L25.9325 5.9465L25.8305 5.9062L25.7275 5.867L25.6235 5.8289L25.5205 5.7919L25.4165 5.7559L25.3125 5.721L25.2085 5.6872L25.1035 5.6543L24.9985 5.6224L24.8935 5.5914L24.8215 5.5704L24.7495 5.5496L24.6785 5.5291L24.6065 5.5088L24.5345 5.4888L24.4625 5.469L24.3905 5.4495L24.3185 5.4302L24.2465 5.4113L24.1745 5.3925L24.1025 5.3741L24.0305 5.3559L23.9585 5.3381L23.8855 5.3205L23.8135 5.3031L23.7415 5.2861L23.6695 5.2694L23.5975 5.2529L23.5255 5.2368L23.4535 5.2209L23.3815 5.2054L23.3095 5.1901L23.2375 5.1752L23.1655 5.1606L23.0935 5.1463L23.0225 5.1323L22.9505 5.1186L22.8794 5.1053L22.8081 5.0923L22.7369 5.0796L22.6659 5.0672L22.595 5.0552L22.5242 5.0435L22.4536 5.0322L22.3832 5.0212L22.3129 5.0106L22.2428 5.0003L22.1729 4.9904L22.1031 4.9808L22.0336 4.9716L21.9643 4.9628L21.8952 4.9543L21.8263 4.9462L21.7577 4.9385L21.6892 4.9312L21.6211 4.9242L21.5532 4.9176L21.4855 4.9114L21.4181 4.9056L21.351 4.9002L21.2842 4.8952L21.2177 4.8906L21.1515 4.8863L21.0856 4.8825L21.02 4.8791L20.9471 4.8786L20.8743 4.8781L20.8014 4.8774L20.7286 4.8768L20.6557 4.876L20.5829 4.8753L20.51 4.8745L20.4372 4.8737L20.3643 4.873L20.2915 4.8722L20.2186 4.8716L20.1458 4.8709L20.0729 4.8704L20.0001 4.8699L19.9272 4.8695L19.8544 4.8692L19.7815 4.8691L19.7087 4.8691L19.6358 4.8692L19.563 4.8695L19.4901 4.87L19.4173 4.8707L19.3444 4.8716L19.2716 4.8727L19.1987 4.8741L19.1259 4.8756L19.053 4.8775L18.8955 4.8909L18.739 4.9054L18.5836 4.921L18.4292 4.9377L18.2758 4.9554L18.1235 4.9741L17.9722 4.994L17.8219 5.0149L17.6727 5.0369L17.5245 5.0599L17.3773 5.0841L17.2312 5.1092L17.0861 5.1355L16.942 5.1628L16.799 5.1912L16.657 5.2207L16.516 5.2512L16.3761 5.2828L16.2372 5.3155L16.0993 5.3492L15.9625 5.384L15.8266 5.4199L15.6919 5.4568L15.5581 5.4948L15.4254 5.5339L15.2938 5.574L15.1631 5.6152L15.0335 5.6575L14.9049 5.7009L14.7774 5.7453L14.6509 5.7907L14.5254 5.8373L14.401 5.8849L14.2776 5.9336L14.1552 5.9834L14.0339 6.0342L13.9136 6.0861L13.7943 6.139L13.676 6.1931L13.5588 6.2482L13.4427 6.3043L13.3275 6.3616L13.2134 6.4199L13.1003 6.4792L12.9883 6.5397L12.8773 6.6012L12.7673 6.6637L12.6584 6.7274L12.5504 6.7921L12.4436 6.8579L12.3377 6.9247L12.2329 6.9926L12.1291 7.0616L12.0264 7.1317L11.9247 7.2028L11.824 7.275L11.7244 7.3482L11.6257 7.4225L11.5282 7.4979L11.4316 7.5744L11.3361 7.6519L11.2416 7.7305L11.1482 7.8102L11.0592 7.8849L10.9715 7.9601L10.8851 8.0357L10.7999 8.1118L10.716 8.1883L10.6333 8.2652L10.552 8.3427L10.4719 8.4205L10.3931 8.4989L10.3155 8.5777L10.2392 8.6569L10.1642 8.7366L10.0905 8.8167L10.018 8.8973L9.9468 8.9784L9.8768 9.0599L9.8082 9.1418L9.7408 9.2242L9.6746 9.3071L9.6098 9.3904L9.5462 9.4741L9.4839 9.5583L9.4228 9.643L9.363 9.7281L9.3045 9.8137L9.2473 9.8997L9.1913 9.9862L9.1366 10.0731L9.0831 10.1605L9.031 10.2483L8.9801 10.3366L8.9304 10.4253L8.8821 10.5145L8.835 10.6042L8.7892 10.6942L8.7446 10.7848L8.7013 10.8758L8.6593 10.9672L8.6186 11.0591L8.5791 11.1515L8.5409 11.2443L8.504 11.3376L8.4683 11.4313L8.4339 11.5254L8.4008 11.62L8.3689 11.7151L8.3383 11.8106L8.309 11.9066L8.281 12.003L8.2542 12.0999L8.2287 12.1972L8.2044 12.295L8.1815 12.3933L8.1598 12.4919L8.1393 12.5911L8.1202 12.6907L8.1023 12.7907L8.0857 12.8912L8.0703 12.9922L8.0562 13.0936L8.0434 13.1954L8.0318 13.2977L8.0216 13.4005"/>

<path id="shape02" 
transform="matrix(1.00860760126852 0 0 1.01428811141979 117.516293940017 7.71723410950999)"
  fill="#afafaf" 
  fill-rule="evenodd" 
  stroke="#afafaf" 
  stroke-width="0.072" 
  stroke-linecap="square" 
  stroke-linejoin="bevel" 
  d="M0.003 0.00113L0 47.0824L3.745 47.0903L6.373 44.1327L6.47 44.2052L6.568 44.2769L6.667 44.3478L6.767 44.4178L6.869 44.487L6.971 44.5553L7.074 44.6227L7.177 44.6892L7.282 44.7549L7.388 44.8197L7.495 44.8835L7.602 44.9466L7.71 45.0087L7.82 45.0699L7.93 45.1303L8.041 45.1898L8.153 45.2482L8.265 45.306L8.379 45.3627L8.493 45.4186L8.608 45.4734L8.724 45.5275L8.841 45.5806L8.958 45.6328L9.077 45.684L9.196 45.7343L9.315 45.7839L9.436 45.8324L9.557 45.8799L9.679 45.9265L9.802 45.9721L9.925 46.017L10.049 46.0607L10.174 46.1035L10.299 46.1455L10.425 46.1864L10.552 46.2264L10.679 46.2655L10.807 46.3035L10.936 46.3406L11.065 46.3768L11.195 46.412L11.326 46.446L11.457 46.4794L11.588 46.5115L11.72 46.5429L11.853 46.5731L11.987 46.6024L12.12 46.6307L12.255 46.6579L12.39 46.6842L12.525 46.7096L12.661 46.7339L12.798 46.7572L12.934 46.7795L13.072 46.8008L13.21 46.821L13.348 46.8403L13.487 46.8586L13.626 46.8758L13.766 46.892L13.906 46.9071L14.046 46.9213L14.157 46.9336L14.268 46.9456L14.379 46.9571L14.49 46.9681L14.601 46.9788L14.712 46.9888L14.823 46.9987L14.934 47.008L15.045 47.0168L15.157 47.0252L15.268 47.0331L15.379 47.0406L15.49 47.0478L15.602 47.0543L15.713 47.0605L15.824 47.0663L15.936 47.0716L16.047 47.0764L16.158 47.0808L16.27 47.0847L16.381 47.0881L16.493 47.0911L16.604 47.0936L16.715 47.0956L16.827 47.0971L16.938 47.0984L17.049 47.099L17.16 47.0992L17.272 47.099L17.383 47.0982L17.494 47.0969L17.605 47.0953L17.716 47.0932L17.828 47.0905L17.939 47.0874L18.05 47.0838L18.161 47.0798L18.272 47.0752L18.382 47.0702L18.493 47.0647L18.604 47.0587L18.715 47.0522L18.825 47.0453L18.936 47.0378L19.046 47.0299L19.157 47.0215L19.267 47.0126L19.377 47.0032L19.488 46.9933L19.598 46.9828L19.708 46.9719L19.818 46.9606L19.927 46.9487L20.037 46.9364L20.147 46.9235L20.256 46.9101L20.366 46.8961L20.475 46.8818L20.584 46.8668L20.693 46.8514L20.802 46.8356L20.911 46.8192L21.02 46.8023L21.159 46.7837L21.298 46.7643L21.437 46.744L21.576 46.723L21.714 46.7011L21.851 46.6782L21.989 46.6547L22.126 46.6303L22.262 46.6052L22.398 46.5791L22.534 46.5523L22.67 46.5246L22.805 46.496L22.939 46.4666L23.074 46.4364L23.207 46.4053L23.341 46.3734L23.474 46.3407L23.606 46.307L23.738 46.2726L23.87 46.2373L24.001 46.2011L24.132 46.1641L24.263 46.1262L24.393 46.0874L24.522 46.0478L24.651 46.0072L24.78 45.9659L24.908 45.9238L25.036 45.8807L25.163 45.8368L25.29 45.7919L25.416 45.7463L25.542 45.6998L25.667 45.6523L25.792 45.604L25.917 45.5547L26.041 45.5048L26.164 45.4537L26.287 45.4019L26.409 45.3492L26.531 45.2955L26.652 45.2411L26.773 45.1857L26.894 45.1294L27.013 45.0722L27.133 45.0142L27.251 44.9552L27.37 44.8953L27.487 44.8345L27.604 44.7728L27.721 44.7101L27.837 44.6467L27.952 44.5823L28.067 44.517L28.182 44.4507L28.295 44.3835L28.409 44.3154L28.521 44.2465L28.633 44.1765L28.745 44.1058L28.856 44.034L28.966 43.9612L29.11 43.8739L29.253 43.7848L29.396 43.6941L29.537 43.6016L29.677 43.5076L29.817 43.412L29.955 43.3146L30.092 43.2157L30.229 43.1151L30.364 43.0128L30.498 42.9089L30.631 42.8034L30.763 42.6962L30.894 42.5875L31.024 42.4772L31.153 42.3651L31.281 42.2514L31.407 42.1363L31.532 42.0194L31.656 41.901L31.779 41.7809L31.901 41.6593L32.021 41.5359L32.14 41.4111L32.258 41.2846L32.375 41.1566L32.49 41.0269L32.604 40.8957L32.717 40.7629L32.828 40.6285L32.938 40.4925L33.047 40.3548L33.154 40.2157L33.26 40.075L33.365 39.9327L33.468 39.7889L33.57 39.6434L33.67 39.4963L33.769 39.3479L33.866 39.1977L33.962 39.0461L34.057 38.8929L34.149 38.7381L34.241 38.5817L34.331 38.4239L34.419 38.2645L34.506 38.1035L34.591 37.9411L34.674 37.7769L34.756 37.6115L34.836 37.4444L34.915 37.2758L34.992 37.1056L35.067 36.934L35.141 36.7608L35.213 36.5861L35.283 36.4098L35.352 36.2322L35.418 36.0528L35.484 35.8722L35.547 35.6898L35.608 35.5062L35.668 35.321L35.69 35.2516L35.712 35.182L35.733 35.1121L35.755 35.0421L35.776 34.9719L35.796 34.9015L35.817 34.8308L35.837 34.7599L35.857 34.6887L35.877 34.6174L35.896 34.5459L35.915 34.4741L35.934 34.4019L35.953 34.3298L35.971 34.2572L35.989 34.1847L36.007 34.1118L36.024 34.0386L36.042 33.9653L36.059 33.8916L36.075 33.8178L36.092 33.7439L36.108 33.6696L36.123 33.5952L36.139 33.5205L36.154 33.4455L36.169 33.3704L36.184 33.295L36.198 33.2193L36.212 33.1436L36.226 33.0676L36.24 32.9913L36.253 32.9148L36.266 32.8381L36.278 32.7612L36.291 32.684L36.303 32.6065L36.315 32.529L36.326 32.4511L36.337 32.373L36.348 32.2948L36.359 32.2161L36.369 32.1375L36.379 32.0585L36.388 31.9793L36.398 31.8999L36.407 31.8202L36.416 31.7403L36.424 31.6602L36.432 31.5799L36.44 31.4993L36.448 31.4184L36.455 31.3375L36.462 31.2563L36.468 31.1748L36.475 31.0931L36.48 31.0112L36.486 30.929L36.491 30.8466L36.496 30.764L36.501 30.681L36.506 30.5981L36.51 30.5147L36.506 28.4368L36.473 28.0976L36.435 27.7637L36.392 27.4352L36.344 27.112L36.293 26.794L36.236 26.4813L36.176 26.1738L36.111 25.8713L36.042 25.5739L35.969 25.2814L35.892 24.9941L35.81 24.7114L35.725 24.4337L35.637 24.1606L35.544 23.8924L35.448 23.6288L35.348 23.3698L35.245 23.1153L35.138 22.8653L35.028 22.6198L34.915 22.3787L34.799 22.1418L34.679 21.9094L34.557 21.681L34.431 21.4569L34.303 21.2368L34.172 21.0209L34.038 20.8088L33.901 20.6009L33.762 20.3967L33.62 20.1964L33.476 19.9999L33.33 19.807L33.181 19.6178L33.03 19.4323L32.877 19.2503L32.722 19.072L32.565 18.8969L32.406 18.7253L32.245 18.557L32.082 18.392L31.918 18.2302L31.752 18.0716L31.585 17.916L31.416 17.7636L31.246 17.6142L31.074 17.4678L30.902 17.3242L30.728 17.1833L30.553 17.0455L30.377 16.9102L30.201 16.7777L30.023 16.6478L29.845 16.5204L29.666 16.3956L29.486 16.2732L29.306 16.1532L29.125 16.0354L28.944 15.9201L28.763 15.8069L28.582 15.6961L28.4 15.5871L28.218 15.4804L27.989 15.3613L27.758 15.2452L27.527 15.1321L27.295 15.0219L27.062 14.9147L26.828 14.8107L26.594 14.7093L26.359 14.6112L26.124 14.5157L25.887 14.4233L25.651 14.3338L25.414 14.247L25.176 14.1632L24.938 14.0823L24.7 14.0042L24.461 13.9288L24.222 13.8564L23.983 13.7866L23.743 13.7197L23.503 13.6555L23.264 13.5943L23.024 13.5355L22.784 13.4797L22.543 13.4265L22.303 13.376L22.063 13.3281L21.823 13.283L21.583 13.2405L21.344 13.2007L21.104 13.1633L20.865 13.1287L20.626 13.0967L20.387 13.0673L20.149 13.0406L19.911 13.0163L19.673 12.9945L19.436 12.9754L19.199 12.9587L18.963 12.9445L18.728 12.9328L18.493 12.9236L18.258 12.9167L18.025 12.9125L17.792 12.9105L17.56 12.9112L17.328 12.9141L17.098 12.9194L16.868 12.9271L16.64 12.9373L16.412 12.9497L16.185 12.9645L15.959 12.9816L15.735 13.001L15.511 13.0227L15.289 13.0467L15.067 13.0729L14.847 13.1014L14.628 13.1321L14.411 13.165L14.195 13.2002L13.98 13.2376L13.766 13.2772L13.554 13.3188L13.44 13.3415L13.325 13.3646L13.212 13.3886L13.098 13.4131L12.985 13.4384L12.873 13.4643L12.761 13.4908L12.65 13.518L12.539 13.5457L12.428 13.5743L12.318 13.6034L12.208 13.6331L12.099 13.6635L11.991 13.6946L11.883 13.7262L11.775 13.7587L11.668 13.7916L11.562 13.8252L11.456 13.8596L11.351 13.8945L11.246 13.9299L11.142 13.9662L11.038 14.003L10.935 14.0403L10.832 14.0784L10.73 14.1172L10.629 14.1565L10.528 14.1964L10.428 14.2369L10.329 14.2782L10.23 14.32L10.131 14.3625L10.033 14.4055L9.936 14.4492L9.84 14.4935L9.744 14.5383L9.649 14.5839L9.554 14.63L9.46 14.6768L9.367 14.7242L9.274 14.7722L9.182 14.8207L9.091 14.87L9.001 14.9197L8.911 14.9701L8.821 15.0212L8.733 15.0729L8.645 15.125L8.558 15.1779L8.472 15.2313L8.386 15.2852L8.301 15.3399L8.217 15.395L8.134 15.4509L8.051 15.5073L7.969 15.5642L7.888 15.6218L7.807 15.6799L7.728 15.7387L7.649 15.7981L7.571 15.858L7.493 15.9185L7.417 15.9795L7.417 0L4.122 0.0005L0.003 0.00113M7.416 20.3749L7.417 39.5247L7.503 39.5932L7.591 39.6605L7.679 39.7264L7.768 39.791L7.857 39.8544L7.948 39.9167L8.039 39.9777L8.131 40.0374L8.224 40.0961L8.317 40.1536L8.411 40.2099L8.506 40.2653L8.601 40.3195L8.698 40.3728L8.794 40.4248L8.892 40.4761L8.99 40.5264L9.088 40.5755L9.187 40.624L9.287 40.6714L9.387 40.718L9.488 40.7637L9.59 40.8086L9.691 40.8527L9.794 40.8959L9.896 40.9385L10 40.9803L10.103 41.0214L10.208 41.0618L10.312 41.1016L10.417 41.1407L10.522 41.1791L10.628 41.2171L10.734 41.2544L10.841 41.2912L10.947 41.3274L11.055 41.3632L11.162 41.3985L11.27 41.4333L11.378 41.4676L11.486 41.5017L11.594 41.5353L11.703 41.5684L11.812 41.6014L11.921 41.6339L12.03 41.6663L12.139 41.6984L12.249 41.7302L12.359 41.7617L12.468 41.7932L12.578 41.8244L12.688 41.8555L12.798 41.8864L12.909 41.9173L13.019 41.9479L13.129 41.9788L13.239 42.0094L13.349 42.0401L13.46 42.0708L13.57 42.1016L13.68 42.1324L13.79 42.1633L13.9 42.1943L13.971 42.193L14.041 42.1919L14.112 42.1908L14.182 42.1896L14.252 42.1885L14.323 42.1874L14.393 42.1862L14.464 42.1851L14.534 42.184L14.605 42.1829L14.675 42.1818L14.746 42.1806L14.816 42.1795L14.886 42.1784L14.957 42.1772L15.027 42.1761L15.098 42.1748L15.168 42.1737L15.239 42.1725L15.309 42.1713L15.379 42.1701L15.45 42.1688L15.52 42.1675L15.591 42.1662L15.661 42.1649L15.731 42.1635L15.802 42.1621L15.872 42.1607L15.943 42.1592L16.013 42.1577L16.083 42.1562L16.154 42.1546L16.224 42.1529L16.294 42.1513L16.365 42.1496L16.435 42.1478L16.505 42.1459L16.576 42.1441L16.646 42.1422L16.716 42.1401L16.786 42.138L16.857 42.136L16.927 42.1339L16.997 42.1316L17.067 42.1292L17.138 42.127L17.208 42.1245L17.363 42.1068L17.517 42.0887L17.671 42.0702L17.824 42.0513L17.976 42.0318L18.128 42.0121L18.279 41.9918L18.43 41.971L18.579 41.9496L18.729 41.9276L18.877 41.9051L19.025 41.882L19.171 41.8582L19.318 41.8338L19.463 41.8086L19.608 41.7828L19.752 41.7562L19.895 41.7288L20.037 41.7005L20.179 41.6716L20.32 41.6418L20.46 41.611L20.599 41.5795L20.738 41.547L20.875 41.5134L21.012 41.4791L21.148 41.4437L21.283 41.4072L21.417 41.3698L21.551 41.3312L21.683 41.2915L21.815 41.2508L21.945 41.2089L22.075 41.1658L22.204 41.1215L22.332 41.0759L22.459 41.0292L22.585 40.9811L22.71 40.9319L22.835 40.8812L22.958 40.8291L23.08 40.7759L23.201 40.7211L23.321 40.6649L23.441 40.6073L23.559 40.5481L23.676 40.4875L23.792 40.4255L23.908 40.3618L24.022 40.2965L24.135 40.2296L24.247 40.1611L24.358 40.0911L24.467 40.0192L24.576 39.9458L24.684 39.8706L24.79 39.7936L24.896 39.7149L25 39.6344L25.103 39.552L25.205 39.4678L25.306 39.3817L25.406 39.2936L25.49 39.2167L25.573 39.1382L25.655 39.0584L25.736 38.977L25.816 38.8942L25.896 38.81L25.975 38.7243L26.053 38.6371L26.13 38.5485L26.206 38.4584L26.281 38.3668L26.356 38.2739L26.429 38.1793L26.502 38.0834L26.573 37.986L26.644 37.8872L26.714 37.7868L26.782 37.685L26.85 37.5817L26.917 37.4768L26.982 37.3706L27.047 37.2628L27.111 37.1534L27.173 37.0428L27.235 36.9305L27.295 36.8167L27.355 36.7015L27.413 36.5847L27.47 36.4665L27.526 36.3468L27.581 36.2255L27.634 36.1028L27.687 35.9785L27.738 35.8527L27.788 35.7253L27.837 35.5966L27.885 35.4663L27.932 35.3344L27.977 35.2011L28.021 35.0662L28.064 34.9297L28.105 34.7918L28.145 34.6523L28.184 34.5113L28.222 34.3687L28.258 34.2246L28.293 34.0789L28.326 33.9318L28.358 33.7831L28.389 33.6328L28.419 33.4809L28.447 33.3276L28.473 33.1727L28.498 33.0162L28.522 32.8583L28.544 32.6987L28.565 32.5374L28.584 32.3747L28.602 32.2105L28.618 32.0447L28.633 31.8773L28.646 31.7082L28.658 31.5378L28.659 31.4674L28.659 31.3972L28.66 31.3269L28.66 31.2566L28.661 31.1864L28.662 31.1161L28.663 31.0459L28.663 30.9756L28.664 30.9053L28.665 30.8351L28.666 30.7649L28.666 30.6947L28.667 30.6243L28.668 30.5541L28.669 30.4839L28.669 30.4137L28.67 30.3434L28.671 30.2732L28.671 30.2029L28.672 30.1326L28.672 30.0622L28.673 29.992L28.673 29.9216L28.674 29.8513L28.674 29.7809L28.674 29.7106L28.674 29.6401L28.674 29.5697L28.674 29.4993L28.674 29.4288L28.674 29.3583L28.674 29.2878L28.673 29.2172L28.673 29.1467L28.672 29.0761L28.671 29.0055L28.67 28.9349L28.669 28.8642L28.668 28.7934L28.667 28.7227L28.665 28.6519L28.664 28.5811L28.662 28.5102L28.66 28.4393L28.658 28.3683L28.656 28.2973L28.654 28.2263L28.632 28.0658L28.608 27.9062L28.584 27.7473L28.557 27.5892L28.53 27.4322L28.5 27.2758L28.469 27.1204L28.437 26.9657L28.403 26.812L28.367 26.6593L28.33 26.5074L28.291 26.3563L28.25 26.2063L28.208 26.0572L28.164 25.909L28.118 25.7617L28.071 25.6155L28.021 25.4702L27.97 25.3259L27.917 25.1827L27.863 25.0404L27.806 24.8991L27.748 24.7589L27.688 24.6197L27.626 24.4815L27.562 24.3445L27.496 24.2084L27.428 24.0735L27.358 23.9398L27.286 23.807L27.212 23.6754L27.136 23.545L27.058 23.4156L26.978 23.2874L26.896 23.1604L26.812 23.0346L26.726 22.91L26.638 22.7865L26.547 22.6643L26.455 22.5431L26.36 22.4233L26.263 22.3047L26.164 22.1874L26.062 22.0714L25.958 21.9564L25.852 21.843L25.744 21.7306L25.633 21.6198L25.52 21.51L25.405 21.4017L25.288 21.2948L25.168 21.1891L25.045 21.0847L24.92 20.9817L24.793 20.8803L24.663 20.7801L24.531 20.6812L24.397 20.5838L24.259 20.4879L24.12 20.3933L23.977 20.3002L23.833 20.2086L23.685 20.1183L23.593 20.0585L23.501 19.9993L23.407 19.9408L23.312 19.8828L23.216 19.8257L23.119 19.7691L23.02 19.7131L22.921 19.6579L22.82 19.6035L22.718 19.5496L22.616 19.4965L22.512 19.444L22.406 19.3922L22.3 19.3411L22.192 19.2908L22.084 19.2413L21.974 19.1923L21.862 19.1442L21.75 19.0966L21.636 19.05L21.522 19.004L21.406 18.9588L21.288 18.9143L21.17 18.8706L21.05 18.8276L20.929 18.7852L20.806 18.7439L20.683 18.7032L20.558 18.6632L20.431 18.624L20.304 18.5857L20.175 18.5481L20.045 18.5114L19.913 18.4755L19.78 18.4402L19.646 18.4059L19.51 18.3723L19.373 18.3396L19.235 18.3077L19.095 18.2766L18.954 18.2463L18.811 18.2169L18.668 18.1883L18.522 18.1606L18.375 18.1337L18.227 18.1076L18.078 18.0823L17.927 18.0581L17.774 18.0346L17.62 18.0119L17.465 17.9903L17.308 17.9695L17.149 17.9496L16.989 17.9305L16.828 17.9123L16.665 17.895L16.501 17.8787L16.335 17.8633L16.167 17.8486L15.998 17.8351L15.828 17.8224L15.656 17.8105L15.482 17.7998L15.406 17.7985L15.33 17.797L15.254 17.7951L15.178 17.7931L15.103 17.791L15.027 17.7889L14.951 17.7867L14.875 17.7848L14.8 17.7829L14.724 17.7813L14.648 17.7799L14.571 17.7788L14.495 17.7782L14.418 17.7782L14.341 17.7786L14.263 17.7797L14.186 17.7814L14.107 17.7841L14.055 17.7912L14.002 17.7987L13.948 17.8068L13.894 17.8154L13.838 17.8244L13.783 17.834L13.726 17.8439L13.669 17.8544L13.611 17.8655L13.553 17.877L13.494 17.889L13.434 17.9014L13.374 17.9143L13.313 17.9278L13.251 17.9417L13.189 17.956L13.126 17.9708L13.062 17.9862L12.997 18.002L12.932 18.0183L12.867 18.0352L12.8 18.0525L12.733 18.0703L12.666 18.0885L12.597 18.1073L12.528 18.1264L12.459 18.1461L12.388 18.1664L12.317 18.187L12.246 18.2082L12.173 18.2298L12.1 18.252L12.027 18.2747L11.952 18.2978L11.877 18.3214L11.802 18.3454L11.725 18.37L11.648 18.395L11.571 18.4205L11.492 18.4466L11.413 18.4731L11.334 18.5001L11.253 18.5275L11.172 18.5555L11.091 18.5838L11.009 18.6127L10.926 18.6422L10.842 18.672L10.758 18.7024L10.673 18.7334L10.587 18.7647L10.501 18.7965L10.414 18.8287L10.326 18.8616L10.238 18.8948L10.149 18.9286L10.06 18.9629L9.969 18.9975L9.878 19.0329L9.787 19.0686L9.695 19.1048L9.602 19.1414L9.508 19.1786L9.441 19.2137L9.374 19.2495L9.307 19.2856L9.239 19.3222L9.17 19.3591L9.102 19.3965L9.032 19.4342L8.963 19.4725L8.893 19.5112L8.823 19.5504L8.752 19.5898L8.681 19.6298L8.61 19.6703L8.538 19.7111L8.466 19.7523L8.393 19.794L8.321 19.8362L8.247 19.8787L8.174 19.9216L8.1 19.965L8.025 20.0089L7.95 20.053L7.875 20.0977L7.799 20.1429L7.723 20.1885L7.647 20.2343L7.57 20.2807L7.493 20.3276L7.416 20.3749"/>

<path id="shape11" 
  transform="matrix(1.00860760126852 0 0 1.01428811141979 163.162092808759 9.14585885136121)" 
  fill="#afafaf" 
  fill-rule="evenodd" 
  stroke="#afafaf" 
  stroke-width="0.07272" 
  stroke-linecap="square" 
  stroke-linejoin="bevel" 
  d="M0.00224765 0L0 45.0698L7.8435 45.0709L7.84575 23.3269L32.976 23.3246L32.9749 45.0686L40.8206 45.0697L40.8184 0.00112457L32.9771 1.69813e-07L32.9726 18.0709L7.84688 18.0709L7.84461 0.00112461L0.00224765 0"/>

<path id="shape2" 
  transform="matrix(1.00860760126852 0 0 1.01428811141979 254.585817067924 21.4101218752807)" 
  fill="#afafaf" 
  fill-rule="evenodd" 
  stroke="#afafaf" 
  stroke-width="0.07272" 
  stroke-linecap="square" 
  stroke-linejoin="bevel" 
  d="M1.22735 0L15.1954 16.1314L0 32.9783L8.64338 32.9794L18.8696 21.0274L18.936 21.0274L30.3154 32.9794L39.1736 32.9827L22.5382 16.128L37.7381 0.00899995L29.592 0.0033771L19.0091 11.3108L9.57488 0.00675199L1.22735 0"/>

<path id="shape03" 
  transform="matrix(1.00860760698762 0 0 1.01428811717111 212.765789353755 20.8882912289391)" 
  fill="#afafaf" 
  fill-rule="evenodd" 
  stroke="#afafaf" 
  stroke-width="0.07272" 
  stroke-linecap="square" 
  stroke-linejoin="bevel" 
  d="M7.8075 17.6024L38.1205 17.6024L38.1795 17.3326L38.2345 17.0654L38.2855 16.801L38.3335 16.5391L38.3775 16.28L38.4175 16.0234L38.4535 15.7695L38.4865 15.5182L38.5155 15.2694L38.5415 15.0232L38.5635 14.7796L38.5815 14.5385L38.5965 14.2999L38.6085 14.0639L38.6155 13.8303L38.6205 13.5993L38.6215 13.3707L38.6185 13.1445L38.6125 12.9208L38.6035 12.6996L38.5905 12.4807L38.5745 12.2642L38.5545 12.0502L38.5315 11.8385L38.5055 11.6291L38.4765 11.4221L38.4435 11.2175L38.4075 11.0151L38.3685 10.8151L38.3265 10.6173L38.2805 10.4218L38.2325 10.2286L38.1805 10.0376L38.1255 9.8488L38.0675 9.6622L38.0065 9.4779L37.9425 9.2957L37.8755 9.1158L37.8045 8.9379L37.7315 8.7623L37.6555 8.5887L37.5765 8.4173L37.4945 8.248L37.4095 8.0807L37.3215 7.9155L37.2315 7.7524L37.1375 7.5914L37.0415 7.4324L36.9425 7.2754L36.8405 7.1204L36.7355 6.9673L36.6285 6.8163L36.5185 6.6672L36.4055 6.5201L36.2895 6.3749L36.1715 6.2316L36.0505 6.0903L35.9275 5.9508L35.8015 5.8132L35.6725 5.6774L35.5415 5.5436L35.4085 5.4115L35.2715 5.2813L35.2035 5.2123L35.1335 5.1437L35.0635 5.0754L34.9935 5.0076L34.9225 4.9402L34.8505 4.8732L34.7785 4.8066L34.7055 4.7404L34.6325 4.6746L34.5585 4.6092L34.4845 4.5442L34.4095 4.4796L34.3345 4.4154L34.2585 4.3517L34.1815 4.2883L34.1045 4.2253L34.0275 4.1628L33.9495 4.1007L33.8705 4.039L33.7915 3.9777L33.7115 3.9168L33.6315 3.8564L33.5505 3.7964L33.4695 3.7367L33.3885 3.6776L33.3055 3.6188L33.2235 3.5605L33.1405 3.5026L33.0565 3.4451L32.9725 3.388L32.8875 3.3314L32.8025 3.2752L32.7165 3.2194L32.6305 3.1641L32.5445 3.1092L32.4575 3.0548L32.3695 3.0007L32.2815 2.9471L32.1935 2.894L32.1045 2.8413L32.0155 2.789L31.9255 2.7372L31.8355 2.6858L31.7445 2.6349L31.6535 2.5844L31.5615 2.5344L31.4695 2.4848L31.3775 2.4357L31.2845 2.387L31.1905 2.3388L31.0975 2.291L31.0025 2.2437L30.9085 2.1968L30.8135 2.1504L30.7175 2.1044L30.6215 2.0589L30.5255 2.0139L30.4285 1.9693L30.3315 1.9252L30.2335 1.8816L30.1365 1.8384L30.0375 1.7957L29.9385 1.7534L29.8235 1.7066L29.7065 1.6604L29.5905 1.6148L29.4725 1.5698L29.3545 1.5255L29.2365 1.4818L29.1175 1.4387L28.9985 1.3962L28.8785 1.3543L28.7585 1.3131L28.6375 1.2724L28.5165 1.2324L28.3945 1.193L28.2725 1.1543L28.1495 1.1161L28.0265 1.0786L27.9035 1.0417L27.7795 1.0054L27.6555 0.9698L27.5305 0.9347L27.4055 0.9003L27.2795 0.8665L27.1535 0.8333L27.0265 0.8007L26.9005 0.7688L26.7725 0.7374L26.6455 0.7067L26.5175 0.6766L26.3885 0.6472L26.2595 0.6183L26.1305 0.5901L26.0015 0.5625L25.8715 0.5355L25.7415 0.5091L25.6105 0.4833L25.4795 0.4582L25.3485 0.4337L25.2165 0.4098L25.0845 0.3865L24.9525 0.3638L24.8205 0.3418L24.6875 0.3204L24.5545 0.2995L24.4205 0.2793L24.2865 0.2598L24.1525 0.2408L24.0185 0.2225L23.8835 0.2048L23.7485 0.1876L23.6135 0.1712L23.4785 0.1553L23.3425 0.14L23.2065 0.1254L23.0705 0.1114L22.9335 0.098L22.7971 0.0852L22.6602 0.073L22.523 0.0615L22.3857 0.0506L22.2481 0.0402L22.1102 0.0305L21.9722 0.0215L21.834 0.013L21.7633 0.0125L21.6925 0.012L21.6218 0.0115L21.5511 0.011L21.4803 0.0105L21.4096 0.0099L21.3389 0.0094L21.2681 0.0088L21.1974 0.0082L21.1267 0.0077L21.0559 0.0071L20.9852 0.0065L20.9145 0.006L20.8437 0.0054L20.773 0.0049L20.7022 0.0044L20.6315 0.0038L20.5608 0.0034L20.49 0.0029L20.4193 0.0025L20.3486 0.002L20.2778 0.0017L20.2071 0.0013L20.1364 0.001L20.0656 0.0007L19.9949 0.0005L19.9242 0.0003L19.8534 0.0001L19.7827 0L19.712 0L19.6412 0L19.5705 0.0001L19.4998 0.0002L19.429 0.0004L19.3583 0.0006L19.2875 0.0009L19.2168 0.0013L19.1461 0.0018L19.0753 0.0023L19.0046 0.0029L18.9339 0.0036L18.8631 0.0043L18.7924 0.0052L18.7217 0.0061L18.6509 0.0071L18.5802 0.0082L18.5095 0.0095L18.4387 0.0108L18.368 0.0122L18.2973 0.0137L18.2265 0.0153L18.1558 0.017L18.0851 0.0189L18.0143 0.0208L17.9436 0.0229L17.8729 0.0251L17.8021 0.0274L17.7314 0.0298L17.592 0.0421L17.4534 0.0551L17.3155 0.0688L17.1783 0.0832L17.0418 0.0983L16.906 0.1141L16.771 0.1306L16.6366 0.1477L16.503 0.1656L16.37 0.1841L16.2377 0.2032L16.1061 0.223L15.9752 0.2435L15.8449 0.2646L15.7153 0.2863L15.5863 0.3087L15.458 0.3318L15.3304 0.3554L15.2034 0.3797L15.077 0.4046L14.9512 0.4301L14.8261 0.4563L14.7016 0.483L14.5777 0.5104L14.4544 0.5383L14.3317 0.5668L14.2096 0.5959L14.0881 0.6256L13.9671 0.6559L13.8468 0.6868L13.727 0.7182L13.6078 0.7502L13.4891 0.7827L13.371 0.8158L13.2535 0.8494L13.1365 0.8836L13.02 0.9184L12.9041 0.9536L12.7887 0.9894L12.6738 1.0257L12.5595 1.0626L12.4456 1.0999L12.3323 1.1378L12.2194 1.1762L12.1071 1.2151L11.9952 1.2544L11.8839 1.2943L11.773 1.3347L11.6625 1.3755L11.5526 1.4168L11.4431 1.4586L11.334 1.5009L11.2254 1.5436L11.1173 1.5868L11.0096 1.6304L10.9023 1.6745L10.7955 1.719L10.6891 1.764L10.583 1.8094L10.4774 1.8553L10.3723 1.9015L10.2675 1.9482L10.1631 1.9953L10.075 2.0352L9.9873 2.0754L9.9 2.1162L9.8131 2.1573L9.7265 2.1989L9.6404 2.2409L9.5546 2.2834L9.4692 2.3262L9.3842 2.3695L9.2995 2.4132L9.2152 2.4573L9.1313 2.5017L9.0477 2.5466L8.9645 2.5919L8.8817 2.6375L8.7992 2.6836L8.717 2.73L8.6352 2.7768L8.5537 2.8239L8.4726 2.8714L8.3918 2.9193L8.3114 2.9675L8.2312 3.0161L8.1514 3.065L8.072 3.1142L7.9928 3.1638L7.914 3.2137L7.8355 3.2639L7.7573 3.3145L7.6794 3.3653L7.6019 3.4165L7.5246 3.468L7.4477 3.5197L7.371 3.5718L7.2946 3.6242L7.2186 3.6768L7.1428 3.7297L7.0673 3.7829L6.9921 3.8364L6.9172 3.8901L6.8426 3.9441L6.7682 3.9984L6.6942 4.0529L6.6204 4.1077L6.5468 4.1627L6.4735 4.2179L6.4005 4.2734L6.3278 4.3291L6.2553 4.385L6.1831 4.4412L6.1111 4.4975L6.0394 4.5541L5.9679 4.6109L5.8966 4.6678L5.8256 4.725L5.7549 4.7824L5.6844 4.8399L5.6141 4.8977L5.544 4.9556L5.4742 5.0137L5.4046 5.0719L5.3352 5.1303L5.266 5.1889L5.1627 5.2839L5.0604 5.3793L4.959 5.4753L4.8586 5.5718L4.7592 5.6688L4.6607 5.7665L4.5632 5.8647L4.4666 5.9635L4.371 6.0629L4.2763 6.163L4.1826 6.2637L4.0898 6.3651L3.9979 6.4671L3.907 6.5699L3.8169 6.6735L3.7278 6.7777L3.6396 6.8827L3.5523 6.9885L3.4659 7.0951L3.3804 7.2025L3.2958 7.3108L3.2121 7.4199L3.1293 7.5298L3.0474 7.6407L2.9663 7.7524L2.8861 7.8651L2.8068 7.9787L2.7284 8.0932L2.6508 8.2087L2.574 8.3252L2.4982 8.4428L2.4232 8.5613L2.349 8.6809L2.2756 8.8015L2.2031 8.9233L2.1315 9.0461L2.0606 9.17L1.9906 9.2951L1.9214 9.4213L1.8531 9.5487L1.7855 9.6772L1.7187 9.807L1.6528 9.938L1.5876 10.0702L1.5233 10.2036L1.4597 10.3384L1.397 10.4744L1.335 10.6117L1.2737 10.7504L1.2133 10.8904L1.1536 11.0318L1.0947 11.1745L1.0366 11.3186L0.9792 11.4642L0.9226 11.6111L0.8667 11.7595L0.8116 11.9094L0.7572 12.0608L0.7035 12.2136L0.6506 12.368L0.5984 12.5239L0.5469 12.6814L0.4962 12.8404L0.4811 12.9035L0.4662 12.9668L0.4515 13.0304L0.4369 13.0943L0.4226 13.1584L0.4085 13.2227L0.3946 13.2874L0.3809 13.3522L0.3675 13.4174L0.3542 13.4827L0.3411 13.5484L0.3283 13.6143L0.3157 13.6804L0.3033 13.7468L0.2911 13.8134L0.2792 13.8803L0.2675 13.9474L0.256 14.0148L0.2447 14.0824L0.2337 14.1503L0.2229 14.2184L0.2124 14.2868L0.2021 14.3554L0.192 14.4242L0.1822 14.4933L0.1727 14.5626L0.1633 14.6321L0.1543 14.7019L0.1454 14.7719L0.1369 14.8422L0.1286 14.9127L0.1205 14.9834L0.1128 15.0543L0.1052 15.1255L0.098 15.1969L0.091 15.2686L0.0843 15.3404L0.0778 15.4125L0.0717 15.4849L0.0658 15.5574L0.0602 15.6302L0.0548 15.7032L0.0498 15.7764L0.045 15.8498L0.0405 15.9235L0.0363 15.9974L0.0324 16.0715L0.0288 16.1458L0.0255 16.2203L0.0225 16.295L0.0198 16.37L0.0174 16.4452L0.0153 16.5206L0.0135 16.5962L0.012 16.672L0.0108 16.748L0.0099 16.8242L0.0093 16.9007L0 18.1615L0.0024 18.2611L0.0054 18.3604L0.0089 18.4594L0.0131 18.558L0.0178 18.6562L0.0232 18.7542L0.0291 18.8517L0.0355 18.949L0.0426 19.0459L0.0502 19.1424L0.0584 19.2386L0.0671 19.3345L0.0764 19.43L0.0863 19.5252L0.0967 19.62L0.1077 19.7145L0.1192 19.8087L0.1312 19.9025L0.1439 19.996L0.157 20.0892L0.1707 20.182L0.1849 20.2744L0.1997 20.3666L0.215 20.4584L0.2308 20.5498L0.2471 20.6409L0.264 20.7317L0.2814 20.8221L0.2993 20.9122L0.3177 21.002L0.3366 21.0914L0.356 21.1805L0.3759 21.2693L0.3964 21.3577L0.4173 21.4458L0.4387 21.5335L0.4607 21.6209L0.4831 21.708L0.506 21.7948L0.5293 21.8812L0.5532 21.9672L0.5776 22.053L0.6024 22.1384L0.6277 22.2235L0.6534 22.3082L0.6797 22.3926L0.7064 22.4767L0.7335 22.5604L0.7611 22.6438L0.7892 22.7269L0.8177 22.8096L0.8467 22.892L0.8762 22.9741L0.906 23.0558L0.9364 23.1373L0.9671 23.2183L0.9983 23.2991L1.0299 23.3795L1.062 23.4596L1.0945 23.5393L1.1274 23.6188L1.1607 23.6979L1.1945 23.7766L1.2987 24.018L1.4071 24.2563L1.5195 24.4915L1.636 24.7236L1.7564 24.9527L1.8805 25.1787L2.0084 25.4016L2.14 25.6215L2.275 25.8383L2.4136 26.0521L2.5554 26.2629L2.7006 26.4706L2.849 26.6753L3.0004 26.877L3.1549 27.0757L3.3122 27.2713L3.4724 27.4639L3.6353 27.6535L3.8009 27.8401L3.969 28.0238L4.1396 28.2044L4.3126 28.382L4.4878 28.5566L4.6653 28.7283L4.8448 28.897L5.0264 29.0627L5.2099 29.2255L5.3952 29.3852L5.5823 29.5421L5.771 29.6959L5.9613 29.8469L6.1531 29.9948L6.3463 30.1399L6.5408 30.282L6.7364 30.4211L6.9332 30.5574L7.131 30.6907L7.3298 30.8211L7.5294 30.9485L7.7298 31.0731L7.9308 31.1948L8.1324 31.3135L8.3345 31.4294L8.537 31.5424L8.7398 31.6525L8.9429 31.7597L9.146 31.864L9.3492 31.9654L9.5524 32.064L9.7554 32.1597L9.9582 32.2526L10.1606 32.3426L10.3627 32.4297L10.5642 32.514L10.7652 32.5954L10.9655 32.6741L11.165 32.7498L11.3637 32.8228L11.5614 32.8929L11.7581 32.9602L11.9536 33.0247L12.1479 33.0863L12.341 33.1452L12.5502 33.2037L12.7613 33.2605L12.9743 33.3156L13.1892 33.3691L13.4059 33.421L13.6243 33.4712L13.8444 33.5197L14.0663 33.5665L14.2897 33.6116L14.5147 33.6551L14.7413 33.6968L14.9694 33.7369L15.199 33.7752L15.4299 33.8118L15.6623 33.8468L15.896 33.8799L16.131 33.9114L16.3672 33.9411L16.6047 33.9691L16.8433 33.9953L17.083 34.0198L17.3239 34.0425L17.5657 34.0635L17.8086 34.0827L18.0524 34.1001L18.2972 34.1157L18.5428 34.1296L18.7893 34.1416L19.0365 34.1519L19.2845 34.1604L19.5332 34.167L19.7825 34.1718L20.0325 34.1749L20.2831 34.1761L20.5342 34.1754L20.7858 34.173L21.0378 34.1686L21.2903 34.1625L21.5431 34.1545L21.7963 34.1446L22.0497 34.1329L22.3034 34.1192L22.5572 34.1038L22.8113 34.0864L23.0655 34.0672L23.3195 34.046L23.5735 34.023L23.8285 33.998L24.0825 33.9712L24.3365 33.9424L24.5905 33.9117L24.8445 33.8791L25.0975 33.8446L25.3515 33.8081L25.6045 33.7697L25.8565 33.7293L26.1085 33.687L26.3605 33.6427L26.6125 33.5965L26.8635 33.5483L27.1135 33.4981L27.3625 33.4459L27.6125 33.3918L27.7625 33.353L27.9125 33.3145L28.0605 33.2761L28.2075 33.2378L28.3535 33.1997L28.4975 33.1616L28.6405 33.1237L28.7825 33.0858L28.9235 33.0479L29.0625 33.0101L29.2005 32.9722L29.3365 32.9344L29.4725 32.8965L29.6065 32.8586L29.7395 32.8206L29.8715 32.7825L30.0015 32.7443L30.1315 32.706L30.2595 32.6676L30.3865 32.629L30.5115 32.5902L30.6365 32.5512L30.7595 32.512L30.8815 32.4726L31.0025 32.4329L31.1225 32.3929L31.2415 32.3526L31.3585 32.3121L31.4755 32.2712L31.5905 32.2299L31.7045 32.1883L31.8175 32.1463L31.9295 32.1039L32.0405 32.0611L32.1495 32.0179L32.2585 31.9742L32.3655 31.93L32.4725 31.8853L32.5775 31.8401L32.6825 31.7944L32.7855 31.7481L32.8875 31.7012L32.9885 31.6538L33.0885 31.6058L33.1875 31.5571L33.2855 31.5078L33.3835 31.4578L33.4795 31.4072L33.5745 31.3558L33.6685 31.3037L33.7615 31.2509L33.8535 31.1974L33.9445 31.143L34.0345 31.0879L34.1245 31.0319L34.2125 30.9752L34.2995 30.9176L34.3865 30.8591L34.4715 30.7997L34.5565 30.7394L34.6395 30.6782L34.7225 30.6161L34.8045 30.553L31.7085 26.3886L31.5845 26.4651L31.4615 26.5405L31.3375 26.6148L31.2135 26.6881L31.0905 26.7602L30.9665 26.8313L30.8415 26.9013L30.7175 26.9703L30.5935 27.0381L30.4685 27.1049L30.3445 27.1707L30.2195 27.2353L30.0945 27.2989L29.9695 27.3614L29.8445 27.4228L29.7195 27.4831L29.5935 27.5424L29.4685 27.6006L29.3425 27.6577L29.2175 27.7138L29.0915 27.7687L28.9655 27.8226L28.8395 27.8754L28.7125 27.9272L28.5865 27.9779L28.4595 28.0275L28.3335 28.076L28.2065 28.1234L28.0795 28.1698L27.9525 28.2151L27.8255 28.2593L27.6985 28.3024L27.5715 28.3445L27.4435 28.3855L27.3155 28.4254L27.1885 28.4643L27.0605 28.502L26.9325 28.5387L26.8045 28.5744L26.6755 28.6089L26.5475 28.6424L26.4195 28.6748L26.2905 28.7061L26.1615 28.7363L26.0325 28.7655L25.9035 28.7936L25.7745 28.8206L25.6455 28.8466L25.5165 28.8714L25.3865 28.8952L25.2565 28.9179L25.1275 28.9396L24.9975 28.9602L24.8675 28.9797L24.7375 28.9981L24.6065 29.0154L24.4765 29.0317L24.3465 29.0469L24.2155 29.061L24.0845 29.0741L23.9535 29.086L23.8225 29.0969L23.6915 29.1067L23.6005 29.1202L23.5085 29.1332L23.4175 29.1457L23.3265 29.1577L23.2355 29.1694L23.1435 29.1805L23.0525 29.1912L22.9615 29.2014L22.8708 29.2112L22.7798 29.2205L22.689 29.2293L22.5982 29.2377L22.5075 29.2457L22.4168 29.2531L22.3262 29.2602L22.2357 29.2667L22.1452 29.2728L22.0548 29.2785L21.9644 29.2836L21.8741 29.2884L21.7839 29.2926L21.6938 29.2964L21.6037 29.2998L21.5136 29.3026L21.4236 29.3051L21.3337 29.307L21.2439 29.3085L21.1541 29.3096L21.0643 29.3102L20.9747 29.3103L20.8851 29.31L20.7955 29.3092L20.706 29.3079L20.6166 29.3062L20.5273 29.3041L20.438 29.3014L20.3487 29.2984L20.2596 29.2948L20.1705 29.2908L20.0814 29.2864L19.9924 29.2814L19.9035 29.2761L19.8146 29.2702L19.7258 29.2639L19.6371 29.2572L19.5484 29.25L19.4598 29.2423L19.3713 29.2342L19.2828 29.2256L19.1944 29.2165L19.106 29.207L19.0177 29.197L18.9295 29.1866L18.8413 29.1757L18.7532 29.1644L18.6651 29.1526L18.5771 29.1403L18.4892 29.1276L18.4013 29.1144L18.3135 29.1008L18.2258 29.0867L18.1381 29.0721L18.0505 29.0571L17.9733 29.0434L17.8961 29.0293L17.819 29.0149L17.7419 29.0001L17.6649 28.9849L17.588 28.9694L17.5111 28.9536L17.4344 28.9373L17.3576 28.9207L17.281 28.9038L17.2044 28.8865L17.1278 28.8688L17.0513 28.8508L16.9749 28.8324L16.8986 28.8137L16.8223 28.7946L16.7461 28.7752L16.6699 28.7553L16.5938 28.7352L16.5178 28.7146L16.4419 28.6937L16.366 28.6725L16.2901 28.6509L16.2144 28.6289L16.1386 28.6066L16.063 28.5839L15.9874 28.5609L15.9119 28.5375L15.8365 28.5137L15.7611 28.4896L15.6857 28.4651L15.6105 28.4403L15.5353 28.4151L15.4602 28.3896L15.3851 28.3636L15.3101 28.3374L15.2352 28.3107L15.1603 28.2838L15.0855 28.2564L15.0107 28.2287L14.936 28.2007L14.8614 28.1722L14.7869 28.1435L14.7124 28.1143L14.6379 28.0848L14.5636 28.055L14.4893 28.0247L14.415 27.9942L14.3409 27.9632L14.2668 27.932L14.1927 27.9003L14.1187 27.8683L14.0448 27.8359L13.971 27.8032L13.8972 27.7701L13.8235 27.7367L13.7498 27.7029L13.6762 27.6687L13.6027 27.6342L13.5292 27.5993L13.4558 27.5641L13.3825 27.5285L13.3092 27.4925L13.2012 27.4308L13.0944 27.3683L12.9886 27.3051L12.8838 27.2412L12.7802 27.1766L12.6776 27.1113L12.576 27.0452L12.4756 26.9785L12.3762 26.911L12.2779 26.8428L12.1806 26.774L12.0845 26.7044L11.9893 26.634L11.8953 26.563L11.8023 26.4913L11.7104 26.4189L11.6196 26.3457L11.5298 26.2718L11.4411 26.1973L11.3535 26.122L11.267 26.046L11.1815 25.9693L11.0971 25.8919L11.0137 25.8137L10.9315 25.7349L10.8502 25.6553L10.7701 25.5751L10.691 25.4941L10.613 25.4124L10.5361 25.33L10.4603 25.2469L10.3855 25.1631L10.3117 25.0785L10.2391 24.9933L10.1675 24.9073L10.097 24.8206L10.0276 24.7333L9.9592 24.6452L9.8919 24.5564L9.8256 24.4669L9.7605 24.3766L9.6964 24.2857L9.6334 24.194L9.5714 24.1017L9.5105 24.0086L9.4507 23.9148L9.3919 23.8203L9.3343 23.7251L9.2777 23.6292L9.2221 23.5326L9.1676 23.4352L9.1142 23.3372L9.0619 23.2384L9.0106 23.1389L8.9605 23.0387L8.9113 22.9378L8.8633 22.8362L8.8163 22.7339L8.7704 22.6309L8.7255 22.5271L8.6818 22.4227L8.639 22.3175L8.5974 22.2116L8.5699 22.145L8.5429 22.0782L8.5164 22.0111L8.4903 21.9438L8.4648 21.8764L8.4397 21.8087L8.4151 21.7408L8.391 21.6727L8.3673 21.6044L8.3442 21.5359L8.3215 21.4671L8.2993 21.3982L8.2776 21.329L8.2564 21.2596L8.2357 21.1901L8.2154 21.1203L8.1956 21.0503L8.1764 20.9801L8.1575 20.9096L8.1392 20.839L8.1214 20.7682L8.104 20.6971L8.0871 20.6258L8.0707 20.5544L8.0548 20.4827L8.0394 20.4108L8.0244 20.3387L8.01 20.2664L7.996 20.1938L7.9825 20.1211L7.9695 20.0481L7.9569 19.975L7.9449 19.9016L7.9333 19.828L7.9222 19.7542L7.9116 19.6802L7.9015 19.606L7.8918 19.5316L7.8827 19.4569L7.874 19.3821L7.8658 19.307L7.8581 19.2317L7.8508 19.1563L7.8441 19.0806L7.8378 19.0047L7.832 18.9286L7.8267 18.8522L7.8219 18.7757L7.8176 18.6989L7.8137 18.622L7.8103 18.5448L7.8075 18.4674L7.805 18.3899L7.8031 18.3121L7.8017 18.234L7.8007 18.1558L7.8002 18.0774L7.8002 17.9987L7.8007 17.9199L7.8017 17.8408L7.8031 17.7616L7.8051 17.6821L7.8075 17.6024M8.0216 13.4005L31.2795 13.4241L31.2805 13.3393L31.2795 13.2552L31.2785 13.1717L31.2765 13.0889L31.2735 13.0068L31.2695 12.9253L31.2645 12.8445L31.2585 12.7644L31.2525 12.6849L31.2445 12.606L31.2365 12.5278L31.2285 12.4502L31.2185 12.3733L31.2085 12.297L31.1975 12.2213L31.1855 12.1462L31.1735 12.0718L31.1605 11.9979L31.1465 11.9247L31.1325 11.8521L31.1175 11.7801L31.1025 11.7086L31.0865 11.6378L31.0705 11.5676L31.0535 11.4979L31.0355 11.4288L31.0175 11.3603L30.9995 11.2924L30.9805 11.225L30.9605 11.1582L30.9415 11.092L30.9215 11.0263L30.9005 10.9612L30.8795 10.8966L30.8585 10.8326L30.8365 10.7691L30.8155 10.7061L30.7935 10.6437L30.7705 10.5818L30.7485 10.5204L30.7255 10.4596L30.7025 10.3992L30.6785 10.3394L30.6055 10.2046L30.5315 10.0722L30.4565 9.9422L30.3815 9.8146L30.3045 9.6892L30.2275 9.5662L30.1505 9.4455L30.0715 9.327L29.9925 9.2108L29.9125 9.0967L29.8325 8.9849L29.7515 8.8752L29.6695 8.7677L29.5865 8.6622L29.5035 8.5589L29.4195 8.4576L29.3345 8.3584L29.2495 8.2612L29.1635 8.166L29.0775 8.0727L28.9905 7.9815L28.9025 7.8921L28.8145 7.8046L28.7255 7.719L28.6365 7.6353L28.5465 7.5534L28.4565 7.4733L28.3655 7.395L28.2735 7.3184L28.1815 7.2436L28.0885 7.1705L27.9955 7.0991L27.9015 7.0293L27.8075 6.9612L27.7125 6.8947L27.6175 6.8298L27.5215 6.7664L27.4255 6.7046L27.3295 6.6443L27.2325 6.5855L27.1345 6.5282L27.0365 6.4723L26.9385 6.4179L26.8395 6.3649L26.7405 6.3132L26.6405 6.2629L26.5405 6.2139L26.4405 6.1662L26.3395 6.1198L26.2385 6.0747L26.1365 6.0308L26.0345 5.9881L25.9325 5.9465L25.8305 5.9062L25.7275 5.867L25.6235 5.8289L25.5205 5.7919L25.4165 5.7559L25.3125 5.721L25.2085 5.6872L25.1035 5.6543L24.9985 5.6224L24.8935 5.5914L24.8215 5.5704L24.7495 5.5496L24.6785 5.5291L24.6065 5.5088L24.5345 5.4888L24.4625 5.469L24.3905 5.4495L24.3185 5.4302L24.2465 5.4113L24.1745 5.3925L24.1025 5.3741L24.0305 5.3559L23.9585 5.3381L23.8855 5.3205L23.8135 5.3031L23.7415 5.2861L23.6695 5.2694L23.5975 5.2529L23.5255 5.2368L23.4535 5.2209L23.3815 5.2054L23.3095 5.1901L23.2375 5.1752L23.1655 5.1606L23.0935 5.1463L23.0225 5.1323L22.9505 5.1186L22.8794 5.1053L22.8081 5.0923L22.7369 5.0796L22.6659 5.0672L22.595 5.0552L22.5242 5.0435L22.4536 5.0322L22.3832 5.0212L22.3129 5.0106L22.2428 5.0003L22.1729 4.9904L22.1031 4.9808L22.0336 4.9716L21.9643 4.9628L21.8952 4.9543L21.8263 4.9462L21.7577 4.9385L21.6892 4.9312L21.6211 4.9242L21.5532 4.9176L21.4855 4.9114L21.4181 4.9056L21.351 4.9002L21.2842 4.8952L21.2177 4.8906L21.1515 4.8863L21.0856 4.8825L21.02 4.8791L20.9471 4.8786L20.8743 4.8781L20.8014 4.8774L20.7286 4.8768L20.6557 4.876L20.5829 4.8753L20.51 4.8745L20.4372 4.8737L20.3643 4.873L20.2915 4.8722L20.2186 4.8716L20.1458 4.8709L20.0729 4.8704L20.0001 4.8699L19.9272 4.8695L19.8544 4.8692L19.7815 4.8691L19.7087 4.8691L19.6358 4.8692L19.563 4.8695L19.4901 4.87L19.4173 4.8707L19.3444 4.8716L19.2716 4.8727L19.1987 4.8741L19.1259 4.8756L19.053 4.8775L18.8955 4.8909L18.739 4.9054L18.5836 4.921L18.4292 4.9377L18.2758 4.9554L18.1235 4.9741L17.9722 4.994L17.8219 5.0149L17.6727 5.0369L17.5245 5.0599L17.3773 5.0841L17.2312 5.1092L17.0861 5.1355L16.942 5.1628L16.799 5.1912L16.657 5.2207L16.516 5.2512L16.3761 5.2828L16.2372 5.3155L16.0993 5.3492L15.9625 5.384L15.8266 5.4199L15.6919 5.4568L15.5581 5.4948L15.4254 5.5339L15.2938 5.574L15.1631 5.6152L15.0335 5.6575L14.9049 5.7009L14.7774 5.7453L14.6509 5.7907L14.5254 5.8373L14.401 5.8849L14.2776 5.9336L14.1552 5.9834L14.0339 6.0342L13.9136 6.0861L13.7943 6.139L13.676 6.1931L13.5588 6.2482L13.4427 6.3043L13.3275 6.3616L13.2134 6.4199L13.1003 6.4792L12.9883 6.5397L12.8773 6.6012L12.7673 6.6637L12.6584 6.7274L12.5504 6.7921L12.4436 6.8579L12.3377 6.9247L12.2329 6.9926L12.1291 7.0616L12.0264 7.1317L11.9247 7.2028L11.824 7.275L11.7244 7.3482L11.6257 7.4225L11.5282 7.4979L11.4316 7.5744L11.3361 7.6519L11.2416 7.7305L11.1482 7.8102L11.0592 7.8849L10.9715 7.9601L10.8851 8.0357L10.7999 8.1118L10.716 8.1883L10.6333 8.2652L10.552 8.3427L10.4719 8.4205L10.3931 8.4989L10.3155 8.5777L10.2392 8.6569L10.1642 8.7366L10.0905 8.8167L10.018 8.8973L9.9468 8.9784L9.8768 9.0599L9.8082 9.1418L9.7408 9.2242L9.6746 9.3071L9.6098 9.3904L9.5462 9.4741L9.4839 9.5583L9.4228 9.643L9.363 9.7281L9.3045 9.8137L9.2473 9.8997L9.1913 9.9862L9.1366 10.0731L9.0831 10.1605L9.031 10.2483L8.9801 10.3366L8.9304 10.4253L8.8821 10.5145L8.835 10.6042L8.7892 10.6942L8.7446 10.7848L8.7013 10.8758L8.6593 10.9672L8.6186 11.0591L8.5791 11.1515L8.5409 11.2443L8.504 11.3376L8.4683 11.4313L8.4339 11.5254L8.4008 11.62L8.3689 11.7151L8.3383 11.8106L8.309 11.9066L8.281 12.003L8.2542 12.0999L8.2287 12.1972L8.2044 12.295L8.1815 12.3933L8.1598 12.4919L8.1393 12.5911L8.1202 12.6907L8.1023 12.7907L8.0857 12.8912L8.0703 12.9922L8.0562 13.0936L8.0434 13.1954L8.0318 13.2977L8.0216 13.4005"/>

</svg>
