<?xml version="1.0" standalone="no"?>
<!DOCTYPE svg PUBLIC "-//W3C//DTD SVG 20010904//EN" "http://www.w3.org/TR/2001/REC-SVG-20010904/DTD/svg10.dtd">

<svg xmlns="http://www.w3.org/2000/svg" 
    xmlns:xlink="http://www.w3.org/1999/xlink"
    width="242.928pt"
    height="244.368pt"
    viewBox="0 0 242.928 244.368">
<defs/>
<ellipse id="shape0"
    transform="translate(67.6080015285167, 67.6799951795144)"
    rx="53.8379987690032"
    ry="53.8044705942277"
    cx="53.8379987690032"
    cy="53.8044705942277"
    fill="none"
    stroke="#ffffff"
    stroke-width="3"
    stroke-linecap="square"
    stroke-linejoin="bevel"/>

<ellipse id="shape1"
    transform="translate(91.1790063392847, 91.223999792378)"
    rx="30.4471020272839"
    ry="30.3840049913297"
    cx="30.4471020272839"
    cy="30.3840049913297"
    fill="none"
    stroke="#ffffff"
    stroke-width="3"
    stroke-linecap="square"
    stroke-linejoin="bevel"/>

<path id="shape2"
    transform="translate(173.927782889554, 173.834516223147)"
    fill="none"
    stroke="#ffffff" 
    stroke-width="3"
    stroke-linecap="square"
    stroke-linejoin="bevel"
    d="M31.7222 17.5595C30.8629 13.7845 27.3763 10.768 24.6596 7.90426C21.8066 4.65406 19.2593 1.8723 15.6662 0.369482C9.84497 -0.861734 5.33063 1.10979 2.65896 4.41919C0.578558 6.85176 -0.384151 10.217 0.141221 14.2295C0.6326 17.571 3.7085 20.7284 6.62122 23.8145C9.83796 27.3182 12.9426 31.2907 16.5145 32.1012C20.958 33.2706 24.3004 32.2783 26.7202 30.7182C30.3668 28.3946 33.1541 24.3691 31.7222 17.5595Z"/>

<path id="shape3"
    transform="matrix(0.732009365178457 0.681294568663976 -0.681294568663976 0.732009365178457 121.736496041682 195.356614408745)"
    fill="none"
    stroke="#ffffff"
    stroke-width="3"
    stroke-linecap="square"
    stroke-linejoin="bevel"
    d="M31.7222 17.5595C30.8629 13.7845 27.3763 10.768 24.6596 7.90426C21.8066 4.65406 19.2593 1.8723 15.6662 0.369482C9.84497 -0.861734 5.33063 1.10979 2.65896 4.41919C0.578558 6.85176 -0.384151 10.217 0.141221 14.2295C0.6326 17.571 3.7085 20.7284 6.62122 23.8145C9.83796 27.3182 12.9426 31.2907 16.5145 32.1012C20.958 33.2706 24.3004 32.2783 26.7202 30.7182C30.3668 28.3946 33.1541 24.3691 31.7222 17.5595Z"/>

<path id="shape4"
    transform="matrix(0.732009365178457 0.681294568663976 -0.681294568663976 0.732009365178457 119.346564571087 2.75770287167447)"
    fill="none"
    stroke="#ffffff"
    stroke-width="3"
    stroke-linecap="square"
    stroke-linejoin="bevel"
    d="M31.7222 17.5595C30.8629 13.7845 27.3763 10.768 24.6596 7.90426C21.8066 4.65406 19.2593 1.8723 15.6662 0.369482C9.84497 -0.861734 5.33063 1.10979 2.65896 4.41919C0.578558 6.85176 -0.384151 10.217 0.141221 14.2295C0.6326 17.571 3.7085 20.7284 6.62122 23.8145C9.83796 27.3182 12.9426 31.2907 16.5145 32.1012C20.958 33.2706 24.3004 32.2783 26.7202 30.7182C30.3668 28.3946 33.1541 24.3691 31.7222 17.5595Z"/>

<path id="shape5"
    transform="matrix(-1 0 0 1 69.432846103031 174.151461406453)"
    fill="none"
    stroke="#ffffff"
    stroke-width="3"
    stroke-linecap="square"
    stroke-linejoin="bevel"
    d="M31.7222 17.5595C30.8629 13.7845 27.3763 10.768 24.6596 7.90426C21.8066 4.65406 19.2593 1.8723 15.6662 0.369482C9.84497 -0.861734 5.33063 1.10979 2.65896 4.41919C0.578558 6.85176 -0.384151 10.217 0.141221 14.2295C0.6326 17.571 3.7085 20.7284 6.62122 23.8145C9.83796 27.3182 12.9426 31.2907 16.5145 32.1012C20.958 33.2706 24.3004 32.2783 26.7202 30.7182C30.3668 28.3946 33.1541 24.3691 31.7222 17.5595Z"/>

<path id="shape6"
    transform="matrix(-1 0 0 1 203.280840190476 34.3274675829902)"
    fill="none"
    stroke="#ffffff"
    stroke-width="3"
    stroke-linecap="square"
    stroke-linejoin="bevel"
    d="M31.7222 17.5595C30.8629 13.7845 27.3763 10.768 24.6596 7.90426C21.8066 4.65406 19.2593 1.8723 15.6662 0.369482C9.84497 -0.861734 5.33063 1.10979 2.65896 4.41919C0.578558 6.85176 -0.384151 10.217 0.141221 14.2295C0.6326 17.571 3.7085 20.7284 6.62122 23.8145C9.83796 27.3182 12.9426 31.2907 16.5145 32.1012C20.958 33.2706 24.3004 32.2783 26.7202 30.7182C30.3668 28.3946 33.1541 24.3691 31.7222 17.5595Z"/>

<path id="shape7"
    transform="matrix(0.681220437147919 -0.732078353738176 0.732078353738176 0.681220437147919 195.472661907169 121.093245119446)"
    fill="none"
    stroke="#ffffff"
    stroke-width="3"
    stroke-linecap="square"
    stroke-linejoin="bevel"
    d="M31.7222 17.5595C30.8629 13.7845 27.3763 10.768 24.6596 7.90426C21.8066 4.65406 19.2593 1.8723 15.6662 0.369482C9.84497 -0.861734 5.33063 1.10979 2.65896 4.41919C0.578558 6.85176 -0.384151 10.217 0.141221 14.2295C0.6326 17.571 3.68127 20.7709 6.64485 23.8297C9.87279 27.3206 12.9426 31.2907 16.5145 32.1012C20.958 33.2706 24.3004 32.2783 26.7202 30.7182C30.3668 28.3946 33.1541 24.3691 31.7222 17.5595Z"/>

<path id="shape8"
    transform="matrix(0.681220437147919 -0.732078353738176 0.732078353738176 0.681220437147919 1.94638185970853 123.0973127621)"
    fill="none"
    stroke="#ffffff"
    stroke-width="3"
    stroke-linecap="square"
    stroke-linejoin="bevel"
    d="M31.7222 17.5595C30.8629 13.7845 27.3763 10.768 24.6596 7.90426C21.8066 4.65406 19.2593 1.8723 15.6662 0.369482C9.84497 -0.861734 5.33063 1.10979 2.65896 4.41919C0.578558 6.85176 -0.384151 10.217 0.141221 14.2295C0.6326 17.571 3.68127 20.7709 6.64485 23.8297C9.87279 27.3206 12.9426 31.2907 16.5145 32.1012C20.958 33.2706 24.3004 32.2783 26.7202 30.7182C30.3668 28.3946 33.1541 24.3691 31.7222 17.5595Z"/>

<path id="shape9"
    transform="translate(36.3586923354866, 37.3690720161531)"
    fill="none"
    stroke="#ffffff"
    stroke-width="3"
    stroke-linecap="square"
    stroke-linejoin="bevel"
    d="M31.7222 17.5595C30.8629 13.7845 27.3763 10.768 24.6596 7.90426C21.8066 4.65406 19.2593 1.8723 15.6662 0.369482C9.84497 -0.861734 5.33063 1.10979 2.65896 4.41919C0.578558 6.85176 -0.384151 10.217 0.141221 14.2295C0.6326 17.571 3.74859 20.7248 6.63623 23.7504C9.9216 27.1525 12.4202 30.6919 16.5302 32.1305C20.9738 33.2999 24.3004 32.2783 26.7202 30.7182C30.3668 28.3946 33.1541 24.3691 31.7222 17.5595Z"/>
</svg>
