<?xml version="1.0" standalone="no"?>
<!DOCTYPE svg PUBLIC "-//W3C//DTD SVG 20010904//EN" "http://www.w3.org/TR/2001/REC-SVG-20010904/DTD/svg10.dtd">

<svg xmlns="http://www.w3.org/2000/svg" 
    xmlns:xlink="http://www.w3.org/1999/xlink"
    width="111.168pt"
    height="102.24pt"
    viewBox="0 0 111.168 102.24">

<defs>
  <radialGradient id="gradient0" gradientUnits="objectBoundingBox" cx="0.690225850469398" cy="0.5" fx="0.387820901228636" fy="0.597341963616324" r="1.27336677388342" spreadMethod="pad">
   <stop stop-color="#003435" offset="0.328900009393692" stop-opacity="1"/>
   <stop stop-color="#afafaf" offset="0.4027" stop-opacity="1"/>
  </radialGradient>
 </defs>

<path id="shape01"
  transform="matrix(0.999999859152633 0 0 0.999999859152633 74.8267877447896 33.5635125096845)" 
  fill="#003435"
  fill-rule="evenodd"
  stroke="#000000"
  stroke-width="0.24"
  stroke-linecap="square"
  stroke-linejoin="bevel"
  d="M0 36.7162L0.00751342 0.465001L8.3925 0.483732L8.40447 5.50506L11.7975 1.7475C13.3934 0.4738 14.6036 0.193686 16.11 0L19.6725 0.00749244L21.1163 0.243742C27.2708 1.97485 29.3414 7.00583 29.973 12.9721L30.0038 36.7312L21.8325 36.72L21.5925 12.705C21.0111 10.3688 19.3019 8.83355 16.77 7.8825L12.9675 7.91249C9.45615 8.91266 9.29393 10.8212 8.40752 12.495L8.40375 36.705C8.40375 36.705 5.6025 36.7087 0 36.7162Z"/>

<path id="shape0"
  transform="matrix(0.99999995056548 0 0 0.99999995056548 34.8667982763764 33.6985029974539)"
  fill="#003435"
  fill-rule="evenodd"
  stroke="#0a0000"
  stroke-width="0.24"
  stroke-linecap="square"
  stroke-linejoin="bevel"
  d="M0.0355 14.6403L0 23.145L0.0454 23.6201L0.0982 24.0854L0.1583 24.5409L0.2257 24.9867L0.3003 25.423L0.382 25.8498L0.4708 26.2671L0.5666 26.6752L0.6693 27.074L0.779 27.4636L0.8954 27.8442L1.0187 28.2159L1.1486 28.5787L1.2852 28.9326L1.4284 29.2779L1.5781 29.6145L1.7342 29.9427L1.8968 30.2623L2.0656 30.5737L2.2408 30.8767L2.4221 31.1716L2.6097 31.4584L2.8032 31.7372L3.0029 32.0081L3.2084 32.2711L3.4199 32.5264L3.6372 32.7741L3.8603 33.0142L4.0892 33.2468L4.3236 33.472L4.5637 33.69L4.8093 33.9007L5.0603 34.1043L5.3168 34.3009L5.5786 34.4905L5.8457 34.6733L6.118 34.8493L6.3955 35.0186L6.6781 35.1813L6.9657 35.3375L7.2582 35.4873L7.5557 35.6307L7.8581 35.7679L8.1652 35.8989L8.4771 36.0239L8.7936 36.1429L9.1147 36.256L9.4404 36.3633L9.7705 36.4649L10.1051 36.5608L10.444 36.6512L10.7872 36.7362L11.1346 36.8158L11.4862 36.8901L11.842 36.9592L12.2017 37.0232L12.5655 37.0822L12.9331 37.1363L13.3047 37.1855L13.68 37.23L17.006 37.2005L17.3972 37.1675L17.7831 37.1288L18.1638 37.0842L18.5393 37.0338L18.9094 36.9773L19.2742 36.9149L19.6338 36.8464L19.988 36.7718L20.3369 36.691L20.6804 36.6039L21.0186 36.5106L21.3515 36.4109L21.6789 36.3047L22.001 36.1921L22.3177 36.0729L22.6289 35.9472L22.9347 35.8147L23.2351 35.6756L23.53 35.5297L23.8195 35.377L24.1035 35.2174L24.382 35.0508L24.655 34.8772L24.9225 34.6966L25.1845 34.5088L25.4409 34.3139L25.6918 34.1117L25.9372 33.9022L26.1769 33.6853L26.4111 33.4611L26.6397 33.2294L26.8626 32.9901L27.08 32.7432L27.2917 32.4887L27.4978 32.2265L27.6982 31.9565L27.893 31.6787L28.082 31.393L28.2654 31.0994L28.4431 30.7978L28.6151 30.4881L28.7813 30.1703L28.9418 29.8443L29.0965 29.5101L29.2455 29.1676L29.3887 28.8167L29.5261 28.4574L29.6577 28.0897L29.7835 27.7134L29.9034 27.3286L30.0176 26.9351L30.1258 26.5329L30.2283 26.1219L30.3248 25.7021L30.4154 25.2735L30.5002 24.8359L30.579 24.3893L30.652 23.9336L30.719 23.4689L30.78 22.995L30.72 14.535L30.6831 14.2328L30.6452 13.9303L30.6062 13.6277L30.5658 13.3252L30.5238 13.0228L30.4799 12.7206L30.4339 12.4189L30.3857 12.1176L30.3349 11.817L30.2814 11.5171L30.2248 11.2181L30.1651 10.9201L30.1019 10.6233L30.0351 10.3277L29.9643 10.0334L29.8895 9.7407L29.8102 9.4496L29.7264 9.1602L29.6378 8.8727L29.5442 8.5871L29.4453 8.3037L29.3409 8.0226L29.2307 7.7437L29.1147 7.4674L28.9924 7.1937L28.8637 6.9227L28.7285 6.6546L28.5863 6.3894L28.4371 6.1274L28.2805 5.8686L28.1165 5.6131L27.9446 5.3611L27.7647 5.1127L27.5766 4.8681L27.3801 4.6272L27.1749 4.3904L26.9608 4.1576L26.7375 3.9291L26.5048 3.7048L26.2626 3.4851L26.0106 3.2699L25.7485 3.0595L25.4761 2.8539L25.1932 2.6532L24.8996 2.4576L24.595 2.2673L24.2792 2.0822L23.952 1.9026L23.6132 1.7286L23.2625 1.5603L22.8997 1.3978L22.5245 1.2412L22.1369 1.0908L21.7364 0.9465L21.3229 0.8085L20.8962 0.677L20.456 0.552L20.0021 0.4338L19.5343 0.3223L19.0523 0.2178L18.556 0.1203L18.045 0.03L17.8044 0.0239L17.5637 0.0186L17.323 0.0141L17.0824 0.0102L16.8417 0.007L16.6011 0.0044L16.3604 0.0025L16.1198 0.0011L15.8791 0.0003L15.6385 0L15.3978 0.0002L15.1572 0.0008L14.9165 0.0019L14.6759 0.0034L14.4352 0.0053L14.1946 0.0075L13.9539 0.01L13.7133 0.0128L13.4726 0.0158L13.232 0.0191L12.9913 0.0226L12.7507 0.0262L12.51 0.03L12.1165 0.0866L11.7294 0.149L11.3485 0.2173L10.974 0.2914L10.6057 0.3715L10.2438 0.4574L9.8881 0.5491L9.5388 0.6468L9.1958 0.7503L8.859 0.8597L8.5286 0.975L8.2045 1.0961L7.8867 1.2231L7.5751 1.356L7.2699 1.4948L6.971 1.6394L6.6784 1.7899L6.3921 1.9463L6.1121 2.1085L5.8384 2.2766L5.571 2.4506L5.3099 2.6305L5.0552 2.8162L4.8067 3.0078L4.5645 3.2053L4.3286 3.4086L4.0991 3.6179L3.8758 3.833L3.6588 4.0539L3.4482 4.2808L3.2438 4.5135L3.0458 4.7521L2.854 4.9965L2.6686 5.2469L2.4894 5.5031L2.3166 5.7651L2.1501 6.0331L1.9898 6.3069L1.8359 6.5866L1.6883 6.8722L1.547 7.1636L1.412 7.4609L1.2833 7.7641L1.1609 8.0731L1.0448 8.3881L0.935 8.7089L0.8315 9.0355L0.7343 9.3681L0.6434 9.7065L0.5588 10.0508L0.4805 10.4009L0.4085 10.757L0.3429 11.1189L0.2835 11.4866L0.2304 11.8603L0.1837 12.2398L0.1432 12.6252L0.1091 13.0165L0.0812 13.4136L0.0597 13.8166L0.0444 14.2255L0.0355 14.6403M13.718 7.9475L13.2615 8.0542L12.8331 8.172L12.4318 8.3007L12.0566 8.4404L11.7065 8.5909L11.3805 8.7524L11.0777 8.9246L10.7971 9.1076L10.5376 9.3014L10.2983 9.5059L10.0781 9.7211L9.8762 9.9469L9.6914 10.1834L9.5229 10.4304L9.3695 10.6879L9.2304 10.9559L9.1046 11.2344L8.991 11.5233L8.8886 11.8226L8.7965 12.1322L8.7137 12.4522L8.6392 12.7824L8.5719 13.1229L8.511 13.4736L8.4554 13.8344L8.4041 14.2054L8.4041 23.1891L8.5239 23.7561L8.6506 24.279L8.7841 24.7599L8.9246 25.2011L9.0718 25.6048L9.2258 25.9731L9.3865 26.3084L9.5539 26.6128L9.728 26.8885L9.9086 27.1378L10.0958 27.3628L10.2896 27.5657L10.4899 27.7488L10.6966 27.9143L10.9097 28.0643L11.1292 28.2011L11.355 28.3269L11.5872 28.444L11.8255 28.5544L12.0702 28.6605L12.3209 28.7643L12.5779 28.8683L12.8409 28.9744L13.11 29.085L13.472 29.1592L13.81 29.2224L14.1257 29.2747L14.4211 29.3165L14.6982 29.3479L14.9586 29.3693L15.2045 29.3809L15.4376 29.3829L15.6598 29.3757L15.8731 29.3593L16.0792 29.3342L16.2802 29.3005L16.4779 29.2585L16.6742 29.2084L16.8709 29.1505L17.07 29.085L17.4816 29.0189L17.8717 28.929L18.2408 28.8167L18.5896 28.6831L18.9186 28.5295L19.2284 28.3571L19.5196 28.1671L19.7928 27.9608L20.0486 27.7395L20.2875 27.5042L20.5103 27.2564L20.7174 26.9971L20.9094 26.7277L21.087 26.4493L21.2507 26.1633L21.4012 25.8707L21.5389 25.5729L21.6645 25.2711L21.7787 24.9666L21.8819 24.6604L21.9748 24.354L22.0579 24.0484L22.132 23.745L22.1974 23.445L22.2549 23.1496L22.305 22.86L22.2936 22.6215L22.2839 22.3827L22.2758 22.1437L22.269 21.9045L22.2636 21.6652L22.2595 21.4258L22.2566 21.1863L22.2547 20.9466L22.2538 20.7069L22.2539 20.467L22.2547 20.2272L22.2563 19.9873L22.2584 19.7474L22.2612 19.5075L22.2644 19.2676L22.2679 19.0278L22.2717 18.788L22.2757 18.5482L22.2798 18.3086L22.2839 18.0691L22.2878 17.8297L22.2916 17.5904L22.2952 17.3513L22.2983 17.1123L22.301 16.8736L22.3032 16.6351L22.3047 16.3968L22.3055 16.1587L22.3055 15.9209L22.3046 15.6834L22.3027 15.4461L22.2997 15.2092L22.2955 14.9726L22.29 14.7364L22.2832 14.5005L22.275 14.265L22.2246 13.9245L22.1688 13.5893L22.107 13.2597L22.0383 12.936L21.9617 12.6184L21.8766 12.3073L21.7819 12.0029L21.677 11.7055L21.5609 11.4154L21.4328 11.1329L21.292 10.8582L21.1374 10.5917L20.9684 10.3336L20.784 10.0842L20.5835 9.8438L20.3659 9.6127L20.1305 9.3912L19.8764 9.1795L19.6028 8.978L19.3087 8.7869L18.9935 8.6065L18.6563 8.4371L18.2961 8.2789L17.9123 8.1323L17.5038 7.9976L17.07 7.875L16.8105 7.8137L16.5513 7.7635L16.2924 7.7244L16.0337 7.6966L15.7754 7.6798L15.5172 7.6742L15.2594 7.6798L15.0018 7.6965L14.7445 7.7244L14.4875 7.7635L14.2307 7.8136L13.9742 7.875L13.718 7.9475"/>

<path id="shape011"
  transform="matrix(0.99999973038651 0 0 0.99999973038651 6.61322656218181 3.04208206691815)"
  fill="url(#gradient0)"
  fill-rule="evenodd"
  stroke="#afafaf"
  stroke-width="0.48"
  stroke-linecap="square"
  stroke-linejoin="bevel"
  d="M80.5902 71.0503C82.7411 69.5934 87.0359 72.157 85.8299 74.1262C83.8643 77.2206 80.4362 81.7654 75.5035 85.9713C70.036 90.6593 62.194 95.2665 47.1535 96.1263C37.2273 96.4979 29.2514 93.32 22.466 89.2512C14.0799 83.7854 7.30199 75.2917 3.54385 65.8065C0.637126 59.3355 -0.106853 52.4026 0.0118579 44.5868C0.98415 36.8731 2.09926 30.8871 4.60451 26.2651C8.93697 17.5234 14.7547 11.8833 20.8135 7.64131C29.4156 1.61871 38.3948 -0.128769 49.0674 0.00725912C60.7636 1.41764 63.7485 2.42862 70.4336 6.65131C76.3012 10.1525 83.9783 17.228 84.6207 20.3507C84.0724 23.1917 84.1839 22.988 83.3903 23.7449C81.1196 25.8284 79.006 24.8003 78.3628 24.8055C74.4513 20.8013 69.0014 17.6203 62.0036 15.6513C51.42 13.4049 47.1191 15.1244 41.1171 17.0175C32.562 21.2384 22.0251 27.9957 18.8935 43.5796C17.9859 51.1666 19.1576 58.362 21.5936 63.0813C23.7527 67.8193 26.1203 70.9141 28.9735 73.6413C35.9876 79.9456 44.1085 83.5423 52.3136 83.4329C62.2405 84.2846 76.7015 76.4934 80.5902 71.0503Z"/>
</svg>
